<?xml version="1.0" encoding="utf-8"?>
<!-- Generator: Adobe Illustrator 27.7.0, SVG Export Plug-In . SVG Version: 6.00 Build 0)  -->
<svg version="1.1" id="Layer_1" xmlns="http://www.w3.org/2000/svg" xmlns:xlink="http://www.w3.org/1999/xlink" x="0px" y="0px"
	 viewBox="0 0 305 90" style="enable-background:new 0 0 305 90;" xml:space="preserve">
<style type="text/css">
	.st0{clip-path:url(#SVGID_00000069368934896503324430000013707854446871825855_);}
	.st1{fill:none;stroke:#FFFFFF;}
</style>
<g>
	<defs>
		<rect id="SVGID_1_" x="0.3" width="304.4" height="90"/>
	</defs>
	<clipPath id="SVGID_00000066507291388700889170000006931349144075012763_">
		<use xlink:href="#SVGID_1_"  style="overflow:visible;"/>
	</clipPath>
	<g style="clip-path:url(#SVGID_00000066507291388700889170000006931349144075012763_);">
		<path class="st1" d="M65,42.7l18.7-18.5c8.6,16.6,5.8,37.5-8.2,51.3c-17.3,17-45,16.9-62.1-0.4c-17-17.2-16.9-45,0.4-62l0,0
			c14-13.8,34.9-16.3,51.4-7.5L46.6,24.1l-0.1,0.1l0,0.2l-2.9,20.5l-0.1,0.6l0.6-0.1l20-2.5v0.7L65,42.7z"/>
		<path class="st1" d="M169.1,58.1l0.1,0.1l0.2,0l26.3,0.2C190,76.1,173.3,89,153.6,88.9h0C129.3,88.7,109.9,69,110,44.8
			c0.1-24.2,19.9-43.7,44.1-43.6c19.7,0.1,36.3,13.2,41.7,31L169.6,32l-0.2,0l-0.1,0.1l-16.5,12.5l-0.5,0.4l0.5,0.4L169.1,58.1z"/>
		<path class="st1" d="M244.9,32.5l0.1,0.1l16.4,12.7l0.5,0.4l-0.5,0.4l-16.6,12.4l-0.1,0.1l-0.2,0l-26.3-0.2
			c5.5,17.9,22,30.9,41.7,31.1c24.2,0.2,44-19.3,44.2-43.6c0.2-24.2-19.4-44-43.6-44.2 M244.9,32.5l-0.2,0 M244.9,32.5l-0.2,0
			 M244.8,32.5l-26.3-0.2 M244.8,32.5l-26.3-0.2 M218.5,32.3c5.7-17.8,22.4-30.6,42.1-30.5"/>
	</g>
</g>
</svg>
