<?xml version="1.0" encoding="utf-8"?>
<!-- Generator: Adobe Illustrator 27.7.0, SVG Export Plug-In . SVG Version: 6.00 Build 0)  -->
<svg version="1.1" id="Layer_2_00000157997880266354879900000002784540984237049262_"
	 xmlns="http://www.w3.org/2000/svg" xmlns:xlink="http://www.w3.org/1999/xlink" x="0px" y="0px" viewBox="0 0 1313.9 26"
	 style="enable-background:new 0 0 1313.9 26;" xml:space="preserve">
<style type="text/css">
	.st0{fill:#555555;}
	.st1{fill:#E35123;}
</style>
<g id="_레이어_1">
	<g>
		<g>
			<path class="st0" d="M17.1,1.1l11,0.1L28,24.9h-6.2l0.1-20.3l0.1,0l-3.8,20.2H9.9L6.2,4.5l0.1-0.1L6.2,24.8H0L0.2,1l11,0.1
				l3.2,21.3h-0.7L17.1,1.1z"/>
			<path class="st0" d="M34.5,18.2v-3.9l10.1,0.1l-0.5,0.8c0-0.1,0-0.2,0-0.3s0-0.2,0-0.3c0-0.4-0.1-0.8-0.3-1.1s-0.5-0.7-1-1
				s-1.1-0.4-1.9-0.4c-0.8,0-1.4,0.1-1.9,0.5c-0.5,0.3-0.9,0.8-1.2,1.4s-0.4,1.4-0.4,2.3c0,1,0.1,1.8,0.4,2.4s0.6,1.2,1.2,1.5
				c0.5,0.4,1.2,0.5,2.1,0.5c0.5,0,1,0,1.3-0.1c0.4-0.1,0.7-0.2,0.9-0.3s0.4-0.2,0.5-0.4s0.2-0.3,0.2-0.4h6.4
				c-0.1,0.8-0.4,1.5-0.8,2.2c-0.5,0.7-1.1,1.3-1.9,1.9c-0.8,0.5-1.8,1-3,1.3s-2.5,0.5-3.9,0.5c-2,0-3.8-0.4-5.2-1.2
				S33,22.4,32.2,21c-0.8-1.4-1.2-2.9-1.2-4.7s0.4-3.4,1.3-4.7c0.8-1.3,2-2.4,3.5-3.1S39,7.4,41,7.4s3.8,0.4,5.2,1.2
				s2.6,1.9,3.4,3.2s1.2,3.1,1.2,5c0,0.3,0,0.6,0,0.8s0,0.4,0,0.5L34.5,18.2L34.5,18.2z"/>
			<path class="st0" d="M62.3,25.6c-2,0-3.8-0.4-5.3-1.2c-1.5-0.8-2.6-1.9-3.4-3.2s-1.2-2.9-1.2-4.7s0.4-3.3,1.2-4.6
				s1.9-2.4,3.4-3.1c1.5-0.7,3.2-1.1,5.3-1.1c1.5,0,2.9,0.2,4,0.7c1.2,0.4,2.1,1,2.9,1.7s1.3,1.5,1.7,2.3c0.4,0.8,0.6,1.7,0.6,2.5
				V15l0,0h-6.4c0-0.1,0-0.1,0-0.2c0-0.1,0-0.1,0-0.2c-0.1-0.3-0.2-0.6-0.4-0.9s-0.5-0.6-0.8-0.8c-0.4-0.2-0.9-0.3-1.6-0.3
				c-0.7,0-1.2,0.1-1.7,0.4c-0.5,0.3-0.8,0.7-1.1,1.3s-0.4,1.3-0.4,2.1s0.1,1.5,0.4,2.1c0.2,0.6,0.6,1.1,1.1,1.4s1,0.5,1.7,0.5
				s1.2-0.1,1.6-0.3c0.4-0.2,0.7-0.5,0.9-0.8s0.3-0.7,0.4-1.1h6.4c0,0.8-0.2,1.6-0.6,2.5s-1,1.6-1.8,2.3c-0.8,0.7-1.7,1.3-2.9,1.7
				C65.2,25.4,63.9,25.6,62.3,25.6L62.3,25.6z"/>
			<path class="st0" d="M86.2,25.3v-5.9c0-0.2,0-0.4,0-0.8s0-0.7,0-1.1s0-0.6,0-0.8c0-1.1-0.2-1.9-0.5-2.6s-1-1-2.1-1
				c-0.7,0-1.2,0.1-1.7,0.4c-0.4,0.3-0.7,0.7-0.9,1.2c-0.2,0.5-0.3,1.2-0.3,1.9l-1.2-1.3c0-1.6,0.3-2.9,0.9-4.1
				c0.6-1.1,1.4-2,2.5-2.6s2.3-0.9,3.8-0.9c2.1,0,3.7,0.6,4.6,1.9s1.4,2.9,1.4,5.2c0,0.6,0,1.2,0,2s0,1.8,0,3v5.5H86.2L86.2,25.3z
				 M74.3,25.2L74.5,0H81l-0.2,25.2H74.3z"/>
			<path class="st0" d="M101.9,25.8c-1.2,0-2.3-0.2-3.3-0.6s-1.7-1-2.3-1.7c-0.6-0.8-0.8-1.7-0.8-2.7c0-1.3,0.4-2.3,1.1-3.1
				s1.7-1.4,2.8-1.7c1.1-0.4,2.3-0.6,3.5-0.7c1.7-0.1,2.9-0.3,3.5-0.4s0.9-0.3,0.9-0.6l0,0c0-0.4-0.2-0.7-0.7-1s-1.1-0.4-1.9-0.4
				c-0.9,0-1.5,0.1-1.9,0.5c-0.4,0.3-0.6,0.8-0.6,1.4h-6.4c0-1.4,0.4-2.6,1.2-3.6s1.9-1.7,3.3-2.2s2.9-0.7,4.6-0.7
				c1.6,0,3.1,0.3,4.4,0.7c1.4,0.5,2.5,1.2,3.3,2.2s1.3,2.2,1.3,3.7c0,0.2,0,0.4,0,0.7c0,0.2,0,0.4,0,0.7v5.3c0,0.5,0,0.9,0,1.4
				s0.1,0.9,0.2,1.2c0.1,0.4,0.3,0.7,0.5,1s0.3,0.5,0.5,0.6h-6.4c-0.1-0.1-0.2-0.3-0.4-0.5c-0.2-0.3-0.3-0.6-0.4-0.9
				c-0.2-0.5-0.3-0.9-0.3-1.4s-0.1-1-0.1-1.6l1.4,1c-0.3,0.8-0.8,1.5-1.5,2s-1.5,1-2.4,1.3S102.9,25.8,101.9,25.8L101.9,25.8z
				 M103.8,21.2c0.6,0,1.1-0.1,1.7-0.4c0.5-0.2,1-0.6,1.4-1.2s0.6-1.4,0.6-2.3v-0.6l1.7,1.4c-0.7,0.2-1.5,0.4-2.4,0.6
				s-1.7,0.3-2.5,0.4c-0.7,0.1-1.3,0.2-1.7,0.4s-0.5,0.4-0.5,0.8s0.2,0.6,0.5,0.8S103.3,21.2,103.8,21.2L103.8,21.2z"/>
			<path class="st0" d="M137.6,25.6v-6.7c0-0.3,0-0.7,0-1s0-0.6,0-0.9c0-0.6,0-1.2-0.1-1.7s-0.3-1-0.7-1.3c-0.4-0.4-0.9-0.5-1.7-0.5
				c-0.7,0-1.2,0.1-1.6,0.4s-0.7,0.7-0.9,1.2s-0.3,1.2-0.3,1.9l-1.2-1.3c0-1.6,0.3-2.9,1-4.1s1.5-2,2.6-2.6s2.3-0.9,3.7-0.9
				c1.5,0,2.6,0.3,3.5,0.9s1.5,1.4,1.9,2.5s0.6,2.3,0.6,3.6c0,0.6,0,1.3,0,2s0,1.6,0,2.4v6.1L137.6,25.6L137.6,25.6z M125.7,25.5
				l0.1-17.1h6.5l-0.1,17.1H125.7z"/>
			<path class="st0" d="M147.1,25.7l0.1-17.1h6.4l-0.1,17.1C153.6,25.7,147.1,25.7,147.1,25.7z M150.5,6.5c-1,0-1.8-0.3-2.5-0.8
				s-1.1-1.2-1.1-2.1s0.4-1.6,1.1-2.1s1.6-0.7,2.5-0.7s1.8,0.3,2.5,0.8s1.1,1.2,1.1,2.1s-0.4,1.6-1.1,2.1S151.4,6.5,150.5,6.5z"/>
			<path class="st0" d="M156.7,25.7l0.2-25.2h6.2L163,14.3l-1.1-0.6l5.4-5l7.9,0.1l-8.7,7.8l1.3-2.2l7,11.6H168l-4.5-8.2h1.7
				l-2.9,2.6l0.6-2.7l-0.1,8.3L156.7,25.7L156.7,25.7z"/>
		</g>
		<circle class="st1" cx="119.9" cy="22.8" r="2.6"/>
		<g>
			<path class="st1" d="M188.1,17.3l-2.9,0.4l0.4-2.9l0,0l2.7-2.7c-2.4-1.3-5.4-1-7.4,1c-2.5,2.4-2.5,6.4-0.1,8.8s6.4,2.5,8.8,0
				c2-2,2.4-5,1.1-7.4L188.1,17.3L188.1,17.3z"/>
			<path class="st1" d="M202.9,19.5l-2.3-1.8l2.3-1.8l0,0h3.8c-0.8-2.6-3.1-4.5-6-4.5c-3.4,0-6.3,2.8-6.3,6.2c0,3.5,2.8,6.3,6.2,6.3
				c2.8,0,5.2-1.9,6-4.4L202.9,19.5L202.9,19.5z"/>
			<path class="st1" d="M213.5,16l2.3,1.8l-2.3,1.8l0,0h-3.8c0.8,2.6,3.1,4.5,6,4.5c3.4,0,6.3-2.8,6.3-6.2s-2.8-6.3-6.2-6.3
				c-2.8,0-5.2,1.9-6,4.4L213.5,16L213.5,16z"/>
		</g>
	</g>
</g>
<g id="_레이어_1_00000183964168570372747460000008328588751701559699_">
	<g>
		<g>
			<path class="st0" d="M279.9,1.1l11,0.1l-0.1,23.7h-6.2l0.1-20.3l0.1,0L281,24.8h-8.3L269,4.5l0.1-0.1L269,24.8h-6.2L263,1l11,0.1
				l3.2,21.3h-0.7L279.9,1.1z"/>
			<path class="st0" d="M297.3,18.2v-3.9l10.1,0.1l-0.5,0.8c0-0.1,0-0.2,0-0.3s0-0.2,0-0.3c0-0.4-0.1-0.8-0.3-1.1s-0.5-0.7-1-1
				s-1.1-0.4-1.9-0.4c-0.8,0-1.4,0.1-1.9,0.5c-0.5,0.3-0.9,0.8-1.2,1.4s-0.4,1.4-0.4,2.3c0,1,0.1,1.8,0.4,2.4
				c0.3,0.6,0.6,1.2,1.2,1.5c0.5,0.4,1.2,0.5,2.1,0.5c0.5,0,1,0,1.3-0.1c0.4-0.1,0.7-0.2,0.9-0.3s0.4-0.2,0.5-0.4s0.2-0.3,0.2-0.4
				h6.4c-0.1,0.8-0.4,1.5-0.8,2.2c-0.5,0.7-1.1,1.3-1.9,1.9c-0.8,0.5-1.8,1-3,1.3c-1.2,0.3-2.5,0.5-3.9,0.5c-2,0-3.8-0.4-5.2-1.2
				c-1.4-0.8-2.6-1.8-3.4-3.2c-0.8-1.4-1.2-2.9-1.2-4.7s0.4-3.4,1.3-4.7c0.8-1.3,2-2.4,3.5-3.1s3.2-1.1,5.2-1.1s3.8,0.4,5.2,1.2
				s2.6,1.9,3.4,3.2c0.8,1.3,1.2,3.1,1.2,5c0,0.3,0,0.6,0,0.8s0,0.4,0,0.5L297.3,18.2L297.3,18.2z"/>
			<path class="st0" d="M325.1,25.6c-2,0-3.8-0.4-5.3-1.2c-1.5-0.8-2.6-1.9-3.4-3.2c-0.8-1.3-1.2-2.9-1.2-4.7s0.4-3.3,1.2-4.6
				c0.8-1.3,1.9-2.4,3.4-3.1c1.5-0.7,3.2-1.1,5.3-1.1c1.5,0,2.9,0.2,4,0.7c1.2,0.4,2.1,1,2.9,1.7c0.8,0.7,1.3,1.5,1.7,2.3
				s0.6,1.7,0.6,2.5V15l0,0h-6.4c0-0.1,0-0.1,0-0.2c0-0.1,0-0.1,0-0.2c-0.1-0.3-0.2-0.6-0.4-0.9s-0.5-0.6-0.8-0.8
				c-0.4-0.2-0.9-0.3-1.6-0.3s-1.2,0.1-1.7,0.4c-0.5,0.3-0.8,0.7-1.1,1.3c-0.3,0.6-0.4,1.3-0.4,2.1s0.1,1.5,0.4,2.1
				c0.2,0.6,0.6,1.1,1.1,1.4s1,0.5,1.7,0.5s1.2-0.1,1.6-0.3c0.4-0.2,0.7-0.5,0.9-0.8c0.2-0.3,0.3-0.7,0.4-1.1h6.4
				c0,0.8-0.2,1.6-0.6,2.5c-0.4,0.9-1,1.6-1.8,2.3c-0.8,0.7-1.7,1.3-2.9,1.7C328,25.4,326.7,25.6,325.1,25.6L325.1,25.6z"/>
			<path class="st0" d="M349,25.3v-5.9c0-0.2,0-0.4,0-0.8s0-0.7,0-1.1s0-0.6,0-0.8c0-1.1-0.2-1.9-0.5-2.6c-0.3-0.7-1-1-2.1-1
				c-0.7,0-1.2,0.1-1.7,0.4c-0.4,0.3-0.7,0.7-0.9,1.2c-0.2,0.5-0.3,1.2-0.3,1.9l-1.2-1.3c0-1.6,0.3-2.9,0.9-4.1
				c0.6-1.1,1.4-2,2.5-2.6s2.3-0.9,3.8-0.9c2.1,0,3.7,0.6,4.6,1.9s1.4,2.9,1.4,5.2c0,0.6,0,1.2,0,2s0,1.8,0,3v5.5H349L349,25.3z
				 M337.1,25.2L337.3,0h6.5l-0.2,25.2H337.1z"/>
			<path class="st0" d="M364.7,25.8c-1.2,0-2.3-0.2-3.3-0.6s-1.7-1-2.3-1.7c-0.6-0.8-0.8-1.7-0.8-2.7c0-1.3,0.4-2.3,1.1-3.1
				c0.7-0.8,1.7-1.4,2.8-1.7c1.1-0.4,2.3-0.6,3.5-0.7c1.7-0.1,2.9-0.3,3.5-0.4c0.6-0.1,0.9-0.3,0.9-0.6l0,0c0-0.4-0.2-0.7-0.7-1
				s-1.1-0.4-1.9-0.4c-0.9,0-1.5,0.1-1.9,0.5c-0.4,0.3-0.6,0.8-0.6,1.4h-6.4c0-1.4,0.4-2.6,1.2-3.6c0.8-1,1.9-1.7,3.3-2.2
				s2.9-0.7,4.6-0.7c1.6,0,3.1,0.3,4.4,0.7c1.4,0.5,2.5,1.2,3.3,2.2c0.8,1,1.3,2.2,1.3,3.7c0,0.2,0,0.4,0,0.7c0,0.2,0,0.4,0,0.7v5.3
				c0,0.5,0,0.9,0,1.4s0.1,0.9,0.2,1.2c0.1,0.4,0.3,0.7,0.5,1c0.2,0.3,0.3,0.5,0.5,0.6h-6.4c-0.1-0.1-0.2-0.3-0.4-0.5
				c-0.2-0.3-0.3-0.6-0.4-0.9c-0.2-0.5-0.3-0.9-0.3-1.4s-0.1-1-0.1-1.6l1.4,1c-0.3,0.8-0.8,1.5-1.5,2c-0.7,0.5-1.5,1-2.4,1.3
				C366.9,26,365.7,25.8,364.7,25.8L364.7,25.8z M366.6,21.2c0.6,0,1.1-0.1,1.7-0.4c0.5-0.2,1-0.6,1.4-1.2s0.6-1.4,0.6-2.3v-0.6
				l1.7,1.4c-0.7,0.2-1.5,0.4-2.4,0.6s-1.7,0.3-2.5,0.4c-0.7,0.1-1.3,0.2-1.7,0.4s-0.5,0.4-0.5,0.8s0.2,0.6,0.5,0.8
				C365.7,21.3,366.1,21.2,366.6,21.2L366.6,21.2z"/>
			<path class="st0" d="M400.4,25.6v-6.7c0-0.3,0-0.7,0-1s0-0.6,0-0.9c0-0.6,0-1.2-0.1-1.7s-0.3-1-0.7-1.3c-0.4-0.4-0.9-0.5-1.7-0.5
				c-0.7,0-1.2,0.1-1.6,0.4c-0.4,0.3-0.7,0.7-0.9,1.2c-0.2,0.5-0.3,1.2-0.3,1.9l-1.2-1.3c0-1.6,0.3-2.9,1-4.1c0.7-1.2,1.5-2,2.6-2.6
				s2.3-0.9,3.7-0.9c1.5,0,2.6,0.3,3.5,0.9s1.5,1.4,1.9,2.5s0.6,2.3,0.6,3.6c0,0.6,0,1.3,0,2s0,1.6,0,2.4v6.1L400.4,25.6L400.4,25.6
				z M388.5,25.5l0.1-17.1h6.5L395,25.5H388.5z"/>
			<path class="st0" d="M409.9,25.7L410,8.6h6.4l-0.1,17.1C416.4,25.7,409.9,25.7,409.9,25.7z M413.3,6.5c-1,0-1.8-0.3-2.5-0.8
				c-0.7-0.5-1.1-1.2-1.1-2.1s0.4-1.6,1.1-2.1s1.6-0.7,2.5-0.7s1.8,0.3,2.5,0.8c0.7,0.5,1.1,1.2,1.1,2.1s-0.4,1.6-1.1,2.1
				S414.2,6.5,413.3,6.5z"/>
			<path class="st0" d="M419.5,25.7l0.2-25.2h6.2l-0.1,13.8l-1.1-0.6l5.4-5l7.9,0.1l-8.7,7.8l1.3-2.2l7,11.6h-6.8l-4.5-8.2h1.7
				l-2.9,2.6l0.6-2.7l-0.1,8.3L419.5,25.7L419.5,25.7z"/>
		</g>
		<circle class="st1" cx="382.7" cy="22.8" r="2.6"/>
		<g>
			<path class="st1" d="M450.9,17.3l-2.9,0.4l0.4-2.9l0,0l2.7-2.7c-2.4-1.3-5.4-1-7.4,1c-2.5,2.4-2.5,6.4-0.1,8.8s6.4,2.5,8.8,0
				c2-2,2.4-5,1.1-7.4L450.9,17.3L450.9,17.3z"/>
			<path class="st1" d="M465.7,19.5l-2.3-1.8l2.3-1.8l0,0h3.8c-0.8-2.6-3.1-4.5-6-4.5c-3.4,0-6.3,2.8-6.3,6.2c0,3.5,2.8,6.3,6.2,6.3
				c2.8,0,5.2-1.9,6-4.4L465.7,19.5L465.7,19.5z"/>
			<path class="st1" d="M476.3,16l2.3,1.8l-2.3,1.8l0,0h-3.8c0.8,2.6,3.1,4.5,6,4.5c3.4,0,6.3-2.8,6.3-6.2s-2.8-6.3-6.2-6.3
				c-2.8,0-5.2,1.9-6,4.4L476.3,16L476.3,16z"/>
		</g>
	</g>
</g>
<g id="_레이어_1_00000061430204894444025950000016911293197459072137_">
	<g>
		<g>
			<path class="st0" d="M542.6,1.1l11,0.1l-0.1,23.7h-6.2l0.1-20.3l0.1,0l-3.8,20.2h-8.3l-3.7-20.3l0.1-0.1l-0.1,20.4h-6.2L525.7,1
				l11,0.1l3.2,21.3h-0.7L542.6,1.1z"/>
			<path class="st0" d="M560,18.2v-3.9l10.1,0.1l-0.5,0.8c0-0.1,0-0.2,0-0.3s0-0.2,0-0.3c0-0.4-0.1-0.8-0.3-1.1s-0.5-0.7-1-1
				s-1.1-0.4-1.9-0.4s-1.4,0.1-1.9,0.5c-0.5,0.3-0.9,0.8-1.2,1.4s-0.4,1.4-0.4,2.3c0,1,0.1,1.8,0.4,2.4s0.6,1.2,1.2,1.5
				c0.5,0.4,1.2,0.5,2.1,0.5c0.5,0,1,0,1.3-0.1c0.4-0.1,0.7-0.2,0.9-0.3s0.4-0.2,0.5-0.4c0.1-0.2,0.2-0.3,0.2-0.4h6.4
				c-0.1,0.8-0.4,1.5-0.8,2.2c-0.5,0.7-1.1,1.3-1.9,1.9c-0.8,0.5-1.8,1-3,1.3c-1.2,0.3-2.5,0.5-3.9,0.5c-2,0-3.8-0.4-5.2-1.2
				s-2.6-1.8-3.4-3.2c-0.8-1.4-1.2-2.9-1.2-4.7s0.4-3.4,1.3-4.7c0.8-1.3,2-2.4,3.5-3.1s3.2-1.1,5.2-1.1s3.8,0.4,5.2,1.2
				c1.4,0.8,2.6,1.9,3.4,3.2s1.2,3.1,1.2,5c0,0.3,0,0.6,0,0.8s0,0.4,0,0.5L560,18.2L560,18.2z"/>
			<path class="st0" d="M587.8,25.6c-2,0-3.8-0.4-5.3-1.2c-1.5-0.8-2.6-1.9-3.4-3.2s-1.2-2.9-1.2-4.7s0.4-3.3,1.2-4.6
				s1.9-2.4,3.4-3.1c1.5-0.7,3.2-1.1,5.3-1.1c1.5,0,2.9,0.2,4,0.7c1.2,0.4,2.1,1,2.9,1.7c0.8,0.7,1.3,1.5,1.7,2.3
				c0.4,0.8,0.6,1.7,0.6,2.5V15l0,0h-6.4c0-0.1,0-0.1,0-0.2c0-0.1,0-0.1,0-0.2c-0.1-0.3-0.2-0.6-0.4-0.9c-0.2-0.3-0.5-0.6-0.8-0.8
				c-0.4-0.2-0.9-0.3-1.6-0.3s-1.2,0.1-1.7,0.4c-0.5,0.3-0.8,0.7-1.1,1.3c-0.3,0.6-0.4,1.3-0.4,2.1s0.1,1.5,0.4,2.1
				c0.2,0.6,0.6,1.1,1.1,1.4s1,0.5,1.7,0.5s1.2-0.1,1.6-0.3c0.4-0.2,0.7-0.5,0.9-0.8s0.3-0.7,0.4-1.1h6.4c0,0.8-0.2,1.6-0.6,2.5
				c-0.4,0.9-1,1.6-1.8,2.3c-0.8,0.7-1.7,1.3-2.9,1.7C590.7,25.4,589.4,25.6,587.8,25.6L587.8,25.6z"/>
			<path class="st0" d="M611.7,25.3v-5.9c0-0.2,0-0.4,0-0.8s0-0.7,0-1.1s0-0.6,0-0.8c0-1.1-0.2-1.9-0.5-2.6c-0.3-0.7-1-1-2.1-1
				c-0.7,0-1.2,0.1-1.7,0.4c-0.4,0.3-0.7,0.7-0.9,1.2s-0.3,1.2-0.3,1.9l-1.2-1.3c0-1.6,0.3-2.9,0.9-4.1c0.6-1.1,1.4-2,2.5-2.6
				c1.1-0.6,2.3-0.9,3.8-0.9c2.1,0,3.7,0.6,4.6,1.9s1.4,2.9,1.4,5.2c0,0.6,0,1.2,0,2s0,1.8,0,3v5.5H611.7L611.7,25.3z M599.8,25.2
				L600,0h6.5l-0.2,25.2H599.8z"/>
			<path class="st0" d="M627.4,25.8c-1.2,0-2.3-0.2-3.3-0.6s-1.7-1-2.3-1.7c-0.6-0.8-0.8-1.7-0.8-2.7c0-1.3,0.4-2.3,1.1-3.1
				s1.7-1.4,2.8-1.7c1.1-0.4,2.3-0.6,3.5-0.7c1.7-0.1,2.9-0.3,3.5-0.4c0.6-0.1,0.9-0.3,0.9-0.6l0,0c0-0.4-0.2-0.7-0.7-1
				s-1.1-0.4-1.9-0.4c-0.9,0-1.5,0.1-1.9,0.5c-0.4,0.3-0.6,0.8-0.6,1.4h-6.4c0-1.4,0.4-2.6,1.2-3.6c0.8-1,1.9-1.7,3.3-2.2
				c1.4-0.5,2.9-0.7,4.6-0.7c1.6,0,3.1,0.3,4.4,0.7c1.4,0.5,2.5,1.2,3.3,2.2s1.3,2.2,1.3,3.7c0,0.2,0,0.4,0,0.7c0,0.2,0,0.4,0,0.7
				v5.3c0,0.5,0,0.9,0,1.4s0.1,0.9,0.2,1.2c0.1,0.4,0.3,0.7,0.5,1s0.3,0.5,0.5,0.6h-6.4c-0.1-0.1-0.2-0.3-0.4-0.5
				c-0.2-0.3-0.3-0.6-0.4-0.9c-0.2-0.5-0.3-0.9-0.3-1.4s-0.1-1-0.1-1.6l1.4,1c-0.3,0.8-0.8,1.5-1.5,2s-1.5,1-2.4,1.3
				C629.6,26,628.4,25.8,627.4,25.8L627.4,25.8z M629.3,21.2c0.6,0,1.1-0.1,1.7-0.4c0.5-0.2,1-0.6,1.4-1.2c0.4-0.6,0.6-1.4,0.6-2.3
				v-0.6l1.7,1.4c-0.7,0.2-1.5,0.4-2.4,0.6c-0.9,0.2-1.7,0.3-2.5,0.4c-0.7,0.1-1.3,0.2-1.7,0.4c-0.4,0.2-0.5,0.4-0.5,0.8
				s0.2,0.6,0.5,0.8S628.8,21.2,629.3,21.2L629.3,21.2z"/>
			<path class="st0" d="M663.1,25.6v-6.7c0-0.3,0-0.7,0-1s0-0.6,0-0.9c0-0.6,0-1.2-0.1-1.7c-0.1-0.5-0.3-1-0.7-1.3
				c-0.4-0.4-0.9-0.5-1.7-0.5c-0.7,0-1.2,0.1-1.6,0.4c-0.4,0.3-0.7,0.7-0.9,1.2s-0.3,1.2-0.3,1.9l-1.2-1.3c0-1.6,0.3-2.9,1-4.1
				s1.5-2,2.6-2.6c1.1-0.6,2.3-0.9,3.7-0.9c1.5,0,2.6,0.3,3.5,0.9c0.9,0.6,1.5,1.4,1.9,2.5c0.4,1.1,0.6,2.3,0.6,3.6c0,0.6,0,1.3,0,2
				s0,1.6,0,2.4v6.1L663.1,25.6L663.1,25.6z M651.2,25.5l0.1-17.1h6.5l-0.1,17.1H651.2z"/>
			<path class="st0" d="M672.6,25.7l0.1-17.1h6.4L679,25.7C679.1,25.7,672.6,25.7,672.6,25.7z M676,6.5c-1,0-1.8-0.3-2.5-0.8
				c-0.7-0.5-1.1-1.2-1.1-2.1s0.4-1.6,1.1-2.1s1.6-0.7,2.5-0.7c0.9,0,1.8,0.3,2.5,0.8c0.7,0.5,1.1,1.2,1.1,2.1s-0.4,1.6-1.1,2.1
				S676.9,6.5,676,6.5z"/>
			<path class="st0" d="M682.2,25.7l0.2-25.2h6.2l-0.1,13.8l-1.1-0.6l5.4-5l7.9,0.1l-8.7,7.8l1.3-2.2l7,11.6h-6.8l-4.5-8.2h1.7
				l-2.9,2.6l0.6-2.7l-0.1,8.3L682.2,25.7L682.2,25.7z"/>
		</g>
		<circle class="st1" cx="645.4" cy="22.8" r="2.6"/>
		<g>
			<path class="st1" d="M713.6,17.3l-2.9,0.4l0.4-2.9l0,0l2.7-2.7c-2.4-1.3-5.4-1-7.4,1c-2.5,2.4-2.5,6.4-0.1,8.8
				c2.4,2.4,6.4,2.5,8.8,0c2-2,2.4-5,1.1-7.4L713.6,17.3L713.6,17.3z"/>
			<path class="st1" d="M728.4,19.5l-2.3-1.8l2.3-1.8l0,0h3.8c-0.8-2.6-3.1-4.5-6-4.5c-3.4,0-6.3,2.8-6.3,6.2c0,3.5,2.8,6.3,6.2,6.3
				c2.8,0,5.2-1.9,6-4.4L728.4,19.5L728.4,19.5z"/>
			<path class="st1" d="M739,16l2.3,1.8l-2.3,1.8l0,0h-3.8c0.8,2.6,3.1,4.5,6,4.5c3.4,0,6.3-2.8,6.3-6.2s-2.8-6.3-6.2-6.3
				c-2.8,0-5.2,1.9-6,4.4L739,16L739,16z"/>
		</g>
	</g>
</g>
<g id="_레이어_1_00000100367759887623779570000001247653699718137773_">
	<g>
		<g>
			<path class="st0" d="M805.4,1.1l11,0.1l-0.1,23.7h-6.2l0.1-20.3l0.1,0l-3.8,20.2h-8.3l-3.7-20.3l0.1-0.1l-0.1,20.4h-6.2L788.5,1
				l11,0.1l3.2,21.3H802L805.4,1.1z"/>
			<path class="st0" d="M822.8,18.2v-3.9l10.1,0.1l-0.5,0.8c0-0.1,0-0.2,0-0.3s0-0.2,0-0.3c0-0.4-0.1-0.8-0.3-1.1
				c-0.2-0.3-0.5-0.7-1-1s-1.1-0.4-1.9-0.4s-1.4,0.1-1.9,0.5c-0.5,0.3-0.9,0.8-1.2,1.4c-0.3,0.6-0.4,1.4-0.4,2.3
				c0,1,0.1,1.8,0.4,2.4c0.3,0.6,0.6,1.2,1.2,1.5c0.5,0.4,1.2,0.5,2.1,0.5c0.5,0,1,0,1.3-0.1c0.4-0.1,0.7-0.2,0.9-0.3
				c0.2-0.1,0.4-0.2,0.5-0.4c0.1-0.2,0.2-0.3,0.2-0.4h6.4c-0.1,0.8-0.4,1.5-0.8,2.2c-0.5,0.7-1.1,1.3-1.9,1.9c-0.8,0.5-1.8,1-3,1.3
				s-2.5,0.5-3.9,0.5c-2,0-3.8-0.4-5.2-1.2c-1.4-0.8-2.6-1.8-3.4-3.2c-0.8-1.4-1.2-2.9-1.2-4.7s0.4-3.4,1.3-4.7
				c0.8-1.3,2-2.4,3.5-3.1s3.2-1.1,5.2-1.1s3.8,0.4,5.2,1.2c1.4,0.8,2.6,1.9,3.4,3.2s1.2,3.1,1.2,5c0,0.3,0,0.6,0,0.8s0,0.4,0,0.5
				L822.8,18.2L822.8,18.2z"/>
			<path class="st0" d="M850.6,25.6c-2,0-3.8-0.4-5.3-1.2c-1.5-0.8-2.6-1.9-3.4-3.2s-1.2-2.9-1.2-4.7s0.4-3.3,1.2-4.6
				s1.9-2.4,3.4-3.1c1.5-0.7,3.2-1.1,5.3-1.1c1.5,0,2.9,0.2,4,0.7c1.2,0.4,2.1,1,2.9,1.7c0.8,0.7,1.3,1.5,1.7,2.3
				c0.4,0.8,0.6,1.7,0.6,2.5V15l0,0h-6.4c0-0.1,0-0.1,0-0.2c0-0.1,0-0.1,0-0.2c-0.1-0.3-0.2-0.6-0.4-0.9s-0.5-0.6-0.8-0.8
				c-0.4-0.2-0.9-0.3-1.6-0.3c-0.7,0-1.2,0.1-1.7,0.4c-0.5,0.3-0.8,0.7-1.1,1.3c-0.3,0.6-0.4,1.3-0.4,2.1s0.1,1.5,0.4,2.1
				c0.2,0.6,0.6,1.1,1.1,1.4s1,0.5,1.7,0.5c0.7,0,1.2-0.1,1.6-0.3c0.4-0.2,0.7-0.5,0.9-0.8c0.2-0.3,0.3-0.7,0.4-1.1h6.4
				c0,0.8-0.2,1.6-0.6,2.5c-0.4,0.9-1,1.6-1.8,2.3c-0.8,0.7-1.7,1.3-2.9,1.7C853.5,25.4,852.2,25.6,850.6,25.6L850.6,25.6z"/>
			<path class="st0" d="M874.5,25.3v-5.9c0-0.2,0-0.4,0-0.8s0-0.7,0-1.1s0-0.6,0-0.8c0-1.1-0.2-1.9-0.5-2.6s-1-1-2.1-1
				c-0.7,0-1.2,0.1-1.7,0.4c-0.4,0.3-0.7,0.7-0.9,1.2c-0.2,0.5-0.3,1.2-0.3,1.9l-1.2-1.3c0-1.6,0.3-2.9,0.9-4.1
				c0.6-1.1,1.4-2,2.5-2.6s2.3-0.9,3.8-0.9c2.1,0,3.7,0.6,4.6,1.9c0.9,1.3,1.4,2.9,1.4,5.2c0,0.6,0,1.2,0,2s0,1.8,0,3v5.5H874.5
				L874.5,25.3z M862.6,25.2L862.8,0h6.5l-0.2,25.2H862.6z"/>
			<path class="st0" d="M890.2,25.8c-1.2,0-2.3-0.2-3.3-0.6s-1.7-1-2.3-1.7c-0.6-0.8-0.8-1.7-0.8-2.7c0-1.3,0.4-2.3,1.1-3.1
				c0.7-0.8,1.7-1.4,2.8-1.7c1.1-0.4,2.3-0.6,3.5-0.7c1.7-0.1,2.9-0.3,3.5-0.4s0.9-0.3,0.9-0.6l0,0c0-0.4-0.2-0.7-0.7-1
				s-1.1-0.4-1.9-0.4c-0.9,0-1.5,0.1-1.9,0.5c-0.4,0.3-0.6,0.8-0.6,1.4h-6.4c0-1.4,0.4-2.6,1.2-3.6s1.9-1.7,3.3-2.2
				c1.4-0.5,2.9-0.7,4.6-0.7c1.6,0,3.1,0.3,4.4,0.7c1.4,0.5,2.5,1.2,3.3,2.2s1.3,2.2,1.3,3.7c0,0.2,0,0.4,0,0.7c0,0.2,0,0.4,0,0.7
				v5.3c0,0.5,0,0.9,0,1.4s0.1,0.9,0.2,1.2c0.1,0.4,0.3,0.7,0.5,1s0.3,0.5,0.5,0.6H897c-0.1-0.1-0.2-0.3-0.4-0.5
				c-0.2-0.3-0.3-0.6-0.4-0.9c-0.2-0.5-0.3-0.9-0.3-1.4s-0.1-1-0.1-1.6l1.4,1c-0.3,0.8-0.8,1.5-1.5,2s-1.5,1-2.4,1.3
				C892.4,26,891.2,25.8,890.2,25.8L890.2,25.8z M892.1,21.2c0.6,0,1.1-0.1,1.7-0.4c0.5-0.2,1-0.6,1.4-1.2s0.6-1.4,0.6-2.3v-0.6
				l1.7,1.4c-0.7,0.2-1.5,0.4-2.4,0.6c-0.9,0.2-1.7,0.3-2.5,0.4c-0.7,0.1-1.3,0.2-1.7,0.4c-0.4,0.2-0.5,0.4-0.5,0.8s0.2,0.6,0.5,0.8
				S891.6,21.2,892.1,21.2L892.1,21.2z"/>
			<path class="st0" d="M925.9,25.6v-6.7c0-0.3,0-0.7,0-1s0-0.6,0-0.9c0-0.6,0-1.2-0.1-1.7c-0.1-0.5-0.3-1-0.7-1.3
				c-0.4-0.4-0.9-0.5-1.7-0.5c-0.7,0-1.2,0.1-1.6,0.4c-0.4,0.3-0.7,0.7-0.9,1.2s-0.3,1.2-0.3,1.9l-1.2-1.3c0-1.6,0.3-2.9,1-4.1
				s1.5-2,2.6-2.6c1.1-0.6,2.3-0.9,3.7-0.9c1.5,0,2.6,0.3,3.5,0.9c0.9,0.6,1.5,1.4,1.9,2.5c0.4,1.1,0.6,2.3,0.6,3.6c0,0.6,0,1.3,0,2
				s0,1.6,0,2.4v6.1L925.9,25.6L925.9,25.6z M914,25.5l0.1-17.1h6.5l-0.1,17.1H914z"/>
			<path class="st0" d="M935.4,25.7l0.1-17.1h6.4l-0.1,17.1C941.9,25.7,935.4,25.7,935.4,25.7z M938.8,6.5c-1,0-1.8-0.3-2.5-0.8
				c-0.7-0.5-1.1-1.2-1.1-2.1s0.4-1.6,1.1-2.1s1.6-0.7,2.5-0.7c0.9,0,1.8,0.3,2.5,0.8c0.7,0.5,1.1,1.2,1.1,2.1s-0.4,1.6-1.1,2.1
				S939.7,6.5,938.8,6.5z"/>
			<path class="st0" d="M945,25.7l0.2-25.2h6.2l-0.1,13.8l-1.1-0.6l5.4-5l7.9,0.1l-8.7,7.8l1.3-2.2l7,11.6h-6.8l-4.5-8.2h1.7
				l-2.9,2.6l0.6-2.7l-0.1,8.3L945,25.7L945,25.7z"/>
		</g>
		<circle class="st1" cx="908.2" cy="22.8" r="2.6"/>
		<g>
			<path class="st1" d="M976.4,17.3l-2.9,0.4l0.4-2.9l0,0l2.7-2.7c-2.4-1.3-5.4-1-7.4,1c-2.5,2.4-2.5,6.4-0.1,8.8
				c2.4,2.4,6.4,2.5,8.8,0c2-2,2.4-5,1.1-7.4L976.4,17.3L976.4,17.3z"/>
			<path class="st1" d="M991.2,19.5l-2.3-1.8l2.3-1.8l0,0h3.8c-0.8-2.6-3.1-4.5-6-4.5c-3.4,0-6.3,2.8-6.3,6.2c0,3.5,2.8,6.3,6.2,6.3
				c2.8,0,5.2-1.9,6-4.4L991.2,19.5L991.2,19.5z"/>
			<path class="st1" d="M1001.8,16l2.3,1.8l-2.3,1.8l0,0H998c0.8,2.6,3.1,4.5,6,4.5c3.4,0,6.3-2.8,6.3-6.2s-2.8-6.3-6.2-6.3
				c-2.8,0-5.2,1.9-6,4.4L1001.8,16L1001.8,16z"/>
		</g>
	</g>
</g>
<g id="_레이어_1_00000065074000758940231680000000849770132755429799_">
	<g>
		<g>
			<path class="st0" d="M1068.2,1.1l11,0.1l-0.1,23.7h-6.2l0.1-20.3l0.1,0l-3.8,20.2h-8.3l-3.7-20.3l0.1-0.1l-0.1,20.4h-6.2
				l0.2-23.8l11,0.1l3.2,21.3h-0.7L1068.2,1.1z"/>
			<path class="st0" d="M1085.6,18.2v-3.9l10.1,0.1l-0.5,0.8c0-0.1,0-0.2,0-0.3s0-0.2,0-0.3c0-0.4-0.1-0.8-0.3-1.1
				c-0.2-0.3-0.5-0.7-1-1s-1.1-0.4-1.9-0.4c-0.8,0-1.4,0.1-1.9,0.5c-0.5,0.3-0.9,0.8-1.2,1.4c-0.3,0.6-0.4,1.4-0.4,2.3
				c0,1,0.1,1.8,0.4,2.4c0.3,0.6,0.6,1.2,1.2,1.5c0.5,0.4,1.2,0.5,2.1,0.5c0.5,0,1,0,1.3-0.1c0.4-0.1,0.7-0.2,0.9-0.3
				c0.2-0.1,0.4-0.2,0.5-0.4s0.2-0.3,0.2-0.4h6.4c-0.1,0.8-0.4,1.5-0.8,2.2c-0.5,0.7-1.1,1.3-1.9,1.9c-0.8,0.5-1.8,1-3,1.3
				s-2.5,0.5-3.9,0.5c-2,0-3.8-0.4-5.2-1.2s-2.6-1.8-3.4-3.2c-0.8-1.4-1.2-2.9-1.2-4.7s0.4-3.4,1.3-4.7c0.8-1.3,2-2.4,3.5-3.1
				s3.2-1.1,5.2-1.1s3.8,0.4,5.2,1.2s2.6,1.9,3.4,3.2c0.8,1.3,1.2,3.1,1.2,5c0,0.3,0,0.6,0,0.8s0,0.4,0,0.5L1085.6,18.2L1085.6,18.2
				z"/>
			<path class="st0" d="M1113.4,25.6c-2,0-3.8-0.4-5.3-1.2c-1.5-0.8-2.6-1.9-3.4-3.2c-0.8-1.3-1.2-2.9-1.2-4.7s0.4-3.3,1.2-4.6
				c0.8-1.3,1.9-2.4,3.4-3.1c1.5-0.7,3.2-1.1,5.3-1.1c1.5,0,2.9,0.2,4,0.7c1.2,0.4,2.1,1,2.9,1.7s1.3,1.5,1.7,2.3
				c0.4,0.8,0.6,1.7,0.6,2.5V15l0,0h-6.4c0-0.1,0-0.1,0-0.2c0-0.1,0-0.1,0-0.2c-0.1-0.3-0.2-0.6-0.4-0.9s-0.5-0.6-0.8-0.8
				c-0.4-0.2-0.9-0.3-1.6-0.3c-0.7,0-1.2,0.1-1.7,0.4c-0.5,0.3-0.8,0.7-1.1,1.3c-0.3,0.6-0.4,1.3-0.4,2.1s0.1,1.5,0.4,2.1
				c0.2,0.6,0.6,1.1,1.1,1.4s1,0.5,1.7,0.5c0.7,0,1.2-0.1,1.6-0.3c0.4-0.2,0.7-0.5,0.9-0.8c0.2-0.3,0.3-0.7,0.4-1.1h6.4
				c0,0.8-0.2,1.6-0.6,2.5c-0.4,0.9-1,1.6-1.8,2.3c-0.8,0.7-1.7,1.3-2.9,1.7C1116.3,25.4,1115,25.6,1113.4,25.6L1113.4,25.6z"/>
			<path class="st0" d="M1137.3,25.3v-5.9c0-0.2,0-0.4,0-0.8s0-0.7,0-1.1s0-0.6,0-0.8c0-1.1-0.2-1.9-0.5-2.6s-1-1-2.1-1
				c-0.7,0-1.2,0.1-1.7,0.4c-0.4,0.3-0.7,0.7-0.9,1.2c-0.2,0.5-0.3,1.2-0.3,1.9l-1.2-1.3c0-1.6,0.3-2.9,0.9-4.1
				c0.6-1.1,1.4-2,2.5-2.6c1.1-0.6,2.3-0.9,3.8-0.9c2.1,0,3.7,0.6,4.6,1.9s1.4,2.9,1.4,5.2c0,0.6,0,1.2,0,2s0,1.8,0,3v5.5H1137.3
				L1137.3,25.3z M1125.4,25.2l0.2-25.2h6.5l-0.2,25.2H1125.4z"/>
			<path class="st0" d="M1153,25.8c-1.2,0-2.3-0.2-3.3-0.6s-1.7-1-2.3-1.7c-0.6-0.8-0.8-1.7-0.8-2.7c0-1.3,0.4-2.3,1.1-3.1
				c0.7-0.8,1.7-1.4,2.8-1.7c1.1-0.4,2.3-0.6,3.5-0.7c1.7-0.1,2.9-0.3,3.5-0.4c0.6-0.1,0.9-0.3,0.9-0.6l0,0c0-0.4-0.2-0.7-0.7-1
				s-1.1-0.4-1.9-0.4c-0.9,0-1.5,0.1-1.9,0.5c-0.4,0.3-0.6,0.8-0.6,1.4h-6.4c0-1.4,0.4-2.6,1.2-3.6c0.8-1,1.9-1.7,3.3-2.2
				s2.9-0.7,4.6-0.7c1.6,0,3.1,0.3,4.4,0.7c1.4,0.5,2.5,1.2,3.3,2.2c0.8,1,1.3,2.2,1.3,3.7c0,0.2,0,0.4,0,0.7c0,0.2,0,0.4,0,0.7v5.3
				c0,0.5,0,0.9,0,1.4s0.1,0.9,0.2,1.2c0.1,0.4,0.3,0.7,0.5,1c0.2,0.3,0.3,0.5,0.5,0.6h-6.4c-0.1-0.1-0.2-0.3-0.4-0.5
				c-0.2-0.3-0.3-0.6-0.4-0.9c-0.2-0.5-0.3-0.9-0.3-1.4s-0.1-1-0.1-1.6l1.4,1c-0.3,0.8-0.8,1.5-1.5,2c-0.7,0.5-1.5,1-2.4,1.3
				C1155.2,26,1154,25.8,1153,25.8L1153,25.8z M1154.9,21.2c0.6,0,1.1-0.1,1.7-0.4c0.5-0.2,1-0.6,1.4-1.2c0.4-0.6,0.6-1.4,0.6-2.3
				v-0.6l1.7,1.4c-0.7,0.2-1.5,0.4-2.4,0.6s-1.7,0.3-2.5,0.4c-0.7,0.1-1.3,0.2-1.7,0.4s-0.5,0.4-0.5,0.8s0.2,0.6,0.5,0.8
				C1154,21.3,1154.4,21.2,1154.9,21.2L1154.9,21.2z"/>
			<path class="st0" d="M1188.7,25.6v-6.7c0-0.3,0-0.7,0-1s0-0.6,0-0.9c0-0.6,0-1.2-0.1-1.7c-0.1-0.5-0.3-1-0.7-1.3
				c-0.4-0.4-0.9-0.5-1.7-0.5c-0.7,0-1.2,0.1-1.6,0.4s-0.7,0.7-0.9,1.2s-0.3,1.2-0.3,1.9l-1.2-1.3c0-1.6,0.3-2.9,1-4.1
				s1.5-2,2.6-2.6s2.3-0.9,3.7-0.9c1.5,0,2.6,0.3,3.5,0.9c0.9,0.6,1.5,1.4,1.9,2.5c0.4,1.1,0.6,2.3,0.6,3.6c0,0.6,0,1.3,0,2
				s0,1.6,0,2.4v6.1L1188.7,25.6L1188.7,25.6z M1176.8,25.5l0.1-17.1h6.5l-0.1,17.1H1176.8z"/>
			<path class="st0" d="M1198.2,25.7l0.1-17.1h6.4l-0.1,17.1C1204.7,25.7,1198.2,25.7,1198.2,25.7z M1201.6,6.5
				c-1,0-1.8-0.3-2.5-0.8c-0.7-0.5-1.1-1.2-1.1-2.1s0.4-1.6,1.1-2.1c0.7-0.5,1.6-0.7,2.5-0.7c0.9,0,1.8,0.3,2.5,0.8
				c0.7,0.5,1.1,1.2,1.1,2.1s-0.4,1.6-1.1,2.1C1203.4,6.3,1202.5,6.5,1201.6,6.5z"/>
			<path class="st0" d="M1207.8,25.7l0.2-25.2h6.2l-0.1,13.8l-1.1-0.6l5.4-5l7.9,0.1l-8.7,7.8l1.3-2.2l7,11.6h-6.8l-4.5-8.2h1.7
				l-2.9,2.6l0.6-2.7l-0.1,8.3L1207.8,25.7L1207.8,25.7z"/>
		</g>
		<circle class="st1" cx="1171" cy="22.8" r="2.6"/>
		<g>
			<path class="st1" d="M1239.2,17.3l-2.9,0.4l0.4-2.9l0,0l2.7-2.7c-2.4-1.3-5.4-1-7.4,1c-2.5,2.4-2.5,6.4-0.1,8.8
				c2.4,2.4,6.4,2.5,8.8,0c2-2,2.4-5,1.1-7.4L1239.2,17.3L1239.2,17.3z"/>
			<path class="st1" d="M1254,19.5l-2.3-1.8l2.3-1.8l0,0h3.8c-0.8-2.6-3.1-4.5-6-4.5c-3.4,0-6.3,2.8-6.3,6.2c0,3.5,2.8,6.3,6.2,6.3
				c2.8,0,5.2-1.9,6-4.4L1254,19.5L1254,19.5z"/>
			<path class="st1" d="M1264.6,16l2.3,1.8l-2.3,1.8l0,0h-3.8c0.8,2.6,3.1,4.5,6,4.5c3.4,0,6.3-2.8,6.3-6.2s-2.8-6.3-6.2-6.3
				c-2.8,0-5.2,1.9-6,4.4L1264.6,16L1264.6,16z"/>
		</g>
	</g>
</g>
</svg>
