<?xml version="1.0" encoding="UTF-8"?>
<svg id="Layer_2" data-name="Layer 2" xmlns="http://www.w3.org/2000/svg" viewBox="0 0 68.72 20.33">
  <defs>
    <style>
      .cls-1 {
        fill: #e35123;
      }
    </style>
  </defs>
  <g id="_레이어_1" data-name="레이어 1">
    <g>
      <path class="cls-1" d="M14.52,9.56l-4.64,.59,.65-4.63h0S14.86,1.25,14.86,1.25C11.07-.85,6.21-.31,2.98,2.89c-3.94,3.89-3.98,10.23-.09,14.17,3.89,3.94,10.23,3.98,14.17,.09,3.23-3.2,3.84-8.05,1.79-11.86l-4.33,4.28Z"/>
      <path class="cls-1" d="M38.18,13.03l-3.7-2.86,3.73-2.82h0s6.08,.04,6.08,.04C43.1,3.23,39.28,.18,34.73,.15c-5.53-.03-10.05,4.42-10.08,9.96-.03,5.53,4.42,10.05,9.96,10.08,4.55,.03,8.4-2.98,9.65-7.12l-6.08-.04Z"/>
      <path class="cls-1" d="M55.19,7.45l3.7,2.87-3.74,2.81h0s-6.08-.04-6.08-.04c1.2,4.16,5.01,7.21,9.56,7.25,5.53,.04,10.05-4.42,10.09-9.95,.04-5.53-4.42-10.05-9.95-10.09-4.55-.03-8.41,2.97-9.66,7.11l6.08,.04Z"/>
    </g>
  </g>
</svg>