<?xml version="1.0" encoding="utf-8"?>
<!-- Generator: Adobe Illustrator 27.7.0, SVG Export Plug-In . SVG Version: 6.00 Build 0)  -->
<svg version="1.1" id="Layer_2_00000034090611077813900060000005392962112259928967_"
	 xmlns="http://www.w3.org/2000/svg" xmlns:xlink="http://www.w3.org/1999/xlink" x="0px" y="0px" viewBox="0 0 221.9 25.8"
	 style="enable-background:new 0 0 221.9 25.8;" xml:space="preserve">
<style type="text/css">
	.st0{fill:#555555;}
	.st1{fill:#FFFFFF;}
	.st2{fill:#D75127;}
</style>
<g id="_레이어_1">
	<rect class="st0" width="221.9" height="25.8"/>
	<g>
		<g>
			<path class="st1" d="M17.1,1.1l11,0.1L27.9,25h-6.2l0.1-20.3L22,4.6l-3.8,20.2H9.9L6.2,4.5l0.1-0.1L6.2,24.8H0L0.1,0.9l11,0.1
				l3.2,21.3h-0.7C13.6,22.4,17.1,1.1,17.1,1.1z"/>
			<path class="st1" d="M34.5,18.2v-3.9l10.1,0.1l-0.5,0.8c0-0.1,0-0.2,0-0.3s0-0.2,0-0.3c0-0.4-0.1-0.8-0.3-1.1s-0.5-0.7-1-1
				s-1.1-0.4-1.9-0.4c-0.8,0-1.4,0.1-1.9,0.5c-0.5,0.3-0.9,0.8-1.2,1.4s-0.4,1.4-0.4,2.3c0,1,0.1,1.8,0.4,2.4s0.6,1.2,1.2,1.5
				c0.5,0.4,1.2,0.5,2.1,0.5c0.5,0,1,0,1.3-0.1c0.4-0.1,0.7-0.2,0.9-0.3s0.4-0.2,0.5-0.4s0.2-0.3,0.2-0.4h6.4
				c-0.1,0.8-0.4,1.5-0.8,2.2c-0.5,0.7-1.1,1.3-1.9,1.9s-1.8,1-3,1.3s-2.5,0.5-3.9,0.5c-2,0-3.8-0.4-5.2-1.2S33,22.4,32.2,21
				c-0.8-1.4-1.2-2.9-1.2-4.7s0.4-3.4,1.3-4.7c0.8-1.3,2-2.4,3.5-3.1S39,7.4,41,7.4s3.8,0.4,5.2,1.2s2.6,1.9,3.4,3.2s1.2,3,1.2,5
				c0,0.3,0,0.6,0,0.8s0,0.4,0,0.5L34.5,18.2L34.5,18.2z"/>
			<path class="st1" d="M62.3,25.6c-2.1,0-3.8-0.4-5.3-1.2s-2.6-1.9-3.4-3.2c-0.8-1.4-1.2-2.9-1.2-4.7s0.4-3.3,1.2-4.6
				s1.9-2.4,3.4-3.1c1.5-0.7,3.2-1.1,5.3-1.1c1.5,0,2.8,0.2,4,0.7s2.1,1,2.9,1.7s1.3,1.5,1.7,2.3c0.4,0.8,0.6,1.7,0.6,2.5
				c0,0,0,0,0,0.1l0,0h-6.4c0-0.1,0-0.1,0-0.2c0,0,0-0.1,0-0.2c-0.1-0.3-0.2-0.6-0.4-0.9c-0.2-0.3-0.5-0.6-0.8-0.8s-0.9-0.3-1.6-0.3
				c-0.7,0-1.2,0.1-1.7,0.4c-0.5,0.3-0.8,0.7-1.1,1.3s-0.4,1.3-0.4,2.1s0.1,1.5,0.4,2.1c0.2,0.6,0.6,1.1,1.1,1.4s1,0.5,1.7,0.5
				s1.2-0.1,1.6-0.3c0.4-0.2,0.7-0.5,0.9-0.8s0.3-0.7,0.4-1.1h6.4c0,0.8-0.2,1.6-0.6,2.5c-0.4,0.8-1,1.6-1.8,2.3
				c-0.8,0.7-1.7,1.3-2.9,1.7C65.2,25.4,63.9,25.6,62.3,25.6L62.3,25.6z"/>
			<path class="st1" d="M86.2,25.3v-5.9c0-0.2,0-0.4,0-0.8s0-0.7,0-1.1s0-0.6,0-0.8c0-1.1-0.2-2-0.5-2.6s-1-1-2.1-1
				c-0.7,0-1.2,0.1-1.7,0.4c-0.4,0.3-0.7,0.7-0.9,1.2c-0.2,0.5-0.3,1.2-0.3,1.9l-1.2-1.3c0-1.6,0.3-2.9,0.9-4.1
				c0.6-1.1,1.4-2,2.5-2.6s2.3-0.9,3.8-0.9c2.1,0,3.7,0.6,4.6,1.9s1.4,3,1.4,5.2c0,0.5,0,1.2,0,2s0,1.8,0,3v5.5H86.2L86.2,25.3z
				 M74.3,25.2L74.5,0H81l-0.2,25.2H74.3z"/>
			<path class="st1" d="M101.9,25.8c-1.2,0-2.3-0.2-3.3-0.6s-1.7-1-2.3-1.7c-0.6-0.8-0.8-1.7-0.8-2.7c0-1.3,0.4-2.3,1.1-3.1
				s1.7-1.4,2.8-1.7s2.3-0.6,3.5-0.7c1.7-0.1,2.9-0.3,3.5-0.4s0.9-0.3,0.9-0.6l0,0c0-0.4-0.2-0.7-0.7-1s-1.1-0.4-1.9-0.4
				c-0.9,0-1.5,0.1-1.9,0.5c-0.4,0.3-0.6,0.8-0.6,1.4h-6.4c0-1.4,0.4-2.6,1.2-3.6s1.9-1.7,3.3-2.2s2.9-0.7,4.6-0.7
				c1.6,0,3.1,0.3,4.4,0.7c1.4,0.5,2.5,1.2,3.3,2.2s1.3,2.2,1.3,3.7c0,0.2,0,0.5,0,0.7s0,0.5,0,0.7v5.3c0,0.5,0,0.9,0,1.4
				c0,0.4,0.1,0.8,0.2,1.2c0.1,0.4,0.3,0.7,0.5,1s0.3,0.5,0.5,0.6h-6.4c-0.1-0.1-0.2-0.3-0.4-0.5c-0.2-0.3-0.3-0.6-0.4-0.9
				c-0.2-0.5-0.3-0.9-0.3-1.4s-0.1-1-0.1-1.6l1.4,1c-0.3,0.8-0.8,1.5-1.5,2s-1.5,1-2.4,1.3S102.9,25.8,101.9,25.8L101.9,25.8z
				 M103.8,21.2c0.6,0,1.1-0.1,1.7-0.4c0.5-0.2,1-0.6,1.4-1.2s0.6-1.4,0.6-2.3v-0.6l1.7,1.4c-0.7,0.2-1.5,0.4-2.4,0.6
				s-1.7,0.3-2.5,0.4c-0.7,0.1-1.3,0.2-1.7,0.4s-0.5,0.4-0.5,0.8s0.2,0.6,0.5,0.8S103.2,21.2,103.8,21.2L103.8,21.2z"/>
			<path class="st1" d="M137.6,25.6v-6.7c0-0.3,0-0.7,0-1s0-0.6,0-0.9c0-0.6,0-1.2-0.1-1.7s-0.3-1-0.7-1.3s-0.9-0.5-1.7-0.5
				c-0.7,0-1.2,0.1-1.6,0.4s-0.7,0.7-0.9,1.2s-0.3,1.2-0.3,1.9l-1.2-1.3c0-1.6,0.3-2.9,1-4s1.5-2,2.6-2.6c1.1-0.6,2.3-0.9,3.7-0.9
				c1.5,0,2.6,0.3,3.5,0.9s1.5,1.4,1.9,2.5s0.6,2.3,0.6,3.6c0,0.6,0,1.3,0,2s0,1.6,0,2.4v6L137.6,25.6L137.6,25.6z M125.7,25.5
				l0.1-17.1h6.5l-0.1,17.1H125.7z"/>
			<path class="st1" d="M147.1,25.7l0.1-17.1h6.4l-0.1,17.1H147.1z M150.5,6.5c-1,0-1.8-0.3-2.5-0.8s-1.1-1.2-1.1-2.1
				s0.4-1.6,1.1-2.1s1.6-0.7,2.5-0.7s1.8,0.3,2.5,0.8s1.1,1.2,1.1,2.1s-0.4,1.6-1.1,2.1C152.2,6.3,151.4,6.5,150.5,6.5z"/>
			<path class="st1" d="M156.7,25.7l0.2-25.2h6.2L163,14.3l-1.1-0.6l5.4-5h7.9l-8.7,7.8l1.3-2.2l7,11.6H168l-4.5-8.2h1.7l-2.9,2.6
				l0.6-2.7l-0.1,8.3L156.7,25.7L156.7,25.7z"/>
		</g>
		<circle class="st2" cx="119.9" cy="22.8" r="2.6"/>
		<g>
			<path class="st2" d="M188.1,17.3l-2.9,0.4l0.4-2.9l0,0l2.7-2.7c-2.4-1.3-5.4-1-7.4,1c-2.5,2.4-2.5,6.4-0.1,8.8s6.4,2.5,8.8,0
				c2-2,2.4-5,1.1-7.4L188.1,17.3L188.1,17.3z"/>
			<path class="st2" d="M202.9,19.5l-2.3-1.8l2.3-1.8l0,0h3.8c-0.8-2.6-3.1-4.5-6-4.5c-3.4,0-6.3,2.8-6.3,6.2c0,3.5,2.8,6.3,6.2,6.3
				c2.8,0,5.2-1.9,6-4.4L202.9,19.5L202.9,19.5z"/>
			<path class="st2" d="M213.5,16l2.3,1.8l-2.3,1.8l0,0h-3.8c0.8,2.6,3.1,4.5,6,4.5c3.4,0,6.3-2.8,6.3-6.2c0-3.5-2.8-6.3-6.2-6.3
				c-2.8,0-5.2,1.9-6,4.4L213.5,16L213.5,16z"/>
		</g>
	</g>
</g>
</svg>
