<?xml version="1.0" encoding="UTF-8"?>
<svg id="Layer_2" data-name="Layer 2" xmlns="http://www.w3.org/2000/svg" viewBox="0 0 221.93 25.84">
  <defs>
    <style>
      .cls-1 {
        fill: #555;
      }

      .cls-2 {
        fill: #e35123;
      }
    </style>
  </defs>
  <g id="_레이어_1" data-name="레이어 1">
    <g>
      <g>
        <path class="cls-1" d="M17.14,1.07l10.96,.07-.15,23.8-6.18-.04,.13-20.33,.11,.06-3.82,20.24-8.29-.05L6.21,4.49l.11-.06-.13,20.38-6.2-.04L.15,.96l10.96,.07,3.19,21.34h-.66S17.14,1.07,17.14,1.07Z"/>
        <path class="cls-1" d="M34.54,18.18l.02-3.87,10.1,.06-.49,.84c0-.09,0-.18,0-.28,0-.1,0-.19,0-.27,0-.37-.1-.75-.31-1.14s-.54-.73-1.01-1c-.47-.27-1.09-.41-1.88-.41-.76,0-1.4,.15-1.92,.47-.52,.32-.91,.79-1.17,1.42-.26,.63-.4,1.39-.4,2.3,0,.95,.11,1.75,.36,2.42s.63,1.18,1.17,1.53c.54,.35,1.24,.53,2.11,.54,.52,0,.96-.03,1.32-.11,.37-.07,.66-.17,.88-.29,.22-.12,.39-.24,.5-.38,.11-.14,.18-.27,.2-.4l6.42,.04c-.08,.75-.36,1.48-.83,2.17-.47,.7-1.12,1.32-1.94,1.87-.82,.55-1.81,.98-2.96,1.29-1.15,.31-2.46,.46-3.91,.45-2.01-.01-3.75-.4-5.22-1.17s-2.6-1.83-3.39-3.18c-.79-1.35-1.18-2.91-1.17-4.66,.01-1.8,.43-3.36,1.26-4.7,.83-1.34,1.98-2.38,3.46-3.11,1.48-.73,3.2-1.09,5.16-1.08,2.02,.01,3.77,.4,5.23,1.17,1.46,.77,2.59,1.85,3.38,3.25,.79,1.4,1.18,3.05,1.16,4.97,0,.32,0,.6-.02,.82s-.03,.41-.05,.55l-16.09-.1Z"/>
        <path class="cls-1" d="M62.34,25.57c-2.05-.01-3.82-.42-5.29-1.21-1.47-.79-2.59-1.88-3.37-3.25-.78-1.37-1.16-2.93-1.15-4.67,.01-1.75,.41-3.29,1.21-4.61,.79-1.32,1.93-2.35,3.41-3.08,1.48-.74,3.24-1.1,5.3-1.09,1.52,0,2.85,.23,4,.67,1.15,.44,2.1,1.01,2.87,1.72,.76,.71,1.34,1.49,1.73,2.33,.39,.84,.58,1.68,.57,2.5,0,.02,0,.05,0,.07v.07s-6.44-.04-6.44-.04c0-.06,0-.12,0-.18,0-.05-.02-.11-.04-.16-.08-.28-.22-.57-.4-.87-.18-.3-.46-.56-.83-.77s-.89-.32-1.56-.32c-.66,0-1.23,.14-1.71,.44-.48,.3-.85,.73-1.11,1.3-.26,.57-.39,1.26-.4,2.06,0,.79,.12,1.49,.37,2.1,.25,.62,.62,1.1,1.1,1.44s1.04,.52,1.7,.53c.65,0,1.16-.09,1.56-.28,.39-.19,.69-.46,.89-.79,.2-.34,.33-.72,.39-1.15l6.45,.04c0,.82-.21,1.65-.6,2.51-.4,.85-.98,1.63-1.76,2.34-.77,.71-1.74,1.28-2.89,1.72-1.15,.43-2.49,.65-4.01,.64Z"/>
        <path class="cls-1" d="M86.21,25.29l.04-5.91c0-.17,0-.43,0-.78,0-.35,0-.7,0-1.06,0-.36,0-.64,0-.83,0-1.09-.15-1.95-.47-2.59s-1.01-.96-2.08-.96c-.69,0-1.24,.13-1.66,.41-.42,.28-.73,.68-.92,1.21-.19,.53-.29,1.16-.29,1.9l-1.25-1.3c0-1.57,.31-2.92,.91-4.05,.6-1.13,1.43-2,2.5-2.62,1.07-.61,2.32-.91,3.75-.9,2.12,.01,3.66,.64,4.61,1.87s1.43,2.95,1.41,5.16c0,.55,0,1.23-.01,2.04s-.01,1.8-.02,2.98l-.03,5.49-6.5-.04Zm-11.92-.07l.16-25.22,6.5,.04-.16,25.22-6.5-.04Z"/>
        <path class="cls-1" d="M101.86,25.78c-1.23,0-2.32-.21-3.29-.61-.97-.4-1.73-.97-2.28-1.72-.56-.75-.83-1.66-.82-2.74,0-1.27,.38-2.29,1.11-3.06,.73-.77,1.66-1.35,2.8-1.74,1.14-.39,2.31-.64,3.53-.74,1.73-.15,2.9-.28,3.5-.4s.91-.32,.91-.62v-.02c0-.4-.23-.74-.71-1.03-.48-.29-1.11-.44-1.91-.44-.86,0-1.5,.15-1.92,.46-.42,.32-.63,.77-.64,1.38l-6.41-.04c0-1.44,.42-2.65,1.23-3.62s1.9-1.71,3.27-2.2c1.36-.49,2.88-.73,4.55-.72,1.58,0,3.06,.26,4.44,.74,1.38,.48,2.5,1.21,3.35,2.19,.85,.98,1.28,2.23,1.27,3.74,0,.23,0,.45,0,.68,0,.23,0,.45,0,.68l-.03,5.31c0,.47,0,.93,.02,1.37,.02,.44,.08,.85,.19,1.23,.12,.4,.27,.74,.46,1.03,.19,.29,.35,.48,.46,.59l-6.36-.04c-.1-.1-.23-.28-.42-.53-.18-.26-.33-.56-.45-.89-.16-.49-.27-.94-.34-1.37-.07-.43-.1-.95-.1-1.56l1.41,.99c-.29,.78-.79,1.45-1.49,2.01-.7,.55-1.51,.98-2.44,1.27-.93,.29-1.9,.43-2.9,.43Zm1.96-4.6c.56,0,1.11-.12,1.66-.36,.54-.24,1-.65,1.37-1.23,.37-.57,.56-1.35,.56-2.34v-.61s1.66,1.35,1.66,1.35c-.71,.24-1.5,.44-2.38,.61-.87,.16-1.71,.28-2.5,.36-.74,.07-1.3,.19-1.66,.35s-.54,.43-.54,.8c0,.37,.16,.64,.48,.81,.32,.17,.77,.26,1.35,.27Z"/>
        <path class="cls-1" d="M137.6,25.61l.04-6.66c0-.34,0-.69,0-1.03,0-.34,0-.64,0-.89,0-.59-.04-1.16-.14-1.7-.1-.54-.33-.98-.69-1.33-.36-.35-.93-.52-1.72-.53-.68,0-1.23,.13-1.65,.41-.42,.28-.73,.68-.93,1.2-.2,.53-.3,1.16-.3,1.9l-1.25-1.3c0-1.57,.34-2.92,.98-4.05,.64-1.13,1.51-2,2.61-2.62,1.1-.61,2.34-.91,3.72-.9,1.46,0,2.62,.31,3.48,.92s1.47,1.43,1.85,2.49c.38,1.06,.56,2.26,.55,3.62,0,.59,0,1.27-.01,2.03s0,1.57-.02,2.42l-.04,6.05-6.5-.04Zm-11.92-.07l.11-17.14,6.5,.04-.11,17.14-6.5-.04Z"/>
        <path class="cls-1" d="M147.12,25.67l.11-17.14,6.44,.04-.11,17.14-6.44-.04Zm3.33-19.13c-.96,0-1.79-.26-2.5-.76-.71-.5-1.07-1.21-1.06-2.12,0-.92,.37-1.63,1.09-2.12,.72-.49,1.56-.72,2.51-.72s1.79,.26,2.5,.75c.71,.49,1.07,1.2,1.06,2.13s-.37,1.63-1.09,2.12c-.72,.49-1.56,.72-2.51,.72Z"/>
        <path class="cls-1" d="M156.72,25.73l.16-25.22,6.16,.04-.09,13.76-1.11-.62,5.45-5.03,7.86,.05-8.71,7.77,1.3-2.23,7.01,11.6-6.79-.04-4.52-8.21,1.74-.04-2.87,2.65,.61-2.72-.05,8.29-6.16-.04Z"/>
      </g>
      <circle class="cls-2" cx="119.92" cy="22.8" r="2.64" transform="translate(96.38 142.57) rotate(-89.65)"/>
      <g>
        <path class="cls-2" d="M188.12,17.35l-2.89,.37,.4-2.89h0s2.7-2.67,2.7-2.67c-2.36-1.3-5.39-.97-7.41,1.03-2.46,2.43-2.48,6.38-.05,8.84,2.43,2.46,6.38,2.48,8.84,.05,2.02-1.99,2.39-5.02,1.12-7.4l-2.7,2.67Z"/>
        <path class="cls-2" d="M202.88,19.52l-2.31-1.79,2.33-1.76h0s3.8,.02,3.8,.02c-.75-2.59-3.13-4.5-5.97-4.52-3.45-.02-6.27,2.76-6.29,6.21-.02,3.45,2.76,6.27,6.21,6.29,2.84,.02,5.24-1.86,6.02-4.44l-3.8-.02Z"/>
        <path class="cls-2" d="M213.49,16.03l2.31,1.79-2.33,1.76h0s-3.8-.03-3.8-.03c.75,2.59,3.13,4.5,5.96,4.52,3.45,.02,6.27-2.76,6.29-6.21,.02-3.45-2.76-6.27-6.21-6.29-2.84-.02-5.24,1.85-6.03,4.44l3.8,.03Z"/>
      </g>
    </g>
  </g>
</svg>