<svg width="32" height="32" viewBox="0 0 32 32" fill="none" xmlns="http://www.w3.org/2000/svg">
<path d="M8 9.33325H18.6667V11.9999H8V9.33325ZM8 14.6666H24V17.3333H8V14.6666ZM8 19.9999H11.9867V22.6666H8V19.9999Z" fill="#E35123"/>
<path d="M18.6667 4L14.6667 0V2.66667H5.33341C4.62617 2.66667 3.94789 2.94762 3.4478 3.44772C2.9477 3.94781 2.66675 4.62609 2.66675 5.33333V26.6667C2.66675 27.3739 2.9477 28.0522 3.4478 28.5523C3.94789 29.0524 4.62617 29.3333 5.33341 29.3333H10.6667V26.6667H5.33341V5.33333H14.6667V8L18.6667 4ZM13.3334 28L17.3334 32V29.3333H26.6667C27.374 29.3333 28.0523 29.0524 28.5524 28.5523C29.0525 28.0522 29.3334 27.3739 29.3334 26.6667V5.33333C29.3334 4.62609 29.0525 3.94781 28.5524 3.44772C28.0523 2.94762 27.374 2.66667 26.6667 2.66667H21.3334V5.33333H26.6667V26.6667H17.3334V24L13.3334 28Z" fill="#E35123"/>
</svg>
