<svg width="388" height="244" viewBox="0 0 388 244" fill="none" xmlns="http://www.w3.org/2000/svg">
<rect width="388" height="244" rx="15" fill="#555555"/>
<path d="M32.375 22.2188V36.4375H30.3594V22.2188H32.375ZM20.4688 32.4062C24.1406 30.6719 25.7578 28.4219 26.0781 25.2656H21.2344V23.7031H28.1094C28.1016 28.0156 26.5938 31.6016 21.5156 34L20.4688 32.4062ZM46.0469 22.8125V24.4062H42.125C42.3594 25.6016 43.8359 26.7969 46.6406 27.0938L45.9062 28.6719C43.2422 28.3594 41.4688 27.25 40.7188 25.7656C39.9688 27.25 38.2031 28.3594 35.5469 28.6719L34.8281 27.0938C37.6328 26.7969 39.0859 25.5859 39.3281 24.4062H35.4375V22.8125H46.0469ZM34.25 31.2344V29.625H39.7344V27.6562H41.7031V29.625H47.2188V31.2344H34.25ZM35.8125 36.1875V32.0938H37.8125V34.5938H45.75V36.1875H35.8125ZM63.75 22.2188V30.6562H61.7656V27.2969H59.5469V25.6875H61.7656V22.2188H63.75ZM51.6719 29.0938C54 28.3125 55.0625 26.4531 55.1094 24.6719H52.25V23.0781H59.9688V24.6719H57.1406C57.1797 26.3281 58.1953 28 60.4062 28.7344L59.4219 30.2969C57.8594 29.7891 56.7734 28.7578 56.1562 27.4844C55.5312 28.9297 54.3906 30.0938 52.7031 30.6719L51.6719 29.0938ZM54 33.7188C54 31.9922 55.8594 30.9766 58.8906 30.9688C61.9297 30.9766 63.7891 31.9922 63.7969 33.7188C63.7891 35.4453 61.9297 36.4531 58.8906 36.4531C55.8594 36.4531 54 35.4453 54 33.7188ZM55.9844 33.7188C55.9844 34.5312 57.0078 34.9375 58.8906 34.9375C60.7812 34.9375 61.8047 34.5312 61.8125 33.7188C61.8047 32.8984 60.7812 32.4922 58.8906 32.5C57.0078 32.4922 55.9844 32.8984 55.9844 33.7188ZM77.5 22.2188V36.4688H75.4844V22.2188H77.5ZM66.2969 33.1406V23.3438H68.2969V26.8125H71.3594V23.3438H73.3281V33.1406H66.2969ZM68.2969 31.5312H71.3594V28.3594H68.2969V31.5312ZM91.3281 22.2344V32.4531H89.3281V22.2344H91.3281ZM79.6406 26.7188C79.6406 24.6328 81.3438 23.1328 83.5312 23.1406C85.7109 23.1328 87.4141 24.6328 87.4219 26.7188C87.4141 28.8359 85.7109 30.3281 83.5312 30.3281C81.3438 30.3281 79.6406 28.8359 79.6406 26.7188ZM81.5938 26.7188C81.5781 27.9062 82.4141 28.5938 83.5312 28.5938C84.6094 28.5938 85.4453 27.9062 85.4531 26.7188C85.4453 25.5625 84.6094 24.8672 83.5312 24.875C82.4141 24.8672 81.5781 25.5625 81.5938 26.7188ZM81.7969 36.1875V31.4219H83.8125V34.5938H91.7031V36.1875H81.7969ZM100.078 23.0469V27.4844H95.7812V29C97.8906 29 99.1562 28.9297 100.594 28.6562L100.781 30.25C99.1172 30.5469 97.625 30.5859 94.875 30.5938H93.8125V26H98.0781V24.6094H93.7812V23.0469H100.078ZM95.4375 33.2188V31.625H105.234V36.4375H103.25V33.2188H95.4375ZM100.891 28.7969V27.2188H103.25V25.7812H100.891V24.2031H103.25V22.2344H105.234V30.9844H103.25V28.7969H100.891ZM115.203 26.5156C115.203 28.6562 115.961 30.8359 118.016 31.9062L116.906 33.375C115.625 32.7188 114.773 31.5703 114.273 30.1875C113.781 31.6875 112.93 32.9688 111.641 33.7031L110.516 32.2031C112.539 31.0469 113.312 28.7266 113.328 26.5156V26.25H110.969V24.625H113.328V22.7031H115.188V24.625H117.531V26.25H115.203V26.5156ZM118.172 35.7812V22.4219H120.062V27.6875H121.266V22.2188H123.172V36.4375H121.266V29.3125H120.062V35.7812H118.172ZM137.562 28.9531V30.5469H124.594V28.9531H127.516V27.25C126.477 26.7891 125.891 26.0859 125.891 25.1719C125.891 23.4531 127.914 22.4297 131.078 22.4219C134.219 22.4297 136.242 23.4531 136.25 25.1719C136.242 26.1016 135.641 26.8125 134.578 27.2656V28.9531H137.562ZM126.078 33.8438C126.078 32.2031 127.945 31.2891 131.062 31.2969C134.133 31.2891 136 32.2031 136.016 33.8438C136 35.5234 134.133 36.4219 131.062 36.4219C127.945 36.4219 126.078 35.5234 126.078 33.8438ZM127.969 25.1719C127.953 25.9531 129.07 26.3516 131.078 26.3438C133.062 26.3516 134.188 25.9531 134.188 25.1719C134.188 24.375 133.062 23.9531 131.078 23.9531C129.07 23.9531 127.953 24.375 127.969 25.1719ZM128.109 33.8438C128.102 34.5703 129.094 34.9375 131.062 34.9375C132.992 34.9375 134.008 34.5703 134.016 33.8438C134.008 33.1406 132.992 32.8047 131.062 32.7969C129.094 32.8047 128.102 33.1406 128.109 33.8438ZM129.531 28.9531H132.594V27.7578C132.125 27.8203 131.617 27.8438 131.078 27.8438C130.523 27.8438 130.008 27.8125 129.531 27.7578V28.9531ZM147.641 25.4375C147.633 28.0469 148.82 30.6641 151.234 31.6875L150.062 33.2812C148.438 32.5469 147.312 31.125 146.664 29.3672C146.023 31.2891 144.859 32.8359 143.125 33.625L141.922 31.9688C144.406 30.9219 145.617 28.1953 145.625 25.4375V23.3125H147.641V25.4375ZM152 36.4688V22.2188H154.016V36.4688H152Z" fill="white"/>
<path d="M32.0781 87.375V95.6562H30.8438V92.0156H28.0469V91H30.8438V87.375H32.0781ZM20.625 94.5469C22.6875 93.8047 24.1562 91.9219 24.1562 89.9375V89.4219H21.0156V88.3906H28.5V89.4219H25.3906V89.9219C25.3906 91.7344 26.7812 93.4609 28.8125 94.1562L28.1719 95.1406C26.6172 94.5781 25.4062 93.4062 24.8047 91.9766C24.2109 93.6016 22.9219 94.8984 21.2656 95.5312L20.625 94.5469ZM22.8125 98.6719C22.8047 97.0391 24.5781 96.0859 27.4688 96.0938C30.3516 96.0859 32.125 97.0391 32.125 98.6719C32.125 100.312 30.3516 101.25 27.4688 101.266C24.5781 101.25 22.8047 100.312 22.8125 98.6719ZM24.0312 98.6719C24.0234 99.6797 25.3359 100.289 27.4688 100.281C29.5938 100.289 30.9062 99.6797 30.9062 98.6719C30.9062 97.6562 29.5938 97.0469 27.4688 97.0469C25.3359 97.0469 24.0234 97.6562 24.0312 98.6719ZM45.8438 87.375V101.297H44.6094V87.375H45.8438ZM35.2031 97.9375V88.5625H36.4219V92.2344H40.5625V88.5625H41.7656V97.9375H35.2031ZM36.4219 96.9062H40.5625V93.2188H36.4219V96.9062ZM59.6875 87.3906V97.5469H58.4688V87.3906H59.6875ZM48.5469 91.7656C48.5391 89.7656 50.1094 88.3672 52.1875 88.3594C54.2656 88.3672 55.8203 89.7656 55.8281 91.7656C55.8203 93.7891 54.2656 95.1953 52.1875 95.1875C50.1094 95.1953 48.5391 93.7891 48.5469 91.7656ZM49.75 91.7656C49.7344 93.1484 50.7812 94.1094 52.1875 94.1094C53.5703 94.1094 54.625 93.1484 54.625 91.7656C54.625 90.4062 53.5703 89.4375 52.1875 89.4375C50.7812 89.4375 49.7344 90.4062 49.75 91.7656ZM50.7188 100.969V96.5156H51.9375V99.9375H60.125V100.969H50.7188ZM68.6406 88.2344V92.125H63.8594V94.2812C66.4688 94.2891 67.8203 94.2344 69.4531 93.9375L69.5781 94.9531C67.8516 95.2344 66.4375 95.2812 63.625 95.2812H62.6406V91.1875H67.4219V89.2188H62.6094V88.2344H68.6406ZM64.2031 97.6719V96.6719H73.5625V101.297H72.3281V97.6719H64.2031ZM69.5625 93.3438V92.3281H72.3281V90.4531H69.5625V89.4531H72.3281V87.3906H73.5625V95.9219H72.3281V93.3438H69.5625ZM91.3594 87.3906V97.5469H90.1406V87.3906H91.3594ZM80.2188 91.7656C80.2109 89.7656 81.7812 88.3672 83.8594 88.3594C85.9375 88.3672 87.4922 89.7656 87.5 91.7656C87.4922 93.7891 85.9375 95.1953 83.8594 95.1875C81.7812 95.1953 80.2109 93.7891 80.2188 91.7656ZM81.4219 91.7656C81.4062 93.1484 82.4531 94.1094 83.8594 94.1094C85.2422 94.1094 86.2969 93.1484 86.2969 91.7656C86.2969 90.4062 85.2422 89.4375 83.8594 89.4375C82.4531 89.4375 81.4062 90.4062 81.4219 91.7656ZM82.3906 100.969V96.5156H83.6094V99.9375H91.7969V100.969H82.3906ZM105.234 87.3906V97.6562H104V92.7031H100.922V91.6719H104V87.3906H105.234ZM93.9375 95.0469C97.1328 93.9922 99.3594 91.9922 99.6406 89.4844H94.6406V88.4531H100.984C100.969 92.0234 98.4141 94.7422 94.4688 96.0312L93.9375 95.0469ZM96.3906 100.969V96.6094H97.6406V99.9375H105.594V100.969H96.3906ZM119 87.375V101.297H117.766V87.375H119ZM108.359 97.9375V88.5625H109.578V92.2344H113.719V88.5625H114.922V97.9375H108.359ZM109.578 96.9062H113.719V93.2188H109.578V96.9062Z" fill="white"/>
<path d="M167.484 89.3906C167.469 91.4141 168.938 93.2188 171 93.9375L170.375 94.9062C168.766 94.3125 167.492 93.1172 166.867 91.5781C166.258 93.2266 164.977 94.5234 163.344 95.1562L162.703 94.1875C164.781 93.4141 166.234 91.4922 166.234 89.3906V88.0625H167.484V89.3906ZM164.688 97.4531V96.4375H174.031V101.266H172.812V97.4531H164.688ZM172.812 95.75V87.375H174.031V95.75H172.812ZM188.266 87.375V101.266H187.094V93.9844H185.047V100.547H183.922V87.6875H185.047V92.9688H187.094V87.375H188.266ZM176.906 97.8281V89.0781H182.109V90.0938H178.125V96.7812C180.039 96.7734 181.359 96.7031 182.906 96.3906L183.016 97.4219C181.344 97.7656 179.93 97.8203 177.797 97.8281H176.906ZM201.484 88.2812V93.9375H194.969V88.2812H201.484ZM195.969 100.266C198.359 100 200.656 98.6484 200.656 97.2656H196.547V96.3125H200.672V94.9531H201.891V96.3125H206.047V97.2656H201.922C201.914 98.6172 204.148 99.9688 206.531 100.266L206.109 101.219C204.023 100.93 202.117 99.9453 201.289 98.6641C200.453 99.9766 198.5 100.93 196.406 101.219L195.969 100.266ZM196.172 92.9688H200.281V89.2812H196.172V92.9688ZM204.484 95.3594V87.375H205.688V95.3594H204.484ZM224.781 95.625V96.625H218.984V101.266H217.781V96.625H212.062V95.625H224.781ZM213.688 93.9375V87.9531H214.906V89.875H221.906V87.9531H223.141V93.9375H213.688ZM214.906 92.9375H221.906V90.875H214.906V92.9375ZM236.656 87.375V93.0312H238.906V94.0625H236.656V101.266H235.438V87.375H236.656ZM226 97.6562C229.586 95.875 231.539 93.1953 231.82 89.9062H226.641V88.875H233.062C233.055 92.8047 231.211 96.3906 226.688 98.625L226 97.6562ZM251.188 87.375V101.297H249.953V87.375H251.188ZM240.547 97.9375V88.5625H241.766V92.2344H245.906V88.5625H247.109V97.9375H240.547ZM241.766 96.9062H245.906V93.2188H241.766V96.9062ZM266.219 94.25V95.2656H253.562V94.25H256.703V92.2891C255.594 91.8594 254.969 91.1562 254.969 90.2188C254.969 88.5859 256.844 87.6484 259.891 87.6406C262.914 87.6484 264.789 88.5859 264.797 90.2188C264.789 91.1484 264.172 91.8516 263.078 92.2891V94.25H266.219ZM255.094 98.7812C255.086 97.1953 256.875 96.3203 259.891 96.3281C262.867 96.3203 264.656 97.1953 264.672 98.7812C264.656 100.367 262.867 101.234 259.891 101.234C256.875 101.234 255.086 100.367 255.094 98.7812ZM256.234 90.2188C256.227 91.2344 257.617 91.8203 259.891 91.8281C262.141 91.8203 263.539 91.2344 263.547 90.2188C263.539 89.2188 262.141 88.6094 259.891 88.6094C257.617 88.6094 256.227 89.2188 256.234 90.2188ZM256.344 98.7812C256.328 99.7266 257.664 100.289 259.891 100.281C262.094 100.289 263.43 99.7266 263.438 98.7812C263.43 97.8359 262.094 97.2812 259.891 97.2656C257.664 97.2812 256.328 97.8359 256.344 98.7812ZM257.922 94.25H261.859V92.6172C261.273 92.7266 260.617 92.7812 259.891 92.7812C259.164 92.7812 258.508 92.7266 257.922 92.625V94.25Z" fill="white"/>
<path d="M313.266 90.0156C313.273 91.8359 314.633 93.4609 316.672 94.125L316.094 95.0938C314.492 94.5625 313.281 93.4609 312.68 92.0625C312.086 93.6562 310.805 94.8984 309.141 95.5L308.516 94.5156C310.594 93.8125 312.047 92.0234 312.062 90.0156V89.4219H308.891V88.4062H316.391V89.4219H313.266V90.0156ZM310.359 98.6719C310.367 97.0703 312.109 96.1406 314.969 96.1406C317.82 96.1406 319.547 97.0703 319.547 98.6719C319.547 100.297 317.82 101.234 314.969 101.234C312.109 101.234 310.367 100.297 310.359 98.6719ZM311.594 98.6719C311.578 99.6719 312.875 100.258 314.969 100.25C317.07 100.258 318.352 99.6719 318.359 98.6719C318.352 97.7031 317.07 97.125 314.969 97.125C312.875 97.125 311.578 97.7031 311.594 98.6719ZM318.203 95.7656V87.375H319.422V90.9219H321.516V91.9531H319.422V95.7656H318.203ZM333.844 87.375V101.297H332.609V87.375H333.844ZM323.203 97.9375V88.5625H324.422V92.2344H328.562V88.5625H329.766V97.9375H323.203ZM324.422 96.9062H328.562V93.2188H324.422V96.9062ZM351.219 88.2812V89.5C351.219 90.8125 351.219 92.2578 350.82 94.25H352.891V95.2656H347.156V101.297H345.922V95.2656H340.234V94.25H349.578C350 92.25 350 90.7969 350 89.5V89.2969H341.828V88.2812H351.219ZM365.969 87.375V101.266H364.781V93.9062H362.844V100.562H361.672V87.6719H362.844V92.8906H364.781V87.375H365.969ZM354.578 97.5312V89H359.891V97.5312H354.578ZM355.734 96.5469H358.734V89.9844H355.734V96.5469Z" fill="white"/>
<path d="M86.8125 144.969V145.953H82.5V147.719H88.2188V148.734H75.5625V147.719H81.2812V145.953H77.2969V141.688H78.5156V144.969H86.8125ZM76.8594 155.078V154.078H79.125V151.109H76.9844V150.125H86.8281V151.109H84.6719V154.078H86.9375V155.078H76.8594ZM80.3438 154.078H83.4688V151.109H80.3438V154.078ZM102.047 148.703V149.703H89.3906V148.703H102.047ZM90.7969 144.625C90.7969 142.883 92.7031 141.859 95.7188 141.875C98.7031 141.859 100.617 142.883 100.625 144.625C100.617 146.352 98.7031 147.391 95.7188 147.391C92.7031 147.391 90.7969 146.352 90.7969 144.625ZM91.0312 154.969V150.922H92.2656V153.938H100.641V154.969H91.0312ZM92.0625 144.625C92.0547 145.727 93.4766 146.391 95.7188 146.391C97.9453 146.391 99.3672 145.727 99.375 144.625C99.3672 143.539 97.9453 142.859 95.7188 142.859C93.4766 142.859 92.0547 143.539 92.0625 144.625ZM115.656 148.078V149.078H112.516V151.328C113.852 151.266 115.211 151.156 116.484 150.969L116.578 151.875C113.398 152.453 109.984 152.453 107.484 152.469L107.312 151.438C108.477 151.43 109.852 151.422 111.297 151.375V149.078H108.375V142.641H115.594V143.641H109.609V145.344H115.297V146.312H109.609V148.078H115.656ZM117.406 155.297V141.375H118.625V155.297H117.406ZM125.719 145.109C125.719 147.555 127.336 150.078 129.312 151.047L128.562 152.031C127.031 151.234 125.75 149.586 125.133 147.656C124.516 149.703 123.203 151.461 121.641 152.297L120.859 151.312C122.891 150.312 124.5 147.648 124.516 145.109V142.578H125.719V145.109ZM130.594 155.266V141.375H131.812V147.016H134.141V148.078H131.812V155.266H130.594ZM141.219 141.547C144.305 141.547 146.117 142.406 146.125 143.953C146.117 145.516 144.305 146.367 141.219 146.375C138.117 146.367 136.297 145.516 136.297 143.953C136.297 142.406 138.117 141.547 141.219 141.547ZM134.891 148.219V147.219H147.547V148.219H144.016V149.594H145.922V152.703H137.672V154.141H146.344V155.109H136.453V151.797H144.719V150.531H136.422V149.594H138.344V148.219H134.891ZM137.578 143.953C137.562 144.906 138.914 145.422 141.219 145.438C143.523 145.422 144.867 144.906 144.875 143.953C144.867 143.039 143.523 142.5 141.219 142.484C138.914 142.5 137.562 143.039 137.578 143.953ZM139.547 149.594H142.797V148.219H139.547V149.594Z" fill="white"/>
<path d="M213.391 142.031C215.25 142.023 216.672 143.109 216.938 144.703H219.844V141.375H221.078V148.828H219.844V145.719H216.945C216.703 147.359 215.273 148.453 213.391 148.453C211.273 148.453 209.773 147.141 209.781 145.234C209.773 143.352 211.273 142.023 213.391 142.031ZM210.953 145.234C210.953 146.5 211.961 147.414 213.391 147.422C214.789 147.414 215.797 146.5 215.797 145.234C215.797 143.953 214.789 143.062 213.391 143.078C211.961 143.062 210.953 143.953 210.953 145.234ZM212.125 155.078V149.531H213.359V151.297H219.844V149.531H221.078V155.078H212.125ZM213.359 154.078H219.844V152.281H213.359V154.078ZM236.094 149.453V150.469H230.297V155.266H229.094V150.469H223.375V149.453H236.094ZM225.016 147.562V142.156H234.438V147.562H225.016ZM226.219 146.594H233.219V143.156H226.219V146.594ZM248.375 142.781V144.328C248.367 146.109 248.367 147.898 247.875 150.484L246.672 150.344C247.164 147.891 247.164 146.062 247.172 144.328V143.797H238.547V142.781H248.375ZM237.219 153.297V152.281H240.359V147.703H241.578V152.281H243.828V147.703H245.031V152.281H249.875V153.297H237.219ZM263.703 148.078V149.078H260.328V150.844H262.141V155.266H260.906V151.828H252.453V150.844H254.406V149.078H251.047V148.078H263.703ZM252.453 144.359C252.453 142.695 254.352 141.703 257.375 141.719C260.383 141.703 262.273 142.695 262.281 144.359C262.273 146.031 260.383 147.031 257.375 147.016C254.352 147.031 252.453 146.031 252.453 144.359ZM253.719 144.359C253.711 145.414 255.125 146.055 257.375 146.062C259.602 146.055 261.023 145.414 261.031 144.359C261.023 143.328 259.602 142.688 257.375 142.703C255.125 142.688 253.711 143.328 253.719 144.359ZM255.641 150.844H259.125V149.078H255.641V150.844ZM276.141 142.281V147.938H269.625V142.281H276.141ZM270.625 154.266C273.016 154 275.312 152.648 275.312 151.266H271.203V150.312H275.328V148.953H276.547V150.312H280.703V151.266H276.578C276.57 152.617 278.805 153.969 281.188 154.266L280.766 155.219C278.68 154.93 276.773 153.945 275.945 152.664C275.109 153.977 273.156 154.93 271.062 155.219L270.625 154.266ZM270.828 146.969H274.938V143.281H270.828V146.969ZM279.141 149.359V141.375H280.344V149.359H279.141ZM291.562 143.938C291.562 145.742 292.953 147.469 294.984 148.172L294.344 149.141C292.781 148.578 291.57 147.414 290.977 145.984C290.375 147.578 289.086 148.859 287.438 149.469L286.797 148.5C288.844 147.766 290.328 145.914 290.328 143.953V143.344H287.188V142.344H294.672V143.344H291.562V143.938ZM288.906 151.453V150.438H298.25V155.266H297.016V151.453H288.906ZM294.234 146.047V145.016H297.016V141.375H298.25V149.703H297.016V146.047H294.234ZM313.219 148.141V149.141H300.562V148.141H313.219ZM301.969 144.375C301.969 142.727 303.867 141.734 306.891 141.734C309.898 141.734 311.789 142.727 311.797 144.375C311.789 146.031 309.898 147.008 306.891 147C303.867 147.008 301.969 146.031 301.969 144.375ZM302.094 152.781C302.086 151.195 303.875 150.312 306.891 150.328C309.867 150.312 311.656 151.195 311.672 152.781C311.656 154.391 309.867 155.273 306.891 155.266C303.875 155.273 302.086 154.391 302.094 152.781ZM303.234 144.375C303.227 145.414 304.641 146.031 306.891 146.031C309.117 146.031 310.539 145.414 310.547 144.375C310.539 143.336 309.117 142.719 306.891 142.734C304.641 142.719 303.227 143.336 303.234 144.375ZM303.344 152.781C303.328 153.742 304.664 154.297 306.891 154.281C309.094 154.297 310.43 153.742 310.438 152.781C310.43 151.812 309.094 151.258 306.891 151.266C304.664 151.258 303.328 151.812 303.344 152.781Z" fill="white"/>
<path d="M49.3281 210.672V212.219H42.3438V210.672H44.8594V209.312H46.8438V210.672H49.3281ZM42.7812 215.25C42.7734 213.711 44.0781 212.656 45.8594 212.656C47.6641 212.656 48.9609 213.711 48.9688 215.25C48.9609 216.719 47.6641 217.758 45.8594 217.766C44.0781 217.758 42.7734 216.719 42.7812 215.25ZM44.5625 215.25C44.5547 215.922 45.0859 216.297 45.8594 216.297C46.6328 216.297 47.1641 215.922 47.1719 215.25C47.1641 214.516 46.6328 214.133 45.8594 214.141C45.0859 214.133 44.5547 214.516 44.5625 215.25ZM44.8125 220.359V218.766H54.6406V223.438H52.6562V220.359H44.8125ZM49.7656 218.047V209.453H51.6562V212.984H52.75V209.234H54.6406V218.125H52.75V214.609H51.6562V218.047H49.7656ZM68.1562 209.234V217.25H66.1562V209.234H68.1562ZM56.2031 215.438C58.5859 214.719 59.625 212.898 59.625 211.125V209.75H61.7031V211.125C61.6875 212.852 62.7344 214.508 65.0312 215.219L64.0625 216.734C62.4375 216.25 61.3125 215.266 60.6719 213.992C60.0234 215.375 58.8672 216.469 57.1719 217L56.2031 215.438ZM58.625 223.281V217.906H68.1562V223.281H58.625ZM60.5938 221.688H66.2031V219.484H60.5938V221.688ZM83.0781 217.422V218.984H77.5156V223.438H75.5469V218.984H70.0625V217.422H83.0781ZM71.5938 216.047V209.766H73.5625V211.406H79.5312V209.766H81.5312V216.047H71.5938ZM73.5625 214.453H79.5312V212.969H73.5625V214.453ZM96.875 215.875V217.453H91.375V218.672H95.3281V223.281H85.4062V218.672H89.3906V217.453H83.9062V215.875H96.875ZM85.0469 211.203V209.609H95.7188V211.203H93.8594V213.375H95.625V214.969H85.1406V213.375H86.8906V211.203H85.0469ZM87.375 221.688H93.375V220.219H87.375V221.688ZM88.8906 213.375H91.8594V211.203H88.8906V213.375ZM108.969 210.328C108.961 212.008 110.68 213.859 113.938 214.266L113.156 215.875C110.672 215.516 108.852 214.367 107.922 212.828C106.984 214.359 105.172 215.516 102.719 215.875L101.922 214.266C105.156 213.859 106.867 212.008 106.875 210.328V209.641H108.969V210.328ZM101.422 218.578V216.953H114.391V218.578H108.859V223.438H106.891V218.578H101.422ZM127.172 209.219V223.469H125.188V209.219H127.172ZM116 212.016V210.406H122.766V215.891H118.078V218.5C120.25 218.484 122.086 218.375 124.172 218.031L124.344 219.641C122.008 220.055 119.891 220.141 117.297 220.141H116.016V214.312H120.734V212.016H116ZM136.391 209.438V210.422H142.094V209.438H144.078V214.203H134.422V209.438H136.391ZM132.766 216.547V214.938H145.734V216.547H140.234V217.438H144.156V221.031H136.234V221.844H144.531V223.344H134.281V219.656H142.188V218.891H134.266V217.438H138.234V216.547H132.766ZM136.391 212.719H142.094V211.859H136.391V212.719ZM157.812 209.219V214.672H159.828V216.312H157.812V223.406H155.812V209.219H157.812ZM146.438 219.422C149.805 217.734 151.617 215.469 151.992 212.297H147.25V210.672H154.016C154 214.922 152.344 218.602 147.562 220.953L146.438 219.422ZM171.953 212.781V214.375H162.062V209.438H164.047V212.781H171.953ZM160.422 217.219V215.594H173.422V217.219H160.422ZM161.906 220.75C161.906 219.07 163.781 218.117 166.891 218.109C169.977 218.117 171.828 219.07 171.844 220.75C171.828 222.445 169.977 223.391 166.891 223.391C163.781 223.391 161.906 222.445 161.906 220.75ZM163.938 220.75C163.93 221.492 164.922 221.867 166.891 221.875C168.82 221.867 169.836 221.492 169.844 220.75C169.836 219.992 168.82 219.672 166.891 219.656C164.922 219.672 163.93 219.992 163.938 220.75Z" fill="white"/>
<path d="M244.422 217.422V218.984H238.859V223.438H236.891V218.984H231.406V217.422H244.422ZM232.938 216.047V209.766H234.906V211.406H240.875V209.766H242.875V216.047H232.938ZM234.906 214.453H240.875V212.969H234.906V214.453ZM258.219 215.875V217.453H252.719V218.672H256.672V223.281H246.75V218.672H250.734V217.453H245.25V215.875H258.219ZM246.391 211.203V209.609H257.062V211.203H255.203V213.375H256.969V214.969H246.484V213.375H248.234V211.203H246.391ZM248.719 221.688H254.719V220.219H248.719V221.688ZM250.234 213.375H253.203V211.203H250.234V213.375ZM270.531 210.047V211.328C270.523 212.656 270.523 214.102 270.164 216.094H272.047V217.703H266.5V223.453H264.5V217.703H259.078V216.094H268.141C268.508 214.266 268.539 212.867 268.547 211.641H260.562V210.047H270.531ZM285.234 209.219V223.438H283.328V216.266H282.047V222.781H280.156V209.422H282.047V214.641H283.328V209.219H285.234ZM273.312 219.859V210.688H278.969V219.859H273.312ZM275.172 218.297H277.109V212.266H275.172V218.297ZM298.641 209.219V223.469H296.625V209.219H298.641ZM287.438 220.141V210.344H289.438V213.812H292.5V210.344H294.469V220.141H287.438ZM289.438 218.531H292.5V215.359H289.438V218.531ZM313.531 215.953V217.547H300.562V215.953H303.484V214.25C302.445 213.789 301.859 213.086 301.859 212.172C301.859 210.453 303.883 209.43 307.047 209.422C310.188 209.43 312.211 210.453 312.219 212.172C312.211 213.102 311.609 213.812 310.547 214.266V215.953H313.531ZM302.047 220.844C302.047 219.203 303.914 218.289 307.031 218.297C310.102 218.289 311.969 219.203 311.984 220.844C311.969 222.523 310.102 223.422 307.031 223.422C303.914 223.422 302.047 222.523 302.047 220.844ZM303.938 212.172C303.922 212.953 305.039 213.352 307.047 213.344C309.031 213.352 310.156 212.953 310.156 212.172C310.156 211.375 309.031 210.953 307.047 210.953C305.039 210.953 303.922 211.375 303.938 212.172ZM304.078 220.844C304.07 221.57 305.062 221.938 307.031 221.938C308.961 221.938 309.977 221.57 309.984 220.844C309.977 220.141 308.961 219.805 307.031 219.797C305.062 219.805 304.07 220.141 304.078 220.844ZM305.5 215.953H308.562V214.758C308.094 214.82 307.586 214.844 307.047 214.844C306.492 214.844 305.977 214.812 305.5 214.758V215.953ZM331.047 215.766V217.375H318.078V215.766H331.047ZM318.656 213.688C321.328 213.445 322.789 212.469 323.117 211.469H319.266V209.875H329.875V211.469H325.992C326.312 212.461 327.766 213.445 330.5 213.688L329.797 215.25C327.109 214.992 325.305 213.977 324.547 212.602C323.797 213.977 322.008 214.992 319.312 215.25L318.656 213.688ZM319.562 220.812C319.562 219.141 321.438 218.172 324.547 218.172C327.633 218.172 329.484 219.141 329.5 220.812C329.484 222.492 327.633 223.445 324.547 223.438C321.438 223.445 319.562 222.492 319.562 220.812ZM321.594 220.812C321.586 221.547 322.578 221.891 324.547 221.891C326.477 221.891 327.492 221.547 327.5 220.812C327.492 220.07 326.477 219.719 324.547 219.719C322.578 219.719 321.586 220.07 321.594 220.812ZM343.125 209.219V214.672H345.141V216.312H343.125V223.406H341.125V209.219H343.125ZM331.75 219.422C335.117 217.734 336.93 215.469 337.305 212.297H332.562V210.672H339.328C339.312 214.922 337.656 218.602 332.875 220.953L331.75 219.422Z" fill="#E35123"/>
<path d="M199.4 223L198 221.6L202.6 217L198 212.4L199.4 211L205.4 217L199.4 223Z" fill="white"/>
</svg>
