<svg width="72" height="72" viewBox="0 0 72 72" fill="none" xmlns="http://www.w3.org/2000/svg">
<path d="M54 30.0001C54 29.2044 53.6839 28.4414 53.1213 27.8787C52.5587 27.3161 51.7957 27.0001 51 27.0001H16.23L23.13 20.1301C23.6949 19.5652 24.0123 18.799 24.0123 18.0001C24.0123 17.2012 23.6949 16.435 23.13 15.8701C22.5651 15.3052 21.7989 14.9878 21 14.9878C20.2011 14.9878 19.4349 15.3052 18.87 15.8701L6.87001 27.8701C6.45373 28.2919 6.17174 28.8277 6.05962 29.4096C5.9475 29.9916 6.01027 30.5937 6.24001 31.1401C6.46507 31.6879 6.84726 32.1569 7.33842 32.4879C7.82958 32.8189 8.40773 32.9971 9.00001 33.0001H51C51.7957 33.0001 52.5587 32.684 53.1213 32.1214C53.6839 31.5588 54 30.7957 54 30.0001ZM65.76 40.8601C65.535 40.3122 65.1528 39.8432 64.6616 39.5122C64.1704 39.1812 63.5923 39.003 63 39.0001H21C20.2044 39.0001 19.4413 39.3161 18.8787 39.8788C18.3161 40.4414 18 41.2044 18 42.0001C18 42.7957 18.3161 43.5588 18.8787 44.1214C19.4413 44.684 20.2044 45.0001 21 45.0001H55.77L48.87 51.8701C48.5888 52.149 48.3656 52.4808 48.2133 52.8463C48.061 53.2119 47.9826 53.604 47.9826 54.0001C47.9826 54.3961 48.061 54.7882 48.2133 55.1538C48.3656 55.5194 48.5888 55.8512 48.87 56.1301C49.1489 56.4113 49.4807 56.6344 49.8463 56.7867C50.2119 56.9391 50.604 57.0175 51 57.0175C51.396 57.0175 51.7882 56.9391 52.1537 56.7867C52.5193 56.6344 52.8511 56.4113 53.13 56.1301L65.13 44.1301C65.5463 43.7082 65.8283 43.1725 65.9404 42.5905C66.0525 42.0085 65.9897 41.4064 65.76 40.8601Z" fill="#555555"/>
</svg>
