<svg width="32" height="32" viewBox="0 0 32 32" fill="none" xmlns="http://www.w3.org/2000/svg">
<path d="M14 10C14 8.7 14.3167 7.41957 14.9229 6.26954C15.5291 5.11951 16.4063 4.13452 17.4788 3.39983C18.5513 2.66514 19.7867 2.20288 21.078 2.05306C22.3694 1.90324 23.6778 2.07038 24.89 2.54001C25.0449 2.60021 25.1823 2.69805 25.2899 2.82471C25.3975 2.95136 25.4718 3.10282 25.5061 3.2654C25.5405 3.42799 25.5338 3.59656 25.4866 3.7559C25.4394 3.91524 25.3533 4.06031 25.236 4.17801L21.414 8.00001L24 10.586L27.82 6.76601C27.9375 6.6482 28.0826 6.56159 28.2421 6.51402C28.4015 6.46645 28.5704 6.45942 28.7332 6.49359C28.8961 6.52775 29.0478 6.60201 29.1748 6.70965C29.3017 6.81729 29.3997 6.9549 29.46 7.11001C29.9983 8.4983 30.1385 10.0093 29.8647 11.4729C29.591 12.9365 28.9142 14.2947 27.9105 15.3946C26.9069 16.4945 25.6162 17.2925 24.1836 17.6987C22.7511 18.1049 21.2336 18.1033 19.802 17.694L9.792 27.84C9.0517 28.5726 8.05327 28.9851 7.01176 28.9887C5.97026 28.9923 4.96901 28.5866 4.22369 27.8591C3.47837 27.1317 3.04861 26.1405 3.02697 25.0992C3.00533 24.058 3.39354 23.0498 4.108 22.292L14.208 11.824C14.0691 11.226 13.9993 10.614 14 10ZM22 4.00001C21.0572 3.99965 20.1276 4.22147 19.2866 4.64748C18.4455 5.07349 17.7167 5.6917 17.1592 6.45198C16.6017 7.21227 16.2312 8.09323 16.0778 9.02345C15.9243 9.95366 15.9922 10.9069 16.276 11.806C16.3303 11.9777 16.3372 12.1609 16.296 12.3362C16.2548 12.5115 16.1671 12.6724 16.042 12.802L5.546 23.68C5.20148 24.0578 5.01718 24.5547 5.03198 25.0658C5.04678 25.5769 5.25953 26.0623 5.62535 26.4195C5.99116 26.7768 6.48144 26.978 6.99275 26.9807C7.50406 26.9834 7.99644 26.7874 8.366 26.434L18.816 15.848C18.952 15.7107 19.1248 15.6156 19.3136 15.5745C19.5025 15.5333 19.6992 15.5477 19.88 15.616C20.8326 15.9755 21.8611 16.0867 22.8685 15.939C23.876 15.7913 24.8293 15.3897 25.6387 14.772C26.448 14.1542 27.0869 13.3407 27.4951 12.4079C27.9033 11.4751 28.0674 10.4537 27.972 9.44001L24.706 12.708C24.5185 12.8955 24.2642 13.0008 23.999 13.0008C23.7338 13.0008 23.4795 12.8955 23.292 12.708L19.292 8.70801C19.1045 8.52048 18.9992 8.26617 18.9992 8.00101C18.9992 7.73584 19.1045 7.48153 19.292 7.29401L22.56 4.02601C22.3738 4.00874 22.187 4.00006 22 4.00001Z" fill="#E35123"/>
</svg>
