<?xml version="1.0" encoding="utf-8"?>
<!-- Generator: Adobe Illustrator 27.0.0, SVG Export Plug-In . SVG Version: 6.00 Build 0)  -->
<svg version="1.1" id="Layer_1" xmlns="http://www.w3.org/2000/svg" xmlns:xlink="http://www.w3.org/1999/xlink" x="0px" y="0px"
	 viewBox="0 0 160.9 146.1" style="enable-background:new 0 0 160.9 146.1;" xml:space="preserve">
<style type="text/css">
	.st0{opacity:0.3;}
	.st1{fill:#FF00FF;}
	.st2{fill:#FF0000;}
	.st3{fill:#FF000C;}
	.st4{fill:#FF0018;}
	.st5{fill:#FF0024;}
	.st6{fill:#FF0031;}
	.st7{fill:#FF003D;}
	.st8{fill:#FF0049;}
	.st9{fill:#FF0055;}
	.st10{fill:#FF0061;}
	.st11{fill:#FF006D;}
	.st12{fill:#FF0079;}
	.st13{fill:#FF0086;}
	.st14{fill:#FF0092;}
	.st15{fill:#FF009E;}
	.st16{fill:#FF00AA;}
	.st17{fill:#FF00B6;}
	.st18{fill:#FF00C2;}
	.st19{fill:#FF00CE;}
	.st20{fill:#FF00DB;}
	.st21{fill:#FF00E7;}
	.st22{fill:#FF00F3;}
	.st23{fill:#0000FF;}
	.st24{fill:#000CFF;}
	.st25{fill:#0018FF;}
	.st26{fill:#0024FF;}
	.st27{fill:#0031FF;}
	.st28{fill:#003DFF;}
	.st29{fill:#0049FF;}
	.st30{fill:#0055FF;}
	.st31{fill:#0061FF;}
	.st32{fill:#006DFF;}
	.st33{fill:#0079FF;}
	.st34{fill:#0086FF;}
	.st35{fill:#0092FF;}
	.st36{fill:#009EFF;}
	.st37{fill:#00AAFF;}
	.st38{fill:#00B6FF;}
	.st39{fill:#00C2FF;}
	.st40{fill:#00CEFF;}
	.st41{fill:#00DBFF;}
	.st42{fill:#00E7FF;}
	.st43{fill:#00F3FF;}
	.st44{fill:#00FFFF;}
	.st45{opacity:0.8;}
</style>
<g>
	<g class="st0">
		<polygon class="st1" points="55.4,88.6 115.9,88.6 120.8,63.1 21.9,63.1 15.8,95.2 54.1,95.2 		"/>
		<polygon class="st1" points="66.3,31.1 132.3,31.1 133.4,25.3 29,25.3 22.9,57.4 61.3,57.4 		"/>
		<polygon class="st1" points="138.2,0 33.8,0 30.1,19.6 134.5,19.6 		"/>
		<polygon class="st1" points="6.1,146.1 110.3,146.1 111.7,138.7 7.5,138.7 		"/>
		<polygon class="st1" points="116.2,115 112.7,133 8.6,133 14.7,100.9 53.1,100.9 50.4,115 		"/>
		<g>
			<polygon class="st2" points="105.4,19.6 1.1,19.6 0,25.3 104.3,25.3 			"/>
			<polygon class="st3" points="106.2,19.6 1.9,19.6 0.8,25.3 105.2,25.3 			"/>
			<polygon class="st4" points="107.1,19.6 2.7,19.6 1.7,25.3 106,25.3 			"/>
			<polygon class="st5" points="107.9,19.6 3.6,19.6 2.5,25.3 106.8,25.3 			"/>
			<polygon class="st6" points="108.7,19.6 4.4,19.6 3.3,25.3 107.7,25.3 			"/>
			<polygon class="st7" points="109.5,19.6 5.2,19.6 4.1,25.3 108.5,25.3 			"/>
			<polygon class="st8" points="110.4,19.6 6,19.6 5,25.3 109.3,25.3 			"/>
			<polygon class="st9" points="111.2,19.6 6.9,19.6 5.8,25.3 110.1,25.3 			"/>
			<polygon class="st10" points="112,19.6 7.7,19.6 6.6,25.3 111,25.3 			"/>
			<polygon class="st11" points="112.9,19.6 8.5,19.6 7.5,25.3 111.8,25.3 			"/>
			<polygon class="st12" points="113.7,19.6 9.4,19.6 8.3,25.3 112.6,25.3 			"/>
			<polygon class="st13" points="114.5,19.6 10.2,19.6 9.1,25.3 113.5,25.3 			"/>
			<polygon class="st14" points="115.4,19.6 11,19.6 9.9,25.3 114.3,25.3 			"/>
			<polygon class="st15" points="116.2,19.6 11.9,19.6 10.8,25.3 115.1,25.3 			"/>
			<polygon class="st16" points="117,19.6 12.7,19.6 11.6,25.3 115.9,25.3 			"/>
			<polygon class="st17" points="117.8,19.6 13.5,19.6 12.4,25.3 116.8,25.3 			"/>
			<polygon class="st18" points="118.7,19.6 14.3,19.6 13.3,25.3 117.6,25.3 			"/>
			<polygon class="st19" points="119.5,19.6 15.2,19.6 14.1,25.3 118.4,25.3 			"/>
			<polygon class="st20" points="120.3,19.6 16,19.6 14.9,25.3 119.3,25.3 			"/>
			<polygon class="st21" points="121.2,19.6 16.8,19.6 15.8,25.3 120.1,25.3 			"/>
			<polygon class="st22" points="122,19.6 17.7,19.6 16.6,25.3 120.9,25.3 			"/>
			<polygon class="st1" points="122.8,19.6 18.5,19.6 17.4,25.3 121.7,25.3 			"/>
		</g>
		<polygon class="st1" points="136,57.5 75.5,57.5 75.5,57.4 37.2,57.4 36.1,63.1 135,63.1 		"/>
		<polygon class="st1" points="47.3,95.2 9,95.2 7.9,100.9 46.3,100.9 		"/>
		<polygon class="st1" points="139.8,133 138.7,138.7 34.6,138.7 35.7,133 		"/>
	</g>
	<g class="st0">
		<g>
			<polygon class="st23" points="95.5,88.6 156.1,88.6 160.9,63.1 62,63.1 55.9,95.2 94.3,95.2 			"/>
			<polygon class="st24" points="94.5,88.6 155.1,88.6 159.9,63.1 61,63.1 54.9,95.2 93.3,95.2 			"/>
			<polygon class="st25" points="93.5,88.6 154.1,88.6 158.9,63.1 60,63.1 53.9,95.2 92.3,95.2 			"/>
			<polygon class="st26" points="92.6,88.6 153.1,88.6 157.9,63.1 59.1,63.1 53,95.2 91.3,95.2 			"/>
			<polygon class="st27" points="91.6,88.6 152.1,88.6 157,63.1 58.1,63.1 52,95.2 90.3,95.2 			"/>
			<polygon class="st28" points="90.6,88.6 151.1,88.6 156,63.1 57.1,63.1 51,95.2 89.3,95.2 			"/>
			<polygon class="st29" points="89.6,88.6 150.1,88.6 155,63.1 56.1,63.1 50,95.2 88.3,95.2 			"/>
			<polygon class="st30" points="88.6,88.6 149.1,88.6 154,63.1 55.1,63.1 49,95.2 87.3,95.2 			"/>
			<polygon class="st31" points="87.6,88.6 148.1,88.6 153,63.1 54.1,63.1 48,95.2 86.3,95.2 			"/>
			<polygon class="st32" points="86.6,88.6 147.2,88.6 152,63.1 53.1,63.1 47,95.2 85.4,95.2 			"/>
			<polygon class="st33" points="85.6,88.6 146.2,88.6 151,63.1 52.1,63.1 46,95.2 84.4,95.2 			"/>
			<polygon class="st34" points="84.6,88.6 145.2,88.6 150,63.1 51.1,63.1 45,95.2 83.4,95.2 			"/>
			<polygon class="st35" points="83.6,88.6 144.2,88.6 149,63.1 50.1,63.1 44,95.2 82.4,95.2 			"/>
			<polygon class="st36" points="82.6,88.6 143.2,88.6 148,63.1 49.1,63.1 43,95.2 81.4,95.2 			"/>
			<polygon class="st37" points="81.6,88.6 142.2,88.6 147,63.1 48.1,63.1 42.1,95.2 80.4,95.2 			"/>
			<polygon class="st38" points="80.7,88.6 141.2,88.6 146,63.1 47.2,63.1 41.1,95.2 79.4,95.2 			"/>
			<polygon class="st39" points="79.7,88.6 140.2,88.6 145.1,63.1 46.2,63.1 40.1,95.2 78.4,95.2 			"/>
			<polygon class="st40" points="78.7,88.6 139.2,88.6 144.1,63.1 45.2,63.1 39.1,95.2 77.4,95.2 			"/>
			<polygon class="st41" points="77.7,88.6 138.2,88.6 143.1,63.1 44.2,63.1 38.1,95.2 76.4,95.2 			"/>
			<polygon class="st42" points="76.7,88.6 137.2,88.6 142.1,63.1 43.2,63.1 37.1,95.2 75.4,95.2 			"/>
			<polygon class="st43" points="75.7,88.6 136.2,88.6 141.1,63.1 42.2,63.1 36.1,95.2 74.4,95.2 			"/>
			<polygon class="st44" points="74.7,88.6 135.2,88.6 140.1,63.1 41.2,63.1 35.1,95.2 73.5,95.2 			"/>
		</g>
		<polygon class="st44" points="85.6,31.5 151.6,31.5 152.7,25.7 48.4,25.7 42.3,57.8 80.6,57.8 		"/>
		<polygon class="st44" points="157.5,0 53.2,0 49.4,19.6 153.8,19.6 		"/>
		<polygon class="st44" points="25.5,146.1 129.6,146.1 131,138.7 26.9,138.7 		"/>
		<polygon class="st44" points="135.5,115 132.1,133 27.9,133 34,100.9 72.4,100.9 69.7,115 		"/>
		<polygon class="st44" points="142.2,19.6 37.8,19.6 36.8,25.3 141.1,25.3 		"/>
		<polygon class="st44" points="155.4,57.5 94.8,57.5 94.8,57.4 56.5,57.4 55.4,63.1 154.3,63.1 		"/>
		<polygon class="st44" points="66.7,95.2 28.3,95.2 27.2,100.9 65.6,100.9 		"/>
	</g>
	<g>
		<polygon class="st45" points="63.5,88.6 124,88.6 128.9,63.1 30,63.1 23.9,95.2 62.2,95.2 		"/>
		<polygon class="st45" points="74.4,31.1 140.4,31.1 141.5,25.3 37.2,25.3 31.1,57.4 69.4,57.4 		"/>
		<polygon class="st45" points="146.3,0 42,0 38.2,19.6 142.6,19.6 		"/>
		<polygon class="st45" points="14.3,146.1 118.4,146.1 119.8,138.7 15.7,138.7 		"/>
		<polygon class="st45" points="124.3,115 120.9,133 16.7,133 22.9,100.9 61.2,100.9 58.5,115 		"/>
		<polygon class="st45" points="130.2,20 25.9,20 24.8,25.7 129.2,25.7 		"/>
		<polygon class="st45" points="144.2,57.5 83.6,57.5 83.6,57.4 45.3,57.4 44.2,63.1 143.1,63.1 		"/>
		<polygon class="st45" points="55.5,95.2 17.1,95.2 16,100.9 54.4,100.9 		"/>
		<polygon class="st45" points="147.9,133 146.8,138.7 42.7,138.7 43.8,133 		"/>
	</g>
</g>
</svg>
