<?xml version="1.0" encoding="utf-8"?>
<!-- Generator: Adobe Illustrator 27.0.0, SVG Export Plug-In . SVG Version: 6.00 Build 0)  -->
<svg version="1.1" id="Layer_1" xmlns="http://www.w3.org/2000/svg" xmlns:xlink="http://www.w3.org/1999/xlink" x="0px" y="0px"
	 viewBox="0 0 1920 1080" style="enable-background:new 0 0 1920 1080;" xml:space="preserve">
<style type="text/css">
	.st0{opacity:0.3;}
	.st1{fill:none;stroke:#FFFFFF;stroke-width:2;stroke-miterlimit:10;}
</style>
<g class="st0">
	<path class="st1" d="M1180.3,223.9l30.5-91.6h32.8l30.4,91.6H1248l-5.5-18h-30.7l-5.4,18H1180.3z M1236.9,187.7l-9.4-30.8h-0.8
		l-9.4,30.8H1236.9z"/>
	<path class="st1" d="M1309,223.9v-91.6h34.6c28.2,0,45.8,17.1,45.8,45.8c0,28.6-17.6,45.8-45.6,45.8H1309z M1342.9,203.4
		c14.1,0,22.1-6,22.1-25.3c0-19.4-8-25.3-22.8-25.3h-9.2v50.6H1342.9z"/>
	<path class="st1" d="M1427.1,223.9v-91.6h34.6c28.2,0,45.8,17.1,45.8,45.8c0,28.6-17.6,45.8-45.6,45.8H1427.1z M1461,203.4
		c14.1,0,22.1-6,22.1-25.3c0-19.4-8-25.3-22.8-25.3h-9.2v50.6H1461z"/>
	<path class="st1" d="M1545.1,132.3h39c20.5,0,33.9,11.6,33.9,31c0,12.7-5.8,21.6-15.7,26.3l18.7,34.4h-26.2l-16.3-30.5h-9.4v30.5
		h-24V132.3z M1578.5,174.5c9,0,14.4-3.3,14.3-11.3c0.1-8.1-5.3-11.7-14.3-11.8h-9.4v23H1578.5z"/>
	<path class="st1" d="M1654.8,132.3h65.4v19.5h-41.4v16.6h38v19.5h-38v16.6h41.3v19.5h-65.3V132.3z"/>
	<path class="st1" d="M1795.4,150.9c-7.9-0.1-11.6,3.1-11.6,7.3c-0.2,4.7,4.1,7.3,12.7,9.1l7.6,1.8c19.7,4.2,28.5,13.7,28.6,27.8
		c-0.1,18-13.9,28-37.1,28.1c-23.7-0.1-39-10.3-39.2-32.9h23c0.4,8.5,6.3,13,15.8,13c8.3,0,12.7-3.4,12.8-8.2c-0.1-4.4-3.9-7-14-9.2
		l-9.2-2c-16.1-3.5-26-11.5-25.9-25.7c-0.1-17.3,15.2-29,36.7-29c22,0,35.8,11.8,35.9,29.6h-23.2
		C1807.7,154.5,1803.6,150.8,1795.4,150.9z"/>
	<path class="st1" d="M1905,150.9c-7.9-0.1-11.6,3.1-11.6,7.3c-0.2,4.7,4.1,7.3,12.7,9.1l7.6,1.8c19.7,4.2,28.5,13.7,28.6,27.8
		c-0.1,18-13.9,28-37.1,28.1c-23.7-0.1-39-10.3-39.2-32.9h23c0.4,8.5,6.3,13,15.8,13c8.3,0,12.7-3.4,12.8-8.2c-0.1-4.4-3.9-7-14-9.2
		l-9.2-2c-16.1-3.5-26-11.5-25.9-25.7c-0.1-17.3,15.2-29,36.7-29c22,0,35.8,11.8,35.9,29.6h-23.2
		C1917.3,154.5,1913.2,150.8,1905,150.9z"/>
</g>
<g class="st0">
	<path class="st1" d="M-39.7,662.5c-14.7,0-23,11.2-23,30.2c0,19.9,8.5,30.1,22.9,30.2c10.8-0.1,17.5-5.8,19-15.2l28.3,0.3
		C6,726.1-9.8,747.2-40.4,747.2c-29.1,0-50.9-19.3-51-54.5c0.1-35.3,22.5-54.5,51-54.5c26.4,0,45.6,14.8,47.9,40.9h-28.3
		C-21.7,669.1-28.4,662.5-39.7,662.5z"/>
	<path class="st1" d="M142,639.7v68.1c0.1,24-18.4,39.2-45.6,39.3C69.2,747,50.9,731.8,51,707.8v-68.1h27.8v65.6
		c0,10.3,7.3,17.6,17.6,17.6c10.4,0,17.7-7.3,17.7-17.6v-65.6H142z"/>
	<path class="st1" d="M228.7,661.2c-9.2-0.1-13.4,3.6-13.5,8.5c-0.2,5.5,4.8,8.5,14.6,10.5l8.8,2.1c22.8,4.8,33,15.9,33.1,32.2
		c-0.1,20.8-16.1,32.4-42.9,32.5c-27.4-0.1-45.2-11.9-45.4-38.1h26.7c0.4,9.9,7.3,15.1,18.3,15.1c9.6,0,14.7-3.9,14.8-9.5
		c-0.1-5.1-4.5-8.1-16.3-10.7l-10.7-2.3c-18.7-4.1-30.1-13.3-30-29.7c-0.1-20.1,17.6-33.5,42.5-33.5c25.4,0,41.5,13.7,41.6,34.3
		h-26.8C242.9,665.4,238.2,661.1,228.7,661.2z"/>
	<path class="st1" d="M310.1,639.7h91.4v22.6h-31.9v83.5H342v-83.5h-31.9V639.7z"/>
	<path class="st1" d="M488.6,747.2c-28.9,0-51.3-19.4-51.4-54.5c0.1-35.3,22.5-54.5,51.4-54.5c28.6,0,51.3,19.2,51.3,54.5
		C539.8,728,517.2,747.2,488.6,747.2z M488.6,722.9c14.5-0.1,22.6-10.7,22.6-30.2c0.1-19.6-8.1-30.2-22.6-30.2
		c-14.6,0-22.7,10.6-22.7,30.2C465.8,712.2,473.9,722.8,488.6,722.9z"/>
	<path class="st1" d="M618.2,639.7l25.2,61.7h1.3l25.2-61.7h34.7v106.1h-27.2v-62.4h-0.9L652.3,745h-16.7l-24-62.1h-0.9v62.8h-27.2
		V639.7H618.2z"/>
	<path class="st1" d="M749,639.7h75.7v22.6h-47.9v19.2h43.9V704h-43.9v19.2h47.8v22.6H749V639.7z"/>
	<path class="st1" d="M869.3,639.7h45.1c23.7,0,39.3,13.5,39.3,35.9c0,14.6-6.7,25-18.2,30.4l21.7,39.8h-30.3l-18.8-35.3h-10.9v35.3
		h-27.8V639.7z M908,688.6c10.5,0,16.6-3.8,16.6-13c0.1-9.4-6.1-13.6-16.6-13.6h-10.8v26.7H908z"/>
</g>
<g class="st0">
	<path class="st1" d="M1186.2,883.6c-9.2-0.1-13.4,3.6-13.5,8.5c-0.2,5.5,4.8,8.5,14.6,10.5l8.8,2.1c22.8,4.8,33,15.9,33.1,32.2
		c-0.1,20.8-16.1,32.4-42.9,32.5c-27.4-0.1-45.2-11.9-45.4-38.1h26.7c0.4,9.9,7.3,15.1,18.3,15.1c9.6,0,14.7-3.9,14.8-9.5
		c-0.1-5.1-4.5-8.1-16.3-10.7l-10.7-2.3c-18.7-4.1-30.1-13.3-30-29.7c-0.1-20.1,17.6-33.5,42.5-33.5c25.4,0,41.5,13.7,41.6,34.3
		H1201C1200.4,887.8,1195.7,883.5,1186.2,883.6z"/>
	<path class="st1" d="M1270.7,862.1h75.7v22.6h-47.9v19.2h43.9v22.6h-43.9v19.2h47.8v22.6h-75.6V862.1z"/>
	<path class="st1" d="M1391.1,862.1h45.1c23.7,0,39.3,13.5,39.3,35.9c0,14.6-6.7,25-18.2,30.4l21.7,39.8h-30.3l-18.8-35.3h-10.9
		v35.3h-27.8V862.1z M1429.7,911c10.5,0,16.6-3.8,16.6-13c0.1-9.4-6.1-13.6-16.6-13.6h-10.8V911H1429.7z"/>
	<path class="st1" d="M1564.6,937.6h0.9l22.3-75.6h31.5L1584,968.1h-37.9l-35.3-106.1h31.5L1564.6,937.6z"/>
	<path class="st1" d="M1687.6,968.1h-27.8V862.1h27.8V968.1z"/>
	<path class="st1" d="M1782.9,884.9c-14.7,0-23,11.2-23,30.2c0,19.9,8.5,30.1,22.9,30.2c10.8-0.1,17.5-5.8,19-15.2l28.3,0.3
		c-1.5,18.2-17.4,39.3-47.9,39.3c-29.1,0-50.9-19.3-51-54.5c0.1-35.3,22.5-54.5,51-54.5c26.4,0,45.6,14.8,47.9,40.9h-28.3
		C1800.9,891.5,1794.2,884.9,1782.9,884.9z"/>
	<path class="st1" d="M1873.6,862.1h75.7v22.6h-47.9v19.2h43.9v22.6h-43.9v19.2h47.8v22.6h-75.6V862.1z"/>
</g>
</svg>
