<?xml version="1.0" encoding="utf-8"?>
<!-- Generator: Adobe Illustrator 27.0.0, SVG Export Plug-In . SVG Version: 6.00 Build 0)  -->
<svg version="1.1" id="Layer_1" xmlns="http://www.w3.org/2000/svg" xmlns:xlink="http://www.w3.org/1999/xlink" x="0px" y="0px"
	 viewBox="0 0 1920 1080" style="enable-background:new 0 0 1920 1080;" xml:space="preserve">
<style type="text/css">
	.st0{opacity:0.5;}
	.st1{fill:#FFFFFF;}
	.st2{opacity:0.5;fill:#FFFFFF;}
</style>
<g class="st0">
	<path class="st1" d="M1555.4,975.6l243.4-243.4c20.7-20.7,54.3-20.7,75,0l0,0c20.7,20.7,20.7,54.3,0,75l-243.4,243.4
		c-20.7,20.7-54.3,20.7-75,0l0,0C1534.7,1029.9,1534.7,996.3,1555.4,975.6z"/>
</g>
<g class="st0">
	
		<image style="overflow:visible;enable-background:new    ;" width="270" height="270" xlink:href="672F105B.png"  transform="matrix(1 0 0 1 -6.315 273.785)">
	</image>
</g>
<g class="st0">
	
		<image style="overflow:visible;enable-background:new    ;" width="255" height="256" xlink:href="672F1059.png"  transform="matrix(1 0 0 1 95.685 913.785)">
	</image>
</g>
<path class="st2" d="M1788.7-14.8l-369.3,369.3c-20.7,20.7-54.3,20.7-75,0l0,0c-20.7-20.7-20.7-54.3,0-75l369.3-369.3"/>
</svg>
