<?xml version="1.0" encoding="utf-8"?>
<!-- Generator: Adobe Illustrator 27.0.0, SVG Export Plug-In . SVG Version: 6.00 Build 0)  -->
<svg version="1.1" id="Layer_1" xmlns="http://www.w3.org/2000/svg" xmlns:xlink="http://www.w3.org/1999/xlink" x="0px" y="0px"
	 viewBox="0 0 1920 1080" style="enable-background:new 0 0 1920 1080;" xml:space="preserve">
<style type="text/css">
	.st0{opacity:0.3;}
	.st1{fill:#FFFFFF;}
</style>
<g class="st0">
	<path class="st1" d="M997.9,301.5v1h1v-1H997.9z M974.1,301.5h-1v1h1V301.5z M974.1,211v-1h-1v1H974.1z M997.9,211h1v-1h-1V211z
		 M997.9,300.5h-23.8v2h23.8V300.5z M975.1,301.5V211h-2v90.5H975.1z M974.1,212h23.8v-2h-23.8V212z M996.9,211v90.5h2V211H996.9z
		 M1130.2,301.5v1h1v-1H1130.2z M1110.3,301.5l-0.8,0.6l0.3,0.4h0.5V301.5z M1076.7,252.7l0.8-0.6l-0.3-0.4h-0.5V252.7z
		 M1076.1,252.7v-1h-1v1H1076.1z M1076.1,301.5v1h1v-1H1076.1z M1052.4,301.5h-1v1h1V301.5z M1052.4,211v-1h-1v1H1052.4z
		 M1072.7,211l0.8-0.6l-0.3-0.4h-0.5V211z M1105.7,259.7l-0.8,0.6l0.3,0.4h0.5V259.7z M1106.5,259.7v1h1v-1H1106.5z M1106.5,211v-1
		h-1v1H1106.5z M1130.2,211h1v-1h-1V211z M1130.2,300.5h-19.9v2h19.9V300.5z M1111.1,300.9l-33.6-48.8l-1.6,1.1l33.6,48.8
		L1111.1,300.9z M1076.7,251.7h-0.6v2h0.6V251.7z M1075.1,252.7v48.8h2v-48.8H1075.1z M1076.1,300.5h-23.8v2h23.8V300.5z
		 M1053.4,301.5V211h-2v90.5H1053.4z M1052.4,212h20.3v-2h-20.3V212z M1071.8,211.6l33.1,48.7l1.7-1.1l-33.1-48.7L1071.8,211.6z
		 M1105.7,260.7h0.8v-2h-0.8V260.7z M1107.5,259.7V211h-2v48.7H1107.5z M1106.5,212h23.8v-2h-23.8V212z M1129.2,211v90.5h2V211
		H1129.2z M1227.2,275.4l-1,0.3l0.2,0.7h0.7V275.4z M1228,275.4v1h0.7l0.2-0.7L1228,275.4z M1247,211v-1h-0.8l-0.2,0.7L1247,211z
		 M1273.9,211l0.9,0.3l0.4-1.3h-1.4V211z M1243.8,301.5v1h0.7l0.2-0.7L1243.8,301.5z M1211.5,301.5l-0.9,0.3l0.2,0.7h0.7V301.5z
		 M1181.4,211v-1h-1.4l0.4,1.3L1181.4,211z M1208.3,211l1-0.3l-0.2-0.7h-0.7V211z M1227.2,276.4h0.8v-2h-0.8V276.4z M1229,275.7
		l18.9-64.4l-1.9-0.6l-18.9,64.4L1229,275.7z M1247,212h26.9v-2H1247V212z M1272.9,210.7l-30.1,90.5l1.9,0.6l30.1-90.5L1272.9,210.7
		z M1243.8,300.5h-32.3v2h32.3V300.5z M1212.4,301.2l-30.1-90.5l-1.9,0.6l30.1,90.5L1212.4,301.2z M1181.4,212h26.9v-2h-26.9V212z
		 M1207.3,211.3l18.9,64.4l1.9-0.6l-18.9-64.4L1207.3,211.3z M1325.1,211v-1h-1v1H1325.1z M1389.7,211h1v-1h-1V211z M1389.7,230.2v1
		h1v-1H1389.7z M1348.8,230.2v-1h-1v1H1348.8z M1348.8,246.6h-1v1h1V246.6z M1386.4,246.6h1v-1h-1V246.6z M1386.4,265.8v1h1v-1
		H1386.4z M1348.8,265.8v-1h-1v1H1348.8z M1348.8,282.3h-1v1h1V282.3z M1389.5,282.3h1v-1h-1V282.3z M1389.5,301.5v1h1v-1H1389.5z
		 M1325.1,301.5h-1v1h1V301.5z M1325.1,212h64.6v-2h-64.6V212z M1388.7,211v19.2h2V211H1388.7z M1389.7,229.2h-40.9v2h40.9V229.2z
		 M1347.8,230.2v16.4h2v-16.4H1347.8z M1348.8,247.6h37.6v-2h-37.6V247.6z M1385.4,246.6v19.2h2v-19.2H1385.4z M1386.4,264.8h-37.6
		v2h37.6V264.8z M1347.8,265.8v16.5h2v-16.5H1347.8z M1348.8,283.3h40.7v-2h-40.7V283.3z M1388.5,282.3v19.2h2v-19.2H1388.5z
		 M1389.5,300.5h-64.4v2h64.4V300.5z M1326.1,301.5V211h-2v90.5H1326.1z M1493.2,238.9l-1,0.1l0.1,0.9h0.9V238.9z M1487.3,230.4
		l-0.4,0.9l0,0v0L1487.3,230.4z M1470.4,232.9l-0.8-0.6l0,0L1470.4,232.9z M1469.2,236.6l1,0.1v0v0H1469.2z M1472,242.2l-0.6,0.8
		l0,0l0,0L1472,242.2z M1481.6,245.8l-0.2,1l0,0l0,0L1481.6,245.8z M1489.2,247.2l0.2-1l0,0l0,0L1489.2,247.2z M1510.3,257.3
		l-0.7,0.7l0,0L1510.3,257.3z M1517.3,274.9h1v0L1517.3,274.9z M1512.9,289.9l-0.8-0.6v0L1512.9,289.9z M1500.3,299.4l0.4,0.9v0
		L1500.3,299.4z M1480.7,302.6v-1l0,0L1480.7,302.6z M1460.2,299.1l-0.4,0.9l0,0L1460.2,299.1z M1446.8,288.2l-0.8,0.5v0
		L1446.8,288.2z M1442,270.1v-1h-1l0,1L1442,270.1z M1464.7,270.1l1,0l0-1h-1V270.1z M1466.8,277.2l-0.8,0.5l0,0v0L1466.8,277.2z
		 M1472.2,281.6l-0.4,0.9v0l0,0L1472.2,281.6z M1493,274.9l1,0v0v0L1493,274.9z M1491.5,271.1l-0.8,0.6l0,0l0,0L1491.5,271.1z
		 M1487.2,268.1l-0.4,0.9l0,0L1487.2,268.1z M1479.1,265.8l-0.2,1l0,0L1479.1,265.8z M1470,263.7l0.2-1l0,0L1470,263.7z
		 M1450.9,254.8l-0.7,0.7l0,0L1450.9,254.8z M1444.3,238.3l1,0v0H1444.3z M1448.9,223.4l-0.8-0.6v0L1448.9,223.4z M1461.7,213.3
		l0.4,0.9l0,0L1461.7,213.3z M1499.3,213.4l-0.4,0.9l0,0L1499.3,213.4z M1511.7,223.6l-0.8,0.5v0L1511.7,223.6z M1516,238.9v1h1v-1
		H1516z M1494.2,238.9c-0.2-2.2-0.8-4.1-1.8-5.7l-1.7,1.1c0.9,1.3,1.4,2.9,1.5,4.8L1494.2,238.9z M1492.4,233.1
		c-1.1-1.7-2.7-2.9-4.7-3.6l-0.7,1.9c1.7,0.6,2.9,1.6,3.7,2.9L1492.4,233.1z M1487.7,229.5c-2-0.8-4.4-1.2-7.2-1.2v2
		c2.6,0,4.8,0.4,6.4,1.1L1487.7,229.5z M1480.5,228.3c-2.6,0-4.8,0.3-6.7,1l0.7,1.9c1.5-0.6,3.5-0.9,6-0.9V228.3z M1473.9,229.3
		c-1.8,0.7-3.2,1.6-4.2,2.9l1.6,1.2c0.7-0.9,1.8-1.7,3.4-2.3L1473.9,229.3z M1469.6,232.3c-1,1.3-1.4,2.7-1.4,4.4h2
		c0-1.2,0.3-2.2,1-3.1L1469.6,232.3z M1468.2,236.6c-0.2,2.7,1,4.8,3.2,6.4l1.2-1.6c-1.7-1.2-2.5-2.8-2.4-4.7L1468.2,236.6z
		 M1471.4,243c2.2,1.5,5.5,2.7,10,3.7l0.5-1.9c-4.3-1-7.4-2.1-9.3-3.4L1471.4,243z M1481.4,246.7l7.6,1.5l0.4-2l-7.6-1.5
		L1481.4,246.7z M1488.9,248.2c9.5,2.1,16.3,5.4,20.7,9.8l1.4-1.4c-4.7-4.8-12-8.2-21.7-10.3L1488.9,248.2z M1509.6,258
		c4.4,4.4,6.6,10,6.6,16.9l2,0c0-7.4-2.4-13.5-7.2-18.3L1509.6,258z M1516.3,274.9c0,5.7-1.4,10.5-4.2,14.5l1.6,1.1
		c3.1-4.4,4.6-9.6,4.6-15.6H1516.3z M1512.1,289.4c-2.8,3.9-6.8,7-12.1,9.1l0.7,1.9c5.7-2.2,10-5.5,13-9.8L1512.1,289.4z
		 M1500,298.4c-5.3,2.1-11.8,3.1-19.3,3.1v2c7.7,0,14.3-1.1,20-3.3L1500,298.4z M1480.7,301.6c-7.8,0-14.5-1.1-20.1-3.4l-0.8,1.8
		c5.9,2.4,12.9,3.6,20.9,3.6L1480.7,301.6z M1460.6,298.1c-5.6-2.3-9.9-5.8-12.9-10.4l-1.7,1.1c3.3,5,7.9,8.7,13.8,11.2
		L1460.6,298.1z M1447.7,287.7c-3-4.6-4.6-10.5-4.7-17.6l-2,0c0.1,7.4,1.7,13.6,5,18.7L1447.7,287.7z M1442,271.1h22.8v-2H1442
		V271.1z M1463.7,270.2c0.1,2.9,0.9,5.4,2.2,7.6l1.7-1.1c-1.1-1.8-1.8-4-1.9-6.6L1463.7,270.2z M1465.9,277.7
		c1.4,2.1,3.4,3.7,5.8,4.7l0.8-1.8c-2.1-0.9-3.8-2.3-5-4L1465.9,277.7z M1471.8,282.5c2.4,1,5.3,1.5,8.6,1.5v-2
		c-3.1,0-5.7-0.5-7.9-1.4L1471.8,282.5z M1480.4,284c2.8,0,5.1-0.4,7.2-1.1l-0.7-1.9c-1.7,0.7-3.9,1-6.5,1V284z M1487.6,282.9
		c2-0.8,3.6-1.8,4.7-3.2l-1.6-1.2c-0.8,1-2.1,1.9-3.8,2.6L1487.6,282.9z M1492.2,279.7c1.1-1.4,1.7-3,1.7-4.8l-2-0.1
		c0,1.4-0.5,2.6-1.3,3.6L1492.2,279.7z M1494,274.8c0-1.7-0.6-3.2-1.7-4.4l-1.5,1.3c0.8,0.9,1.2,2,1.2,3.2L1494,274.8z
		 M1492.3,270.4c-1-1.3-2.7-2.4-4.8-3.2l-0.8,1.9c2,0.8,3.2,1.7,4,2.6L1492.3,270.4z M1487.5,267.2c-2.1-0.9-4.8-1.7-8.2-2.4l-0.4,2
		c3.3,0.7,6,1.5,7.9,2.3L1487.5,267.2z M1479.3,264.8l-9.1-2.1l-0.4,2l9.1,2.1L1479.3,264.8z M1470.2,262.7
		c-8.1-1.8-14.3-4.7-18.6-8.6l-1.4,1.5c4.6,4.3,11.2,7.3,19.5,9.1L1470.2,262.7z M1451.6,254.1c-4.2-4-6.3-9.2-6.2-15.8l-2,0
		c0,7.1,2.2,12.9,6.9,17.2L1451.6,254.1z M1445.3,238.3c0-5.4,1.5-10.2,4.4-14.4l-1.6-1.1c-3.2,4.5-4.7,9.7-4.7,15.5H1445.3z
		 M1449.7,224c3-4.2,7.1-7.5,12.4-9.7l-0.8-1.8c-5.6,2.4-10,5.9-13.2,10.4L1449.7,224z M1462.1,214.2c5.3-2.3,11.5-3.5,18.5-3.5v-2
		c-7.2,0-13.6,1.2-19.3,3.6L1462.1,214.2z M1480.6,210.8c7.1,0,13.2,1.2,18.3,3.5l0.8-1.8c-5.5-2.5-11.9-3.7-19.2-3.7V210.8z
		 M1498.9,214.3c5.2,2.3,9.1,5.6,11.9,9.9l1.7-1.1c-3-4.6-7.3-8.2-12.8-10.6L1498.9,214.3z M1510.8,224.2c2.8,4.2,4.2,9.1,4.2,14.8
		h2c0-6-1.5-11.3-4.5-15.9L1510.8,224.2z M1516,237.9h-22.8v2h22.8V237.9z M1566.6,211v-1h-1v1H1566.6z M1644.7,211h1v-1h-1V211z
		 M1644.7,230.2v1h1v-1H1644.7z M1617.4,230.2v-1h-1v1H1617.4z M1617.4,301.5v1h1v-1H1617.4z M1594,301.5h-1v1h1V301.5z M1594,230.2
		h1v-1h-1V230.2z M1566.6,230.2h-1v1h1V230.2z M1566.6,212h78.1v-2h-78.1V212z M1643.7,211v19.2h2V211H1643.7z M1644.7,229.2h-27.3
		v2h27.3V229.2z M1616.4,230.2v71.3h2v-71.3H1616.4z M1617.4,300.5H1594v2h23.4V300.5z M1595,301.5v-71.3h-2v71.3H1595z M1594,229.2
		h-27.4v2h27.4V229.2z M1567.6,230.2V211h-2v19.2H1567.6z M1726.1,211l0.9-0.4l-0.3-0.6h-0.7V211z M1747.8,263.6l-0.9,0.4l0.2,0.6
		h0.7V263.6z M1748.8,263.6v1h0.7l0.3-0.6L1748.8,263.6z M1770.3,211v-1h-0.7l-0.2,0.6L1770.3,211z M1799.9,211h1v-1h-1V211z
		 M1799.9,301.5v1h1v-1H1799.9z M1776.7,301.5h-1v1h1V301.5z M1776.7,248.2h1v-1h-1V248.2z M1775.9,248.2v-1h-0.7l-0.2,0.6
		L1775.9,248.2z M1755.4,300.8v1h0.7l0.2-0.6L1755.4,300.8z M1741.1,300.8l-0.9,0.4l0.2,0.6h0.7V300.8z M1720.6,248l0.9-0.4
		l-0.2-0.6h-0.7V248z M1719.8,248v-1h-1v1H1719.8z M1719.8,301.5v1h1v-1H1719.8z M1696.6,301.5h-1v1h1V301.5z M1696.6,211v-1h-1v1
		H1696.6z M1725.1,211.4l21.7,52.6l1.9-0.8l-21.7-52.6L1725.1,211.4z M1747.8,264.6h1v-2h-1V264.6z M1749.7,263.9l21.6-52.6
		l-1.8-0.8l-21.6,52.6L1749.7,263.9z M1770.3,212h29.6v-2h-29.6V212z M1798.9,211v90.5h2V211H1798.9z M1799.9,300.5h-23.2v2h23.2
		V300.5z M1777.7,301.5v-53.2h-2v53.2H1777.7z M1776.7,247.2h-0.8v2h0.8V247.2z M1775,247.9l-20.6,52.6l1.9,0.7l20.6-52.6
		L1775,247.9z M1755.4,299.8h-14.2v2h14.2V299.8z M1742.1,300.5l-20.6-52.8l-1.9,0.7l20.6,52.8L1742.1,300.5z M1720.6,247h-0.8v2
		h0.8V247z M1718.8,248v53.5h2V248H1718.8z M1719.8,300.5h-23.2v2h23.2V300.5z M1697.6,301.5V211h-2v90.5H1697.6z M1696.6,212h29.5
		v-2h-29.5V212z M1854.4,211v-1h-1v1H1854.4z M1919.1,211h1v-1h-1V211z M1919.1,230.2v1h1v-1H1919.1z M1878.2,230.2v-1h-1v1H1878.2z
		 M1878.2,246.6h-1v1h1V246.6z M1915.7,246.6h1v-1h-1V246.6z M1915.7,265.8v1h1v-1H1915.7z M1878.2,265.8v-1h-1v1H1878.2z
		 M1878.2,282.3h-1v1h1V282.3z M1918.9,282.3h1v-1h-1V282.3z M1918.9,301.5v1h1v-1H1918.9z M1854.4,301.5h-1v1h1V301.5z M1854.4,212
		h64.6v-2h-64.6V212z M1918.1,211v19.2h2V211H1918.1z M1919.1,229.2h-40.9v2h40.9V229.2z M1877.2,230.2v16.4h2v-16.4H1877.2z
		 M1878.2,247.6h37.6v-2h-37.6V247.6z M1914.7,246.6v19.2h2v-19.2H1914.7z M1915.7,264.8h-37.6v2h37.6V264.8z M1877.2,265.8v16.5h2
		v-16.5H1877.2z M1878.2,283.3h40.7v-2h-40.7V283.3z M1917.9,282.3v19.2h2v-19.2H1917.9z M1918.9,300.5h-64.4v2h64.4V300.5z
		 M1855.4,301.5V211h-2v90.5H1855.4z M2051.7,301.5v1h1v-1H2051.7z M2031.7,301.5l-0.8,0.6l0.3,0.4h0.5V301.5z M1998.2,252.7
		l0.8-0.6l-0.3-0.4h-0.5V252.7z M1997.6,252.7v-1h-1v1H1997.6z M1997.6,301.5v1h1v-1H1997.6z M1973.8,301.5h-1v1h1V301.5z
		 M1973.8,211v-1h-1v1H1973.8z M1994.1,211l0.8-0.6l-0.3-0.4h-0.5V211z M2027.2,259.7l-0.8,0.6l0.3,0.4h0.5V259.7z M2027.9,259.7v1
		h1v-1H2027.9z M2027.9,211v-1h-1v1H2027.9z M2051.7,211h1v-1h-1V211z M2051.7,300.5h-19.9v2h19.9V300.5z M2032.6,300.9l-33.6-48.8
		l-1.6,1.1l33.6,48.8L2032.6,300.9z M1998.2,251.7h-0.6v2h0.6V251.7z M1996.6,252.7v48.8h2v-48.8H1996.6z M1997.6,300.5h-23.8v2
		h23.8V300.5z M1974.8,301.5V211h-2v90.5H1974.8z M1973.8,212h20.3v-2h-20.3V212z M1993.3,211.6l33.1,48.7l1.7-1.1l-33.1-48.7
		L1993.3,211.6z M2027.2,260.7h0.8v-2h-0.8V260.7z M2028.9,259.7V211h-2v48.7H2028.9z M2027.9,212h23.7v-2h-23.7V212z M2050.7,211
		v90.5h2V211H2050.7z M2103.5,211v-1h-1v1H2103.5z M2181.5,211h1v-1h-1V211z M2181.5,230.2v1h1v-1H2181.5z M2154.2,230.2v-1h-1v1
		H2154.2z M2154.2,301.5v1h1v-1H2154.2z M2130.9,301.5h-1v1h1V301.5z M2130.9,230.2h1v-1h-1V230.2z M2103.5,230.2h-1v1h1V230.2z
		 M2103.5,212h78.1v-2h-78.1V212z M2180.5,211v19.2h2V211H2180.5z M2181.5,229.2h-27.3v2h27.3V229.2z M2153.2,230.2v71.3h2v-71.3
		H2153.2z M2154.2,300.5h-23.4v2h23.4V300.5z M2131.9,301.5v-71.3h-2v71.3H2131.9z M2130.9,229.2h-27.4v2h27.4V229.2z M2104.5,230.2
		V211h-2v19.2H2104.5z"/>
</g>
<g class="st0">
	<path class="st1" d="M559.1,495v-1h-1v1H559.1z M582.9,495h1v-1h-1V495z M582.9,566.3h-1v1h1V566.3z M619.8,566.3h1v-1h-1V566.3z
		 M619.8,585.5v1h1v-1H619.8z M559.1,585.5h-1v1h1V585.5z M559.1,496h23.8v-2h-23.8V496z M581.9,495v71.3h2V495H581.9z M582.9,567.3
		h36.9v-2h-36.9V567.3z M618.8,566.3v19.2h2v-19.2H618.8z M619.8,584.5h-60.7v2h60.7V584.5z M560.1,585.5V495h-2v90.5H560.1z
		 M696.1,585.5v1h1v-1H696.1z M672.4,585.5h-1v1h1V585.5z M672.4,495v-1h-1v1H672.4z M696.1,495h1v-1h-1V495z M696.1,584.5h-23.8v2
		h23.8V584.5z M673.4,585.5V495h-2v90.5H673.4z M672.4,496h23.8v-2h-23.8V496z M695.1,495v90.5h2V495H695.1z M810.2,528.6l-1,0.1
		l0.1,0.9h0.9V528.6z M807.8,521.1l-0.9,0.5l0,0l0,0L807.8,521.1z M802.4,516.2l-0.4,0.9l0,0l0,0L802.4,516.2z M776.8,526.4
		l-0.9-0.4l0,0L776.8,526.4z M776.8,554.4l-0.9,0.4l0,0L776.8,554.4z M783.5,563.1l-0.6,0.8l0,0L783.5,563.1z M801.9,564.4l0.4,0.9
		l0,0l0,0L801.9,564.4z M807.4,559.9l-0.8-0.6l0,0L807.4,559.9z M810.2,553l0-1l-0.9,0l-0.1,0.8L810.2,553z M834.4,553.2l1,0.1
		l0.1-1.1l-1.1,0L834.4,553.2z M828.7,569.2l-0.8-0.5l0,0L828.7,569.2z M814.9,581.8l0.5,0.9l0,0L814.9,581.8z M771,581.3l-0.5,0.9
		l0,0L771,581.3z M755.6,565.4l-0.9,0.5l0,0L755.6,565.4z M755.7,515.1l-0.9-0.5l0,0L755.7,515.1z M771.3,499.2l0.5,0.9l0,0
		L771.3,499.2z M813.7,497.9l-0.4,0.9l0,0L813.7,497.9z M834.4,528.6v1h1.1l-0.1-1.1L834.4,528.6z M811.2,528.5
		c-0.3-3-1.2-5.6-2.6-7.9l-1.7,1.1c1.2,2,2,4.3,2.3,7L811.2,528.5z M808.6,520.6c-1.4-2.3-3.4-4.1-5.9-5.3l-0.9,1.8
		c2.2,1,3.8,2.5,5,4.5L808.6,520.6z M802.8,515.4c-2.5-1.2-5.4-1.9-8.6-1.9v2c3,0,5.6,0.6,7.7,1.6L802.8,515.4z M794.2,513.5
		c-4.3,0-8.1,1.1-11.2,3.2l1.1,1.6c2.7-1.9,6.1-2.9,10.1-2.9V513.5z M783,516.7c-3.1,2.2-5.5,5.3-7.1,9.3l1.9,0.8
		c1.5-3.7,3.7-6.5,6.4-8.4L783,516.7z M775.9,526.1c-1.6,4-2.4,8.7-2.4,14.2h2c0-5.3,0.8-9.8,2.2-13.4L775.9,526.1z M773.5,540.2
		c0,5.7,0.8,10.6,2.4,14.5l1.9-0.8c-1.5-3.6-2.2-8.2-2.2-13.7H773.5z M775.9,554.8c1.6,3.9,4,7,7,9.1l1.1-1.6
		c-2.7-1.9-4.8-4.6-6.3-8.3L775.9,554.8z M782.9,563.9c3.1,2.1,6.8,3.1,11,3.1v-2c-3.9,0-7.2-0.9-9.9-2.8L782.9,563.9z M793.9,567
		c3.2,0,6-0.5,8.4-1.7l-0.8-1.8c-2.1,1-4.7,1.5-7.6,1.5V567z M802.3,565.3c2.4-1.2,4.4-2.8,5.9-4.8l-1.6-1.2c-1.3,1.8-3,3.2-5.1,4.2
		L802.3,565.3z M808.2,560.5c1.5-2.1,2.5-4.6,3-7.4l-2-0.3c-0.4,2.5-1.3,4.7-2.6,6.5L808.2,560.5z M810.2,554l24.2,0.2l0-2
		l-24.2-0.2L810.2,554z M833.4,553.2c-0.5,5.3-2.3,10.5-5.5,15.5l1.7,1.1c3.4-5.2,5.3-10.7,5.8-16.4L833.4,553.2z M827.9,568.6
		c-3.1,4.9-7.6,9-13.5,12.3l1,1.7c6.1-3.4,10.9-7.7,14.2-13L827.9,568.6z M814.4,580.9c-5.8,3.2-12.8,4.8-20.9,4.8v2
		c8.4,0,15.7-1.7,21.9-5.1L814.4,580.9z M793.5,585.8c-8.2,0-15.5-1.8-22-5.3l-1,1.8c6.7,3.7,14.4,5.6,22.9,5.6V585.8z M771.5,580.4
		c-6.4-3.5-11.4-8.7-15-15.5l-1.8,0.9c3.8,7.2,9.1,12.6,15.8,16.3L771.5,580.4z M756.5,564.9c-3.6-6.9-5.4-15.1-5.4-24.7h-2
		c0,9.8,1.9,18.4,5.7,25.6L756.5,564.9z M751,540.2c0-9.6,1.9-17.8,5.6-24.6l-1.8-1c-3.9,7.2-5.8,15.7-5.8,25.6H751z M756.6,515.6
		c3.7-6.9,8.8-12.1,15.2-15.5l-1-1.8c-6.7,3.7-12,9.1-16,16.3L756.6,515.6z M771.8,500.1c6.4-3.5,13.6-5.3,21.7-5.3v-2
		c-8.4,0-16,1.8-22.7,5.6L771.8,500.1z M793.5,494.8c7.4,0,14,1.4,19.8,4l0.8-1.8c-6.1-2.8-12.9-4.2-20.6-4.2V494.8z M813.3,498.8
		c5.8,2.6,10.4,6.5,13.9,11.6l1.6-1.1c-3.7-5.4-8.6-9.5-14.7-12.3L813.3,498.8z M827.2,510.4c3.5,5.1,5.6,11.2,6.3,18.3l2-0.2
		c-0.7-7.4-2.9-13.8-6.6-19.2L827.2,510.4z M834.4,527.6h-24.2v2h24.2V527.6z M888.1,495v-1h-1v1H888.1z M952.7,495h1v-1h-1V495z
		 M952.7,514.2v1h1v-1H952.7z M911.8,514.2v-1h-1v1H911.8z M911.8,530.6h-1v1h1V530.6z M949.4,530.6h1v-1h-1V530.6z M949.4,549.8v1
		h1v-1H949.4z M911.8,549.8v-1h-1v1H911.8z M911.8,566.3h-1v1h1V566.3z M952.5,566.3h1v-1h-1V566.3z M952.5,585.5v1h1v-1H952.5z
		 M888.1,585.5h-1v1h1V585.5z M888.1,496h64.6v-2h-64.6V496z M951.7,495v19.2h2V495H951.7z M952.7,513.2h-40.9v2h40.9V513.2z
		 M910.8,514.2v16.4h2v-16.4H910.8z M911.8,531.6h37.6v-2h-37.6V531.6z M948.4,530.6v19.2h2v-19.2H948.4z M949.4,548.8h-37.6v2h37.6
		V548.8z M910.8,549.8v16.5h2v-16.5H910.8z M911.8,567.3h40.7v-2h-40.7V567.3z M951.5,566.3v19.2h2v-19.2H951.5z M952.5,584.5h-64.4
		v2h64.4V584.5z M889.1,585.5V495h-2v90.5H889.1z M1085.3,585.5v1h1v-1H1085.3z M1065.4,585.5l-0.8,0.6l0.3,0.4h0.5V585.5z
		 M1031.8,536.7l0.8-0.6l-0.3-0.4h-0.5V536.7z M1031.2,536.7v-1h-1v1H1031.2z M1031.2,585.5v1h1v-1H1031.2z M1007.5,585.5h-1v1h1
		V585.5z M1007.5,495v-1h-1v1H1007.5z M1027.8,495l0.8-0.6l-0.3-0.4h-0.5V495z M1060.8,543.7l-0.8,0.6l0.3,0.4h0.5V543.7z
		 M1061.6,543.7v1h1v-1H1061.6z M1061.6,495v-1h-1v1H1061.6z M1085.3,495h1v-1h-1V495z M1085.3,584.5h-19.9v2h19.9V584.5z
		 M1066.2,584.9l-33.6-48.8l-1.6,1.1l33.6,48.8L1066.2,584.9z M1031.8,535.7h-0.6v2h0.6V535.7z M1030.2,536.7v48.8h2v-48.8H1030.2z
		 M1031.2,584.5h-23.7v2h23.7V584.5z M1008.5,585.5V495h-2v90.5H1008.5z M1007.5,496h20.3v-2h-20.3V496z M1026.9,495.6l33.1,48.7
		l1.7-1.1l-33.1-48.7L1026.9,495.6z M1060.8,544.7h0.8v-2h-0.8V544.7z M1062.6,543.7V495h-2v48.7H1062.6z M1061.6,496h23.8v-2h-23.8
		V496z M1084.3,495v90.5h2V495H1084.3z M1188.6,522.9l-1,0.1l0.1,0.9h0.9V522.9z M1182.7,514.4l-0.4,0.9l0,0l0,0L1182.7,514.4z
		 M1165.8,516.9l-0.8-0.6l0,0L1165.8,516.9z M1164.5,520.6l1,0.1l0,0v0H1164.5z M1167.3,526.2l-0.6,0.8l0,0l0,0L1167.3,526.2z
		 M1176.9,529.8l-0.2,1l0,0l0,0L1176.9,529.8z M1184.5,531.2l0.2-1l0,0l0,0L1184.5,531.2z M1205.7,541.3l-0.7,0.7l0,0L1205.7,541.3z
		 M1212.6,558.9h1v0L1212.6,558.9z M1208.3,573.9l-0.8-0.6l0,0L1208.3,573.9z M1195.7,583.4l0.4,0.9l0,0L1195.7,583.4z
		 M1176.1,586.6v-1l0,0L1176.1,586.6z M1155.6,583.1l-0.4,0.9l0,0L1155.6,583.1z M1142.2,572.2l-0.8,0.5l0,0L1142.2,572.2z
		 M1137.3,554.1v-1h-1l0,1L1137.3,554.1z M1160.1,554.1l1,0l0-1h-1V554.1z M1162.1,561.2l-0.8,0.5l0,0l0,0L1162.1,561.2z
		 M1167.5,565.6l-0.4,0.9l0,0l0,0L1167.5,565.6z M1188.3,558.9l1,0v0v0L1188.3,558.9z M1186.9,555.1l-0.8,0.6l0,0l0,0L1186.9,555.1z
		 M1182.5,552.1l-0.4,0.9l0,0L1182.5,552.1z M1174.4,549.8l-0.2,1l0,0L1174.4,549.8z M1165.3,547.7l0.2-1l0,0L1165.3,547.7z
		 M1146.3,538.8l-0.7,0.7l0,0L1146.3,538.8z M1139.7,522.3l1,0v0H1139.7z M1144.3,507.4l-0.8-0.6l0,0L1144.3,507.4z M1157.1,497.3
		l0.4,0.9l0,0L1157.1,497.3z M1194.7,497.4l-0.4,0.9l0,0L1194.7,497.4z M1207,507.6l-0.8,0.5l0,0L1207,507.6z M1211.4,522.9v1h1v-1
		H1211.4z M1189.6,522.9c-0.2-2.2-0.8-4.1-1.8-5.7l-1.7,1.1c0.9,1.3,1.4,2.9,1.5,4.8L1189.6,522.9z M1187.7,517.1
		c-1.1-1.7-2.7-2.9-4.7-3.6l-0.7,1.9c1.7,0.6,2.9,1.6,3.7,2.9L1187.7,517.1z M1183.1,513.5c-2-0.8-4.4-1.2-7.2-1.2v2
		c2.6,0,4.8,0.4,6.4,1.1L1183.1,513.5z M1175.9,512.3c-2.6,0-4.8,0.3-6.7,1l0.7,1.9c1.5-0.6,3.5-0.9,6-0.9V512.3z M1169.2,513.3
		c-1.8,0.7-3.2,1.6-4.3,2.9l1.6,1.2c0.7-0.9,1.8-1.7,3.4-2.3L1169.2,513.3z M1165,516.3c-1,1.3-1.5,2.7-1.5,4.4h2
		c0-1.2,0.3-2.2,1-3.1L1165,516.3z M1163.5,520.6c-0.1,2.7,1,4.8,3.2,6.4l1.2-1.6c-1.7-1.2-2.5-2.8-2.4-4.7L1163.5,520.6z
		 M1166.8,527c2.2,1.5,5.5,2.7,10,3.7l0.4-1.9c-4.3-1-7.4-2.1-9.3-3.4L1166.8,527z M1176.8,530.7l7.6,1.5l0.4-2l-7.6-1.5
		L1176.8,530.7z M1184.3,532.2c9.5,2.1,16.3,5.4,20.7,9.8l1.4-1.4c-4.7-4.8-12-8.2-21.7-10.3L1184.3,532.2z M1205,542
		c4.4,4.4,6.6,10,6.6,16.9l2,0c0-7.4-2.4-13.5-7.2-18.3L1205,542z M1211.6,558.9c0,5.7-1.4,10.5-4.2,14.5l1.6,1.1
		c3.1-4.4,4.6-9.6,4.6-15.6H1211.6z M1207.4,573.4c-2.7,3.9-6.8,7-12.1,9.1l0.7,1.9c5.7-2.2,10-5.5,13-9.8L1207.4,573.4z
		 M1195.3,582.4c-5.4,2.1-11.8,3.1-19.3,3.1v2c7.7,0,14.3-1.1,20-3.3L1195.3,582.4z M1176.1,585.6c-7.8,0-14.5-1.1-20.1-3.4
		l-0.8,1.8c5.9,2.4,12.9,3.6,20.9,3.6L1176.1,585.6z M1156,582.1c-5.6-2.3-9.9-5.8-12.9-10.4l-1.7,1.1c3.3,5,7.9,8.7,13.8,11.2
		L1156,582.1z M1143,571.7c-3-4.6-4.6-10.5-4.7-17.6l-2,0c0.1,7.4,1.7,13.6,5,18.7L1143,571.7z M1137.3,555.1h22.8v-2h-22.8V555.1z
		 M1159.1,554.2c0.1,2.9,0.9,5.4,2.2,7.6l1.7-1.1c-1.1-1.8-1.8-4-1.9-6.6L1159.1,554.2z M1161.3,561.7c1.4,2.1,3.4,3.7,5.8,4.7
		l0.8-1.8c-2.1-0.9-3.8-2.3-4.9-4L1161.3,561.7z M1167.1,566.5c2.4,1,5.3,1.5,8.6,1.5v-2c-3.1,0-5.7-0.5-7.9-1.4L1167.1,566.5z
		 M1175.8,568c2.7,0,5.1-0.4,7.2-1.1l-0.7-1.9c-1.7,0.7-3.9,1-6.5,1V568z M1182.9,566.9c2-0.8,3.6-1.8,4.7-3.2l-1.6-1.2
		c-0.8,1-2.1,1.9-3.8,2.6L1182.9,566.9z M1187.6,563.7c1.1-1.4,1.7-3,1.7-4.8l-2-0.1c0,1.4-0.5,2.6-1.3,3.6L1187.6,563.7z
		 M1189.3,558.8c0-1.7-0.6-3.2-1.7-4.4l-1.5,1.3c0.8,0.9,1.2,2,1.2,3.2L1189.3,558.8z M1187.7,554.4c-1-1.3-2.7-2.4-4.8-3.2
		l-0.8,1.9c2,0.8,3.2,1.7,4,2.6L1187.7,554.4z M1182.9,551.2c-2.1-0.9-4.8-1.7-8.2-2.4l-0.4,2c3.3,0.7,6,1.5,7.9,2.3L1182.9,551.2z
		 M1174.7,548.8l-9.1-2.1l-0.4,2l9.1,2.1L1174.7,548.8z M1165.5,546.7c-8.1-1.8-14.3-4.7-18.6-8.6l-1.4,1.5
		c4.6,4.3,11.2,7.3,19.5,9.1L1165.5,546.7z M1146.9,538.1c-4.2-4-6.3-9.2-6.2-15.8l-2,0c0,7.1,2.2,12.9,6.9,17.2L1146.9,538.1z
		 M1140.7,522.3c0-5.4,1.5-10.2,4.4-14.4l-1.6-1.2c-3.2,4.5-4.7,9.7-4.7,15.5H1140.7z M1145.1,508c3-4.2,7.1-7.4,12.4-9.7l-0.8-1.8
		c-5.6,2.4-10,5.9-13.2,10.4L1145.1,508z M1157.5,498.2c5.4-2.3,11.5-3.5,18.5-3.5v-2c-7.2,0-13.6,1.2-19.3,3.6L1157.5,498.2z
		 M1175.9,494.8c7.1,0,13.2,1.2,18.3,3.5l0.8-1.8c-5.5-2.5-11.9-3.7-19.2-3.7V494.8z M1194.3,498.3c5.2,2.3,9.1,5.6,11.9,9.9
		l1.7-1.1c-3-4.6-7.3-8.2-12.7-10.6L1194.3,498.3z M1206.2,508.2c2.8,4.2,4.2,9.1,4.2,14.8h2c0-6-1.5-11.3-4.5-15.9L1206.2,508.2z
		 M1211.4,521.9h-22.8v2h22.8V521.9z M1264.7,495v-1h-1v1H1264.7z M1329.3,495h1v-1h-1V495z M1329.3,514.2v1h1v-1H1329.3z
		 M1288.4,514.2v-1h-1v1H1288.4z M1288.4,530.6h-1v1h1V530.6z M1326,530.6h1v-1h-1V530.6z M1326,549.8v1h1v-1H1326z M1288.4,549.8
		v-1h-1v1H1288.4z M1288.4,566.3h-1v1h1V566.3z M1329.1,566.3h1v-1h-1V566.3z M1329.1,585.5v1h1v-1H1329.1z M1264.7,585.5h-1v1h1
		V585.5z M1264.7,496h64.6v-2h-64.6V496z M1328.3,495v19.2h2V495H1328.3z M1329.3,513.2h-40.9v2h40.9V513.2z M1287.4,514.2v16.4h2
		v-16.4H1287.4z M1288.4,531.6h37.6v-2h-37.6V531.6z M1325,530.6v19.2h2v-19.2H1325z M1326,548.8h-37.6v2h37.6V548.8z M1287.4,549.8
		v16.5h2v-16.5H1287.4z M1288.4,567.3h40.7v-2h-40.7V567.3z M1328.1,566.3v19.2h2v-19.2H1328.1z M1329.1,584.5h-64.4v2h64.4V584.5z
		 M1265.7,585.5V495h-2v90.5H1265.7z"/>
</g>
<g class="st0">
	<path class="st1" d="M-360.5,869.2h-37.2V772h36.8c9.8,0,18.5,1.9,25.8,5.8h0c7.3,3.8,13,9.5,17,16.9c3.9,7.3,5.9,16,5.9,26
		c0,9.9-2,18.7-5.9,25.9c-3.9,7.3-9.6,13-16.8,16.8C-342.1,867.2-350.7,869.2-360.5,869.2z M-395.6,867.2h35.2
		c9.4,0,17.7-1.9,24.7-5.6c6.9-3.7,12.3-9.1,16-16c3.7-7,5.6-15.4,5.6-25c0-9.6-1.9-18-5.6-25c-3.7-7-9.1-12.4-16.1-16
		c-7-3.7-15.4-5.5-24.9-5.5h-34.8V867.2z M-361.4,847.9h-11.3v-54.6h10.7c5.4,0,10,0.8,13.5,2.5c3.6,1.7,6.4,4.7,8.3,8.7
		c1.9,4,2.8,9.4,2.8,16.1c0,6.7-0.9,12.1-2.7,16l0,0c-1.8,4-4.6,6.9-8.2,8.7C-351.8,847-356.2,847.9-361.4,847.9z M-370.6,845.9h9.3
		c4.9,0,9-0.8,12.2-2.4c3.1-1.6,5.6-4.2,7.2-7.7c1.7-3.7,2.5-8.8,2.5-15.2c0-6.4-0.9-11.5-2.6-15.2c-1.7-3.6-4.2-6.2-7.3-7.8
		c-3.3-1.6-7.5-2.4-12.6-2.3h-8.7V845.9z"/>
</g>
<g class="st0">
	<path class="st1" d="M-234.5,869.2h-27V772h27V869.2z M-259.4,867.2h23V774h-23V867.2z"/>
</g>
<g class="st0">
	<path class="st1" d="M-136.4,870.5c-9.3,0-17.7-2-24.8-6c-7.1-4-12.7-9.9-16.7-17.4c-3.9-7.5-5.9-16.3-5.9-26.4
		c0-10.2,2.1-19.3,6.2-26.8c4.1-7.6,9.9-13.4,17-17.3c7.1-3.9,15.2-5.9,23.9-5.9c7.5,0,14.4,1.4,20.6,4.2
		c6.2,2.8,11.4,6.8,15.2,11.9c3.9,5.1,6.2,11,6.9,17.4l0.1,1.1h-27.3l-0.2-0.8c-0.5-2.1-1.5-4-2.8-5.5c-1.3-1.5-3-2.7-5-3.4
		c-2-0.8-4.4-1.2-7.1-1.2c-4.2,0-7.8,1-10.7,3c-3,2-5.3,4.9-6.9,8.8c-1.6,3.9-2.5,8.7-2.5,14.2c0,5.6,0.8,10.4,2.3,14.3
		c1.5,3.8,3.8,6.8,6.7,8.8c2.9,2,6.6,3,10.8,3c3.8,0,7-0.6,9.7-1.7c2.6-1.1,4.5-2.7,5.7-4.8c1-1.7,1.6-3.6,1.8-5.8h-17.7v-20.1h43.9
		v14.1c0,8.6-1.8,16.2-5.5,22.5c-3.7,6.3-8.9,11.3-15.5,14.6C-120.4,868.8-128,870.5-136.4,870.5z M-136.7,772.7
		c-8.4,0-16.1,1.9-23,5.7c-6.8,3.7-12.2,9.3-16.2,16.5c-4,7.2-6,15.9-6,25.8c0,9.7,1.9,18.3,5.7,25.4c3.8,7.2,9.1,12.7,15.9,16.6
		c6.8,3.8,14.8,5.8,23.8,5.8c8.1,0,15.4-1.6,21.7-4.8c6.3-3.2,11.2-7.8,14.6-13.8c3.5-6,5.2-13.2,5.2-21.5v-12.1h-39.9v16.1h17.8
		l0,1c-0.1,3-0.9,5.6-2.2,7.8c-1.4,2.4-3.7,4.3-6.6,5.6c-2.9,1.3-6.4,1.9-10.5,1.9c-4.7,0-8.7-1.1-11.9-3.4
		c-3.3-2.3-5.8-5.5-7.4-9.8c-1.6-4.2-2.5-9.2-2.5-15.1c0-5.8,0.9-10.8,2.6-14.9c1.8-4.2,4.3-7.5,7.6-9.7c3.3-2.2,7.3-3.3,11.8-3.3
		c2.9,0,5.5,0.4,7.8,1.3c2.3,0.9,4.2,2.2,5.8,4c1.4,1.6,2.4,3.4,3,5.5h23.5c-0.8-5.7-2.9-10.8-6.3-15.3c-3.7-4.8-8.5-8.6-14.5-11.3
		C-122.8,774.1-129.5,772.7-136.7,772.7z"/>
</g>
<g class="st0">
	<path class="st1" d="M-15.1,869.2h-27V772h27V869.2z M-40.1,867.2h23V774h-23V867.2z"/>
</g>
<g class="st0">
	<path class="st1" d="M88.7,869.2H62.1v-75H33.3V772h84.1v22.2H88.7V869.2z M64.1,867.2h22.6v-75h28.7V774H35.3v18.2h28.8V867.2z"/>
</g>
<g class="st0">
	<path class="st1" d="M250,869.2h-29.1l-5.7-18.7h-30.3l-5.7,18.7H150l32.3-97.2h35.4L250,869.2z M222.3,867.2h24.9l-31-93.2h-32.5
		l-31,93.2h24.9l5.7-18.7h33.3L222.3,867.2z M211.5,831.6h-23l10.4-34h2.3L211.5,831.6z M191.2,829.6h17.6l-8.8-28.9L191.2,829.6z"
		/>
</g>
<g class="st0">
	<path class="st1" d="M363.2,869.2h-65.8V772h27v75h38.9V869.2z M299.4,867.2h61.8V849h-38.9v-75h-23V867.2z"/>
</g>
<g class="st0">
	<path class="st1" d="M592.1,870l-26.5-0.4l0.8-53.7l-21.5,52.7l-16.4-0.3l-19.9-53.6l-0.8,54l-26.5-0.4l1.5-97.2l32.7,0.5
		l21.8,55.3l23.4-54.6l32.8,0.5L592.1,870z M567.7,867.7l22.5,0.3l1.4-93.2l-29.5-0.5l-23.5,54.9l-2.4,0l-22-55.6l-29.4-0.5
		l-1.4,93.2l22.5,0.3l0.9-56.3l2.5,0l20.8,55.9l13.6,0.2l22.5-54.9l2.5,0L567.7,867.7z"/>
</g>
<g class="st0">
	<path class="st1" d="M685.9,870.3c-8.2,0-15.5-1.5-21.8-4.4c-6.3-2.9-11.2-7.2-14.7-12.6c-3.5-5.4-5.3-11.9-5.3-19.1V772h27v60
		c0,2.8,0.6,5.4,1.9,7.6c1.3,2.2,3,4,5.2,5.2c2.2,1.3,4.8,1.9,7.6,1.9c2.9,0,5.5-0.6,7.8-1.9c2.3-1.3,4-3,5.2-5.2
		c1.2-2.2,1.8-4.8,1.8-7.6v-60h27.1v62.1c0,7.3-1.8,13.7-5.3,19.1c-3.5,5.4-8.5,9.7-14.9,12.6C701.4,868.8,694.1,870.3,685.9,870.3z
		 M646.1,774v60.1c0,6.9,1.7,13,4.9,18.1c3.3,5.1,7.9,9.1,13.9,11.9c6,2.8,13,4.2,20.9,4.2c7.9,0,14.9-1.4,21-4.2
		c6-2.8,10.7-6.8,14-11.9c3.3-5.1,4.9-11.2,4.9-18.1V774h-23.1v58c0,3.2-0.7,6.1-2.1,8.6c-1.4,2.5-3.4,4.5-6,6
		c-2.6,1.4-5.5,2.2-8.7,2.2c-3.2,0-6.1-0.7-8.6-2.2c-2.5-1.4-4.6-3.4-6-6c-1.4-2.5-2.2-5.4-2.2-8.6v-58H646.1z"/>
</g>
<g class="st0">
	<path class="st1" d="M817.7,870.3c-8.2,0-15.5-1.3-21.5-3.8c-6.2-2.6-11.1-6.5-14.5-11.7c-3.4-5.2-5.2-11.8-5.3-19.6l0-1h25.9l0,1
		c0.1,2.7,0.8,5,2,6.9c1.2,1.9,3,3.3,5.2,4.2c2.3,1,5.1,1.5,8.3,1.5c2.7,0,5-0.4,6.8-1.1c1.8-0.7,3.2-1.6,4-2.7
		c0.9-1.1,1.3-2.4,1.4-3.8c0-1.3-0.4-2.4-1.3-3.4c-0.8-1-2.2-2-4.2-2.8c-2.1-0.9-4.9-1.7-8.3-2.4l-9.6-2.2
		c-8.8-1.9-15.7-5.1-20.5-9.6c-4.9-4.5-7.3-10.6-7.3-18.1c0-6.1,1.7-11.6,5-16.3c3.3-4.7,8-8.4,13.9-10.9c5.9-2.5,12.7-3.8,20.2-3.8
		c7.6,0,14.4,1.3,20.1,3.9c5.8,2.6,10.3,6.3,13.4,11.1c3.1,4.8,4.7,10.4,4.7,16.7v1h-25.9l-0.1-0.9c-0.2-2-0.7-3.7-1.6-5.1
		c-0.9-1.4-2.2-2.4-3.9-3.1c-1.8-0.7-4.1-1.1-6.8-1.1c-2.5,0-4.7,0.3-6.3,0.9c-1.6,0.6-2.8,1.4-3.5,2.4c-0.8,1-1.1,2.1-1.1,3.4
		c-0.1,2.1,0.7,3.7,2.6,5c2,1.4,5.3,2.6,9.7,3.6l7.9,1.6c10.2,2.2,17.9,5.9,22.8,10.8c5,5,7.5,11.5,7.6,19.2
		c0,6.4-1.6,11.9-4.7,16.4c-3.1,4.5-7.8,8-13.7,10.3C833.1,869.2,825.9,870.3,817.7,870.3z M778.4,836.2c0.2,7,1.9,12.8,4.9,17.5
		c3.2,4.9,7.8,8.6,13.6,11c5.9,2.5,13,3.7,21.2,3.6c7.8,0,14.6-1.1,20.3-3.3c5.6-2.2,9.9-5.4,12.8-9.6c2.9-4.2,4.4-9.3,4.4-15.2
		c0-7.2-2.4-13.2-7-17.8c-4.6-4.7-12-8.1-21.8-10.3l-7.9-1.6c-4.8-1.1-8.2-2.4-10.5-3.9c-2.4-1.7-3.6-3.9-3.4-6.7
		c0-1.7,0.5-3.2,1.6-4.5c1-1.3,2.5-2.3,4.4-3.1c1.9-0.7,4.2-1,7-1c3,0,5.5,0.4,7.5,1.2c2.1,0.8,3.8,2.1,4.9,3.8
		c0.9,1.4,1.6,3.1,1.8,5.1h22.1c-0.2-5.5-1.6-10.4-4.4-14.6c-2.9-4.5-7.1-8-12.6-10.4c-5.5-2.4-12-3.7-19.3-3.7
		c-7.3,0-13.8,1.2-19.4,3.6c-5.6,2.4-10,5.8-13.1,10.2c-3.1,4.4-4.6,9.5-4.6,15.2c0,6.9,2.2,12.4,6.6,16.6
		c4.5,4.2,11.1,7.3,19.5,9.1l9.6,2.2c3.6,0.8,6.5,1.7,8.7,2.5c2.3,0.9,3.9,2.1,5,3.4c1.1,1.3,1.7,2.9,1.7,4.6
		c-0.1,1.9-0.7,3.6-1.8,5.1c-1.1,1.4-2.8,2.5-4.9,3.3c-2.1,0.8-4.6,1.2-7.5,1.2c-3.5,0-6.5-0.5-9.1-1.6c-2.6-1.1-4.6-2.8-6.1-5
		c-1.3-2-2.1-4.3-2.3-6.9H778.4z"/>
</g>
<g class="st0">
	<path class="st1" d="M933.2,869.2h-27V772h27V869.2z M908.2,867.2h23V774h-23V867.2z"/>
</g>
<g class="st0">
	<path class="st1" d="M1030.5,870.5c-8.9,0-17-2-24.1-5.8c-7-3.9-12.6-9.7-16.6-17.2c-4-7.5-6-16.5-6-26.9c0-10.4,2.1-19.4,6.1-26.9
		c4.1-7.5,9.7-13.3,16.7-17.2c7-3.9,15-5.8,23.8-5.8c8,0,15.3,1.5,21.7,4.4c6.4,2.9,11.6,7.3,15.5,12.9c3.9,5.6,6.2,12.4,6.9,20.2
		l0.1,1.1h-27.4l-0.1-0.9c-0.3-2.8-1.1-5.3-2.4-7.4c-1.3-2.1-3.1-3.7-5.3-4.8c-2.3-1.1-5.1-1.7-8.2-1.7c-4.2,0-7.7,1-10.6,3
		c-2.9,2-5.2,5-6.7,8.9c-1.6,3.9-2.4,8.7-2.4,14.2c0,5.8,0.8,10.6,2.4,14.5c1.6,3.8,3.8,6.7,6.6,8.7c2.8,2,6.3,2.9,10.4,2.9
		c3,0,5.7-0.5,8-1.6c2.2-1,4.1-2.5,5.4-4.4v0c1.4-1.9,2.3-4.2,2.8-6.8l0.1-0.8l27.4,0.3l-0.1,1.1c-0.5,5.9-2.6,11.7-6.1,17.2
		c-3.5,5.5-8.6,10.1-15,13.6C1047,868.7,1039.3,870.5,1030.5,870.5z M1030.5,772.7c-8.5,0-16.2,1.9-22.9,5.6
		c-6.7,3.7-12,9.2-15.9,16.4c-3.9,7.2-5.9,15.9-5.9,26c0,10,1.9,18.7,5.8,25.9c3.8,7.2,9.1,12.7,15.8,16.4
		c6.7,3.7,14.5,5.6,23.1,5.6c8.5,0,15.9-1.7,22-5.1c6.1-3.4,10.9-7.7,14.3-12.9c3.1-4.9,5-10,5.7-15.2L1049,835
		c-0.6,2.6-1.5,4.9-2.9,6.8l0,0c-1.6,2.2-3.7,3.9-6.2,5.1c-2.5,1.2-5.5,1.8-8.8,1.8c-4.5,0-8.4-1.1-11.5-3.3
		c-3.2-2.2-5.6-5.4-7.4-9.5c-1.7-4.1-2.5-9.2-2.5-15.2c0-5.8,0.9-10.8,2.5-14.9c1.7-4.2,4.2-7.5,7.4-9.7c3.2-2.3,7.2-3.4,11.7-3.4
		c3.4,0,6.5,0.6,9.1,1.9c2.6,1.3,4.7,3.1,6.2,5.5c1.3,2.1,2.2,4.6,2.6,7.3h23.4c-0.8-7-3-13.1-6.5-18.2c-3.7-5.3-8.6-9.5-14.6-12.2
		C1045.3,774.1,1038.3,772.7,1030.5,772.7z"/>
</g>
</svg>
