<?xml version="1.0" encoding="utf-8"?>
<!-- Generator: Adobe Illustrator 27.0.0, SVG Export Plug-In . SVG Version: 6.00 Build 0)  -->
<svg version="1.1" id="Layer_1" xmlns="http://www.w3.org/2000/svg" xmlns:xlink="http://www.w3.org/1999/xlink" x="0px" y="0px"
	 viewBox="0 0 1440 349" style="enable-background:new 0 0 1440 349;" xml:space="preserve">
<style type="text/css">
	.st0{opacity:0.7;}
	.st1{fill:#D9D9D9;filter:url(#Adobe_OpacityMaskFilter);}
	.st2{mask:url(#mask0_385_404_00000013871438212080718260000012050674817738644668_);}
	.st3{fill:none;stroke:#CC008D;stroke-width:15;}
	.st4{fill-rule:evenodd;clip-rule:evenodd;fill:#FFFFFF;}
	.st5{fill:none;stroke:#34CEE9;stroke-width:25;}
</style>
<g class="st0">
	<defs>
		<filter id="Adobe_OpacityMaskFilter" filterUnits="userSpaceOnUse" x="827.9" y="105" width="483.5" height="301.6">
			<feColorMatrix  type="matrix" values="1 0 0 0 0  0 1 0 0 0  0 0 1 0 0  0 0 0 1 0"/>
		</filter>
	</defs>
	
		<mask maskUnits="userSpaceOnUse" x="827.9" y="105" width="483.5" height="301.6" id="mask0_385_404_00000013871438212080718260000012050674817738644668_">
		<rect x="288.1" y="84" class="st1" width="1093.3" height="265"/>
	</mask>
	<g class="st2">
		
			<rect x="1168.6" y="263.7" transform="matrix(0.5 -0.866 0.866 0.5 335.3871 1220.5032)" class="st3" width="112.1" height="112.1"/>
		<path class="st4" d="M1116,108.3c2.6-4.5,9.1-4.5,11.8,0l3.8,6.4l5.6-3.2c0.1-0.1,0.2-0.1,0.3-0.2l0.2-0.1
			c4.6-2.6,10.3,0.6,10.3,5.8v7.5h6.8c5.3,0,8.7,5.7,6.1,10.2l-3.3,5.6l5.9,3.3c4.6,2.6,4.6,9.3,0,11.9l-5.8,3.3l3.6,6.1
			c2.7,4.6-0.6,10.3-5.9,10.3h-7.4v7.2c0,2.8-1.6,5-3.9,6.1c-2,1.2-4.7,1.5-7.1,0.1l-6.1-3.4l-3.6,6.1c-2.6,4.5-9.3,4.4-11.9-0.1
			l-3.8-6.5l-6.2,3.5c-4.6,2.6-10.2-0.7-10.2-6v-7.1h-6.9c-5.3,0-8.6-5.8-5.9-10.3l3.1-5.2l-6.5-3.7c-4.6-2.6-4.5-9.1,0.1-11.7
			l6.4-3.6l-3.6-6c-2.7-4.5,0.6-10.1,5.9-10.1h7.5V117c0-5.2,5.6-8.5,10.2-6l6.7,3.8L1116,108.3z"/>
		<circle class="st5" cx="929.7" cy="240.4" r="89.2"/>
	</g>
</g>
</svg>
