<svg xmlns="http://www.w3.org/2000/svg" version="1.1" xmlns:xlink="http://www.w3.org/1999/xlink" xmlns:svgjs="http://svgjs.com/svgjs" width="512" height="512" x="0" y="0" viewBox="0 0 512 512" style="enable-background:new 0 0 512 512" xml:space="preserve" class=""><g><path fill="#ffffff" d="M247.9 127.1c-1.8 0-3.4-1-4.3-2.5l-9.7-17.7-17.6-9.6c-1.6-.9-2.5-2.5-2.6-4.3 0-1.8 1-3.4 2.5-4.3l17.6-9.7 9.7-17.7c.9-1.6 2.5-2.5 4.3-2.5 1.8 0 3.4 1 4.3 2.5l9.7 17.7 17.6 9.7c1.6.9 2.5 2.5 2.5 4.3s-1 3.4-2.6 4.3l-17.6 9.6-9.7 17.7c-.7 1.5-2.3 2.5-4.1 2.5zm-19-34.1 11 6c.8.4 1.5 1.1 2 1.9L248 112l6.1-11.1c.4-.8 1.1-1.5 2-1.9l11-6-11-6.1c-.8-.4-1.5-1.1-1.9-1.9l-6.1-11.1-6.3 11.1c-.4.8-1.1 1.5-1.9 1.9zM430.6 295.6c-1.8 0-3.4-1-4.3-2.5l-9.7-17.7-17.6-9.6c-1.6-.9-2.5-2.5-2.6-4.3s1-3.4 2.5-4.3l17.6-9.7 9.7-17.7c.9-1.6 2.5-2.5 4.3-2.5 1.8 0 3.4 1 4.3 2.5l9.7 17.7 17.6 9.7c1.6.9 2.5 2.5 2.5 4.3s-1 3.4-2.6 4.3l-17.6 9.6-9.7 17.7c-.6 1.5-2.3 2.5-4.1 2.5zm-19-34.1 11 6c.8.4 1.5 1.1 2 1.9l6.1 11.1 6.1-11.1c.5-.8 1.1-1.5 2-1.9l11-6-11-6.1c-.8-.4-1.5-1.1-1.9-1.9l-6.1-11.1-6.1 11.1c-.4.8-1.1 1.5-1.9 1.9zM74.7 471c-2.6 0-5-1-6.8-2.8l-24-24c-3.8-3.8-3.8-9.9 0-13.7l262.8-262.8c1.9-1.9 5-1.9 6.9 0s1.9 5 0 6.9L50.8 437.3l23.9 23.9 262.8-262.7c1.9-1.9 5-1.9 6.9 0s1.9 5 0 6.9L81.5 468.2c-1.8 1.8-4.3 2.8-6.8 2.8z" data-original="#78909c" class=""></path><path fill="#ffffff" d="M120.5 427.2c-1.2 0-2.5-.5-3.4-1.4l-31-30.8c-1.9-1.9-1.9-5 0-6.9s5-1.9 6.9 0l30.9 30.8c1.9 1.9 1.9 5 0 6.9-.9.9-2.2 1.4-3.4 1.4zM298.2 249.5c-1.2 0-2.5-.5-3.5-1.4l-30.9-30.8c-1.9-1.9-1.9-5 0-6.9s5-1.9 6.9 0l30.9 30.8c1.9 1.9 1.9 5 0 6.9-.9.9-2.1 1.4-3.4 1.4zM356.8 247.8c-.5 0-.9 0-1.4-.1-3.5-.5-6.3-2.9-7.4-6.3l-18.4-59.1-59-18.4c-3.4-1.1-5.8-3.9-6.3-7.4s.9-6.9 3.8-8.9l50.5-35.7-.8-61.7c0-3.6 2-6.8 5.2-8.4 3.1-1.5 6.8-1.2 9.5.9l49.4 36.9 58.5-19.8c3.3-1.1 7-.3 9.5 2.2s3.3 6.1 2.2 9.5L432.3 130l36.9 49.4c2.1 2.8 2.5 6.5.8 9.7-1.6 3.2-4.8 5.1-8.4 5l-61.6-.8-35.7 50.7c-1.8 2.4-4.5 3.8-7.5 3.8zm-17.9-68.6 18.1 58.1 35.2-49.7c1.7-2.4 4.5-4 7.5-4l60.9.8-36.4-48.8c-1.8-2.5-2.3-5.7-1.3-8.5l19.5-57.7-57.7 19.5c-2.8 1.1-6 .6-8.5-1.3l-48.8-36.4.8 60.9c0 3.1-1.5 5.9-4 7.6L274.6 155l58.1 18.1c3 .9 5.3 3.2 6.2 6.1zM219.6 166.7c-2.7 0-4.9-2.2-4.9-4.9V156c0-2.7 2.2-4.9 4.9-4.9s4.9 2.2 4.9 4.9v5.8c0 2.7-2.2 4.9-4.9 4.9zM219.6 195.7c-2.7 0-4.9-2.2-4.9-4.9V185c0-2.7 2.2-4.9 4.9-4.9s4.9 2.2 4.9 4.9v5.8c0 2.7-2.2 4.9-4.9 4.9zM208 178.3h-5.8c-2.7 0-4.9-2.2-4.9-4.9s2.2-4.9 4.9-4.9h5.8c2.7 0 4.9 2.2 4.9 4.9s-2.2 4.9-4.9 4.9zM237 178.3h-5.8c-2.7 0-4.9-2.2-4.9-4.9s2.2-4.9 4.9-4.9h5.8c2.7 0 4.9 2.2 4.9 4.9s-2.2 4.9-4.9 4.9zM345.9 284.1c-2.7 0-4.9-2.2-4.9-4.9v-5.8c0-2.7 2.2-4.9 4.9-4.9s4.9 2.2 4.9 4.9v5.8c0 2.8-2.2 4.9-4.9 4.9zM345.9 313.2c-2.7 0-4.9-2.2-4.9-4.9v-5.8c0-2.7 2.2-4.9 4.9-4.9s4.9 2.2 4.9 4.9v5.8c0 2.7-2.2 4.9-4.9 4.9zM334.3 295.8h-5.8c-2.7 0-4.9-2.2-4.9-4.9s2.2-4.9 4.9-4.9h5.8c2.7 0 4.9 2.2 4.9 4.9s-2.2 4.9-4.9 4.9zM363.3 295.8h-5.8c-2.7 0-4.9-2.2-4.9-4.9s2.2-4.9 4.9-4.9h5.8c2.7 0 4.9 2.2 4.9 4.9s-2.2 4.9-4.9 4.9z" data-original="#78909c" class=""></path></g></svg>