<?xml version="1.0" encoding="utf-8"?>
<!-- Generator: Adobe Illustrator 27.0.0, SVG Export Plug-In . SVG Version: 6.00 Build 0)  -->
<svg version="1.1" id="Layer_1" xmlns="http://www.w3.org/2000/svg" xmlns:xlink="http://www.w3.org/1999/xlink" x="0px" y="0px"
	 viewBox="0 0 512 512" style="enable-background:new 0 0 512 512;" xml:space="preserve">
<style type="text/css">
	.st0{fill:#231F20;}
</style>
<g>
	<path class="st0" d="M441.2,171.5v-34.7h-25.4v-32.1H84.6v32.1H70.8v34.7H51v235.9H461V171.5H441.2z M92.6,112.6h315.2v24.1H92.6
		V112.6z M78.8,144.8h5.9h8h315.2h8h17.4v26.7h-17.4h-8H92.6h-8h-5.9V144.8z M453,399.4H59V179.5h11.8h8h5.9h8h315.2h8h17.4h8H453
		V399.4z"/>
	<path class="st0" d="M111.9,279.3h71.5v-71.5h-71.5V279.3z M119.9,215.7h55.5v55.5h-55.5V215.7z"/>
	<path class="st0" d="M220.2,279.3h71.5v-71.5h-71.5V279.3z M228.2,215.7h55.5v55.5h-55.5V215.7z"/>
	<path class="st0" d="M328.5,279.3h71.5v-71.5h-71.5V279.3z M336.5,215.7h55.5v55.5h-55.5V215.7z"/>
	<path class="st0" d="M111.9,342.2v8v20.9h71.5v-20.9v-8v-42.6h-71.5V342.2z M119.9,350.2v-8v-34.6h55.5v34.6v8v12.9h-55.5V350.2z"
		/>
	<path class="st0" d="M220.2,342.2v8v20.9h71.5v-20.9v-8v-42.6h-71.5V342.2z M228.2,350.2v-8v-34.6h55.5v34.6v8v12.9h-55.5V350.2z"
		/>
	<path class="st0" d="M328.5,342.2v8v20.9h71.5v-20.9v-8v-42.6h-71.5V342.2z M336.5,350.2v-8v-34.6h55.5v34.6v8v12.9h-55.5V350.2z"
		/>
	<polygon class="st0" points="74.8,197.4 74.8,236.9 78.8,236.9 82.8,236.9 82.8,197.4 78.8,197.4 	"/>
	<polygon class="st0" points="74.8,271.3 74.8,310.9 78.8,310.9 82.8,310.9 82.8,271.3 78.8,271.3 	"/>
	<polygon class="st0" points="74.8,350.2 74.8,384.8 82.8,384.8 82.8,350.2 82.8,345.3 74.8,345.3 	"/>
</g>
<g>
	<rect x="429.2" y="197.4" class="st0" width="8" height="39.6"/>
	<rect x="429.2" y="271.3" class="st0" width="8" height="39.6"/>
	<rect x="429.2" y="345.3" class="st0" width="8" height="39.6"/>
</g>
</svg>
