<svg xmlns="http://www.w3.org/2000/svg" version="1.1" xmlns:xlink="http://www.w3.org/1999/xlink" xmlns:svgjs="http://svgjs.com/svgjs" width="512" height="512" x="0" y="0" viewBox="0 0 4000 4000" style="enable-background:new 0 0 512 512" xml:space="preserve" class=""><g><g fill="#1e2959"><path d="M2990 1120H1010c-181.973 0-330 148.027-330 330v1100c0 181.973 148.027 330 330 330h1980c181.973 0 330-148.027 330-330V1450c0-181.973-148.027-330-330-330zm110 1430c0 60.64-49.307 110-110 110H1010c-60.693 0-110-49.36-110-110V1450c0-60.64 49.307-110 110-110h1980c60.693 0 110 49.36 110 110z" fill="#000000" data-original="#1e2959" class=""></path><path d="M1670 1890h-110c-60.747 0-110 49.253-110 110s49.253 110 110 110v110h-220v-440h220c60.747 0 110-49.253 110-110s-49.253-110-110-110h-330c-60.747 0-110 49.253-110 110v660c0 60.747 49.253 110 110 110h440c60.747 0 110-49.253 110-110v-330c0-60.747-49.253-110-110-110zM2110 1560c-60.747 0-110 49.253-110 110v660c0 60.747 49.253 110 110 110s110-49.253 110-110v-660c0-60.747-49.253-110-110-110zM2770 1888.818h-110V1780h110c60.747 0 110-49.253 110-110s-49.253-110-110-110h-220c-60.747 0-110 49.253-110 110v660c0 60.747 49.253 110 110 110s110-49.253 110-110v-218.818h110c61.392 0 111.182-49.79 111.182-111.182s-49.79-111.182-111.182-111.182z" fill="#000000" data-original="#1e2959" class=""></path></g></g></svg>