<svg xmlns="http://www.w3.org/2000/svg" version="1.1" xmlns:xlink="http://www.w3.org/1999/xlink" xmlns:svgjs="http://svgjs.com/svgjs" width="512" height="512" x="0" y="0" viewBox="0 0 512 512" style="enable-background:new 0 0 512 512" xml:space="preserve" class=""><g><path d="m153.62 399.129-40.749-40.749" style="stroke-width:22;stroke-linejoin:round;stroke-miterlimit:10;" fill="none" stroke="#4dc2d4" stroke-width="22" stroke-linejoin="round" stroke-miterlimit="10" data-original="#33cccc" class=""></path><path d="m479.563 236.179-75.071-75.071 50.622-104.222-104.222 50.622-75.071-75.071 9.306 107.014-115.252 55.979 122.246 24.45 24.448 122.245 55.98-115.252z" style="stroke-width:22;stroke-linecap:round;stroke-linejoin:round;stroke-miterlimit:10;" fill="none" stroke="#fdc300" stroke-width="22" stroke-linecap="round" stroke-linejoin="round" stroke-miterlimit="10" data-original="#000000" class=""></path><path d="M77.216 11 74.82 25.676a75.91 75.91 0 0 1-36.57 53.28l-10.951 6.41c27.162 10.6 44.317 34.15 48.034 60.17l1.882 13.177 1.943-13.602c3.789-26.525 21.414-49.529 46.955-59.746l-10.559-6.335a75.91 75.91 0 0 1-35.861-52.86L77.216 11zM451.083 321.707l-2.236 13.417a76.8 76.8 0 0 1-36.957 53.653l-10.724 6.277c25.465 9.938 44.139 32.899 48.108 60.684l1.809 12.664 1.809-12.664c3.866-27.061 21.961-50.48 48.108-60.684l-10.724-6.277a76.8 76.8 0 0 1-36.957-53.653l-2.236-13.417z" style="stroke-width:22;stroke-linecap:round;stroke-linejoin:round;stroke-miterlimit:10;" fill="none" stroke="#4dc2d4" stroke-width="22" stroke-linecap="round" stroke-linejoin="round" stroke-miterlimit="10" data-original="#33cccc" class=""></path><path d="M292.121 219.88 178.069 333.931" style="stroke-width:22;stroke-miterlimit:10;" fill="none" stroke="#fdc300" stroke-width="22" stroke-miterlimit="10" data-original="#000000" class=""></path><path d="m157.694 313.557 40.748 40.748L60.188 492.561A28.818 28.818 0 0 1 39.813 501C23.945 501 11 488.144 11 472.186a28.81 28.81 0 0 1 8.439-20.374l138.255-138.255z" style="stroke-width:22;stroke-linecap:round;stroke-linejoin:round;stroke-miterlimit:10;" fill="none" stroke="#fdc300" stroke-width="22" stroke-linecap="round" stroke-linejoin="round" stroke-miterlimit="10" data-original="#000000" class=""></path></g></svg>