<svg xmlns="http://www.w3.org/2000/svg" version="1.1" xmlns:xlink="http://www.w3.org/1999/xlink" xmlns:svgjs="http://svgjs.com/svgjs" width="512" height="512" x="0" y="0" viewBox="0 0 32 32" style="enable-background:new 0 0 512 512" xml:space="preserve" class=""><g><g stroke-linecap="round" stroke-linejoin="round" stroke-miterlimit="4.1"><g fill-rule="evenodd"><path d="M13.895 6.006c-.925 0-1.776.526-2.19 1.353l-.322.647H9c-1.645 0-3 1.355-3 3v10c0 1.645 1.355 3 3 3h14c1.645 0 3-1.355 3-3v-10c0-1.645-1.355-3-3-3h-2.383l-.322-.647a2.454 2.454 0 0 0-2.19-1.353zm0 2h4.21c.172 0 .324.095.4.248l.6 1.2a1 1 0 0 0 .895.552h3c.564 0 1 .436 1 1v10c0 .564-.436 1-1 1H9c-.564 0-1-.436-1-1v-10c0-.564.436-1 1-1h3a1 1 0 0 0 .895-.553l.6-1.2a.444.444 0 0 1 .4-.247zM3 2.006a1 1 0 0 0-1 1v4a1 1 0 0 0 1 1 1 1 0 0 0 1-1v-3h3a1 1 0 0 0 1-1 1 1 0 0 0-1-1zM3 24.006a1 1 0 0 0-1 1v4a1 1 0 0 0 1 1h4a1 1 0 0 0 1-1 1 1 0 0 0-1-1H4v-3a1 1 0 0 0-1-1zM25 2.006a1 1 0 0 0-1 1 1 1 0 0 0 1 1h3v3a1 1 0 0 0 1 1 1 1 0 0 0 1-1v-4a1 1 0 0 0-1-1zM29 24.006a1 1 0 0 0-1 1v3h-3a1 1 0 0 0-1 1 1 1 0 0 0 1 1h4a1 1 0 0 0 1-1v-4a1 1 0 0 0-1-1z" fill="#000000" data-original="#000000" class=""></path><path d="M16 12.006c-2.197 0-4 1.803-4 4s1.803 4 4 4 4-1.803 4-4-1.803-4-4-4zm0 2c1.116 0 2 .883 2 2s-.884 2-2 2-2-.884-2-2 .884-2 2-2z" fill="#000000" data-original="#000000" class=""></path></g></g></g></svg>