<?xml version="1.0" encoding="utf-8"?>
<!-- Generator: Adobe Illustrator 27.0.0, SVG Export Plug-In . SVG Version: 6.00 Build 0)  -->
<svg version="1.1" id="Layer_1" xmlns="http://www.w3.org/2000/svg" xmlns:xlink="http://www.w3.org/1999/xlink" x="0px" y="0px"
	 viewBox="0 0 117 443" style="enable-background:new 0 0 117 443;" xml:space="preserve" fill="#1e1e1e">
<style type="text/css">
	.st0{fill:none;stroke:#1E1E1E;stroke-miterlimit:10;}
</style>
<path class="st0" d="M37.2,29.9c-6.3,2.2,1.9,3.2,1.9,3.2s0.4,1.5,0.3,6.2C39.2,44,10.5,219,6.7,244.2s-7,70.6-6.1,100.1
	C1.6,373.7,4.1,390.5,4,394c-0.1,3.5,1.4,3.4,1.4,3.4v3.1c0.5,10.2,10.5,29.9,10.5,29.9s3.4,4.2,7.5,4.2s5.3-0.9,5.3-0.9
	c2.6,5.6,4.8,6.8,17.7,8.5c13,1.8,12-9.1,15.8-10.5c2.9-0.2,5.5,3.6,8.3,5.5c2.8,1.9,9.2,7.7,23.8,0c11-12.5,18.5-41.1,18.5-42.3
	c0-1.1-0.8-2-0.8-2s2.8-21.2,3.6-38.8c0.8-17.6,2.2-47.1-2.2-82c-4.4-34.9-35.1-220.6-36.5-228c-1.4-7.5-0.4-11.4-0.4-11.4
	c2.5,0,6.9-2.1,2.7-3.1c-4.2-0.9-2.7-0.1-0.2-2.2c2.5-2,0.2-4.3,0.2-4.3s-0.7-13-0.6-17.9S77,0.5,77,0.5H38.4c0,0-1.2,0.4-1.5,3
	s-0.4,19-0.4,19s-1.6,0.7-1.5,3c0.1,2.3,1.9,2.4,1.9,2.4C39.5,28.3,39.8,29,37.2,29.9z"/>
<line class="st0" x1="76.6" y1="29.1" x2="39" y2="29.1"/>
<line class="st0" x1="39.1" y1="32.8" x2="76.5" y2="32.8"/>
<path class="st0" d="M25.2,151.2c-0.7-0.1-1.4,0.3-1.8,0.9c-0.2,0.4-0.4,1-0.6,1.8c-0.5,2.6-10.1,73.6-10.1,73.6s-2,3.9,9,4.7
	s21.5,1.1,39.1,1.1s36.5-1.4,38-2.2c1.6-0.8,3-0.6,2.3-5c-0.6-4.4-10-72.6-10-72.6s-0.3-2.9-4.4-2C82.2,152.5,31.7,151.8,25.2,151.2
	z"/>
</svg>
