<?xml version="1.0" encoding="utf-8"?>
<!-- Generator: Adobe Illustrator 27.0.0, SVG Export Plug-In . SVG Version: 6.00 Build 0)  -->
<svg version="1.1" id="Layer_1" xmlns="http://www.w3.org/2000/svg" xmlns:xlink="http://www.w3.org/1999/xlink" x="0px" y="0px"
	 viewBox="0 0 408.2 312.7" style="enable-background:new 0 0 408.2 312.7;" xml:space="preserve">
<style type="text/css">
	.st0{fill:none;stroke:#000000;stroke-miterlimit:10;}
</style>
<path class="st0" d="M407.7,115.7c-0.3,69.2-96.6,111.8-202.4,111.7c-112-0.1-198.1-47-204.4-111.7C-5.4,51.5,78.3-0.1,204,0.5
	C311.4,1.1,408,50.5,407.7,115.7z"/>
<path class="st0" d="M389.8,115.5c-5.3,60.8-89.1,95-185.8,93.2c-101.8-1.8-179.4-35.7-187-93.2C9.3,56.7,90.6,10.7,203.2,12.6
	C301.6,14.1,395,56.7,389.8,115.5z"/>
<path class="st0" d="M374.3,179.1c0,0-10,52.7-44.7,90.1c-35.4,38.1-103.8,43-129.1,43s-84.2-4.7-120.9-41.5s-48.2-97.7-48.2-97.7"
	/>
<path class="st0" d="M87.9,188.5c0,0,44.1-33.1,115-33.1s113,36.6,113,36.6"/>
</svg>
