<?xml version="1.0" encoding="utf-8"?>
<!-- Generator: Adobe Illustrator 27.0.0, SVG Export Plug-In . SVG Version: 6.00 Build 0)  -->
<svg version="1.1" id="Layer_1" xmlns="http://www.w3.org/2000/svg" xmlns:xlink="http://www.w3.org/1999/xlink" x="0px" y="0px"
	 viewBox="0 0 463.3 167.9" style="enable-background:new 0 0 463.3 167.9;" xml:space="preserve" fill="#1E1E1E">
<style type="text/css">
	.st0{enable-background:new    ;}
</style>
<g>
	<g class="st0">
		<path d="M9.6,22.3c2.9,0.1,5.7-0.1,6-1.9c0.3-1.9-1.3-3-5.2-3.5c-4.7-0.6-10.1-0.8-10.1-5.1c0-5.2,7.9-5.1,10.5-4.9
			c3.4,0.2,6.4,1.6,7.7,5.4h-3.2c-0.5-1.1-1.5-2.3-5.5-2.5c-2.1-0.1-6,0.1-6.2,1.7c-0.3,1.7,1.9,1.9,5.7,2.4
			c4.7,0.6,9.6,1.5,9.6,6.3c0,5.5-7.5,5.1-10,5c-5.4-0.4-7.7-3.1-8.7-5.6h3.2C4.5,21,6,22.1,9.6,22.3z"/>
		<path d="M27.9,5.9V25h-3.2V5.9H27.9z"/>
		<path d="M40.3,10.7c4.8,0,7.6,3.3,7.6,7.3c0,4-2.8,7.3-7.6,7.3c-4.9,0-7.6-3.3-7.6-7.3C32.7,14,35.4,10.7,40.3,10.7z M44.7,18
			c0-2.8-1.3-4.4-4.4-4.4c-3.1,0-4.4,1.6-4.4,4.4c0,2.8,1.3,4.4,4.4,4.4C43.4,22.4,44.7,20.8,44.7,18z"/>
		<path d="M56.9,25l-5.8-14.2h3.4L59,21.7l1.6-4.2l-2.8-6.8h3.4l4.5,11l4.4-11h3.4L67.9,25h-4.3l-1.3-3.1L61.2,25H56.9z"/>
		<path d="M104.3,12.2c0,1.6-0.4,2.8-1.2,3.7c1.2,0.8,2,2.1,2,3.7c0,3.4-2.7,5.3-5.8,5.3H87.9V7.1h11.3
			C102.3,7.1,104.3,9.3,104.3,12.2z M98,14.7c2,0,3.5-0.5,3.5-2.3c0-1.2-1.4-2.3-3.5-2.3h-6.8v4.6H98z M98.9,22c2,0,3.2-0.9,3.2-2.5
			c0-1.3-1.1-2.2-4.4-2.2h-6.5V22H98.9z"/>
		<path d="M121.2,25v-2.1c-1.1,1.2-2.7,2.4-5.1,2.4c-5.5,0-6.1-4.1-6.1-6.3v-8.4h3.2V19c0,1.9,1,3.1,2.9,3.4
			c2.3,0.4,5.1-1.7,5.1-3.6v-8.2h3.2V25H121.2z"/>
		<path d="M132.5,10.6V5.9h3.2v4.7h3v2.6h-3V25h-3.2V13.1h-3.2v-2.6H132.5z"/>
		<path d="M170.6,7.1V10h-13.9v4.8h13.5v2.9h-13.5V25h-3.2V7.1H170.6z"/>
		<path d="M178.7,10.7v2.1c1.1-1.2,2.7-2.1,5.2-2.1c0.8,0,1.5,0.1,2.1,0.2l-0.9,2.2c-2-0.2-4.2,0.7-5.5,2.2c-0.5,0.6-0.9,2-0.9,2.8
			V25h-3.2V10.7H178.7z"/>
		<path d="M196.2,25.3c-4.9,0-7.6-3.3-7.6-7.3c0-4,2.8-7.3,7.6-7.3c4.2,0,7.2,2.5,7.5,5.8v2.4h-11.8c0.3,2.3,1.6,3.6,4.4,3.6
			c1.8,0,3.6-0.6,4-1.6h3.4C203,23.5,199.9,25.3,196.2,25.3z M200.5,16.3c-0.2-1.9-1.8-2.8-4.3-2.8c-2.5,0-3.8,1-4.3,2.8H200.5z"/>
		<path d="M214.4,22.4c2.2,0,4.1,0.1,4.6-1.2c0.5-1.3-1.5-1.5-4.5-1.9c-3.7-0.4-7.7-0.9-7.3-4.5c0.4-4.4,6.2-4.3,8.2-4.1
			c2.8,0.2,5.6,1.4,6.4,4.9H219c-0.3-1-1.4-1.7-3.8-2c-1.7-0.2-4.6-0.3-4.8,1.2c-0.2,1.3,1.5,1.6,4.5,2c3.7,0.4,8,1.3,7.3,4.7
			c-0.8,4-5.9,3.8-7.8,3.8c-3.3,0-6.9-1.7-8-3.1l2.1-1.7C209.5,21.4,213,22.4,214.4,22.4z"/>
		<path d="M229.8,5.9v6.9c1.1-1.2,2.7-2.1,5.1-2.1c5.5,0,6.1,3.8,6.1,6V25h-3.2v-8.4c0-1.9-1-2.8-2.9-3.1c-2.3-0.4-3.9,0.8-4.9,2.3
			c-0.2,0.4-0.2,0.6-0.2,0.9V25h-3.2V5.9H229.8z"/>
	</g>
	<g>
		<g>
			<g>
				<path d="M286.5,161.8v-22.7h2.6v22.7H286.5z M288.4,161.8v-2.5h4.1c0.7,0,1.2-0.2,1.6-0.5c0.4-0.3,0.6-0.8,0.6-1.4v-3.5
					c0-0.9-0.2-1.6-0.6-2c-0.4-0.5-1-0.7-1.6-0.7h-3.9v-2.4h3.9c0.6,0,1.1-0.2,1.5-0.6c0.3-0.4,0.5-1,0.5-1.8v-2.8
					c0-0.6-0.2-1.1-0.5-1.4c-0.3-0.3-0.8-0.5-1.4-0.5h-4v-2.6h3.9c1.5,0,2.6,0.4,3.4,1.1s1.2,1.8,1.2,3.1v2.7c0,1.1-0.2,2-0.6,2.7
					c-0.4,0.7-1,1.1-1.9,1.3c0.9,0.2,1.6,0.6,2.1,1.3s0.7,1.7,0.7,2.8v3.3c0,1.4-0.4,2.4-1.2,3.2c-0.8,0.8-1.9,1.1-3.3,1.1
					L288.4,161.8L288.4,161.8z"/>
			</g>
			<g>
				<path d="M308,162c-1.2,0-2.2-0.2-3-0.7s-1.5-1.1-1.9-1.9c-0.4-0.8-0.7-1.9-0.7-3.1v-11.8c0-1.2,0.2-2.3,0.7-3.1
					c0.4-0.8,1.1-1.5,1.9-1.9s1.9-0.7,3-0.7c1.2,0,2.2,0.2,3.1,0.7c0.8,0.4,1.5,1.1,1.9,1.9c0.4,0.8,0.7,1.9,0.7,3.1v11.8
					c0,1.2-0.2,2.3-0.7,3.1c-0.4,0.8-1.1,1.5-1.9,1.9C310.2,161.8,309.2,162,308,162z M308,159.5c1,0,1.7-0.3,2.2-0.8
					s0.8-1.3,0.8-2.2v-12c0-1-0.3-1.7-0.8-2.3s-1.3-0.8-2.2-0.8c-1,0-1.7,0.3-2.2,0.8s-0.8,1.3-0.8,2.3v12c0,1,0.3,1.7,0.8,2.2
					C306.3,159.2,307,159.5,308,159.5z"/>
			</g>
			<g>
				<path d="M319.2,161.8v-22.7h2.6v22.7H319.2z M321.2,156.8l0.1-4.8l6.5-12.9h2.9L321.2,156.8z M328.4,161.8l-4.3-12.1l1.7-2.3
					l5.6,14.5L328.4,161.8L328.4,161.8z"/>
			</g>
			<g>
				<path d="M340.6,162c-1.2,0-2.2-0.2-3-0.6c-0.8-0.4-1.4-1-1.9-1.8c-0.4-0.8-0.6-1.8-0.6-2.9v-1.1h2.6v1.1c0,1,0.2,1.7,0.7,2.2
					s1.2,0.7,2.2,0.7c0.9,0,1.6-0.2,2.1-0.7s0.7-1.2,0.7-2.2V155c0-0.7-0.2-1.3-0.5-1.7c-0.3-0.5-0.8-0.8-1.3-1.2
					c-0.5-0.3-1.1-0.6-1.7-0.9c-0.6-0.3-1.2-0.6-1.7-0.9c-0.6-0.3-1.1-0.7-1.6-1.1c-0.5-0.4-0.8-1-1.1-1.6c-0.3-0.6-0.4-1.4-0.4-2.3
					v-1.2c0-1.7,0.5-3,1.4-3.9c0.9-0.9,2.3-1.3,4.1-1.3c1.8,0,3.1,0.5,4,1.4c0.9,0.9,1.4,2.2,1.4,4v1.2h-2.6v-1.1
					c0-1-0.2-1.7-0.7-2.2s-1.1-0.7-2.1-0.7s-1.7,0.2-2.2,0.7s-0.7,1.1-0.7,2v1.3c0,0.7,0.2,1.3,0.6,1.8c0.4,0.5,0.9,0.8,1.5,1.2
					c0.6,0.3,1.2,0.6,1.9,0.9c0.5,0.2,1.1,0.5,1.6,0.8s1,0.7,1.4,1.1c0.4,0.4,0.8,0.9,1,1.6c0.3,0.6,0.4,1.4,0.4,2.3v1.8
					c0,1.8-0.5,3.1-1.4,4C343.7,161.6,342.4,162,340.6,162z"/>
			</g>
			<g>
				<path d="M357.1,162c-1.2,0-2.2-0.2-3-0.7s-1.5-1.1-1.9-1.9c-0.4-0.8-0.7-1.9-0.7-3.1v-11.8c0-1.2,0.2-2.3,0.7-3.1
					c0.4-0.8,1.1-1.5,1.9-1.9s1.9-0.7,3-0.7c1.2,0,2.2,0.2,3.1,0.7c0.8,0.4,1.5,1.1,1.9,1.9c0.4,0.8,0.7,1.9,0.7,3.1v11.8
					c0,1.2-0.2,2.3-0.7,3.1c-0.4,0.8-1.1,1.5-1.9,1.9C359.3,161.8,358.3,162,357.1,162z M357.1,159.5c1,0,1.7-0.3,2.2-0.8
					s0.8-1.3,0.8-2.2v-12c0-1-0.3-1.7-0.8-2.3s-1.3-0.8-2.2-0.8c-1,0-1.7,0.3-2.2,0.8s-0.8,1.3-0.8,2.3v12c0,1,0.3,1.7,0.8,2.2
					C355.3,159.2,356.1,159.5,357.1,159.5z"/>
			</g>
			<g>
				<path d="M373.9,162c-1.2,0-2.2-0.2-3-0.7s-1.5-1.1-1.9-1.9c-0.4-0.8-0.7-1.9-0.7-3.1v-11.8c0-1.2,0.2-2.3,0.7-3.1
					c0.4-0.8,1.1-1.5,1.9-1.9s1.9-0.7,3-0.7c1.2,0,2.2,0.2,3.1,0.7c0.8,0.4,1.5,1.1,1.9,1.9c0.4,0.8,0.7,1.9,0.7,3.1v11.8
					c0,1.2-0.2,2.3-0.7,3.1c-0.4,0.8-1.1,1.5-1.9,1.9C376.1,161.8,375.1,162,373.9,162z M373.9,159.5c1,0,1.7-0.3,2.2-0.8
					s0.8-1.3,0.8-2.2v-12c0-1-0.3-1.7-0.8-2.3s-1.3-0.8-2.2-0.8c-1,0-1.7,0.3-2.2,0.8s-0.8,1.3-0.8,2.3v12c0,1,0.3,1.7,0.8,2.2
					C372.1,159.2,372.9,159.5,373.9,159.5z"/>
			</g>
			<g>
				<path d="M385,161.8v-22.7h2.4l6.7,18l-0.4,0.4v-18.4h2.5v22.7h-2.4l-6.7-17.8l0.4-0.4v18.2H385z"/>
			</g>
			<g>
				<path d="M401.7,161.8v-22.7h2.6v22.7H401.7z M403.3,161.8v-2.5h4.8c0.6,0,1-0.2,1.3-0.5s0.4-0.8,0.4-1.4v-14.1
					c0-0.6-0.1-1.1-0.4-1.4c-0.3-0.3-0.7-0.5-1.3-0.5h-4.8v-2.3h4.8c1.4,0,2.5,0.4,3.2,1.1c0.8,0.8,1.1,1.8,1.1,3.3v13.9
					c0,0.9-0.2,1.7-0.5,2.4s-0.8,1.2-1.5,1.5s-1.5,0.5-2.4,0.5H403.3z"/>
			</g>
			<g>
				<path d="M423.6,162c-1.2,0-2.2-0.2-3-0.7s-1.5-1.1-1.9-1.9c-0.4-0.8-0.7-1.9-0.7-3.1v-11.8c0-1.2,0.2-2.3,0.7-3.1
					c0.4-0.8,1.1-1.5,1.9-1.9s1.9-0.7,3-0.7c1.2,0,2.2,0.2,3.1,0.7c0.8,0.4,1.5,1.1,1.9,1.9c0.4,0.8,0.7,1.9,0.7,3.1v11.8
					c0,1.2-0.2,2.3-0.7,3.1c-0.4,0.8-1.1,1.5-1.9,1.9C425.8,161.8,424.8,162,423.6,162z M423.6,159.5c1,0,1.7-0.3,2.2-0.8
					s0.8-1.3,0.8-2.2v-12c0-1-0.3-1.7-0.8-2.3s-1.3-0.8-2.2-0.8c-1,0-1.7,0.3-2.2,0.8s-0.8,1.3-0.8,2.3v12c0,1,0.3,1.7,0.8,2.2
					C421.8,159.2,422.6,159.5,423.6,159.5z"/>
			</g>
			<g>
				<path d="M440.2,149.6h5.5v6.6c0,1.2-0.2,2.3-0.6,3.2c-0.4,0.9-1,1.5-1.9,2c-0.9,0.5-1.8,0.7-3,0.7s-2.2-0.2-3-0.6
					s-1.5-1.1-1.9-1.9c-0.4-0.8-0.6-1.8-0.6-3v-11.9c0-1.2,0.2-2.3,0.6-3.2c0.4-0.9,1-1.5,1.9-2c0.8-0.5,1.8-0.7,3-0.7
					c1.1,0,2.1,0.2,2.9,0.7c0.8,0.4,1.4,1.1,1.8,1.9c0.4,0.8,0.6,1.9,0.6,3.1v1.1h-2.8v-1.1c0-1-0.2-1.8-0.7-2.3
					c-0.4-0.5-1.1-0.8-1.9-0.8c-0.9,0-1.6,0.3-2.1,0.9c-0.5,0.6-0.7,1.4-0.7,2.4v11.9c0,0.9,0.3,1.7,0.8,2.2s1.2,0.8,2.2,0.8
					c0.9,0,1.6-0.3,2.1-0.9c0.5-0.6,0.7-1.4,0.7-2.4v-4.2h-2.9V149.6z"/>
			</g>
			<g>
				<path d="M450.2,161.8l5.2-22.7h2.7l5.2,22.7h-2.8l-3.8-19.1l-3.8,19.1H450.2z M453.3,156.6v-2.5h7.2v2.5H453.3z"/>
			</g>
		</g>
	</g>
	<g>
		<g>
			<path d="M0,83.5h45.9v-2.8H7.5c-2.8,0-5-2.2-5-5V46.2h12.8v5.9h73.9v-5.9H102v29.5c0,2.8-2.2,5-5,5H58.8v2.8h45.9v11.8H0V83.5z
				 M103.6,119H90.8v-8.5H1.3V98.3h97.3c2.8,0,5,2.2,5,5V119z M89.2,68.4v-4H15.3v4H89.2z"/>
		</g>
		<g>
			<path d="M130.1,106.7v-6.4h-12.8V114c0,2.8,2.2,5,5,5h91.5l5.8-11.2v-1.1H130.1z M173.5,53.5V45h-12.8l-0.1,9
				c-5,5.1-18.1,11.4-44.1,15.3l1.8,11.8c25.6-3.7,41.2-10.5,49.2-17.2c8,5.4,23.3,10.9,48.2,14.6l1.8-11.8
				C192.1,63,178.9,57.7,173.5,53.5z M114.9,84.3v12h45.9v6.9h12.8v-6.9h45.9v-12H114.9z"/>
		</g>
		<g>
			<path d="M290.1,104.1v-8.5h42.2V83.4h-85.8V60h82.9V47.7h-78.8l-17,32.8v15.2h43.6v8.5H231v12.3h104.6v-12.4H290.1z"/>
		</g>
		<g>
			<path d="M344.7,47.7h73.2c2.8,0,5,2.2,5,5v65h-12.8V60h-65.4V47.7z M431.6,46.3h12.8v2.6h13.5v12.2h-13.5v58h-12.8V46.3z"/>
		</g>
	</g>
	<g>
		<path d="M8.5,162.2H4.8v-19.3H0.6v-3.5h12.1v3.4h0v0.1H8.5V162.2z M5,161.9h3.2v-19.3h4.1v-3H0.8v3H5V161.9z M27.9,161.8H13.1v-14
			h14.9V161.8z M13.3,161.5h14.4v-13.5H13.3V161.5z M3.4,159l-0.1,0L0,158.4v-0.1c0,0,0-0.1,0-0.2c0.5-1.8,0.8-3.9,1-6.4
			c0.2-1.9,0.2-4.2,0.1-7c0-0.1,0-0.2,0-0.2v-0.1l0.1,0l3.2,0.2v0.1c0,0.4,0,4.1-0.2,7.6c-0.1,2-0.5,4.6-0.7,5.8
			c-0.1,0.3-0.1,0.6-0.1,0.7L3.4,159z M0.3,158.2l2.9,0.5c0-0.1,0-0.3,0.1-0.6c0.2-1.2,0.6-3.8,0.7-5.8c0.2-3.3,0.2-6.7,0.2-7.5
			l-2.8-0.2c0,0,0,0,0,0.1c0.1,2.8,0.1,5.1-0.1,7C1.1,154.2,0.7,156.4,0.3,158.2C0.3,158.2,0.3,158.2,0.3,158.2z M24.5,158.8h-2.4
			v-2.5h2.4V158.8z M22.4,158.5h1.9v-2h-1.9V158.5z M19,158.8h-2.5v-2.5H19V158.8z M16.8,158.5h2v-2h-2V158.5z M12.2,156.9H9v-12.1
			h3.2V156.9z M9.2,156.6H12V145H9.2V156.6z M24.5,153.6h-2.4V151h2.4V153.6z M22.4,153.3h1.9v-2h-1.9V153.3z M19,153.6h-2.5V151H19
			V153.6z M16.8,153.3h2v-2h-2V153.3z M26.7,146.4H14.3v-8.1h12.4V146.4z M14.5,146.1h11.9v-7.6H14.5V146.1z M23.1,143.5h-5.4v-2.2
			h5.4V143.5z M18,143.2h4.9v-1.8H18V143.2z M11.6,137.3H1.8v-3.7h9.9V137.3z M2,137h9.4v-3.2H2V137z M27.9,137.2H13.1v-3.6h14.9
			V137.2z M13.3,136.9h14.4v-3.1H13.3V136.9z"/>
	</g>
	<g>
		<path d="M141.3,162.2l-0.2-0.1c-0.7-0.5-2.8-1.9-5-4.9l0.2-0.2c0,0,0,0,0,0c0.1,0,0.7-0.4,1-0.7h-3.7l1,0.7l-0.1,0.1
			c-1.9,2.7-3.1,4.1-5.3,4.9l-0.1,0l-1.3-1.7v0.8h-3.2v-23.8c0-1.7-0.1-2.9-0.2-3.4c0-0.1,0-0.2,0-0.2v-0.1l3.6,0.2v0.1
			c0,0,0,0.1,0,0.2c0,0.3-0.1,1.1-0.1,1.9v22.4c1.2-0.6,2.2-1.4,2.8-2.3h-1.2V139h3.8l0.3-1.5h-5v-3.5h13.6v3.5h-4.6l-0.4,1.5h4.2
			v17.3h-1.3c1.4,1.5,3,2.4,3.7,2.6l0.2,0.1L141.3,162.2z M127.7,159.8l1.7,2.1c2.1-0.8,3.2-2.1,5-4.7l-1.4-1.1h5.1l-0.3,0.2
			c-0.1,0.1-0.2,0.1-0.3,0.2c-0.5,0.4-0.8,0.6-1,0.7c2,2.8,4.1,4.2,4.8,4.6l2.2-2.8c-0.8-0.3-2.4-1.2-3.8-2.8l-0.2-0.2h1.7v-16.8
			h-4.2l0.6-2h4.6v-3h-13.1v3h5l-0.5,2h-3.8V156h1.4l-0.1,0.2c-0.9,1.5-2.5,2.4-3.2,2.7l-0.2,0.1v-22.8c0-0.9,0.1-1.6,0.1-1.9
			c0,0,0,0,0-0.1l-3-0.2c0,0,0,0,0,0c0.1,0.5,0.2,1.7,0.2,3.4V161h2.8V159.8z M118,162l-0.2-0.1l-3.1-1.1v-0.1c0,0,0-0.1,0.1-0.2
			c1.1-2.7,1.8-6.5,2-10.8c0.4-7.7-0.2-15.9-0.2-16l0-0.1l0.1,0l3.5,0.3l0,0.1c0,0-0.1,0.8-0.1,2l0,0.1c0,2,0.1,8.9-0.1,13.6
			c-0.2,5.1-0.9,9.3-2.1,12c0,0.1,0,0.1,0,0.1V162z M115.1,160.7l2.8,1c0,0,0,0,0,0c1.1-2.7,1.9-6.9,2-11.9
			c0.2-4.7,0.1-11.6,0.1-13.6l0-0.1c0-0.9,0.1-1.6,0.1-1.9l-3.1-0.3c0.1,1.1,0.6,8.7,0.2,15.9C116.9,154.1,116.2,157.9,115.1,160.7
			C115.1,160.6,115.1,160.6,115.1,160.7z M124,157h-3.1v-16.8c0-2.4-0.1-3.7-0.1-3.7l0-0.1l3.4,0.1l0,0.1c0,0-0.1,1-0.1,2V157z
			 M121.1,156.7h2.6v-18.2c0-0.8,0.1-1.6,0.1-1.9l-2.8-0.1c0,0.4,0.1,1.6,0.1,3.6V156.7z M138,153.4h-5.2v-2h5.2V153.4z M133,153.1
			h4.8v-1.5H133V153.1z M138,148.7h-5.2v-2h5.2V148.7z M133,148.4h4.8V147H133V148.4z M137.9,143.9h-5.1V142h5.2v1.8L137.9,143.9
			L137.9,143.9z M133,143.6h4.8v-1.3H133V143.6z"/>
	</g>
	<g>
		<path d="M321.7,34.4h-3.5V9.5c-0.6,1.3-2.5,4.9-3.1,6h2.4v3.4H315l1.6,1.9l-1.3,1.2h0.9v12.1h-11v-7.2c-0.8,0.5-1.8,1.3-2,1.3
			h-0.1l-1.9-3l0.1-0.1c2.2-1.3,5.4-3.7,7.3-6.2h-6.1v-3.4h4.7V13h-3.1V9.6h3.1V7.7l-0.2-2l4,0.3l-0.2,1.8l0,1.8h2.8v1.7
			c1-1.8,1.6-3.6,1.7-3.7V7.4l0.2,0.1l2.8,1.5V7.2h9c0.4,0,0.7,0.2,0.9,0.4c0.3,0.4,0.3,1,0.2,1.3l0,0l-3.6,7.9
			c1.1,1.1,2.1,2.4,3,3.8c1.8,2.7,1.4,6.6-0.9,8.7c-1.3,1.2-3.9,1-4,1l-0.1,0l-1-4V34.4z M318.5,34.1h3V17.8l0.2,0.2
			c0.7,0.7,1.8,2,2.6,3.2c0.9,1.3,1.3,2.8,1,3.8c-0.2,0.6-0.6,1-1.1,1.3c-0.8,0.3-1.7,0.1-2.1,0c0,0,0,0-0.1,0l0.9,3.8
			c0.5,0,2.6,0.1,3.7-1c2.2-2,2.6-5.7,0.9-8.3c-0.8-1.4-1.8-2.6-3-3.8l-0.1-0.1l0-0.1l3.6-8c0.1-0.3,0.1-0.8-0.1-1.1
			c-0.2-0.2-0.4-0.3-0.6-0.3h-8.8V34.1z M305.4,33.8H316V22.2h-1.3l1.5-1.4l-1.8-2.1h2.8v-2.9h-2.6l0.2-0.2c0.6-0.7,2.9-5.2,3.3-6.4
			l-2.7-1.4c-0.2,0.6-0.9,2.5-1.9,4.1l-0.2,0.4V9.9h-2.8v-2l0.2-1.6L307.4,6l0.2,1.8l0,2.1h-3.1v2.9h3.1v3.1h-4.7v2.9h6.3l-0.2,0.2
			c-1.9,2.5-5.2,5-7.4,6.4l1.7,2.6c0.2-0.1,1.2-0.8,2-1.3l0.2-0.1V33.8z M321.7,26L321.7,26c0.1,0,0.2,0,0.4,0.1
			c0.4,0.1,1.2,0.3,2,0c0.5-0.2,0.8-0.6,1-1.1c0.3-0.9-0.1-2.3-1-3.6c-0.7-1.1-1.7-2.3-2.4-3V26z M312.7,31.3h-4.1V29h4.1V31.3z
			 M308.8,31h3.6v-1.8h-3.6V31z M312.7,26.6h-4.1v-2.1h4.1V26.6z M308.8,26.3h3.6v-1.6h-3.6V26.3z M313.6,22.1h-3.4l1.8-2.3
			L313.6,22.1z M310.7,21.8h2.4l-1.2-1.7L310.7,21.8z M321.7,15.7l-0.2-0.1v-5h2.5L321.7,15.7z M321.7,10.9v4.2l1.9-4.2H321.7z
			 M311.2,15.7h-0.7v-2.9h2.6l-0.1,0.2C312.4,14.2,311.6,15.3,311.2,15.7L311.2,15.7z M310.7,15.4h0.3c0.4-0.3,1.1-1.3,1.6-2.4h-2
			V15.4z"/>
	</g>
	<g>
		<path d="M444.1,34L444.1,34l-1.2-3.8c-1.6,1-4.4,2.6-6.8,3.3l-0.1,0l-1.8-3.3l0.2,0c3.9-1,9.1-3.7,12-7.3l0-0.1
			c-0.1-0.4-0.1-0.5-0.2-0.7c-2.6,2.8-6.7,5.6-9.6,6.6l-0.1,0l0-0.1l-1.8-3.1l0.1,0c2.5-0.9,6.3-2.6,10.1-6.1
			c-0.1-0.2-0.2-0.4-0.4-0.7c-1.3,1.6-5.1,3.7-8.1,4.8l-0.1,0l-0.1-0.1l-1.9-3.2l0.2,0c1.4-0.4,5.4-1.8,7.6-3.9h-3.8V13h15v3.1H447
			c0.2,0.3,0.4,0.6,0.6,0.9c0.7,1,1.5,2.2,2.1,3.8c1.8-0.7,3.8-2.9,3.9-3.1l0.1-0.2l0.1,0.1l2.4,2.9l-0.1,0.1
			c-1.2,1.4-3.2,2.6-4.7,3.4c0.4,0.6,1.6,2.2,2.5,3.4c1.3,1.5,2.9,2.6,4.1,3.2l0.1,0.1l-2.8,3.3l-0.1-0.1c-1.2-0.9-2-1.5-3.2-2.6
			c-0.8-1-1.5-2-1.9-2.5c0,1.3-0.5,3.5-1.4,4.1C447.5,33.8,445.5,34,444.1,34z M443.1,29.7l1.1,4c1.1,0,3.2-0.2,4.4-1.1
			c0.8-0.6,1.4-3.2,1.2-4.4l0.2-0.1c0,0,0.9,1.5,2.1,2.9c1.2,1.1,1.9,1.6,3.1,2.5l2.4-2.9c-1.2-0.6-2.8-1.7-4-3.2
			c-1-1.2-2.3-3-2.6-3.5l-0.1-0.1l0.1-0.1c1.5-0.7,3.4-1.9,4.7-3.3l-2.1-2.6c-0.5,0.6-2.4,2.5-4.1,3.1l-0.1,0l0-0.1
			c-0.6-1.6-1.4-2.8-2.1-3.8c-0.2-0.4-0.5-0.7-0.7-1.1l-0.1-0.2h6.4v-2.6h-14.5v2.6h4.2l-0.2,0.2c-2.2,2.2-6.2,3.6-7.8,4.1l1.7,2.9
			c3.4-1.3,6.9-3.4,7.9-4.8l0.1-0.1l0.1,0.1c0.3,0.3,0.5,0.6,0.6,0.9l0,0.1l-0.1,0.1c-3.8,3.5-7.6,5.3-10.1,6.2l1.6,2.8
			c2.9-1,7.1-3.9,9.5-6.6l0.1-0.1l0.1,0.2c0.2,0.4,0.2,0.5,0.3,1l0,0.2l0,0c-2.9,3.7-8.1,6.3-12,7.4l1.6,2.9
			c2.4-0.7,5.3-2.4,6.8-3.4L443.1,29.7z M444.6,30.1c-0.5,0-1-0.1-1.4-0.3l-0.2-0.1l0.2-0.1c1.5-1,2.9-2.4,3.3-2.8l0.1-0.1l0.1,0.2
			c0.3,1.1-0.2,2.6-0.9,3C445.6,30.1,445.1,30.1,444.6,30.1z M443.6,29.7c0.6,0.3,1.8,0.2,2.2,0c0.5-0.3,0.9-1.6,0.8-2.5
			C446,27.7,444.8,28.8,443.6,29.7z M437.6,15.7H434v-7h9.6c0-0.4-0.1-1.2-0.3-2.8l0-0.2l4.7,0.4l-0.2,2.5h9.7v6.8h0v0.1h-3.5v-3.7
			h-16.2V15.7z M434.2,15.4h3.2v-3.8h16.8v3.7h3V8.9h-9.7l0.2-2.5L443.6,6c0.3,1.7,0.3,2.5,0.3,2.8v0.1h-9.6V15.4z"/>
	</g>
	<g>
		<g>
			<path d="M219.3,108.8v9.9h-5.1L219.3,108.8 M219.6,107.8l-5.8,11.2h5.8V107.8L219.6,107.8z"/>
		</g>
	</g>
	<g>
		<g>
			<path d="M250.2,48l-16.3,31.5V52.7c0-2.6,2.1-4.8,4.8-4.8h11.5 M250.6,47.7h-12c-2.8,0-5,2.2-5,5v27.8L250.6,47.7L250.6,47.7z"/>
		</g>
	</g>
	<g>
		<rect x="210.6" y="93.8" transform="matrix(0.4604 -0.8877 0.8877 0.4604 38.8522 251.9902)" width="32.2" height="0.5"/>
	</g>
	<g>
		<rect x="237.6" y="26.7" transform="matrix(0.4612 -0.8873 0.8873 0.4612 116.9151 246.4138)" width="47.5" height="0.5"/>
	</g>
	<g>
		<polygon points="191.9,161.9 191.5,161.7 213.9,118.3 214.3,118.5 		"/>
	</g>
</g>
</svg>
