<?xml version="1.0" encoding="utf-8"?>
<!-- Generator: Adobe Illustrator 27.0.0, SVG Export Plug-In . SVG Version: 6.00 Build 0)  -->
<svg version="1.1" id="Layer_1" xmlns="http://www.w3.org/2000/svg" xmlns:xlink="http://www.w3.org/1999/xlink" x="0px" y="0px"
	 viewBox="0 0 377.2 212" xml:space="preserve" fill="#1E1E1E">
<g>
	<path d="M30.3,58.1c-3.4-4.1-8.8-6.7-16.2-7.8v-0.3c6.7-1.2,11.5-3.8,14.4-7.5c2.9-3.8,4.3-9,4.3-15.6v-0.7c0-8-2.1-14.2-6.3-18.4
		C22.5,3.5,16.4,1.4,8.4,1.4H0v0.8h8.4c5.4,0,9.4,1.7,12,5c2.6,3.3,3.9,7.9,3.9,13.6V32c0,5.8-1.3,10.2-3.9,13.3
		c-2.6,3.1-6.6,4.6-12,4.6H0v0.9h9c5.8,0,10.1,1.6,13.1,4.8s4.4,7.8,4.4,13.7v11.8c0,6-1.4,10.6-4.3,14c-2.8,3.4-7.1,5-12.8,5H0v0.9
		h9.6c8.4,0,14.8-2.2,19.2-6.5c4.5-4.3,6.7-10.6,6.7-18.7v-1C35.5,67.8,33.7,62.2,30.3,58.1z"/>
	<path d="M90.3,13.6C89,10.4,87.2,7.8,85,5.8c-2.2-2-4.8-3.5-7.8-4.4c-2.9-1-6.1-1.4-9.4-1.4c-3.2,0-6.3,0.5-9.2,1.4
		c-2.9,1-5.5,2.4-7.8,4.4c-2.2,2-4,4.6-5.3,7.8c-1.3,3.2-1.9,7-1.9,11.6v52c0,4.5,0.6,8.4,1.9,11.6c1.3,3.2,3,5.8,5.3,7.8
		c2.2,2,4.8,3.5,7.8,4.4c2.9,0.9,6,1.4,9.2,1.4c3.3,0,6.5-0.5,9.4-1.4c2.9-1,5.5-2.4,7.8-4.4c2.2-2,4-4.6,5.3-7.8
		c1.3-3.2,2-7,2-11.6v-52C92.3,20.6,91.7,16.8,90.3,13.6z M83.8,84.3c0,3.2-0.4,5.9-1.3,8.1c-0.9,2.2-2.1,4-3.6,5.3
		c-1.5,1.4-3.2,2.3-5,2.9c-1.9,0.6-3.8,0.8-5.8,0.8s-3.9-0.3-5.8-0.8c-1.9-0.6-3.6-1.5-5-2.9c-1.5-1.4-2.7-3.1-3.5-5.3
		c-0.9-2.2-1.4-4.9-1.4-8.1V18.2c0-3.3,0.5-6.1,1.4-8.2c0.9-2.2,2.1-4,3.5-5.3c1.5-1.4,3.2-2.4,5-2.9C64.1,1.1,66,0.8,68,0.8
		s3.9,0.3,5.8,0.8c1.9,0.6,3.6,1.6,5,2.9c1.5,1.4,2.6,3.1,3.6,5.3c0.9,2.2,1.3,4.9,1.3,8.2V84.3z"/>
	<path d="M120.8,48.9l24.6-47.6H138l-24.2,48.4h-2.3V1.3H103v99.5h8.5V50.5h2.3l28,50.3h9L120.8,48.9z"/>
	<path d="M199.9,58c-2.8-3.8-7.3-6.7-13.6-8.8l-6.5-2c-5.8-1.9-9.8-4.2-12-7c-2.2-2.8-3.3-6.5-3.3-11.2V18.2c0-5.5,1.3-9.8,4-12.8
		c2.7-3,6.4-4.5,11.2-4.5c4.8,0,8.6,1.5,11.3,4.5c2.7,3,4,7.3,4,12.8v20.6h8.5V25.3c0-8.1-2.1-14.3-6.3-18.7
		C193,2.2,187.1,0,179.5,0c-7.4,0-13.2,2.2-17.3,6.6c-4.2,4.4-6.3,10.6-6.3,18.7v2.4c0,6.7,1.3,12,4,15.9c2.7,3.9,7,6.8,12.9,8.7
		l7.1,2.3c5.7,1.9,9.7,4.2,12.1,6.9c2.4,2.7,3.5,6.5,3.5,11.3v11.4c0,5.5-1.4,9.8-4.2,12.8c-2.8,3-6.7,4.5-11.7,4.5
		c-5,0-8.9-1.5-11.7-4.5c-2.8-3-4.1-7.3-4.1-12.8V63.6h-8.5v13.5c0,8.1,2.1,14.3,6.3,18.7c4.2,4.4,10.2,6.6,17.8,6.6
		s13.7-2.2,18.1-6.7c4.3-4.4,6.5-10.7,6.5-18.6v-3.1C204.1,67.1,202.7,61.8,199.9,58z"/>
	<path d="M260.7,13.6c-1.3-3.2-3.1-5.8-5.3-7.8c-2.2-2-4.8-3.5-7.8-4.4S241.5,0,238.2,0c-3.2,0-6.3,0.5-9.2,1.4s-5.5,2.4-7.8,4.4
		c-2.2,2-4,4.6-5.3,7.8c-1.3,3.2-1.9,7-1.9,11.6v52c0,4.5,0.6,8.4,1.9,11.6c1.3,3.2,3,5.8,5.3,7.8c2.2,2,4.8,3.5,7.8,4.4
		c2.9,0.9,6,1.4,9.2,1.4c3.3,0,6.4-0.5,9.4-1.4c2.9-1,5.5-2.4,7.8-4.4c2.2-2,4-4.6,5.3-7.8c1.3-3.2,2-7,2-11.6v-52
		C262.7,20.6,262,16.8,260.7,13.6z M254.2,84.3c0,3.2-0.5,5.9-1.4,8.1c-0.9,2.2-2.1,4-3.5,5.3c-1.5,1.4-3.2,2.3-5,2.9
		c-1.9,0.6-3.8,0.8-5.8,0.8s-3.9-0.3-5.8-0.8c-1.9-0.6-3.6-1.5-5-2.9c-1.5-1.4-2.7-3.1-3.6-5.3c-0.9-2.2-1.3-4.9-1.3-8.1V18.2
		c0-3.3,0.4-6.1,1.3-8.2c0.9-2.2,2.1-4,3.6-5.3c1.5-1.4,3.2-2.4,5-2.9c1.9-0.6,3.8-0.8,5.8-0.8s3.9,0.3,5.8,0.8
		c1.9,0.6,3.6,1.6,5,2.9c1.5,1.4,2.7,3.1,3.5,5.3c0.9,2.2,1.4,4.9,1.4,8.2V84.3z"/>
	<path d="M319.4,13.6c-1.3-3.2-3.1-5.8-5.3-7.8c-2.2-2-4.8-3.5-7.8-4.4c-2.9-1-6.1-1.4-9.4-1.4c-3.2,0-6.3,0.5-9.2,1.4
		s-5.5,2.4-7.8,4.4c-2.2,2-4,4.6-5.3,7.8c-1.3,3.2-1.9,7-1.9,11.6v52c0,4.5,0.6,8.4,1.9,11.6c1.3,3.2,3,5.8,5.3,7.8
		c2.2,2,4.8,3.5,7.8,4.4c2.9,0.9,6,1.4,9.2,1.4c3.3,0,6.4-0.5,9.4-1.4c2.9-1,5.5-2.4,7.8-4.4c2.2-2,4-4.6,5.3-7.8
		c1.3-3.2,2-7,2-11.6v-52C321.4,20.6,320.8,16.8,319.4,13.6z M312.9,84.3c0,3.2-0.5,5.9-1.4,8.1c-0.9,2.2-2.1,4-3.5,5.3
		c-1.5,1.4-3.1,2.3-5,2.9s-3.8,0.8-5.8,0.8c-2,0-3.9-0.3-5.8-0.8c-1.9-0.6-3.6-1.5-5.1-2.9c-1.5-1.4-2.6-3.1-3.5-5.3
		c-0.9-2.2-1.4-4.9-1.4-8.1V18.2c0-3.3,0.5-6.1,1.4-8.2c0.9-2.2,2.1-4,3.5-5.3c1.5-1.4,3.2-2.4,5.1-2.9c1.9-0.6,3.8-0.8,5.8-0.8
		c2,0,3.9,0.3,5.8,0.8c1.9,0.6,3.6,1.6,5,2.9c1.5,1.4,2.7,3.1,3.5,5.3c0.9,2.2,1.4,4.9,1.4,8.2V84.3z"/>
	<path d="M376.3,1.4v96.4H376L341.2,1.4h-9.1V101h0.9V3.7h0.3l34.8,97.3h9.1V1.4H376.3z"/>
</g>
<g>
	<path d="M33,124.3c-1.3-3.1-3.1-5.7-5.3-7.6c-2.2-1.9-4.7-3.4-7.7-4.3c-2.9-0.9-6.1-1.3-9.4-1.3H0v0.8h10.6c2,0,4,0.3,5.9,0.9
		c1.9,0.6,3.6,1.5,5.1,2.8c1.5,1.3,2.6,3,3.6,5.2c0.9,2.1,1.3,4.8,1.3,8v64c0,3.2-0.5,5.9-1.3,8c-0.9,2.1-2.1,3.9-3.6,5.2
		c-1.5,1.3-3.2,2.3-5.1,2.8c-1.9,0.6-3.9,0.9-5.9,0.9H0v0.8h10.7c3.3,0,6.5-0.5,9.4-1.3c2.9-0.9,5.5-2.3,7.7-4.3
		c2.2-2,3.9-4.5,5.3-7.5c1.3-3.1,2-6.8,2-11.3v-50.5C35,131.2,34.4,127.4,33,124.3z"/>
	<path d="M91.6,123.2c-1.3-3.2-3.1-5.8-5.3-7.8c-2.2-2-4.8-3.5-7.8-4.4c-2.9-1-6.1-1.4-9.4-1.4c-3.2,0-6.3,0.5-9.2,1.4
		c-2.9,0.9-5.5,2.4-7.8,4.4c-2.2,2-4,4.6-5.3,7.8c-1.3,3.2-1.9,7-1.9,11.6v52c0,4.5,0.6,8.4,1.9,11.6c1.3,3.2,3,5.8,5.3,7.8
		c2.2,2,4.8,3.5,7.8,4.4c2.9,1,6,1.4,9.2,1.4c3.3,0,6.5-0.5,9.4-1.4c2.9-0.9,5.5-2.4,7.8-4.4c2.2-2,4-4.6,5.3-7.8
		c1.3-3.2,2-7,2-11.6v-52C93.6,130.2,93,126.4,91.6,123.2z M85.1,194c0,3.2-0.5,5.9-1.4,8.1c-0.9,2.2-2.1,4-3.6,5.3
		c-1.5,1.4-3.1,2.4-5,2.9c-1.9,0.6-3.8,0.8-5.8,0.8c-2,0-3.9-0.3-5.8-0.8c-1.9-0.6-3.6-1.5-5-2.9c-1.5-1.4-2.7-3.1-3.6-5.3
		c-0.9-2.2-1.3-4.9-1.3-8.1v-66.1c0-3.3,0.5-6.1,1.3-8.2c0.9-2.2,2.1-4,3.6-5.3c1.5-1.4,3.1-2.3,5-2.9c1.9-0.6,3.8-0.8,5.8-0.8
		c2,0,3.9,0.3,5.8,0.8c1.9,0.6,3.6,1.5,5,2.9c1.5,1.4,2.7,3.2,3.6,5.3c0.9,2.2,1.4,4.9,1.4,8.2V194z"/>
	<path d="M152.5,151v-16.2c0-4.5-0.7-8.4-2-11.6c-1.3-3.2-3.1-5.8-5.3-7.8c-2.2-2-4.8-3.5-7.8-4.4c-3-1-6.1-1.4-9.5-1.4
		c-3.2,0-6.3,0.4-9.2,1.3c-2.9,0.9-5.5,2.4-7.7,4.4c-2.2,2-3.9,4.7-5.3,7.8c-1.3,3.2-2,7-2,11.6v52c0,4.3,0.6,8,1.8,11.2
		c1.2,3.2,2.8,5.8,4.8,7.9c2,2.1,4.2,3.6,6.8,4.6c2.5,1,5.1,1.5,7.8,1.5c4.3,0,8.3-1.2,12.2-3.7c3.8-2.5,6.8-6.2,8.8-11.1h0.3v13.4
		h6.5v-50.2h-24.6v0.9h15.9v25.9c0,4-0.5,7.4-1.6,10.4c-1,2.9-2.4,5.4-4,7.4c-1.6,2-3.5,3.5-5.5,4.4c-2.1,0.9-4.2,1.4-6.3,1.4
		c-3.7,0-7-1.4-9.9-4.3c-2.9-2.9-4.3-7.2-4.3-12.9v-65.8c0-3.2,0.5-5.9,1.4-8.1c0.9-2.2,2.1-4,3.5-5.3c1.5-1.4,3.2-2.3,5-2.9
		c1.9-0.6,3.8-0.8,5.8-0.8s3.9,0.3,5.8,0.8c1.9,0.6,3.6,1.5,5,2.9c1.5,1.4,2.7,3.2,3.6,5.3c0.9,2.2,1.3,4.9,1.3,8.1V151H152.5z"/>
	<path d="M187,111.1h-7.5l-22,99.5h1l8.4-36h24.9l7.8,36h8.5L187,111.1z M167,173.8l12.5-54.3h0.3l11.8,54.3H167z"/>
</g>
</svg>
