<?xml version="1.0" encoding="utf-8"?>
<!-- Generator: Adobe Illustrator 27.0.0, SVG Export Plug-In . SVG Version: 6.00 Build 0)  -->
<svg version="1.1" id="Layer_1" xmlns="http://www.w3.org/2000/svg" xmlns:xlink="http://www.w3.org/1999/xlink" x="0px" y="0px"
	 viewBox="0 0 1443.2 8192" style="enable-background:new 0 0 1443.2 8192;" xml:space="preserve">
<style type="text/css">
	.st0{opacity:0.3;fill:none;stroke:#FFFFFF;stroke-width:1.4433;stroke-miterlimit:2.8865;enable-background:new    ;}
	.st1{fill:none;stroke:#F75C03;stroke-width:1.4433;stroke-miterlimit:2.8865;}
	.st2{fill:none;stroke:#FFFFFF;stroke-width:1.4433;stroke-miterlimit:2.8865;stroke-opacity:0.3;}
	.st3{fill:none;stroke:#4BC6B9;stroke-width:1.4433;stroke-miterlimit:2.8865;}
	.st4{fill:#FFFFFF;}
	.st5{fill:#CB769E;}
	.st6{fill:none;stroke:#4BC6B9;stroke-width:0.7216;stroke-miterlimit:2.8865;}
	.st7{fill:#B0DB43;}
	.st8{fill:#F75C03;}
	.st9{fill:#4BC6B9;}
</style>
<circle class="st0" cx="1231.1" cy="147.2" r="125.6"/>
<circle class="st0" cx="1241.9" cy="136.4" r="125.6"/>
<circle class="st0" cx="1252.7" cy="125.6" r="125.6"/>
<circle class="st0" cx="1263.5" cy="114.7" r="125.6"/>
<circle class="st0" cx="1274.4" cy="103.9" r="125.6"/>
<circle class="st0" cx="1285.2" cy="93.1" r="125.6"/>
<circle class="st0" cx="1296" cy="82.3" r="125.6"/>
<circle class="st0" cx="1306.8" cy="71.4" r="125.6"/>
<circle class="st0" cx="1317.7" cy="60.6" r="125.6"/>
<circle class="st1" cx="1267.2" cy="3663.7" r="125.6"/>
<circle class="st1" cx="1278" cy="3652.9" r="125.6"/>
<circle class="st1" cx="1288.8" cy="3642.1" r="125.6"/>
<circle class="st1" cx="1299.6" cy="3631.3" r="125.6"/>
<circle class="st1" cx="1310.5" cy="3620.4" r="125.6"/>
<circle class="st1" cx="1321.3" cy="3609.6" r="125.6"/>
<circle class="st1" cx="1332.1" cy="3598.8" r="125.6"/>
<circle class="st1" cx="1342.9" cy="3588" r="125.6"/>
<circle class="st1" cx="1353.8" cy="3577.1" r="125.6"/>
<circle class="st2" cx="1301.1" cy="7506.4" r="97.4"/>
<circle class="st2" cx="1309.4" cy="7498.1" r="97.4"/>
<circle class="st2" cx="1317.9" cy="7489.6" r="97.4"/>
<circle class="st2" cx="1326.3" cy="7481.3" r="97.4"/>
<circle class="st2" cx="1334.6" cy="7472.9" r="97.4"/>
<circle class="st2" cx="1343" cy="7464.5" r="97.4"/>
<circle class="st2" cx="1351.4" cy="7456.1" r="97.4"/>
<circle class="st2" cx="1359.8" cy="7447.7" r="97.4"/>
<circle class="st2" cx="1368.2" cy="7439.3" r="97.4"/>
<circle class="st3" cx="262.6" cy="838.5" r="125.6"/>
<circle class="st3" cx="273.5" cy="827.7" r="125.6"/>
<circle class="st3" cx="284.3" cy="816.9" r="125.6"/>
<circle class="st3" cx="295.1" cy="806.1" r="125.6"/>
<circle class="st3" cx="305.9" cy="795.2" r="125.6"/>
<circle class="st3" cx="316.8" cy="784.4" r="125.6"/>
<circle class="st3" cx="327.6" cy="773.6" r="125.6"/>
<circle class="st3" cx="338.4" cy="762.8" r="125.6"/>
<circle class="st3" cx="349.2" cy="751.9" r="125.6"/>
<path class="st4" d="M253.1-10.1L310.4,89H195.8L253.1-10.1z"/>
<path class="st4" d="M138.8-10.1L196.1,89H81.5L138.8-10.1z"/>
<path class="st4" d="M24.9-10.1L82.2,89H-32.3L24.9-10.1z"/>
<path class="st4" d="M367.4-10.1L424.7,89H310.1L367.4-10.1z"/>
<path class="st4" d="M310.3,89.2l57.2,99.2H253L310.3,89.2z"/>
<path class="st4" d="M196,89.2l57.2,99.2H138.7L196,89.2z"/>
<path class="st4" d="M82.1,89.2l57.3,99.2H24.9L82.1,89.2z"/>
<path class="st4" d="M424.6,89.2l57.2,99.2H367.3L424.6,89.2z"/>
<path class="st5" d="M292.8,3178.1l71.9,124.5H220.9L292.8,3178.1z"/>
<path class="st5" d="M149.3,3178.1l71.9,124.5H77.5L149.3,3178.1z"/>
<path class="st5" d="M6.5,3178.1l71.9,124.5H-65.4L6.5,3178.1z"/>
<path class="st5" d="M436.3,3178.1l71.9,124.5H364.4L436.3,3178.1z"/>
<path class="st5" d="M364.5,3302.7l71.9,124.5H292.7L364.5,3302.7z"/>
<path class="st5" d="M221.1,3302.7l71.9,124.5H149.2L221.1,3302.7z"/>
<path class="st5" d="M78.2,3302.7l71.9,124.5H6.3L78.2,3302.7z"/>
<path class="st5" d="M508,3302.7l71.9,124.5H436.1L508,3302.7z"/>
<path class="st6" d="M930.9,7777.1l71.2-123.4l71.2,123.4H930.9z"/>
<path class="st6" d="M787.5,7777.1l71.2-123.4l71.2,123.4H787.5z"/>
<path class="st6" d="M644.6,7777.1l71.2-123.4l71.2,123.4H644.6z"/>
<path class="st6" d="M1074.4,7777.1l71.2-123.4l71.2,123.4H1074.4z"/>
<path class="st6" d="M1002.7,7901.7l71.2-123.4l71.2,123.4H1002.7z"/>
<path class="st6" d="M859.2,7901.7l71.2-123.4l71.2,123.4H859.2z"/>
<path class="st6" d="M716.3,7901.7l71.2-123.4l71.2,123.4H716.3z"/>
<path class="st6" d="M1146.1,7901.7l71.2-123.4l71.2,123.4H1146.1z"/>
<path class="st7" d="M1335.7,876.8c0,91.3-74,165.3-165.3,165.3c91.3,0,165.3,74,165.3,165.3c0-91.3,74-165.3,165.3-165.3
	C1409.6,1042,1335.7,968.1,1335.7,876.8z"/>
<path class="st8" d="M118.3,1493.1c0,34.7-28.1,62.8-62.8,62.8c34.6,0,62.8,28.1,62.8,62.8c0-34.7,28.1-62.8,62.8-62.8
	C146.5,1555.8,118.3,1527.8,118.3,1493.1z"/>
<path class="st7" d="M116.5,3841.3c0,27.7-22.4,50.2-50.2,50.2c27.7,0,50.2,22.4,50.2,50.2c0-27.7,22.4-50.2,50.2-50.2
	C139,3891.4,116.5,3869,116.5,3841.3z"/>
<path class="st8" d="M78.3,4627.8c0,67.5-54.8,122.3-122.3,122.3c67.5,0,122.3,54.8,122.3,122.3c0-67.5,54.8-122.3,122.3-122.3
	C133,4750.2,78.3,4695.4,78.3,4627.8z"/>
<path class="st9" d="M1348,4854.4c0,108-87.5,195.6-195.6,195.6c108,0,195.6,87.5,195.6,195.6c0-108,87.5-195.6,195.6-195.6
	C1435.5,5050,1348,4962.5,1348,4854.4z"/>
<path class="st8" d="M144.3,7367.2c0,86.5-70.1,156.6-156.6,156.6c86.5,0,156.6,70.1,156.6,156.6c0-86.5,70.1-156.6,156.6-156.6
	C214.4,7523.8,144.3,7453.6,144.3,7367.2z"/>
<path class="st5" d="M1314.1,1875.5c0,51.8-42,93.8-93.8,93.8c51.8,0,93.8,42,93.8,93.8c0-51.8,42-93.8,93.8-93.8
	C1356.1,1969.3,1314.1,1927.3,1314.1,1875.5z"/>
<path class="st5" d="M1008.2,727.6c-37.3,37.3-97.8,37.3-135.1,0l8.4-8.4c32.6,32.6,85.6,32.6,118.2,0s32.6-85.5,0-118.2l8.4-8.4
	C1045.5,629.8,1045.5,690.2,1008.2,727.6z"/>
<path class="st9" d="M91,2364.7c-26.3-45.7-10.8-104.1,34.9-130.5l6,10.3c-40,23.1-53.7,74.2-30.6,114.2s74.2,53.7,114.2,30.6
	l6,10.3C175.8,2426,117.4,2410.3,91,2364.7z"/>
<path class="st5" d="M79.2,6247h-0.7v0.7h0.7V6247z M79.2,6236.4l-0.3-0.6l-0.4,0.1v0.5H79.2z M98.2,6228.6l0.3,0.6l0.4-0.1v-0.5
	H98.2z M98.2,6228.2h0.7v-0.5l-0.4-0.1L98.2,6228.2z M79.2,6220.4h-0.7v0.5l0.4,0.2L79.2,6220.4z M79.2,6209.7v-0.7h-0.7v0.7H79.2z
	 M111.8,6209.7h0.7v-0.7h-0.7V6209.7z M111.8,6218.1v0.7h0.7v-0.7H111.8z M92.6,6218.1v-0.7h-0.7v0.7H92.6z M92.6,6218.4h-0.7v0.5
	l0.4,0.1L92.6,6218.4z M111.6,6225.8h0.7v-0.5l-0.4-0.1L111.6,6225.8z M111.6,6231l0.3,0.6l0.4-0.1v-0.5H111.6z M92.5,6238.4
	l-0.3-0.6l-0.4,0.1v0.5H92.5z M92.5,6238.7h-0.7v0.7h0.7V6238.7z M111.8,6238.7h0.7v-0.7h-0.7V6238.7z M111.8,6247v0.7h0.7v-0.7
	H111.8z M79.9,6247v-10.7h-1.4v10.7H79.9z M79.4,6237l19-7.8l-0.6-1.4l-18.9,7.8L79.4,6237z M98.9,6228.6v-0.4h-1.4v0.4H98.9z
	 M98.4,6227.5l-19-7.7l-0.6,1.3l19,7.8L98.4,6227.5z M79.9,6220.4v-10.7h-1.4v10.7H79.9z M79.2,6210.5h32.6v-1.4H79.2V6210.5z
	 M111.1,6209.7v8.4h1.4v-8.4H111.1z M111.8,6217.4H92.6v1.4h19.2V6217.4z M91.9,6218.1v0.3h1.4v-0.3H91.9z M92.3,6219l19,7.4
	l0.5-1.4l-19-7.4L92.3,6219z M110.9,6225.8v5.1h1.4v-5.1H110.9z M111.3,6230.3l-19.1,7.4l0.5,1.4l19.1-7.4L111.3,6230.3z
	 M91.8,6238.4v0.3h1.4v-0.3H91.8z M92.5,6239.4h19.3v-1.4H92.5V6239.4z M111.1,6238.7v8.4h1.4v-8.4H111.1z M111.8,6246.3H79.2v1.4
	h32.6C111.8,6247.7,111.8,6246.3,111.8,6246.3z M79.2,6209.1h-0.7v1.2l1.1-0.6L79.2,6209.1z M79.2,6199.5l-0.3-0.6l-0.4,0.2v0.4
	H79.2L79.2,6199.5z M92.6,6193l0.3,0.6l0.4-0.2v-0.4H92.6L92.6,6193z M92.6,6192.7h0.7v-0.4l-0.4-0.2L92.6,6192.7z M79.2,6186.1
	h-0.7v0.4l0.4,0.2L79.2,6186.1z M79.2,6176.5l0.4-0.6l-1.1-0.6v1.2H79.2z M101.4,6188.5l-0.4,0.6l0.1,0.1h0.2v-0.7H101.4z
	 M111.8,6188.5h0.7v-0.7h-0.7V6188.5z M111.8,6197v0.7h0.7v-0.7H111.8z M101.4,6197v-0.7h-0.2l-0.1,0.1L101.4,6197z M79.9,6209.1
	v-9.6h-1.4v9.6H79.9z M79.5,6200.1l13.4-6.5l-0.6-1.3l-13.4,6.5L79.5,6200.1z M93.3,6193v-0.3h-1.4v0.3H93.3z M92.8,6192.1
	l-13.4-6.6l-0.6,1.3l13.4,6.6L92.8,6192.1z M79.9,6186.1v-9.6h-1.4v9.6H79.9z M78.8,6177.2l22.2,12l0.7-1.3l-22.2-12L78.8,6177.2z
	 M101.4,6189.2h10.5v-1.4h-10.5V6189.2z M111.1,6188.5v8.5h1.4v-8.5H111.1z M111.8,6196.3h-10.5v1.4h10.5V6196.3z M101,6196.5
	l-22.2,12l0.7,1.3l22.2-12L101,6196.5z M79.2,6140v-0.7h-0.7v0.7H79.2z M111.8,6140h0.7v-0.7h-0.7V6140z M111.8,6147.2l0.4,0.6
	l0.3-0.2v-0.4H111.8z M94.2,6159.4l-0.4-0.6l-0.3,0.2v0.4H94.2z M94.2,6159.6h-0.7v0.7h0.7V6159.6z M111.8,6159.6h0.7v-0.7h-0.7
	V6159.6z M111.8,6168.2v0.7h0.7v-0.7H111.8z M79.2,6168.2h-0.7v0.7h0.7V6168.2z M79.2,6160.8l-0.4-0.6l-0.3,0.2v0.4H79.2z
	 M96.7,6148.9l0.4,0.6l0.3-0.2v-0.4H96.7z M96.7,6148.6h0.7v-0.7h-0.7V6148.6z M79.2,6148.6h-0.7v0.7h0.7V6148.6z M79.2,6140.8h32.6
	v-1.4H79.2V6140.8z M111.1,6140v7.1h1.4v-7.1H111.1z M111.4,6146.6l-17.6,12.1l0.8,1.2l17.6-12.1L111.4,6146.6z M93.5,6159.4v0.2
	h1.4v-0.2H93.5z M94.2,6160.3h17.6v-1.4H94.2V6160.3z M111.1,6159.6v8.6h1.4v-8.6H111.1z M111.8,6167.5H79.2v1.4h32.6
	C111.8,6168.9,111.8,6167.5,111.8,6167.5z M79.9,6168.2v-7.3h-1.4v7.3H79.9z M79.6,6161.5l17.5-12l-0.8-1.2l-17.5,12L79.6,6161.5z
	 M97.5,6148.9v-0.3H96v0.3H97.5z M96.7,6147.9H79.2v1.4h17.5V6147.9z M79.9,6148.6v-8.6h-1.4v8.6H79.9z M111.8,6129.9h0.7v-0.5
	l-0.5-0.1L111.8,6129.9z M111.8,6139.2l-0.2,0.6l0.9,0.3v-1L111.8,6139.2L111.8,6139.2z M79.2,6128.3h-0.7v0.5l0.5,0.1L79.2,6128.3z
	 M79.2,6116.6l-0.2-0.7l-0.5,0.1v0.5L79.2,6116.6L79.2,6116.6z M111.8,6105.8h0.7v-1l-0.9,0.3L111.8,6105.8z M111.8,6115l0.2,0.7
	l0.5-0.1v-0.5L111.8,6115L111.8,6115z M105.4,6117l-0.2-0.7l-0.5,0.1v0.5L105.4,6117L105.4,6117z M105.4,6127.9h-0.7v0.5l0.5,0.1
	L105.4,6127.9z M98.9,6126l-0.2,0.7l0.9,0.3v-0.9L98.9,6126L98.9,6126z M98.9,6119h0.7v-1l-0.9,0.3L98.9,6119z M87.9,6122.4
	l-0.2-0.7l-0.5,0.1v0.5L87.9,6122.4L87.9,6122.4z M87.9,6122.6h-0.7v0.5l0.5,0.1L87.9,6122.6z M111.1,6129.9v9.3h1.4v-9.3H111.1z
	 M112,6138.4l-32.7-10.9l-0.4,1.4l32.6,10.9L112,6138.4z M79.9,6128.3v-11.7h-1.4v11.7H79.9z M79.4,6117.3l32.7-10.8l-0.4-1.4
	l-32.6,10.8L79.4,6117.3z M111.1,6105.8v9.2h1.4v-9.2H111.1z M111.6,6114.3l-6.4,1.9l0.4,1.4l6.4-1.9L111.6,6114.3z M104.7,6117v11
	h1.4v-11H104.7z M105.2,6128.6l6.4,1.9l0.4-1.4l-6.4-1.9L105.2,6128.6z M99.6,6126v-7h-1.4v7H99.6z M98.7,6118.2l-11,3.4l0.4,1.4
	l11-3.4L98.7,6118.2z M87.2,6122.4v0.3h1.4v-0.3H87.2z M87.7,6123.3l11,3.3l0.4-1.4l-11-3.3L87.7,6123.3z M79.2,6104.8h-0.7v0.7h0.7
	V6104.8z M79.2,6094.1l-0.3-0.6l-0.4,0.1v0.5H79.2z M98.2,6086.4l0.3,0.6l0.4-0.2v-0.5L98.2,6086.4L98.2,6086.4z M98.2,6086h0.7
	v-0.5l-0.4-0.2L98.2,6086z M79.2,6078.2h-0.7v0.5l0.4,0.2L79.2,6078.2z M79.2,6067.5v-0.7h-0.7v0.7H79.2z M111.8,6067.5h0.7v-0.7
	h-0.7V6067.5z M111.8,6076v0.7h0.7v-0.7H111.8z M92.6,6076v-0.7h-0.7v0.7H92.6z M92.6,6076.2h-0.7v0.5l0.4,0.1L92.6,6076.2z
	 M111.6,6083.6h0.7v-0.5l-0.4-0.1L111.6,6083.6z M111.6,6088.8l0.3,0.6l0.4-0.1v-0.5H111.6z M92.5,6096.2l-0.3-0.6l-0.4,0.1v0.5
	H92.5z M92.5,6096.4h-0.7v0.7h0.7V6096.4z M111.8,6096.4h0.7v-0.7h-0.7V6096.4z M111.8,6104.8v0.7h0.7v-0.7H111.8z M79.9,6104.8
	v-10.7h-1.4v10.7H79.9z M79.4,6094.8l19-7.8l-0.6-1.3l-18.9,7.8L79.4,6094.8z M98.9,6086.4v-0.4h-1.4v0.4H98.9z M98.4,6085.3
	l-19-7.8l-0.6,1.4l19,7.8L98.4,6085.3z M79.9,6078.2v-10.7h-1.4v10.7H79.9z M79.2,6068.2h32.6v-1.4H79.2V6068.2z M111.1,6067.5v8.4
	h1.4v-8.4H111.1z M111.8,6075.2H92.6v1.4h19.2V6075.2z M91.9,6076v0.3h1.4v-0.3H91.9z M92.3,6076.9l19,7.4l0.5-1.4l-19-7.4
	L92.3,6076.9z M110.9,6083.6v5.1h1.4v-5.1H110.9z M111.3,6088.1l-19.1,7.4l0.5,1.4l19.1-7.4L111.3,6088.1z M91.8,6096.2v0.3h1.4
	v-0.3H91.8z M92.5,6097.2h19.3v-1.4H92.5V6097.2z M111.1,6096.4v8.4h1.4v-8.4H111.1z M111.8,6104.1H79.2v1.4h32.6
	C111.8,6105.5,111.8,6104.1,111.8,6104.1z M111.8,6065.4v0.7h0.7v-0.7H111.8z M79.2,6065.4h-0.7v0.7h0.7V6065.4z M79.2,6042.1v-0.7
	h-0.7v0.7H79.2z M86.1,6042.1h0.7v-0.7h-0.7V6042.1z M86.1,6056.8h-0.7v0.7h0.7V6056.8z M92,6056.8v0.7h0.7v-0.7H92z M92,6043.3
	v-0.7h-0.7v0.7H92z M99,6043.3h0.7v-0.7H99V6043.3z M99,6056.8h-0.7v0.7H99V6056.8z M104.9,6056.8v0.7h0.7v-0.7H104.9z
	 M104.9,6042.2v-0.7h-0.7v0.7H104.9z M111.8,6042.2h0.7v-0.7h-0.7V6042.2z M111.8,6064.7H79.2v1.4h32.6
	C111.8,6066.1,111.8,6064.7,111.8,6064.7z M79.9,6065.4v-23.3h-1.4v23.3H79.9z M79.2,6042.8h6.9v-1.4h-6.9V6042.8z M85.4,6042.1
	v14.7h1.4v-14.7H85.4z M86.1,6057.5H92v-1.4h-5.9V6057.5z M92.8,6056.8v-13.6h-1.4v13.6H92.8z M92,6044.1h7v-1.4h-7V6044.1z
	 M98.3,6043.3v13.6h1.4v-13.6H98.3z M99,6057.5h5.9v-1.4H99V6057.5z M105.6,6056.8v-14.7h-1.4v14.7H105.6z M104.9,6042.9h6.9v-1.4
	h-6.9V6042.9z M111.1,6042.2v23.2h1.4v-23.2H111.1z M79.2,6023.6v-0.7h-0.7v0.7H79.2z M111.8,6023.6h0.7v-0.7h-0.7V6023.6z
	 M111.8,6032.1v0.7h0.7v-0.7H111.8z M79.2,6032.1h-0.7v0.7h0.7V6032.1z M79.2,6024.3h32.6v-1.4H79.2V6024.3z M111.1,6023.6v8.6h1.4
	v-8.6H111.1z M111.8,6031.4H79.2v1.4h32.6C111.8,6032.8,111.8,6031.4,111.8,6031.4z M79.9,6032.1v-8.6h-1.4v8.6H79.9z M89.3,6003.9
	l0.1,0.7l0.6-0.1v-0.6H89.3z M85.8,6008.5h0.7l0,0l0,0H85.8z M88.4,6012.6v-0.7l0,0l0,0V6012.6z M91.7,6008.1L91,6008l0,0l0,0
	L91.7,6008.1z M92.3,6005.4l0.7,0.1l0,0l0,0L92.3,6005.4z M102.2,5995.2v-0.7l0,0l0,0V5995.2z M112.3,6008.4h0.7l0,0H112.3z
	 M100.5,6022.4h-0.7v0.7h0.7V6022.4z M100.5,6014.2v-0.7h-0.7v0.7H100.5z M102.2,6004v-0.7l0,0l0,0V6004z M98.9,6009l0.7,0.1l0,0
	L98.9,6009z M98.2,6012.3l0.7,0.1l0,0L98.2,6012.3z M89,6021.5v-0.7l0,0V6021.5z M89.3,5995.6H90v-0.7h-0.7V5995.6z M89.2,6003.1
	c-1.2,0.1-2.3,0.6-3.1,1.5c-0.7,0.9-1.1,2.2-1.1,3.8h1.4c0-1.4,0.3-2.2,0.7-2.8c0.4-0.6,1.1-0.9,2.1-1V6003.1z M85,6008.4
	c0,1.5,0.3,2.7,0.9,3.5s1.5,1.3,2.5,1.4v-1.4c-0.5,0-0.9-0.2-1.3-0.7s-0.6-1.4-0.6-2.7L85,6008.4z M88.4,6013.3
	c1.2,0.1,2-0.5,2.7-1.4c0.6-0.9,1-2.2,1.4-3.7L91,6008c-0.3,1.5-0.6,2.5-1.1,3.2c-0.4,0.6-0.9,0.8-1.4,0.8L88.4,6013.3z
	 M92.3,6008.3l0.6-2.7l-1.4-0.4l-0.6,2.7L92.3,6008.3z M93,6005.5c0.7-3.5,1.9-5.8,3.5-7.4c1.5-1.5,3.5-2.2,5.8-2.3v-1.4
	c-2.7,0-5,0.9-6.8,2.7s-3.1,4.5-3.8,8.1L93,6005.5z M102.2,5995.9c3,0,5.3,1.2,6.9,3.2c1.6,2.1,2.5,5.2,2.5,9.2h1.4
	c0-4.2-0.9-7.6-2.7-10.1c-1.9-2.5-4.5-3.8-7.9-3.8L102.2,5995.9z M111.5,6008.4c0,4.1-0.9,7.4-2.7,9.7c-1.7,2.2-4.5,3.5-8.3,3.6v1.4
	c4.2,0,7.4-1.5,9.5-4.1s3-6.3,3-10.6H111.5z M101.2,6022.4v-8.2h-1.4v8.2H101.2z M100.6,6014.9c1.7-0.1,3-0.7,4-1.9
	c0.9-1.2,1.4-2.7,1.4-4.5h-1.4c0,1.6-0.4,2.8-1,3.6s-1.6,1.3-3,1.3V6014.9z M105.9,6008.5c0-1.6-0.3-2.8-0.9-3.8
	c-0.6-0.9-1.6-1.5-2.7-1.5v1.4c0.6,0,1.2,0.3,1.5,0.9c0.4,0.6,0.7,1.6,0.7,3H105.9z M102.2,6003.3c-0.5,0-1,0.1-1.4,0.4
	c-0.4,0.2-0.8,0.6-1.1,1.1c-0.6,0.9-1.1,2.3-1.4,4.1l1.4,0.3c0.4-1.8,0.8-3,1.2-3.6c0.2-0.4,0.4-0.5,0.6-0.6s0.4-0.1,0.7-0.2
	L102.2,6003.3z M98.2,6008.8l-0.7,3.3l1.4,0.3l0.7-3.3L98.2,6008.8z M97.5,6012.1c-0.6,2.8-1.6,5-3,6.4s-3.1,2.2-5.5,2.2v1.4
	c2.7,0,4.9-0.9,6.5-2.7c1.6-1.7,2.7-4.2,3.3-7.1L97.5,6012.1z M89,6020.8c-2.9,0-5.2-1.2-6.9-3.4c-1.7-2.2-2.7-5.3-2.7-8.9H78
	c0,4,1.1,7.4,3,9.9s4.8,4,8.1,3.9L89,6020.8z M79.4,6008.5c0-3.8,1-6.8,2.7-8.9c1.7-2,4.1-3.2,7.1-3.2v-1.4c-3.4,0-6.2,1.4-8.2,3.8
	c-1.9,2.4-3.1,5.8-3.1,9.8L79.4,6008.5L79.4,6008.5z M88.6,5995.6v8.2H90v-8.2H88.6z M89.3,5968.6l0.1,0.7l0.6-0.1v-0.6H89.3z
	 M85.8,5973.2h0.7l0,0l0,0H85.8z M88.4,5977.3v-0.7l0,0l0,0V5977.3z M91.7,5972.8l-0.7-0.1l0,0l0,0L91.7,5972.8z M92.3,5970.1
	l0.7,0.1l0,0l0,0L92.3,5970.1z M102.2,5959.9v-0.7l0,0l0,0V5959.9z M112.3,5973.1h0.7l0,0H112.3z M100.5,5987.1h-0.7v0.7h0.7V5987.1
	z M100.5,5978.9v-0.7h-0.7v0.7H100.5z M102.2,5968.7v-0.7l0,0l0,0V5968.7z M98.9,5973.7l0.7,0.1l0,0L98.9,5973.7z M98.2,5977
	l0.7,0.1l0,0L98.2,5977z M89,5986.3v-0.7l0,0V5986.3z M89.3,5960.3H90v-0.7h-0.7V5960.3z M89.2,5967.9c-1.2,0.1-2.3,0.6-3.1,1.5
	c-0.7,0.9-1.1,2.2-1.1,3.8h1.4c0-1.4,0.3-2.3,0.7-2.9c0.4-0.6,1.1-0.9,2.1-1V5967.9z M85,5973.2c0,1.5,0.3,2.7,0.9,3.5
	s1.5,1.3,2.5,1.4v-1.4c-0.5,0-0.9-0.2-1.3-0.7s-0.6-1.4-0.6-2.7L85,5973.2z M88.4,5978c1.2,0.1,2-0.5,2.7-1.4c0.6-0.9,1-2.2,1.4-3.7
	l-1.4-0.3c-0.3,1.5-0.6,2.5-1.1,3.2c-0.4,0.6-0.9,0.8-1.4,0.8L88.4,5978z M92.3,5973l0.6-2.7l-1.4-0.4l-0.6,2.7L92.3,5973z
	 M93,5970.3c0.7-3.5,1.9-5.8,3.5-7.4c1.5-1.5,3.5-2.2,5.8-2.3v-1.4c-2.7,0-5,0.9-6.8,2.7c-1.8,1.8-3.1,4.5-3.8,8.1L93,5970.3z
	 M102.2,5960.6c3,0,5.3,1.2,6.9,3.2c1.6,2.1,2.5,5.2,2.5,9.2h1.4c0-4.2-0.9-7.6-2.7-10.1c-1.9-2.5-4.5-3.8-7.9-3.8L102.2,5960.6z
	 M111.5,5973.1c0,4.1-0.9,7.4-2.7,9.7c-1.7,2.2-4.5,3.5-8.3,3.6v1.4c4.2-0.1,7.4-1.5,9.5-4.1s3-6.3,3-10.5L111.5,5973.1z
	 M101.2,5987.1v-8.2h-1.4v8.2H101.2z M100.6,5979.6c1.7-0.1,3-0.7,4-1.9c0.9-1.2,1.4-2.7,1.4-4.5h-1.4c0,1.6-0.4,2.8-1,3.6
	s-1.6,1.3-3,1.3V5979.6z M105.9,5973.3c0-1.6-0.3-2.9-0.9-3.8s-1.6-1.5-2.7-1.5v1.4c0.6,0,1.2,0.3,1.5,0.9c0.4,0.6,0.7,1.6,0.7,3
	H105.9z M102.2,5968c-0.5,0-1,0.1-1.4,0.4s-0.8,0.6-1.1,1.1c-0.6,0.9-1.1,2.2-1.4,4.1l1.4,0.3c0.4-1.8,0.8-3,1.2-3.6
	c0.2-0.4,0.4-0.5,0.6-0.6s0.4-0.1,0.7-0.2L102.2,5968z M98.2,5973.5l-0.7,3.3l1.4,0.3l0.7-3.3L98.2,5973.5z M97.5,5976.9
	c-0.6,2.8-1.6,5-3,6.4s-3.1,2.2-5.5,2.2v1.4c2.7,0,4.9-0.9,6.5-2.7c1.6-1.7,2.7-4.2,3.3-7.1L97.5,5976.9z M89,5985.5
	c-2.9,0-5.2-1.2-6.9-3.4c-1.7-2.2-2.7-5.3-2.7-9H78c0,4,1.1,7.4,3,9.9s4.8,4,8.1,3.9L89,5985.5z M79.4,5973.2c0-3.8,1-6.8,2.7-8.9
	c1.7-2,4.1-3.2,7.1-3.2v-1.4c-3.4,0-6.2,1.4-8.2,3.8c-1.9,2.4-3.1,5.8-3.1,9.8L79.4,5973.2L79.4,5973.2z M88.6,5960.3v8.2H90v-8.2
	H88.6z M111.8,5951.9h0.7v-0.5l-0.5-0.1L111.8,5951.9z M111.8,5961.1l-0.2,0.7l0.9,0.3v-1H111.8z M79.2,5950.3h-0.7v0.5l0.5,0.1
	L79.2,5950.3z M79.2,5938.6L79,5938l-0.5,0.1v0.5H79.2z M111.8,5927.8h0.7v-1l-0.9,0.3L111.8,5927.8z M111.8,5937l0.2,0.6l0.5-0.1
	v-0.5H111.8z M105.4,5939l-0.2-0.7l-0.5,0.1v0.5L105.4,5939L105.4,5939z M105.4,5950h-0.7v0.5l0.5,0.1L105.4,5950z M98.9,5947.9
	l-0.2,0.7l0.9,0.3v-1H98.9z M98.9,5941h0.7v-1l-0.9,0.3L98.9,5941z M87.9,5944.3l-0.2-0.6l-0.5,0.1v0.5H87.9z M87.9,5944.6h-0.7v0.5
	l0.5,0.1L87.9,5944.6z M111.1,5951.9v9.3h1.4v-9.3H111.1z M112,5960.5l-32.7-10.9l-0.4,1.4l32.6,10.9L112,5960.5z M79.9,5950.3
	v-11.7h-1.4v11.7H79.9z M79.4,5939.3l32.7-10.8l-0.4-1.4l-32.6,10.8L79.4,5939.3z M111.1,5927.8v9.2h1.4v-9.2H111.1z M111.6,5936.3
	l-6.4,1.9l0.4,1.4l6.4-1.9L111.6,5936.3z M104.7,5939v10.9h1.4V5939H104.7z M105.2,5950.6l6.4,1.9l0.4-1.4l-6.4-1.9L105.2,5950.6z
	 M99.6,5947.9v-6.9h-1.4v6.9H99.6z M98.7,5940.3l-11,3.4l0.4,1.4l11-3.4L98.7,5940.3z M87.2,5944.3v0.3h1.4v-0.3H87.2z M87.7,5945.3
	l11,3.3l0.4-1.4l-11-3.3L87.7,5945.3z M79.2,5898.7v-0.7h-0.7v0.7H79.2z M111.8,5898.7h0.7v-0.7h-0.7V5898.7z M111.8,5905.9l0.4,0.6
	l0.3-0.2v-0.4H111.8z M94.2,5918.1l-0.4-0.6l-0.3,0.2v0.4H94.2z M94.2,5918.3h-0.7v0.7h0.7V5918.3z M111.8,5918.3h0.7v-0.7h-0.7
	V5918.3z M111.8,5926.9v0.7h0.7v-0.7H111.8z M79.2,5926.9h-0.7v0.7h0.7V5926.9z M79.2,5919.6l-0.4-0.6l-0.3,0.2v0.4H79.2z
	 M96.7,5907.6l0.4,0.6l0.3-0.2v-0.4H96.7z M96.7,5907.3h0.7v-0.7h-0.7V5907.3z M79.2,5907.3h-0.7v0.7h0.7V5907.3z M79.2,5899.4h32.6
	v-1.4H79.2V5899.4z M111.1,5898.7v7.1h1.4v-7.1H111.1z M111.4,5905.3l-17.6,12.2l0.8,1.2l17.6-12.1L111.4,5905.3z M93.5,5918.1v0.2
	h1.4v-0.2H93.5z M94.2,5919h17.6v-1.4H94.2V5919z M111.1,5918.3v8.6h1.4v-8.6H111.1z M111.8,5926.1H79.2v1.4h32.6
	C111.8,5927.5,111.8,5926.1,111.8,5926.1z M79.9,5926.9v-7.3h-1.4v7.3H79.9z M79.6,5920.1l17.5-12l-0.8-1.2l-17.5,12L79.6,5920.1z
	 M97.5,5907.6v-0.3H96v0.3H97.5z M96.7,5906.6H79.2v1.4h17.5V5906.6z M79.9,5907.3v-8.6h-1.4v8.6H79.9z M89.9,5875.4l0.1,0.7
	l0.6-0.1v-0.6H89.9z M104.7,5880.8h0.7l0,0H104.7z M99.8,5874.6v-0.7h-0.7v0.7H99.8z M99.8,5880.7v0.7h0.7v-0.7H99.8z M93.7,5880.7
	H93v0.7h0.7V5880.7z M93.7,5866.3v-0.7H93v0.7H93.7z M95.5,5896.8v0.7l0,0V5896.8z M89.9,5866.7h0.7v-0.8l-0.8,0.1L89.9,5866.7z
	 M89.7,5874.7c-1.3,0.4-2.4,1.1-3.2,2.2c-0.7,1.1-1.1,2.5-1.1,4h1.4c0-1.3,0.3-2.4,0.9-3.2c0.5-0.8,1.3-1.3,2.3-1.6L89.7,5874.7z
	 M85.5,5880.8c0,2.5,0.9,4.5,2.7,5.9c1.7,1.4,4.3,2,7.3,2v-1.4c-2.8,0-5-0.6-6.4-1.7s-2.2-2.7-2.2-4.8H85.5z M95.4,5888.8
	c3,0,5.6-0.6,7.3-1.9c1.8-1.4,2.7-3.4,2.7-5.9H104c0,2.2-0.8,3.7-2.2,4.8c-1.4,1.1-3.6,1.7-6.4,1.7V5888.8z M105.5,5880.8
	c0-2.2-0.5-3.9-1.5-5.1s-2.5-1.8-4.2-1.9v1.4c1.3,0,2.4,0.5,3,1.4c0.7,0.9,1.2,2.2,1.2,4.2H105.5z M99.1,5874.6v6.1h1.4v-6.1H99.1z
	 M99.8,5880h-6.1v1.4h6.1V5880z M94.4,5880.7v-14.4H93v14.4H94.4z M93.7,5867h4.5v-1.4h-4.5V5867z M98.2,5867c4.3,0,7.6,1.4,9.9,3.9
	c2.2,2.5,3.5,5.9,3.5,10h1.4c0-4.4-1.4-8.2-3.9-11c-2.6-2.7-6.3-4.3-10.9-4.3V5867L98.2,5867z M111.5,5881c0,4.5-1.5,8.4-4.3,11
	c-2.7,2.7-6.7,4.2-11.8,4.2v1.4c5.3,0,9.7-1.7,12.8-4.6c3-3,4.7-7.1,4.7-12.1L111.5,5881L111.5,5881z M95.5,5896.1
	c-5.2,0-9.2-1.7-11.9-4.4c-2.7-2.7-4.2-6.5-4.2-10.8H78c0,4.5,1.6,8.7,4.6,11.8c3,3,7.4,4.8,12.9,4.8V5896.1z M79.4,5881
	c0-7.4,4.5-12.9,10.5-13.6l-0.1-1.4c-7,0.8-11.8,7.1-11.8,15H79.4z M89.2,5866.7v8.7h1.4v-8.7H89.2z M111.8,5856.6v0.7h0.7v-0.7
	H111.8z M79.2,5856.6h-0.7v0.7h0.7V5856.6z M79.2,5848.1v-0.7h-0.7v0.7H79.2z M92,5848.1v0.7h0.7v-0.7H92z M92,5836h0.7v-0.7H92
	V5836z M79.2,5836h-0.7v0.7h0.7V5836z M79.2,5827.3v-0.7h-0.7v0.7H79.2z M111.8,5827.3h0.7v-0.7h-0.7V5827.3z M111.8,5836v0.7h0.7
	v-0.7H111.8z M99,5836v-0.7h-0.7v0.7H99z M99,5848.1h-0.7v0.7H99V5848.1z M111.8,5848.1h0.7v-0.7h-0.7V5848.1z M111.8,5855.9H79.2
	v1.4h32.6C111.8,5857.3,111.8,5855.9,111.8,5855.9z M79.9,5856.6v-8.6h-1.4v8.6H79.9z M79.2,5848.8H92v-1.4H79.2V5848.8z
	 M92.8,5848.1V5836h-1.4v12.1H92.8z M92,5835.3H79.2v1.4H92V5835.3z M79.9,5836v-8.6h-1.4v8.6H79.9z M79.2,5828.1h32.6v-1.4H79.2
	V5828.1z M111.1,5827.3v8.6h1.4v-8.6H111.1z M111.8,5835.3H99v1.4h12.8V5835.3z M98.3,5836v12.1h1.4V5836H98.3z M99,5848.8h12.8
	v-1.4H99V5848.8z M111.1,5848.1v8.6h1.4v-8.6H111.1z M95.5,5825.5v0.7l0,0V5825.5z M104.7,5809.7h0.7l0,0H104.7z M95.5,5802.7v0.7
	l0,0V5802.7z M95.5,5794.7c5.3,0,9.3,1.7,12,4.4c2.7,2.7,4.1,6.4,4.1,10.7h1.4c0-4.5-1.5-8.7-4.5-11.7s-7.4-4.8-13-4.8
	C95.5,5793.3,95.5,5794.7,95.5,5794.7z M111.5,5809.7c0,4.3-1.4,8-4.1,10.8c-2.7,2.7-6.7,4.3-11.9,4.4v1.4c5.6,0,10-1.8,12.9-4.8
	c3-3,4.5-7.1,4.5-11.8H111.5L111.5,5809.7z M95.5,5824.8c-5.3,0-9.3-1.7-12-4.4c-2.7-2.7-4.1-6.4-4.1-10.8H78
	c0,4.6,1.5,8.7,4.5,11.8c3,3,7.4,4.8,13,4.8V5824.8z M79.4,5809.7c0-4.3,1.4-8,4.1-10.7s6.7-4.4,12-4.4v-1.4c-5.6,0-10,1.8-13,4.8
	s-4.5,7.1-4.5,11.7H79.4L79.4,5809.7z M95.5,5817.4c3.1,0,5.6-0.6,7.3-1.9c1.8-1.4,2.7-3.3,2.7-5.8H104c0,2.1-0.7,3.6-2.1,4.6
	c-1.4,1.1-3.5,1.7-6.4,1.7C95.5,5815.9,95.5,5817.4,95.5,5817.4z M105.5,5809.7c0-2.5-0.9-4.4-2.7-5.7c-1.7-1.3-4.3-1.9-7.3-1.9v1.4
	c2.9,0,5.1,0.6,6.4,1.7c1.4,1,2.1,2.5,2.1,4.6L105.5,5809.7z M95.5,5802c-3.1,0-5.6,0.6-7.4,1.9c-1.8,1.4-2.7,3.3-2.7,5.7h1.4
	c0-2,0.7-3.5,2.1-4.6c1.4-1,3.5-1.7,6.5-1.7L95.5,5802L95.5,5802z M85.5,5809.7c0,2.5,0.9,4.4,2.7,5.8c1.7,1.3,4.3,1.9,7.4,1.9v-1.4
	c-3,0-5.1-0.6-6.5-1.7c-1.4-1-2.1-2.5-2.1-4.6L85.5,5809.7L85.5,5809.7z M95.5,5792.3v0.7l0,0V5792.3z M104.7,5776.4h0.7l0,0H104.7z
	 M95.5,5769.5v0.7l0,0V5769.5z M95.5,5761.4c5.3,0,9.3,1.7,12,4.4c2.7,2.7,4.1,6.4,4.1,10.7h1.4c0-4.5-1.5-8.7-4.5-11.7
	s-7.4-4.8-13-4.8C95.5,5759.9,95.5,5761.4,95.5,5761.4z M111.5,5776.4c0,4.3-1.4,8-4.1,10.8c-2.7,2.7-6.7,4.3-11.9,4.3v1.4
	c5.6,0,10-1.8,12.9-4.8c3-3,4.5-7.1,4.5-11.8h-1.4V5776.4z M95.5,5791.6c-5.3,0-9.3-1.7-12-4.3c-2.7-2.7-4.1-6.4-4.1-10.8H78
	c0,4.6,1.5,8.7,4.5,11.8c3,3,7.4,4.8,13,4.8V5791.6z M79.4,5776.4c0-4.3,1.4-8,4.1-10.7s6.7-4.4,12-4.4v-1.4c-5.6,0-10,1.8-13,4.8
	s-4.5,7.1-4.5,11.7H79.4L79.4,5776.4z M95.5,5784.1c3.1,0,5.6-0.6,7.3-1.9c1.8-1.4,2.7-3.3,2.7-5.8H104c0,2.1-0.7,3.6-2.1,4.6
	c-1.4,1.1-3.5,1.7-6.4,1.7C95.5,5782.7,95.5,5784.1,95.5,5784.1z M105.5,5776.4c0-2.5-0.9-4.4-2.7-5.7c-1.7-1.3-4.3-1.9-7.3-1.9v1.4
	c2.9,0,5.1,0.6,6.4,1.7c1.4,1,2.1,2.5,2.1,4.6L105.5,5776.4z M95.5,5768.8c-3.1,0-5.6,0.6-7.4,1.9c-1.8,1.4-2.7,3.3-2.7,5.8h1.4
	c0-2,0.7-3.5,2.1-4.6s3.5-1.7,6.5-1.7L95.5,5768.8L95.5,5768.8z M85.5,5776.4c0,2.5,0.9,4.4,2.7,5.8c1.7,1.3,4.3,1.9,7.4,1.9v-1.4
	c-3,0-5.1-0.6-6.5-1.7c-1.4-1-2.1-2.5-2.1-4.6L85.5,5776.4L85.5,5776.4z M79.2,5730.6v-0.7h-0.7v0.7H79.2z M111.8,5730.6h0.7v-0.7
	h-0.7V5730.6z M111.8,5737.8l0.4,0.6l0.3-0.2v-0.4H111.8z M94.2,5750l-0.4-0.6l-0.3,0.2v0.4H94.2z M94.2,5750.2h-0.7v0.7h0.7V5750.2
	z M111.8,5750.2h0.7v-0.7h-0.7V5750.2z M111.8,5758.7v0.7h0.7v-0.7H111.8z M79.2,5758.7h-0.7v0.7h0.7V5758.7z M79.2,5751.4l-0.4-0.6
	l-0.3,0.2v0.4H79.2z M96.7,5739.5l0.4,0.6l0.3-0.2v-0.4H96.7z M96.7,5739.2h0.7v-0.7h-0.7V5739.2z M79.2,5739.2h-0.7v0.7h0.7V5739.2
	z M79.2,5731.4h32.6v-1.4H79.2V5731.4z M111.1,5730.6v7.1h1.4v-7.1H111.1z M111.4,5737.2l-17.6,12.1l0.8,1.2l17.6-12.1L111.4,5737.2
	z M93.5,5750v0.2h1.4v-0.2H93.5z M94.2,5750.9h17.6v-1.4H94.2V5750.9z M111.1,5750.2v8.6h1.4v-8.6H111.1z M111.8,5758H79.2v1.4h32.6
	C111.8,5759.4,111.8,5758,111.8,5758z M79.9,5758.7v-7.3h-1.4v7.3H79.9z M79.6,5752.1l17.5-12l-0.8-1.2l-17.5,12L79.6,5752.1z
	 M97.5,5739.5v-0.3H96v0.3H97.5z M96.7,5738.5H79.2v1.4h17.5V5738.5z M79.9,5739.2v-8.6h-1.4v8.6H79.9z"/>
<path class="st5" d="M79.2,6789.7h-0.7v0.7h0.7V6789.7z M79.2,6779l-0.3-0.6l-0.4,0.1v0.5H79.2z M98.2,6771.2l0.3,0.6l0.4-0.1v-0.5
	H98.2z M98.2,6770.9h0.7v-0.5l-0.4-0.1L98.2,6770.9z M79.2,6763.1h-0.7v0.5l0.4,0.2L79.2,6763.1z M79.2,6752.4v-0.7h-0.7v0.7H79.2z
	 M111.8,6752.4h0.7v-0.7h-0.7V6752.4z M111.8,6760.8v0.7h0.7v-0.7H111.8z M92.6,6760.8v-0.7h-0.7v0.7H92.6z M92.6,6761.1h-0.7v0.5
	l0.4,0.1L92.6,6761.1z M111.6,6768.5h0.7v-0.5l-0.4-0.1L111.6,6768.5z M111.6,6773.6l0.3,0.6l0.4-0.1v-0.5H111.6z M92.5,6781.1
	l-0.3-0.6l-0.4,0.1v0.5H92.5z M92.5,6781.3h-0.7v0.7h0.7V6781.3z M111.8,6781.3h0.7v-0.7h-0.7V6781.3z M111.8,6789.7v0.7h0.7v-0.7
	H111.8z M79.9,6789.7V6779h-1.4v10.7H79.9z M79.4,6779.7l19-7.8l-0.6-1.4l-18.9,7.8L79.4,6779.7z M98.9,6771.2v-0.4h-1.4v0.4H98.9z
	 M98.4,6770.2l-19-7.7l-0.6,1.3l19,7.8L98.4,6770.2z M79.9,6763.1v-10.7h-1.4v10.7H79.9z M79.2,6753.1h32.6v-1.4H79.2V6753.1z
	 M111.1,6752.4v8.4h1.4v-8.4H111.1z M111.8,6760.1H92.6v1.4h19.2V6760.1z M91.9,6760.8v0.3h1.4v-0.3H91.9z M92.3,6761.7l19,7.4
	l0.5-1.4l-19-7.4L92.3,6761.7z M110.9,6768.5v5.1h1.4v-5.1H110.9z M111.3,6773l-19.1,7.4l0.5,1.4l19.1-7.4L111.3,6773z M91.8,6781.1
	v0.3h1.4v-0.3H91.8z M92.5,6782.1h19.3v-1.4H92.5V6782.1z M111.1,6781.3v8.4h1.4v-8.4H111.1z M111.8,6789H79.2v1.4h32.6
	C111.8,6790.4,111.8,6789,111.8,6789z M79.2,6751.8h-0.7v1.2l1.1-0.6L79.2,6751.8z M79.2,6742.2l-0.3-0.6l-0.4,0.2v0.4H79.2
	L79.2,6742.2z M92.6,6735.7l0.3,0.6l0.4-0.2v-0.4H92.6L92.6,6735.7z M92.6,6735.4h0.7v-0.4l-0.4-0.2L92.6,6735.4z M79.2,6728.8h-0.7
	v0.4l0.4,0.2L79.2,6728.8z M79.2,6719.2l0.4-0.6l-1.1-0.6v1.2H79.2z M101.4,6731.2l-0.4,0.6l0.1,0.1h0.2v-0.7H101.4z M111.8,6731.2
	h0.7v-0.7h-0.7V6731.2z M111.8,6739.7v0.7h0.7v-0.7H111.8z M101.4,6739.7v-0.7h-0.2l-0.1,0.1L101.4,6739.7z M79.9,6751.8v-9.6h-1.4
	v9.6H79.9z M79.5,6742.8l13.4-6.5l-0.6-1.3l-13.4,6.5L79.5,6742.8z M93.3,6735.7v-0.3h-1.4v0.3H93.3z M92.8,6734.7l-13.4-6.6
	l-0.6,1.3l13.4,6.6L92.8,6734.7z M79.9,6728.8v-9.6h-1.4v9.6H79.9z M78.8,6719.9l22.2,12l0.7-1.3l-22.2-12L78.8,6719.9z
	 M101.4,6731.9h10.5v-1.4h-10.5V6731.9z M111.1,6731.2v8.5h1.4v-8.5H111.1z M111.8,6739h-10.5v1.4h10.5V6739z M101,6739.1l-22.2,12
	l0.7,1.3l22.2-12L101,6739.1z M79.2,6682.7v-0.7h-0.7v0.7H79.2z M111.8,6682.7h0.7v-0.7h-0.7V6682.7z M111.8,6689.9l0.4,0.6l0.3-0.2
	v-0.4H111.8z M94.2,6702l-0.4-0.6l-0.3,0.2v0.4H94.2z M94.2,6702.3h-0.7v0.7h0.7V6702.3z M111.8,6702.3h0.7v-0.7h-0.7V6702.3z
	 M111.8,6710.8v0.7h0.7v-0.7H111.8z M79.2,6710.8h-0.7v0.7h0.7V6710.8z M79.2,6703.5l-0.4-0.6l-0.3,0.2v0.4H79.2z M96.7,6691.6
	l0.4,0.6l0.3-0.2v-0.4H96.7z M96.7,6691.3h0.7v-0.7h-0.7V6691.3z M79.2,6691.3h-0.7v0.7h0.7V6691.3z M79.2,6683.4h32.6v-1.4H79.2
	V6683.4z M111.1,6682.7v7.1h1.4v-7.1H111.1z M111.4,6689.3l-17.6,12.1l0.8,1.2l17.6-12.1L111.4,6689.3z M93.5,6702v0.2h1.4v-0.2
	H93.5z M94.2,6703h17.6v-1.4H94.2V6703z M111.1,6702.3v8.6h1.4v-8.6H111.1z M111.8,6710.1H79.2v1.4h32.6
	C111.8,6711.5,111.8,6710.1,111.8,6710.1z M79.9,6710.8v-7.3h-1.4v7.3H79.9z M79.6,6704.1l17.5-12l-0.8-1.2l-17.5,12L79.6,6704.1z
	 M97.5,6691.6v-0.3H96v0.3H97.5z M96.7,6690.6H79.2v1.4h17.5V6690.6z M79.9,6691.3v-8.6h-1.4v8.6H79.9z M111.8,6672.5h0.7v-0.5
	l-0.5-0.1L111.8,6672.5z M111.8,6681.8l-0.2,0.6l0.9,0.3v-1L111.8,6681.8L111.8,6681.8z M79.2,6670.9h-0.7v0.5l0.5,0.1L79.2,6670.9z
	 M79.2,6659.2l-0.2-0.7l-0.5,0.1v0.5L79.2,6659.2L79.2,6659.2z M111.8,6648.4h0.7v-1l-0.9,0.3L111.8,6648.4z M111.8,6657.7l0.2,0.7
	l0.5-0.1v-0.5L111.8,6657.7L111.8,6657.7z M105.4,6659.7l-0.2-0.7l-0.5,0.1v0.5L105.4,6659.7L105.4,6659.7z M105.4,6670.6h-0.7v0.5
	l0.5,0.1L105.4,6670.6z M98.9,6668.6l-0.2,0.7l0.9,0.3v-0.9L98.9,6668.6L98.9,6668.6z M98.9,6661.6h0.7v-1l-0.9,0.3L98.9,6661.6z
	 M87.9,6665l-0.2-0.7l-0.5,0.1v0.5L87.9,6665L87.9,6665z M87.9,6665.2h-0.7v0.5l0.5,0.1L87.9,6665.2z M111.1,6672.5v9.3h1.4v-9.3
	H111.1z M112,6681.1l-32.7-10.9l-0.4,1.4l32.6,10.9L112,6681.1z M79.9,6670.9v-11.7h-1.4v11.7H79.9z M79.4,6660l32.7-10.8l-0.4-1.4
	l-32.6,10.8L79.4,6660z M111.1,6648.4v9.2h1.4v-9.2H111.1z M111.6,6657l-6.4,1.9l0.4,1.4l6.4-1.9L111.6,6657z M104.7,6659.7v11h1.4
	v-11H104.7z M105.2,6671.3l6.4,1.9l0.4-1.4l-6.4-1.9L105.2,6671.3z M99.6,6668.6v-7h-1.4v7H99.6z M98.7,6660.9l-11,3.4l0.4,1.4
	l11-3.4L98.7,6660.9z M87.2,6665v0.3h1.4v-0.3H87.2z M87.7,6666l11,3.3l0.4-1.4l-11-3.3L87.7,6666z M79.2,6647.5h-0.7v0.7h0.7
	V6647.5z M79.2,6636.8l-0.3-0.6l-0.4,0.1v0.5H79.2z M98.2,6629.1l0.3,0.6l0.4-0.2v-0.5L98.2,6629.1L98.2,6629.1z M98.2,6628.6h0.7
	v-0.5l-0.4-0.2L98.2,6628.6z M79.2,6620.9h-0.7v0.5l0.4,0.2L79.2,6620.9z M79.2,6610.2v-0.7h-0.7v0.7H79.2z M111.8,6610.2h0.7v-0.7
	h-0.7V6610.2z M111.8,6618.6v0.7h0.7v-0.7H111.8z M92.6,6618.6v-0.7h-0.7v0.7H92.6z M92.6,6618.8h-0.7v0.5l0.4,0.1L92.6,6618.8z
	 M111.6,6626.3h0.7v-0.5l-0.4-0.1L111.6,6626.3z M111.6,6631.5l0.3,0.6l0.4-0.1v-0.5H111.6z M92.5,6638.8l-0.3-0.6l-0.4,0.1v0.5
	H92.5z M92.5,6639.1h-0.7v0.7h0.7V6639.1z M111.8,6639.1h0.7v-0.7h-0.7V6639.1z M111.8,6647.5v0.7h0.7v-0.7H111.8z M79.9,6647.5
	v-10.7h-1.4v10.7H79.9z M79.4,6637.5l19-7.8l-0.6-1.3l-18.9,7.8L79.4,6637.5z M98.9,6629.1v-0.4h-1.4v0.4H98.9z M98.4,6628l-19-7.8
	l-0.6,1.4l19,7.8L98.4,6628z M79.9,6620.9v-10.7h-1.4v10.7H79.9z M79.2,6610.9h32.6v-1.4H79.2V6610.9z M111.1,6610.2v8.4h1.4v-8.4
	H111.1z M111.8,6617.9H92.6v1.4h19.2V6617.9z M91.9,6618.6v0.3h1.4v-0.3H91.9z M92.3,6619.6l19,7.4l0.5-1.4l-19-7.4L92.3,6619.6z
	 M110.9,6626.3v5.1h1.4v-5.1H110.9z M111.3,6630.7l-19.1,7.4l0.5,1.4l19.1-7.4L111.3,6630.7z M91.8,6638.8v0.3h1.4v-0.3H91.8z
	 M92.5,6639.8h19.3v-1.4H92.5V6639.8z M111.1,6639.1v8.4h1.4v-8.4H111.1z M111.8,6646.8H79.2v1.4h32.6
	C111.8,6648.2,111.8,6646.8,111.8,6646.8z M111.8,6608.1v0.7h0.7v-0.7H111.8z M79.2,6608.1h-0.7v0.7h0.7V6608.1z M79.2,6584.8v-0.7
	h-0.7v0.7H79.2z M86.1,6584.8h0.7v-0.7h-0.7V6584.8z M86.1,6599.5h-0.7v0.7h0.7V6599.5z M92,6599.5v0.7h0.7v-0.7H92z M92,6586v-0.7
	h-0.7v0.7H92z M99,6586h0.7v-0.7H99V6586z M99,6599.5h-0.7v0.7H99V6599.5z M104.9,6599.5v0.7h0.7v-0.7H104.9z M104.9,6584.8v-0.7
	h-0.7v0.7H104.9z M111.8,6584.8h0.7v-0.7h-0.7V6584.8z M111.8,6607.4H79.2v1.4h32.6C111.8,6608.8,111.8,6607.4,111.8,6607.4z
	 M79.9,6608.1v-23.3h-1.4v23.3H79.9z M79.2,6585.5h6.9v-1.4h-6.9V6585.5z M85.4,6584.8v14.7h1.4v-14.7H85.4z M86.1,6600.2H92v-1.4
	h-5.9V6600.2z M92.8,6599.5v-13.6h-1.4v13.6H92.8z M92,6586.7h7v-1.4h-7V6586.7z M98.3,6586v13.6h1.4V6586H98.3z M99,6600.2h5.9
	v-1.4H99V6600.2z M105.6,6599.5v-14.7h-1.4v14.7H105.6z M104.9,6585.6h6.9v-1.4h-6.9V6585.6z M111.1,6584.8v23.2h1.4v-23.2H111.1z
	 M79.2,6566.2v-0.7h-0.7v0.7H79.2z M111.8,6566.2h0.7v-0.7h-0.7V6566.2z M111.8,6574.8v0.7h0.7v-0.7H111.8z M79.2,6574.8h-0.7v0.7
	h0.7V6574.8z M79.2,6566.9h32.6v-1.4H79.2V6566.9z M111.1,6566.2v8.6h1.4v-8.6H111.1z M111.8,6574.1H79.2v1.4h32.6
	C111.8,6575.5,111.8,6574.1,111.8,6574.1z M79.9,6574.8v-8.6h-1.4v8.6H79.9z M89.3,6546.5l0.1,0.7l0.6-0.1v-0.6H89.3z M85.8,6551.1
	h0.7l0,0l0,0H85.8z M88.4,6555.3v-0.7l0,0l0,0V6555.3z M91.7,6550.8l-0.7-0.1l0,0l0,0L91.7,6550.8z M92.3,6548l0.7,0.1l0,0l0,0
	L92.3,6548z M102.2,6537.9v-0.7l0,0l0,0V6537.9z M112.3,6551.1h0.7l0,0H112.3z M100.5,6565.1h-0.7v0.7h0.7V6565.1z M100.5,6556.8
	v-0.7h-0.7v0.7H100.5z M102.2,6546.7v-0.7l0,0l0,0V6546.7z M98.9,6551.7l0.7,0.1l0,0L98.9,6551.7z M98.2,6555l0.7,0.1l0,0L98.2,6555
	z M89,6564.2v-0.7l0,0V6564.2z M89.3,6538.3H90v-0.7h-0.7V6538.3z M89.2,6545.8c-1.2,0.1-2.3,0.6-3.1,1.5c-0.7,0.9-1.1,2.2-1.1,3.8
	h1.4c0-1.4,0.3-2.2,0.7-2.8c0.4-0.6,1.1-0.9,2.1-1V6545.8z M85,6551.1c0,1.5,0.3,2.7,0.9,3.5s1.5,1.3,2.5,1.4v-1.4
	c-0.5,0-0.9-0.2-1.3-0.7s-0.6-1.4-0.6-2.7L85,6551.1z M88.4,6556c1.2,0.1,2-0.5,2.7-1.4c0.6-0.9,1-2.2,1.4-3.7l-1.4-0.3
	c-0.3,1.5-0.6,2.5-1.1,3.2c-0.4,0.6-0.9,0.8-1.4,0.8L88.4,6556z M92.3,6550.9l0.6-2.7l-1.4-0.4l-0.6,2.7L92.3,6550.9z M93,6548.2
	c0.7-3.5,1.9-5.8,3.5-7.4c1.5-1.5,3.5-2.2,5.8-2.3v-1.4c-2.7,0-5,0.9-6.8,2.7s-3.1,4.5-3.8,8.1L93,6548.2z M102.2,6538.6
	c3,0,5.3,1.2,6.9,3.2c1.6,2.1,2.5,5.2,2.5,9.2h1.4c0-4.2-0.9-7.6-2.7-10.1c-1.9-2.5-4.5-3.8-7.9-3.8L102.2,6538.6z M111.5,6551.1
	c0,4.1-0.9,7.4-2.7,9.7c-1.7,2.2-4.5,3.5-8.3,3.6v1.4c4.2,0,7.4-1.5,9.5-4.1s3-6.3,3-10.6H111.5z M101.2,6565.1v-8.2h-1.4v8.2H101.2
	z M100.6,6557.6c1.7-0.1,3-0.7,4-1.9c0.9-1.2,1.4-2.7,1.4-4.5h-1.4c0,1.6-0.4,2.8-1,3.6s-1.6,1.3-3,1.3V6557.6z M105.9,6551.2
	c0-1.6-0.3-2.8-0.9-3.8c-0.6-0.9-1.6-1.5-2.7-1.5v1.4c0.6,0,1.2,0.3,1.5,0.9c0.4,0.6,0.7,1.6,0.7,3H105.9z M102.2,6546
	c-0.5,0-1,0.1-1.4,0.4c-0.4,0.2-0.8,0.6-1.1,1.1c-0.6,0.9-1.1,2.3-1.4,4.1l1.4,0.3c0.4-1.8,0.8-3,1.2-3.6c0.2-0.4,0.4-0.5,0.6-0.6
	s0.4-0.1,0.7-0.2L102.2,6546z M98.2,6551.5l-0.7,3.3l1.4,0.3l0.7-3.3L98.2,6551.5z M97.5,6554.8c-0.6,2.8-1.6,5-3,6.4
	s-3.1,2.2-5.5,2.2v1.4c2.7,0,4.9-0.9,6.5-2.7c1.6-1.7,2.7-4.2,3.3-7.1L97.5,6554.8z M89,6563.5c-2.9,0-5.2-1.2-6.9-3.4
	c-1.7-2.2-2.7-5.3-2.7-8.9H78c0,4,1.1,7.4,3,9.9s4.8,4,8.1,3.9L89,6563.5z M79.4,6551.1c0-3.8,1-6.8,2.7-8.9c1.7-2,4.1-3.2,7.1-3.2
	v-1.4c-3.4,0-6.2,1.4-8.2,3.8c-1.9,2.4-3.1,5.8-3.1,9.8L79.4,6551.1L79.4,6551.1z M88.6,6538.3v8.2H90v-8.2H88.6z M89.3,6511.3
	l0.1,0.7l0.6-0.1v-0.6H89.3z M85.8,6515.9h0.7l0,0l0,0H85.8z M88.4,6520v-0.7l0,0l0,0V6520z M91.7,6515.5l-0.7-0.1l0,0l0,0
	L91.7,6515.5z M92.3,6512.8l0.7,0.1l0,0l0,0L92.3,6512.8z M102.2,6502.6v-0.7l0,0l0,0V6502.6z M112.3,6515.8h0.7l0,0H112.3z
	 M100.5,6529.8h-0.7v0.7h0.7V6529.8z M100.5,6521.6v-0.7h-0.7v0.7H100.5z M102.2,6511.4v-0.7l0,0l0,0V6511.4z M98.9,6516.4l0.7,0.1
	l0,0L98.9,6516.4z M98.2,6519.7l0.7,0.1l0,0L98.2,6519.7z M89,6528.9v-0.7l0,0V6528.9z M89.3,6503H90v-0.7h-0.7V6503z M89.2,6510.6
	c-1.2,0.1-2.3,0.6-3.1,1.5c-0.7,0.9-1.1,2.2-1.1,3.8h1.4c0-1.4,0.3-2.3,0.7-2.9c0.4-0.6,1.1-0.9,2.1-1V6510.6z M85,6515.9
	c0,1.5,0.3,2.7,0.9,3.5s1.5,1.3,2.5,1.4v-1.4c-0.5,0-0.9-0.2-1.3-0.7s-0.6-1.4-0.6-2.7L85,6515.9z M88.4,6520.7
	c1.2,0.1,2-0.5,2.7-1.4c0.6-0.9,1-2.2,1.4-3.7l-1.4-0.3c-0.3,1.5-0.6,2.5-1.1,3.2c-0.4,0.6-0.9,0.8-1.4,0.8L88.4,6520.7z
	 M92.3,6515.6l0.6-2.7l-1.4-0.4l-0.6,2.7L92.3,6515.6z M93,6513c0.7-3.5,1.9-5.8,3.5-7.4c1.5-1.5,3.5-2.2,5.8-2.3v-1.4
	c-2.7,0-5,0.9-6.8,2.7c-1.8,1.8-3.1,4.5-3.8,8.1L93,6513z M102.2,6503.3c3,0,5.3,1.2,6.9,3.2c1.6,2.1,2.5,5.2,2.5,9.2h1.4
	c0-4.2-0.9-7.6-2.7-10.1c-1.9-2.5-4.5-3.8-7.9-3.8L102.2,6503.3z M111.5,6515.8c0,4.1-0.9,7.4-2.7,9.7c-1.7,2.2-4.5,3.5-8.3,3.6v1.4
	c4.2-0.1,7.4-1.5,9.5-4.1s3-6.3,3-10.5L111.5,6515.8z M101.2,6529.8v-8.2h-1.4v8.2H101.2z M100.6,6522.3c1.7-0.1,3-0.7,4-1.9
	c0.9-1.2,1.4-2.7,1.4-4.5h-1.4c0,1.6-0.4,2.8-1,3.6s-1.6,1.3-3,1.3V6522.3z M105.9,6515.9c0-1.6-0.3-2.9-0.9-3.8s-1.6-1.5-2.7-1.5
	v1.4c0.6,0,1.2,0.3,1.5,0.9c0.4,0.6,0.7,1.6,0.7,3H105.9z M102.2,6510.7c-0.5,0-1,0.1-1.4,0.4s-0.8,0.6-1.1,1.1
	c-0.6,0.9-1.1,2.2-1.4,4.1l1.4,0.3c0.4-1.8,0.8-3,1.2-3.6c0.2-0.4,0.4-0.5,0.6-0.6s0.4-0.1,0.7-0.2L102.2,6510.7z M98.2,6516.2
	l-0.7,3.3l1.4,0.3l0.7-3.3L98.2,6516.2z M97.5,6519.5c-0.6,2.8-1.6,5-3,6.4s-3.1,2.2-5.5,2.2v1.4c2.7,0,4.9-0.9,6.5-2.7
	c1.6-1.7,2.7-4.2,3.3-7.1L97.5,6519.5z M89,6528.2c-2.9,0-5.2-1.2-6.9-3.4c-1.7-2.2-2.7-5.3-2.7-9H78c0,4,1.1,7.4,3,9.9
	s4.8,4,8.1,3.9L89,6528.2z M79.4,6515.9c0-3.8,1-6.8,2.7-8.9c1.7-2,4.1-3.2,7.1-3.2v-1.4c-3.4,0-6.2,1.4-8.2,3.8
	c-1.9,2.4-3.1,5.8-3.1,9.8L79.4,6515.9L79.4,6515.9z M88.6,6503v8.2H90v-8.2H88.6z M111.8,6494.6h0.7v-0.5l-0.5-0.1L111.8,6494.6z
	 M111.8,6503.8l-0.2,0.7l0.9,0.3v-1H111.8z M79.2,6493h-0.7v0.5l0.5,0.1L79.2,6493z M79.2,6481.3l-0.2-0.6l-0.5,0.1v0.5H79.2z
	 M111.8,6470.5h0.7v-1l-0.9,0.3L111.8,6470.5z M111.8,6479.7l0.2,0.6l0.5-0.1v-0.5H111.8z M105.4,6481.7l-0.2-0.7l-0.5,0.1v0.5
	L105.4,6481.7L105.4,6481.7z M105.4,6492.6h-0.7v0.5l0.5,0.1L105.4,6492.6z M98.9,6490.6l-0.2,0.7l0.9,0.3v-1H98.9z M98.9,6483.7
	h0.7v-1l-0.9,0.3L98.9,6483.7z M87.9,6487l-0.2-0.6l-0.5,0.1v0.5H87.9z M87.9,6487.3h-0.7v0.5l0.5,0.1L87.9,6487.3z M111.1,6494.6
	v9.3h1.4v-9.3H111.1z M112,6503.2l-32.7-10.9l-0.4,1.4l32.6,10.9L112,6503.2z M79.9,6493v-11.7h-1.4v11.7H79.9z M79.4,6481.9
	l32.7-10.8l-0.4-1.4l-32.6,10.8L79.4,6481.9z M111.1,6470.5v9.2h1.4v-9.2H111.1z M111.6,6479l-6.4,1.9l0.4,1.4l6.4-1.9L111.6,6479z
	 M104.7,6481.7v10.9h1.4v-10.9H104.7z M105.2,6493.3l6.4,1.9l0.4-1.4l-6.4-1.9L105.2,6493.3z M99.6,6490.6v-6.9h-1.4v6.9H99.6z
	 M98.7,6483l-11,3.4l0.4,1.4l11-3.4L98.7,6483z M87.2,6487v0.3h1.4v-0.3H87.2z M87.7,6487.9l11,3.3l0.4-1.4l-11-3.3L87.7,6487.9z
	 M79.2,6441.4v-0.7h-0.7v0.7H79.2z M111.8,6441.4h0.7v-0.7h-0.7V6441.4z M111.8,6448.6l0.4,0.6l0.3-0.2v-0.4H111.8z M94.2,6460.7
	l-0.4-0.6l-0.3,0.2v0.4H94.2z M94.2,6460.9h-0.7v0.7h0.7V6460.9z M111.8,6460.9h0.7v-0.7h-0.7V6460.9z M111.8,6469.5v0.7h0.7v-0.7
	H111.8z M79.2,6469.5h-0.7v0.7h0.7V6469.5z M79.2,6462.2l-0.4-0.6l-0.3,0.2v0.4H79.2z M96.7,6450.3l0.4,0.6l0.3-0.2v-0.4H96.7z
	 M96.7,6450h0.7v-0.7h-0.7V6450z M79.2,6450h-0.7v0.7h0.7V6450z M79.2,6442.1h32.6v-1.4H79.2V6442.1z M111.1,6441.4v7.1h1.4v-7.1
	H111.1z M111.4,6448l-17.6,12.2l0.8,1.2l17.6-12.1L111.4,6448z M93.5,6460.7v0.2h1.4v-0.2H93.5z M94.2,6461.7h17.6v-1.4H94.2V6461.7
	z M111.1,6460.9v8.6h1.4v-8.6H111.1z M111.8,6468.8H79.2v1.4h32.6C111.8,6470.2,111.8,6468.8,111.8,6468.8z M79.9,6469.5v-7.3h-1.4
	v7.3H79.9z M79.6,6462.8l17.5-12l-0.8-1.2l-17.5,12L79.6,6462.8z M97.5,6450.3v-0.3H96v0.3H97.5z M96.7,6449.3H79.2v1.4h17.5V6449.3
	z M79.9,6450v-8.6h-1.4v8.6H79.9z M89.9,6418.1l0.1,0.7l0.6-0.1v-0.6H89.9z M104.7,6423.5h0.7l0,0H104.7z M99.8,6417.3v-0.7h-0.7
	v0.7H99.8z M99.8,6423.3v0.7h0.7v-0.7H99.8z M93.7,6423.3H93v0.7h0.7V6423.3z M93.7,6409v-0.7H93v0.7H93.7z M95.5,6439.5v0.7l0,0
	V6439.5z M89.9,6409.3h0.7v-0.8l-0.8,0.1L89.9,6409.3z M89.7,6417.4c-1.3,0.4-2.4,1.1-3.2,2.2c-0.7,1.1-1.1,2.5-1.1,4h1.4
	c0-1.3,0.3-2.4,0.9-3.2c0.5-0.8,1.3-1.3,2.3-1.6L89.7,6417.4z M85.5,6423.5c0,2.5,0.9,4.5,2.7,5.9c1.7,1.4,4.3,2,7.3,2v-1.4
	c-2.8,0-5-0.6-6.4-1.7s-2.2-2.7-2.2-4.8H85.5z M95.4,6431.4c3,0,5.6-0.6,7.3-1.9c1.8-1.4,2.7-3.4,2.7-5.9H104c0,2.2-0.8,3.8-2.2,4.8
	c-1.4,1.1-3.6,1.7-6.4,1.7V6431.4z M105.5,6423.5c0-2.2-0.5-3.8-1.5-5.1s-2.5-1.8-4.2-1.9v1.4c1.3,0,2.4,0.5,3,1.4
	c0.7,0.9,1.2,2.2,1.2,4.2H105.5z M99.1,6417.3v6.1h1.4v-6.1H99.1z M99.8,6422.6h-6.1v1.4h6.1V6422.6z M94.4,6423.3V6409H93v14.4h1.4
	V6423.3z M93.7,6409.7h4.5v-1.4h-4.5V6409.7z M98.2,6409.7c4.3,0,7.6,1.4,9.9,3.9c2.2,2.5,3.5,5.9,3.5,10h1.4c0-4.4-1.4-8.2-3.9-11
	c-2.6-2.7-6.3-4.3-10.9-4.3V6409.7L98.2,6409.7z M111.5,6423.6c0,4.5-1.5,8.4-4.3,11c-2.7,2.7-6.7,4.2-11.8,4.2v1.4
	c5.3,0,9.7-1.7,12.8-4.6c3-3,4.7-7.1,4.7-12.1L111.5,6423.6L111.5,6423.6z M95.5,6438.8c-5.2,0-9.2-1.7-11.9-4.4
	c-2.7-2.7-4.2-6.5-4.2-10.8H78c0,4.5,1.6,8.7,4.6,11.8c3,3,7.4,4.8,12.9,4.8V6438.8z M79.4,6423.6c0-7.4,4.5-12.9,10.5-13.6
	l-0.1-1.4c-7,0.8-11.8,7.1-11.8,15H79.4z M89.2,6409.3v8.7h1.4v-8.7H89.2z M111.8,6399.2v0.7h0.7v-0.7H111.8z M79.2,6399.2h-0.7v0.7
	h0.7V6399.2z M79.2,6390.7v-0.7h-0.7v0.7H79.2z M92,6390.7v0.7h0.7v-0.7H92z M92,6378.7h0.7v-0.7H92V6378.7z M79.2,6378.7h-0.7v0.7
	h0.7V6378.7z M79.2,6370v-0.7h-0.7v0.7H79.2z M111.8,6370h0.7v-0.7h-0.7V6370z M111.8,6378.7v0.7h0.7v-0.7H111.8z M99,6378.7v-0.7
	h-0.7v0.7H99z M99,6390.7h-0.7v0.7H99V6390.7z M111.8,6390.7h0.7v-0.7h-0.7V6390.7z M111.8,6398.5H79.2v1.4h32.6
	C111.8,6399.9,111.8,6398.5,111.8,6398.5z M79.9,6399.2v-8.6h-1.4v8.6H79.9z M79.2,6391.4H92v-1.4H79.2V6391.4z M92.8,6390.7v-12.1
	h-1.4v12.1H92.8z M92,6378H79.2v1.4H92V6378z M79.9,6378.7v-8.6h-1.4v8.6H79.9z M79.2,6370.7h32.6v-1.4H79.2V6370.7z M111.1,6370
	v8.6h1.4v-8.6H111.1z M111.8,6378H99v1.4h12.8V6378z M98.3,6378.7v12.1h1.4v-12.1H98.3z M99,6391.4h12.8v-1.4H99V6391.4z
	 M111.1,6390.7v8.6h1.4v-8.6H111.1z M95.5,6368.2v0.7l0,0V6368.2z M104.7,6352.4h0.7l0,0H104.7z M95.5,6345.4v0.7l0,0V6345.4z
	 M95.5,6337.3c5.3,0,9.3,1.7,12,4.4c2.7,2.7,4.1,6.4,4.1,10.7h1.4c0-4.5-1.5-8.7-4.5-11.7s-7.4-4.8-13-4.8
	C95.5,6336,95.5,6337.3,95.5,6337.3z M111.5,6352.4c0,4.3-1.4,8.1-4.1,10.8c-2.7,2.7-6.7,4.3-11.9,4.4v1.4c5.6,0,10-1.8,12.9-4.8
	c3-3,4.5-7.1,4.5-11.8H111.5z M95.5,6367.5c-5.3,0-9.3-1.7-12-4.4c-2.7-2.7-4.1-6.4-4.1-10.8H78c0,4.6,1.5,8.7,4.5,11.8
	c3,3,7.4,4.8,13,4.8V6367.5z M79.4,6352.4c0-4.3,1.4-8,4.1-10.7s6.7-4.4,12-4.4v-1.4c-5.6,0-10,1.8-13,4.8s-4.5,7.1-4.5,11.7H79.4
	L79.4,6352.4z M95.5,6360.1c3.1,0,5.6-0.6,7.3-1.9c1.8-1.4,2.7-3.3,2.7-5.8H104c0,2.1-0.7,3.6-2.1,4.6c-1.4,1.1-3.5,1.7-6.4,1.7
	C95.5,6358.6,95.5,6360.1,95.5,6360.1z M105.5,6352.3c0-2.5-0.9-4.4-2.7-5.7c-1.7-1.3-4.3-1.9-7.3-1.9v1.4c2.9,0,5.1,0.6,6.4,1.7
	c1.4,1,2.1,2.5,2.1,4.6L105.5,6352.3z M95.5,6344.7c-3.1,0-5.6,0.6-7.4,1.9c-1.8,1.4-2.7,3.3-2.7,5.7h1.4c0-2,0.7-3.5,2.1-4.5
	c1.4-1.1,3.5-1.7,6.5-1.7L95.5,6344.7L95.5,6344.7z M85.5,6352.4c0,2.5,0.9,4.4,2.7,5.8c1.7,1.3,4.3,1.9,7.4,1.9v-1.4
	c-3,0-5.1-0.6-6.5-1.7c-1.4-1-2.1-2.5-2.1-4.6L85.5,6352.4L85.5,6352.4z M95.5,6334.9v0.7l0,0V6334.9z M104.7,6319.1h0.7l0,0H104.7z
	 M95.5,6312.1v0.7l0,0V6312.1z M95.5,6304.1c5.3,0,9.3,1.7,12,4.4c2.7,2.7,4.1,6.4,4.1,10.7h1.4c0-4.5-1.5-8.7-4.5-11.7
	s-7.4-4.8-13-4.8C95.5,6302.6,95.5,6304.1,95.5,6304.1z M111.5,6319.1c0,4.3-1.4,8.1-4.1,10.8c-2.7,2.7-6.7,4.3-11.9,4.4v1.4
	c5.6,0,10-1.8,12.9-4.8c3-3,4.5-7.1,4.5-11.8H111.5L111.5,6319.1z M95.5,6334.2c-5.3,0-9.3-1.7-12-4.4c-2.7-2.7-4.1-6.4-4.1-10.8H78
	c0,4.6,1.5,8.7,4.5,11.8c3,3,7.4,4.8,13,4.8V6334.2z M79.4,6319.1c0-4.3,1.4-8,4.1-10.7s6.7-4.4,12-4.4v-1.4c-5.6,0-10,1.8-13,4.8
	s-4.5,7.1-4.5,11.7H79.4L79.4,6319.1z M95.5,6326.8c3.1,0,5.6-0.6,7.3-1.9c1.8-1.4,2.7-3.3,2.7-5.8H104c0,2.1-0.7,3.6-2.1,4.6
	c-1.4,1.1-3.5,1.7-6.4,1.7C95.5,6325.3,95.5,6326.8,95.5,6326.8z M105.5,6319.1c0-2.5-0.9-4.4-2.7-5.7c-1.7-1.3-4.3-1.9-7.3-1.9v1.4
	c2.9,0,5.1,0.6,6.4,1.7c1.4,1,2.1,2.5,2.1,4.5H105.5z M95.5,6311.4c-3.1,0-5.6,0.6-7.4,1.9s-2.7,3.3-2.7,5.7h1.4
	c0-2,0.7-3.5,2.1-4.5c1.4-1.1,3.5-1.7,6.5-1.7L95.5,6311.4L95.5,6311.4z M85.5,6319.1c0,2.5,0.9,4.4,2.7,5.8
	c1.7,1.3,4.3,1.9,7.4,1.9v-1.4c-3,0-5.1-0.6-6.5-1.7c-1.4-1-2.1-2.5-2.1-4.6L85.5,6319.1L85.5,6319.1z M79.2,6273.3v-0.7h-0.7v0.7
	H79.2z M111.8,6273.3h0.7v-0.7h-0.7V6273.3z M111.8,6280.5l0.4,0.6l0.3-0.2v-0.4H111.8z M94.2,6292.7l-0.4-0.6l-0.3,0.2v0.4H94.2z
	 M94.2,6292.9h-0.7v0.7h0.7V6292.9z M111.8,6292.9h0.7v-0.7h-0.7V6292.9z M111.8,6301.5v0.7h0.7v-0.7H111.8z M79.2,6301.5h-0.7v0.7
	h0.7V6301.5z M79.2,6294.1l-0.4-0.6l-0.3,0.2v0.4H79.2z M96.7,6282.2l0.4,0.6l0.3-0.2v-0.4H96.7z M96.7,6281.9h0.7v-0.7h-0.7V6281.9
	z M79.2,6281.9h-0.7v0.7h0.7V6281.9z M79.2,6274h32.6v-1.4H79.2V6274z M111.1,6273.3v7.1h1.4v-7.1H111.1z M111.4,6279.9L93.8,6292
	l0.8,1.2l17.6-12.1L111.4,6279.9z M93.5,6292.7v0.2h1.4v-0.2H93.5z M94.2,6293.6h17.6v-1.4H94.2V6293.6z M111.1,6292.9v8.6h1.4v-8.6
	H111.1z M111.8,6300.7H79.2v1.4h32.6C111.8,6302.1,111.8,6300.7,111.8,6300.7z M79.9,6301.5v-7.4h-1.4v7.3L79.9,6301.5L79.9,6301.5z
	 M79.6,6294.7l17.5-12l-0.8-1.2l-17.5,12L79.6,6294.7z M97.5,6282.2v-0.3H96v0.3H97.5z M96.7,6281.2H79.2v1.4h17.5V6281.2z
	 M79.9,6281.9v-8.6h-1.4v8.6H79.9z"/>
<path class="st5" d="M79.2,5704.4h-0.7v0.7h0.7V5704.4z M79.2,5693.7l-0.3-0.6l-0.4,0.1v0.5H79.2L79.2,5693.7z M98.2,5685.9l0.3,0.6
	l0.4-0.1v-0.5H98.2L98.2,5685.9z M98.2,5685.5h0.7v-0.5l-0.4-0.1L98.2,5685.5z M79.2,5677.8h-0.7v0.5l0.4,0.2L79.2,5677.8z
	 M79.2,5667.1v-0.7h-0.7v0.7H79.2z M111.8,5667.1h0.7v-0.7h-0.7V5667.1z M111.8,5675.4v0.7h0.7v-0.7H111.8z M92.6,5675.4v-0.7h-0.7
	v0.7H92.6z M92.6,5675.7h-0.7v0.5l0.4,0.1L92.6,5675.7z M111.6,5683.2h0.7v-0.5l-0.4-0.1L111.6,5683.2z M111.6,5688.3l0.3,0.6
	l0.4-0.1v-0.5H111.6L111.6,5688.3z M92.5,5695.7l-0.3-0.6l-0.4,0.1v0.5H92.5L92.5,5695.7z M92.5,5696h-0.7v0.7h0.7V5696z
	 M111.8,5696h0.7v-0.7h-0.7V5696z M111.8,5704.4v0.7h0.7v-0.7H111.8z M79.9,5704.4v-10.7h-1.4v10.7H79.9z M79.4,5694.3l19-7.8
	l-0.6-1.4l-18.9,7.8L79.4,5694.3z M98.9,5685.9v-0.4h-1.4v0.4H98.9z M98.4,5684.8l-19-7.7l-0.6,1.3l19,7.8L98.4,5684.8z
	 M79.9,5677.8v-10.7h-1.4v10.7H79.9z M79.2,5667.8h32.6v-1.4H79.2V5667.8z M111.1,5667.1v8.4h1.4v-8.4H111.1z M111.8,5674.7H92.6
	v1.4h19.2V5674.7z M91.9,5675.4v0.3h1.4v-0.3H91.9z M92.3,5676.4l19,7.4l0.5-1.4l-19-7.4L92.3,5676.4z M110.9,5683.2v5.1h1.4v-5.1
	H110.9z M111.3,5687.6l-19.1,7.4l0.5,1.4l19.1-7.4L111.3,5687.6z M91.8,5695.7v0.3h1.4v-0.3H91.8z M92.5,5696.7h19.3v-1.4H92.5
	V5696.7z M111.1,5696v8.4h1.4v-8.4H111.1z M111.8,5703.7H79.2v1.4h32.6C111.8,5705.1,111.8,5703.7,111.8,5703.7z M79.2,5666.4h-0.7
	v1.2l1.1-0.6L79.2,5666.4z M79.2,5656.8l-0.3-0.6l-0.4,0.2v0.4H79.2z M92.6,5650.3l0.3,0.6l0.4-0.2v-0.4H92.6z M92.6,5650h0.7v-0.4
	l-0.4-0.2L92.6,5650z M79.2,5643.5h-0.7v0.4l0.4,0.2L79.2,5643.5z M79.2,5633.9l0.4-0.6l-1.1-0.6v1.2H79.2L79.2,5633.9z
	 M101.4,5645.9l-0.4,0.6l0.1,0.1h0.2v-0.7H101.4z M111.8,5645.9h0.7v-0.7h-0.7V5645.9z M111.8,5654.4v0.7h0.7v-0.7H111.8z
	 M101.4,5654.4v-0.7h-0.2l-0.1,0.1L101.4,5654.4z M79.9,5666.4v-9.6h-1.4v9.6H79.9z M79.5,5657.5l13.4-6.5l-0.6-1.3l-13.4,6.5
	L79.5,5657.5z M93.3,5650.3v-0.3h-1.4v0.3H93.3z M92.8,5649.4l-13.4-6.6l-0.6,1.3l13.4,6.6L92.8,5649.4z M79.9,5643.5v-9.6h-1.4v9.6
	H79.9z M78.8,5634.5l22.2,12l0.7-1.3l-22.2-12L78.8,5634.5z M101.4,5646.6h10.5v-1.4h-10.5V5646.6z M111.1,5645.9v8.5h1.4v-8.5
	H111.1z M111.8,5653.6h-10.5v1.4h10.5V5653.6z M101,5653.8l-22.2,12l0.7,1.3l22.2-12L101,5653.8z M79.2,5597.4v-0.7h-0.7v0.7H79.2z
	 M111.8,5597.4h0.7v-0.7h-0.7V5597.4z M111.8,5604.6l0.4,0.6l0.3-0.2v-0.4H111.8z M94.2,5616.7l-0.4-0.6l-0.3,0.2v0.4H94.2z
	 M94.2,5616.9h-0.7v0.7h0.7V5616.9z M111.8,5616.9h0.7v-0.7h-0.7V5616.9z M111.8,5625.5v0.7h0.7v-0.7H111.8z M79.2,5625.5h-0.7v0.7
	h0.7V5625.5z M79.2,5618.1l-0.4-0.6l-0.3,0.2v0.4H79.2z M96.7,5606.2l0.4,0.6l0.3-0.2v-0.4H96.7z M96.7,5605.9h0.7v-0.7h-0.7V5605.9
	z M79.2,5605.9h-0.7v0.7h0.7V5605.9z M79.2,5598.1h32.6v-1.4H79.2V5598.1z M111.1,5597.4v7.1h1.4v-7.1H111.1z M111.4,5603.9
	L93.8,5616l0.8,1.2l17.6-12.1L111.4,5603.9z M93.5,5616.7v0.2h1.4v-0.2H93.5z M94.2,5617.6h17.6v-1.4H94.2V5617.6z M111.1,5616.9
	v8.6h1.4v-8.6H111.1z M111.8,5624.8H79.2v1.4h32.6C111.8,5626.2,111.8,5624.8,111.8,5624.8z M79.9,5625.5v-7.3h-1.4v7.3H79.9z
	 M79.6,5618.7l17.5-12l-0.8-1.2l-17.5,12L79.6,5618.7z M97.5,5606.2v-0.3H96v0.3H97.5z M96.7,5605.2H79.2v1.4h17.5V5605.2z
	 M79.9,5605.9v-8.6h-1.4v8.6H79.9z M111.8,5587.2h0.7v-0.5l-0.5-0.1L111.8,5587.2z M111.8,5596.5l-0.2,0.6l0.9,0.3v-1L111.8,5596.5
	L111.8,5596.5z M79.2,5585.6h-0.7v0.5l0.5,0.1L79.2,5585.6z M79.2,5573.9l-0.2-0.6l-0.5,0.1v0.5H79.2L79.2,5573.9z M111.8,5563.1
	h0.7v-1l-0.9,0.3L111.8,5563.1z M111.8,5572.3l0.2,0.7l0.5-0.1v-0.5L111.8,5572.3L111.8,5572.3z M105.4,5574.3l-0.2-0.7l-0.5,0.1
	v0.5L105.4,5574.3L105.4,5574.3z M105.4,5585.2h-0.7v0.5l0.5,0.1L105.4,5585.2z M98.9,5583.3l-0.2,0.7l0.9,0.3v-1H98.9z
	 M98.9,5576.3h0.7v-1l-0.9,0.3L98.9,5576.3z M87.9,5579.7l-0.2-0.7l-0.5,0.1v0.5L87.9,5579.7L87.9,5579.7z M87.9,5579.9h-0.7v0.5
	l0.5,0.1L87.9,5579.9z M111.1,5587.2v9.3h1.4v-9.3H111.1z M112,5595.8l-32.7-10.9l-0.4,1.4l32.6,10.9L112,5595.8z M79.9,5585.6
	v-11.7h-1.4v11.7H79.9z M79.4,5574.6l32.7-10.8l-0.4-1.4l-32.6,10.8L79.4,5574.6z M111.1,5563.1v9.2h1.4v-9.2H111.1z M111.6,5571.7
	l-6.4,1.9l0.4,1.4l6.4-1.9L111.6,5571.7z M104.7,5574.3v10.9h1.4v-10.9H104.7z M105.2,5586l6.4,1.9l0.4-1.4l-6.4-1.9L105.2,5586z
	 M99.6,5583.3v-6.9h-1.4v6.9H99.6z M98.7,5575.6l-11,3.4l0.4,1.4l11-3.4L98.7,5575.6z M87.2,5579.7v0.3h1.4v-0.3H87.2z M87.7,5580.6
	l11,3.3l0.4-1.4l-11-3.3L87.7,5580.6z M79.2,5562.1h-0.7v0.7h0.7V5562.1z M79.2,5551.5l-0.3-0.6l-0.4,0.1v0.5H79.2L79.2,5551.5z
	 M98.2,5543.7l0.3,0.6l0.4-0.2v-0.5L98.2,5543.7L98.2,5543.7z M98.2,5543.3h0.7v-0.5l-0.4-0.2L98.2,5543.3z M79.2,5535.6h-0.7v0.5
	l0.4,0.2L79.2,5535.6z M79.2,5524.8v-0.7h-0.7v0.7H79.2z M111.8,5524.8h0.7v-0.7h-0.7V5524.8z M111.8,5533.3v0.7h0.7v-0.7H111.8z
	 M92.6,5533.3v-0.7h-0.7v0.7H92.6z M92.6,5533.5h-0.7v0.5l0.4,0.1L92.6,5533.5z M111.6,5541h0.7v-0.5l-0.4-0.1L111.6,5541z
	 M111.6,5546.1l0.3,0.6l0.4-0.1v-0.5H111.6L111.6,5546.1z M92.5,5553.5l-0.3-0.6l-0.4,0.1v0.5H92.5L92.5,5553.5z M92.5,5553.8h-0.7
	v0.7h0.7V5553.8z M111.8,5553.8h0.7v-0.7h-0.7V5553.8z M111.8,5562.1v0.7h0.7v-0.7H111.8z M79.9,5562.1v-10.7h-1.4v10.7H79.9z
	 M79.4,5552.1l19-7.8l-0.6-1.3l-18.9,7.8L79.4,5552.1z M98.9,5543.7v-0.4h-1.4v0.4H98.9z M98.4,5542.7l-19-7.8l-0.6,1.4l19,7.8
	L98.4,5542.7z M79.9,5535.6v-10.8h-1.4v10.7L79.9,5535.6L79.9,5535.6z M79.2,5525.6h32.6v-1.4H79.2V5525.6z M111.1,5524.8v8.4h1.4
	v-8.4H111.1z M111.8,5532.6H92.6v1.4h19.2V5532.6z M91.9,5533.3v0.3h1.4v-0.3H91.9z M92.3,5534.2l19,7.4l0.5-1.4l-19-7.4
	L92.3,5534.2z M110.9,5541v5.1h1.4v-5.1H110.9z M111.3,5545.4l-19.1,7.4l0.5,1.4l19.1-7.4L111.3,5545.4z M91.8,5553.5v0.3h1.4v-0.3
	H91.8z M92.5,5554.5h19.3v-1.4H92.5V5554.5z M111.1,5553.8v8.4h1.4v-8.4H111.1z M111.8,5561.4H79.2v1.4h32.6
	C111.8,5562.8,111.8,5561.4,111.8,5561.4z M111.8,5522.7v0.7h0.7v-0.7H111.8z M79.2,5522.7h-0.7v0.7h0.7V5522.7z M79.2,5499.4v-0.7
	h-0.7v0.7H79.2z M86.1,5499.4h0.7v-0.7h-0.7V5499.4z M86.1,5514.2h-0.7v0.7h0.7V5514.2z M92,5514.2v0.7h0.7v-0.7H92z M92,5500.7
	v-0.7h-0.7v0.7H92z M99,5500.7h0.7v-0.7H99V5500.7z M99,5514.2h-0.7v0.7H99V5514.2z M104.9,5514.2v0.7h0.7v-0.7H104.9z
	 M104.9,5499.5v-0.7h-0.7v0.7H104.9z M111.8,5499.5h0.7v-0.7h-0.7V5499.5z M111.8,5522H79.2v1.4h32.6
	C111.8,5523.4,111.8,5522,111.8,5522z M79.9,5522.7v-23.3h-1.4v23.3H79.9z M79.2,5500.2h6.9v-1.4h-6.9
	C79.2,5498.7,79.2,5500.2,79.2,5500.2z M85.4,5499.4v14.7h1.4v-14.7H85.4z M86.1,5514.9H92v-1.4h-5.9V5514.9z M92.8,5514.2v-13.6
	h-1.4v13.6H92.8z M92,5501.4h7v-1.4h-7V5501.4z M98.3,5500.7v13.6h1.4v-13.6H98.3z M99,5514.9h5.9v-1.4H99V5514.9z M105.6,5514.2
	v-14.7h-1.4v14.7H105.6z M104.9,5500.2h6.9v-1.4h-6.9V5500.2z M111.1,5499.5v23.2h1.4v-23.2H111.1z M79.2,5480.9v-0.7h-0.7v0.7H79.2
	z M111.8,5480.9h0.7v-0.7h-0.7V5480.9z M111.8,5489.5v0.7h0.7v-0.7H111.8z M79.2,5489.5h-0.7v0.7h0.7V5489.5z M79.2,5481.6h32.6
	v-1.4H79.2V5481.6z M111.1,5480.9v8.6h1.4v-8.6H111.1z M111.8,5488.8H79.2v1.4h32.6C111.8,5490.2,111.8,5488.8,111.8,5488.8z
	 M79.9,5489.5v-8.6h-1.4v8.6H79.9z M89.3,5461.2l0.1,0.7l0.6-0.1v-0.6H89.3z M85.8,5465.7h0.7l0,0l0,0H85.8z M88.4,5469.9v-0.7l0,0
	l0,0V5469.9z M91.7,5465.4l-0.7-0.1l0,0l0,0L91.7,5465.4z M92.3,5462.7l0.7,0.1l0,0l0,0L92.3,5462.7z M102.2,5452.5v-0.7l0,0l0,0
	V5452.5z M112.3,5465.7h0.7l0,0H112.3z M100.5,5479.7h-0.7v0.7h0.7V5479.7z M100.5,5471.5v-0.7h-0.7v0.7H100.5z M102.2,5461.3v-0.7
	l0,0l0,0V5461.3z M98.9,5466.3l0.7,0.1l0,0L98.9,5466.3z M98.2,5469.6l0.7,0.1l0,0L98.2,5469.6z M89,5478.9v-0.7l0,0V5478.9z
	 M89.3,5453H90v-0.7h-0.7V5453z M89.2,5460.5c-1.2,0.1-2.3,0.6-3.1,1.5c-0.7,0.9-1.1,2.2-1.1,3.8h1.4c0-1.4,0.3-2.2,0.7-2.9
	c0.4-0.6,1.1-0.9,2.1-1V5460.5z M85,5465.7c0,1.5,0.3,2.7,0.9,3.5s1.5,1.3,2.5,1.4v-1.4c-0.5,0-0.9-0.2-1.3-0.7s-0.6-1.4-0.6-2.7
	L85,5465.7L85,5465.7z M88.4,5470.6c1.2,0.1,2-0.5,2.7-1.4c0.6-0.9,1-2.2,1.4-3.7l-1.4-0.3c-0.3,1.5-0.6,2.5-1.1,3.2
	c-0.4,0.6-0.9,0.8-1.4,0.8L88.4,5470.6z M92.3,5465.6l0.6-2.7l-1.4-0.4l-0.6,2.7L92.3,5465.6z M93,5462.8c0.7-3.5,1.9-5.8,3.5-7.4
	c1.5-1.5,3.5-2.2,5.8-2.2v-1.4c-2.7,0-5,0.9-6.8,2.7c-1.8,1.8-3.1,4.5-3.8,8.1L93,5462.8z M102.2,5453.3c3,0,5.3,1.2,6.9,3.2
	c1.6,2.1,2.5,5.2,2.5,9.2h1.4c0-4.2-0.9-7.6-2.7-10.1c-1.9-2.5-4.5-3.8-7.9-3.8L102.2,5453.3z M111.5,5465.7c0,4.1-0.9,7.4-2.7,9.7
	c-1.7,2.2-4.5,3.5-8.3,3.6v1.4c4.2,0,7.4-1.5,9.5-4.1s3-6.3,3-10.6H111.5z M101.2,5479.7v-8.2h-1.4v8.2H101.2z M100.6,5472.2
	c1.7-0.1,3-0.7,4-1.9c0.9-1.2,1.4-2.7,1.4-4.5h-1.4c0,1.6-0.4,2.8-1,3.6s-1.6,1.3-3,1.3V5472.2z M105.9,5465.9
	c0-1.6-0.3-2.9-0.9-3.8s-1.6-1.5-2.7-1.5v1.4c0.6,0,1.2,0.3,1.5,0.9c0.4,0.6,0.7,1.6,0.7,3H105.9z M102.2,5460.6
	c-0.5,0-1,0.1-1.4,0.4c-0.4,0.2-0.8,0.6-1.1,1.1c-0.6,0.9-1.1,2.2-1.4,4.1l1.4,0.3c0.4-1.8,0.8-3,1.2-3.6c0.2-0.4,0.4-0.5,0.6-0.6
	s0.4-0.1,0.7-0.2L102.2,5460.6z M98.2,5466.2l-0.7,3.3l1.4,0.3l0.7-3.3L98.2,5466.2z M97.5,5469.4c-0.6,2.8-1.6,5-3,6.4
	s-3.1,2.2-5.5,2.2v1.4c2.7,0,4.9-0.9,6.5-2.7c1.6-1.7,2.7-4.2,3.3-7.1L97.5,5469.4z M89,5478.1c-2.9,0-5.2-1.2-6.9-3.4
	c-1.7-2.2-2.7-5.3-2.7-9H78c0,4,1.1,7.4,3,9.9s4.8,4,8.1,3.9L89,5478.1z M79.4,5465.7c0-3.8,1-6.8,2.7-8.9c1.7-2,4.1-3.2,7.1-3.2
	v-1.4c-3.4,0-6.2,1.4-8.2,3.8c-1.9,2.4-3.1,5.8-3.1,9.8L79.4,5465.7L79.4,5465.7z M88.6,5453v8.2H90v-8.2H88.6z M89.3,5426l0.1,0.7
	l0.6-0.1v-0.6H89.3z M85.8,5430.5h0.7l0,0l0,0H85.8z M88.4,5434.6v-0.7l0,0l0,0V5434.6z M91.7,5430.2L91,5430l0,0l0,0L91.7,5430.2z
	 M92.3,5427.4l0.7,0.1l0,0l0,0L92.3,5427.4z M102.2,5417.2v-0.7l0,0l0,0V5417.2z M112.3,5430.4h0.7l0,0H112.3z M100.5,5444.4h-0.7
	v0.7h0.7V5444.4z M100.5,5436.2v-0.7h-0.7v0.7H100.5z M102.2,5426v-0.7l0,0l0,0V5426z M98.9,5431l0.7,0.1l0,0L98.9,5431z
	 M98.2,5434.3l0.7,0.1l0,0L98.2,5434.3z M89,5443.6v-0.7l0,0V5443.6z M89.3,5417.7H90v-0.7h-0.7V5417.7z M89.2,5425.3
	c-1.2,0.1-2.3,0.6-3.1,1.5c-0.7,0.9-1.1,2.2-1.1,3.8h1.4c0-1.4,0.3-2.2,0.7-2.9c0.4-0.6,1.1-0.9,2.1-1V5425.3z M85,5430.5
	c0,1.5,0.3,2.7,0.9,3.5c0.6,0.9,1.5,1.3,2.5,1.4v-1.4c-0.5,0-0.9-0.2-1.3-0.7s-0.6-1.4-0.6-2.7L85,5430.5L85,5430.5z M88.4,5435.4
	c1.2,0.1,2-0.5,2.7-1.4c0.6-0.9,1-2.2,1.4-3.7L91,5430c-0.3,1.5-0.6,2.5-1.1,3.2c-0.4,0.6-0.9,0.8-1.4,0.8L88.4,5435.4z
	 M92.3,5430.3l0.6-2.7l-1.4-0.4l-0.6,2.7L92.3,5430.3z M93,5427.6c0.7-3.5,1.9-5.8,3.5-7.4c1.5-1.5,3.5-2.2,5.8-2.2v-1.4
	c-2.7,0-5,0.9-6.8,2.7s-3.1,4.5-3.8,8.1L93,5427.6z M102.2,5418c3,0,5.3,1.2,6.9,3.2c1.6,2.1,2.5,5.2,2.5,9.2h1.4
	c0-4.2-0.9-7.6-2.7-10.1c-1.9-2.5-4.5-3.8-7.9-3.8L102.2,5418z M111.5,5430.4c0,4.1-0.9,7.4-2.7,9.7c-1.7,2.2-4.5,3.5-8.3,3.6v1.4
	c4.2,0,7.4-1.5,9.5-4.1s3-6.3,3-10.5L111.5,5430.4z M101.2,5444.4v-8.2h-1.4v8.2H101.2z M100.6,5436.9c1.7-0.1,3-0.7,4-1.9
	c0.9-1.2,1.4-2.7,1.4-4.5h-1.4c0,1.6-0.4,2.8-1,3.6s-1.6,1.3-3,1.3V5436.9z M105.9,5430.6c0-1.6-0.3-2.9-0.9-3.8s-1.6-1.5-2.7-1.5
	v1.4c0.6,0,1.2,0.3,1.5,0.9c0.4,0.6,0.7,1.6,0.7,3H105.9z M102.2,5425.3c-0.5,0-1,0.1-1.4,0.4s-0.8,0.6-1.1,1.1
	c-0.6,0.9-1.1,2.2-1.4,4.1l1.4,0.3c0.4-1.8,0.8-3,1.2-3.6c0.2-0.4,0.4-0.5,0.6-0.6s0.4-0.1,0.7-0.2L102.2,5425.3z M98.2,5430.9
	l-0.7,3.3l1.4,0.3l0.7-3.3L98.2,5430.9z M97.5,5434.2c-0.6,2.8-1.6,5-3,6.4s-3.1,2.2-5.5,2.2v1.4c2.7,0,4.9-0.9,6.5-2.7
	c1.6-1.7,2.7-4.2,3.3-7.1L97.5,5434.2z M89,5442.9c-2.9,0-5.2-1.2-6.9-3.4c-1.7-2.2-2.7-5.3-2.7-9H78c0,4,1.1,7.4,3,9.9
	s4.8,4,8.1,3.9L89,5442.9z M79.4,5430.5c0-3.8,1-6.8,2.7-8.9c1.7-2,4.1-3.2,7.1-3.2v-1.4c-3.4,0-6.2,1.4-8.2,3.8
	c-1.9,2.4-3.1,5.8-3.1,9.8L79.4,5430.5L79.4,5430.5z M88.6,5417.7v8.2H90v-8.2H88.6z M111.8,5409.2h0.7v-0.5l-0.5-0.1L111.8,5409.2z
	 M111.8,5418.5l-0.2,0.6l0.9,0.3v-1L111.8,5418.5L111.8,5418.5z M79.2,5407.6h-0.7v0.5l0.5,0.1L79.2,5407.6z M79.2,5396l-0.2-0.6
	l-0.5,0.1v0.5H79.2L79.2,5396z M111.8,5385.1h0.7v-1l-0.9,0.3L111.8,5385.1z M111.8,5394.4l0.2,0.7l0.5-0.1v-0.5L111.8,5394.4
	L111.8,5394.4z M105.4,5396.3l-0.2-0.7l-0.5,0.1v0.5L105.4,5396.3L105.4,5396.3z M105.4,5407.3h-0.7v0.5l0.5,0.1L105.4,5407.3z
	 M98.9,5405.3l-0.2,0.7l0.9,0.3v-1H98.9z M98.9,5398.3h0.7v-1l-0.9,0.3L98.9,5398.3z M87.9,5401.7l-0.2-0.7l-0.5,0.1v0.5
	L87.9,5401.7L87.9,5401.7z M87.9,5401.9h-0.7v0.5l0.5,0.1L87.9,5401.9z M111.1,5409.2v9.3h1.4v-9.3H111.1z M112,5417.8l-32.7-10.9
	l-0.4,1.4l32.6,10.9L112,5417.8z M79.9,5407.6V5396h-1.4v11.7h1.4V5407.6z M79.4,5396.6l32.7-10.8l-0.4-1.4l-32.6,10.8L79.4,5396.6z
	 M111.1,5385.1v9.2h1.4v-9.2H111.1z M111.6,5393.6l-6.4,1.9l0.4,1.4l6.4-1.9L111.6,5393.6z M104.7,5396.3v10.9h1.4v-10.9H104.7z
	 M105.2,5407.9l6.4,1.9l0.4-1.4l-6.4-1.9L105.2,5407.9z M99.6,5405.3v-6.9h-1.4v6.9H99.6z M98.7,5397.6l-11,3.4l0.4,1.4l11-3.4
	L98.7,5397.6z M87.2,5401.7v0.3h1.4v-0.3H87.2z M87.7,5402.6l11,3.3l0.4-1.4l-11-3.3L87.7,5402.6z M79.2,5356v-0.7h-0.7v0.7H79.2z
	 M111.8,5356h0.7v-0.7h-0.7V5356z M111.8,5363.3l0.4,0.6l0.3-0.2v-0.4H111.8z M94.2,5375.4l-0.4-0.6l-0.3,0.2v0.4H94.2z
	 M94.2,5375.6h-0.7v0.7h0.7V5375.6z M111.8,5375.6h0.7v-0.7h-0.7V5375.6z M111.8,5384.2v0.7h0.7v-0.7H111.8z M79.2,5384.2h-0.7v0.7
	h0.7V5384.2z M79.2,5376.9l-0.4-0.6l-0.3,0.2v0.4H79.2z M96.7,5364.9l0.4,0.6l0.3-0.2v-0.4H96.7z M96.7,5364.6h0.7v-0.7h-0.7V5364.6
	z M79.2,5364.6h-0.7v0.7h0.7V5364.6z M79.2,5356.8h32.6v-1.4H79.2V5356.8z M111.1,5356v7.1h1.4v-7.1H111.1z M111.4,5362.6
	l-17.6,12.2l0.8,1.2l17.6-12.1L111.4,5362.6z M93.5,5375.4v0.2h1.4v-0.2H93.5z M94.2,5376.3h17.6v-1.4H94.2V5376.3z M111.1,5375.6
	v8.6h1.4v-8.6H111.1z M111.8,5383.5H79.2v1.4h32.6C111.8,5384.9,111.8,5383.5,111.8,5383.5z M79.9,5384.2v-7.3h-1.4v7.3H79.9z
	 M79.6,5377.5l17.5-12l-0.8-1.2l-17.5,12L79.6,5377.5z M97.5,5364.9v-0.3H96v0.3H97.5z M96.7,5363.9H79.2v1.4h17.5V5363.9z
	 M79.9,5364.6v-8.6h-1.4v8.6H79.9z M89.9,5332.7l0.1,0.7l0.6-0.1v-0.6H89.9z M104.7,5338.1h0.7l0,0H104.7z M99.8,5331.9v-0.7h-0.7
	v0.7H99.8z M99.8,5338v0.7h0.7v-0.7H99.8z M93.7,5338H93v0.7h0.7V5338z M93.7,5323.6v-0.7H93v0.7H93.7z M95.5,5354.2v0.7l0,0V5354.2
	z M89.9,5324h0.7v-0.8l-0.8,0.1L89.9,5324z M89.7,5332c-1.3,0.4-2.4,1.1-3.2,2.2c-0.7,1.1-1.1,2.5-1.1,4h1.4c0-1.3,0.3-2.4,0.9-3.2
	c0.5-0.8,1.3-1.3,2.3-1.6L89.7,5332z M85.5,5338.1c0,2.5,0.9,4.5,2.7,5.9c1.7,1.4,4.3,2,7.3,2v-1.4c-2.8,0-5-0.6-6.4-1.7
	s-2.2-2.7-2.2-4.8H85.5z M95.4,5346.1c3,0,5.6-0.6,7.3-1.9c1.8-1.4,2.7-3.4,2.7-5.9H104c0,2.2-0.8,3.7-2.2,4.8
	c-1.4,1.1-3.6,1.7-6.4,1.7V5346.1z M105.5,5338.1c0-2.2-0.5-3.9-1.5-5.1s-2.5-1.8-4.2-1.9v1.4c1.3,0,2.4,0.5,3,1.4
	c0.7,0.9,1.2,2.2,1.2,4.2H105.5z M99.1,5331.9v6.1h1.4v-6.1H99.1z M99.8,5337.3h-6.1v1.4h6.1V5337.3z M94.4,5338v-14.4H93v14.4H94.4
	z M93.7,5324.4h4.5v-1.4h-4.5V5324.4z M98.2,5324.4c4.3,0,7.6,1.4,9.9,3.9c2.2,2.5,3.5,5.9,3.5,10h1.4c0-4.4-1.4-8.2-3.9-11
	c-2.6-2.7-6.3-4.3-10.9-4.3V5324.4L98.2,5324.4z M111.5,5338.3c0,4.5-1.5,8.4-4.3,11c-2.7,2.7-6.7,4.2-11.8,4.2v1.4
	c5.3,0,9.7-1.7,12.8-4.6c3-3,4.7-7.1,4.7-12.1L111.5,5338.3L111.5,5338.3z M95.5,5353.4c-5.2,0-9.2-1.7-11.9-4.4
	c-2.7-2.7-4.2-6.5-4.2-10.8H78c0,4.5,1.6,8.7,4.6,11.8c3,3,7.4,4.8,12.9,4.8V5353.4z M79.4,5338.3c0-7.4,4.5-12.9,10.5-13.6
	l-0.1-1.4c-7,0.8-11.8,7.1-11.8,15H79.4z M89.2,5324v8.7h1.4v-8.7H89.2z M111.8,5313.9v0.7h0.7v-0.7H111.8z M79.2,5313.9h-0.7v0.7
	h0.7V5313.9z M79.2,5305.4v-0.7h-0.7v0.7H79.2z M92,5305.4v0.7h0.7v-0.7H92z M92,5293.3h0.7v-0.7H92V5293.3z M79.2,5293.3h-0.7v0.7
	h0.7V5293.3z M79.2,5284.7v-0.7h-0.7v0.7H79.2z M111.8,5284.7h0.7v-0.7h-0.7V5284.7z M111.8,5293.3v0.7h0.7v-0.7H111.8z M99,5293.3
	v-0.7h-0.7v0.7H99z M99,5305.4h-0.7v0.7H99V5305.4z M111.8,5305.4h0.7v-0.7h-0.7V5305.4z M111.8,5313.2H79.2v1.4h32.6
	C111.8,5314.6,111.8,5313.2,111.8,5313.2z M79.9,5313.9v-8.6h-1.4v8.6H79.9z M79.2,5306.1H92v-1.4H79.2V5306.1z M92.8,5305.4v-12.1
	h-1.4v12.1H92.8z M92,5292.6H79.2v1.4H92V5292.6z M79.9,5293.3v-8.6h-1.4v8.6H79.9z M79.2,5285.4h32.6v-1.4H79.2V5285.4z
	 M111.1,5284.7v8.6h1.4v-8.6H111.1z M111.8,5292.6H99v1.4h12.8V5292.6z M98.3,5293.3v12.1h1.4v-12.1H98.3z M99,5306.1h12.8v-1.4H99
	V5306.1z M111.1,5305.4v8.6h1.4v-8.6H111.1z M95.5,5282.9v0.7l0,0V5282.9z M104.7,5267.1h0.7l0,0H104.7z M95.5,5260.1v0.7l0,0
	V5260.1z M95.5,5252c5.3,0,9.3,1.7,12,4.4c2.7,2.7,4.1,6.4,4.1,10.7h1.4c0-4.5-1.5-8.7-4.5-11.7s-7.4-4.8-13-4.8V5252z
	 M111.5,5267.1c0,4.3-1.4,8-4.1,10.8c-2.7,2.7-6.7,4.3-11.9,4.4v1.4c5.6,0,10-1.8,12.9-4.8c3-3,4.5-7.1,4.5-11.8H111.5L111.5,5267.1
	z M95.5,5282.2c-5.3,0-9.3-1.7-12-4.4c-2.7-2.7-4.1-6.4-4.1-10.8H78c0,4.6,1.5,8.7,4.5,11.8c3,3,7.4,4.8,13,4.8V5282.2z
	 M79.4,5267.1c0-4.3,1.4-8,4.1-10.7s6.7-4.4,12-4.4v-1.4c-5.6,0-10,1.8-13,4.8s-4.5,7.1-4.5,11.7H79.4L79.4,5267.1z M95.5,5274.7
	c3.1,0,5.6-0.6,7.3-1.9c1.8-1.4,2.7-3.3,2.7-5.8H104c0,2.1-0.7,3.6-2.1,4.6c-1.4,1.1-3.5,1.7-6.4,1.7
	C95.5,5273.3,95.5,5274.7,95.5,5274.7z M105.5,5267c0-2.5-0.9-4.4-2.7-5.7c-1.7-1.3-4.3-1.9-7.3-1.9v1.4c2.9,0,5.1,0.6,6.4,1.7
	c1.4,1,2.1,2.5,2.1,4.6L105.5,5267z M95.5,5259.3c-3.1,0-5.6,0.6-7.4,1.9c-1.8,1.4-2.7,3.3-2.7,5.7h1.4c0-2,0.7-3.5,2.1-4.6
	c1.4-1,3.5-1.7,6.5-1.7L95.5,5259.3L95.5,5259.3z M85.5,5267.1c0,2.5,0.9,4.4,2.7,5.8c1.7,1.3,4.3,1.9,7.4,1.9v-1.4
	c-3,0-5.1-0.6-6.5-1.7c-1.4-1-2.1-2.5-2.1-4.6L85.5,5267.1L85.5,5267.1z M95.5,5249.6v0.7l0,0V5249.6z M104.7,5233.7h0.7l0,0H104.7z
	 M95.5,5226.8v0.7l0,0V5226.8z M95.5,5218.7c5.3,0,9.3,1.7,12,4.4c2.7,2.7,4.1,6.4,4.1,10.7h1.4c0-4.5-1.5-8.7-4.5-11.7
	s-7.4-4.8-13-4.8C95.5,5217.3,95.5,5218.7,95.5,5218.7z M111.5,5233.7c0,4.3-1.4,8-4.1,10.8c-2.7,2.7-6.7,4.3-11.9,4.3v1.4
	c5.6,0,10-1.8,12.9-4.8c3-3,4.5-7.1,4.5-11.8h-1.4V5233.7z M95.5,5248.9c-5.3,0-9.3-1.7-12-4.3c-2.7-2.7-4.1-6.4-4.1-10.8H78
	c0,4.6,1.5,8.7,4.5,11.8c3,3,7.4,4.8,13,4.8V5248.9z M79.4,5233.7c0-4.3,1.4-8,4.1-10.7s6.7-4.4,12-4.4v-1.4c-5.6,0-10,1.8-13,4.8
	s-4.5,7.1-4.5,11.7H79.4L79.4,5233.7z M95.5,5241.5c3.1,0,5.6-0.6,7.3-1.9c1.8-1.4,2.7-3.3,2.7-5.8H104c0,2.1-0.7,3.6-2.1,4.6
	c-1.4,1.1-3.5,1.7-6.4,1.7C95.5,5240,95.5,5241.5,95.5,5241.5z M105.5,5233.7c0-2.5-0.9-4.4-2.7-5.7c-1.7-1.3-4.3-1.9-7.3-1.9v1.4
	c2.9,0,5.1,0.6,6.4,1.7c1.4,1,2.1,2.5,2.1,4.6L105.5,5233.7z M95.5,5226.1c-3.1,0-5.6,0.6-7.4,1.9c-1.8,1.4-2.7,3.3-2.7,5.8h1.4
	c0-2,0.7-3.5,2.1-4.6s3.5-1.7,6.5-1.7L95.5,5226.1L95.5,5226.1z M85.5,5233.7c0,2.5,0.9,4.4,2.7,5.8c1.7,1.3,4.3,1.9,7.4,1.9v-1.4
	c-3,0-5.1-0.6-6.5-1.7c-1.4-1-2.1-2.5-2.1-4.6L85.5,5233.7L85.5,5233.7z M79.2,5188v-0.7h-0.7v0.7H79.2z M111.8,5188h0.7v-0.7h-0.7
	V5188z M111.8,5195.1l0.4,0.6l0.3-0.2v-0.4H111.8z M94.2,5207.3l-0.4-0.6l-0.3,0.2v0.4H94.2z M94.2,5207.5h-0.7v0.7h0.7V5207.5z
	 M111.8,5207.5h0.7v-0.7h-0.7V5207.5z M111.8,5216v0.7h0.7v-0.7H111.8z M79.2,5216h-0.7v0.7h0.7V5216z M79.2,5208.8l-0.4-0.6
	l-0.3,0.2v0.4H79.2z M96.7,5196.9l0.4,0.6l0.3-0.2v-0.4H96.7z M96.7,5196.6h0.7v-0.7h-0.7V5196.6z M79.2,5196.6h-0.7v0.7h0.7V5196.6
	z M79.2,5188.7h32.6v-1.4H79.2V5188.7z M111.1,5188v7.1h1.4v-7.1H111.1z M111.4,5194.5l-17.6,12.1l0.8,1.2l17.6-12.1L111.4,5194.5z
	 M93.5,5207.3v0.2h1.4v-0.2H93.5z M94.2,5208.3h17.6v-1.4H94.2V5208.3z M111.1,5207.5v8.6h1.4v-8.6H111.1z M111.8,5215.3H79.2v1.4
	h32.6C111.8,5216.7,111.8,5215.3,111.8,5215.3z M79.9,5216v-7.3h-1.4v7.3H79.9z M79.6,5209.4l17.5-12l-0.8-1.2l-17.5,12L79.6,5209.4
	z M97.5,5196.9v-0.3H96v0.3H97.5z M96.7,5195.8H79.2v1.4h17.5V5195.8z M79.9,5196.6v-8.6h-1.4v8.6H79.9z"/>
</svg>
