<?xml version="1.0" encoding="utf-8"?>
<!-- Generator: Adobe Illustrator 27.0.0, SVG Export Plug-In . SVG Version: 6.00 Build 0)  -->
<svg version="1.1" id="Layer_1" xmlns="http://www.w3.org/2000/svg" xmlns:xlink="http://www.w3.org/1999/xlink" x="0px" y="0px"
	 viewBox="0 0 1920 11352" style="enable-background:new 0 0 1920 11352;" xml:space="preserve">
<style type="text/css">
	.st0{fill:none;stroke:#FFFFFF;stroke-width:2;}
	.st1{fill:none;stroke:#F75C03;stroke-width:2;}
	.st2{fill:none;stroke:#FFFFFF;stroke-width:2;stroke-opacity:0.3;}
	.st3{fill:none;stroke:#4BC6B9;stroke-width:2;}
	.st4{fill:#FFFFFF;}
	.st5{fill:#CB769E;}
	.st6{fill:none;stroke:#4BC6B9;}
	.st7{fill:#B0DB43;}
	.st8{fill:#F75C03;}
	.st9{fill:#4BC6B9;}
</style>
<circle class="st0" cx="1659" cy="204" r="174"/>
<circle class="st0" cx="1674" cy="189" r="174"/>
<circle class="st0" cx="1689" cy="174" r="174"/>
<circle class="st0" cx="1704" cy="159" r="174"/>
<circle class="st0" cx="1719" cy="144" r="174"/>
<circle class="st0" cx="1734" cy="129" r="174"/>
<circle class="st0" cx="1749" cy="114" r="174"/>
<circle class="st0" cx="1764" cy="99" r="174"/>
<circle class="st0" cx="1779" cy="84" r="174"/>
<circle class="st1" cx="1709" cy="5077" r="174"/>
<circle class="st1" cx="1724" cy="5062" r="174"/>
<circle class="st1" cx="1739" cy="5047" r="174"/>
<circle class="st1" cx="1754" cy="5032" r="174"/>
<circle class="st1" cx="1769" cy="5017" r="174"/>
<circle class="st1" cx="1784" cy="5002" r="174"/>
<circle class="st1" cx="1799" cy="4987" r="174"/>
<circle class="st1" cx="1814" cy="4972" r="174"/>
<circle class="st1" cx="1829" cy="4957" r="174"/>
<circle class="st2" cx="1756" cy="10402" r="135"/>
<circle class="st2" cx="1767.6" cy="10390.4" r="135"/>
<circle class="st2" cx="1779.3" cy="10378.7" r="135"/>
<circle class="st2" cx="1790.9" cy="10367.1" r="135"/>
<circle class="st2" cx="1802.5" cy="10355.5" r="135"/>
<circle class="st2" cx="1814.1" cy="10343.9" r="135"/>
<circle class="st2" cx="1825.7" cy="10332.3" r="135"/>
<circle class="st2" cx="1837.4" cy="10320.6" r="135"/>
<circle class="st2" cx="1849" cy="10309" r="135"/>
<circle class="st3" cx="317" cy="1162" r="174"/>
<circle class="st3" cx="332" cy="1147" r="174"/>
<circle class="st3" cx="347" cy="1132" r="174"/>
<circle class="st3" cx="362" cy="1117" r="174"/>
<circle class="st3" cx="377" cy="1102" r="174"/>
<circle class="st3" cx="392" cy="1087" r="174"/>
<circle class="st3" cx="407" cy="1072" r="174"/>
<circle class="st3" cx="422" cy="1057" r="174"/>
<circle class="st3" cx="437" cy="1042" r="174"/>
<path class="st4" d="M303.8-14l79.4,137.4H224.4L303.8-14z"/>
<path class="st4" d="M145.4-14l79.4,137.4H66L145.4-14z"/>
<path class="st4" d="M-12.4-14L67,123.4H-91.7L-12.4-14z"/>
<path class="st4" d="M462.2-14l79.4,137.4H382.8L462.2-14z"/>
<path class="st4" d="M383,123.6L462.3,261H303.6L383,123.6z"/>
<path class="st4" d="M224.6,123.6L303.9,261H145.2L224.6,123.6z"/>
<path class="st4" d="M66.8,123.6L146.2,261H-12.5L66.8,123.6z"/>
<path class="st4" d="M541.4,123.6L620.7,261H462L541.4,123.6z"/>
<path class="st5" d="M358.8,4404l99.6,172.5H259.2L358.8,4404z"/>
<path class="st5" d="M160,4404l99.6,172.5H60.4L160,4404z"/>
<path class="st5" d="M-38,4404l99.6,172.5h-199.2L-38,4404z"/>
<path class="st5" d="M557.6,4404l99.6,172.5H458L557.6,4404z"/>
<path class="st5" d="M458.2,4576.7l99.6,172.5H358.6L458.2,4576.7z"/>
<path class="st5" d="M259.4,4576.7l99.6,172.5H159.8L259.4,4576.7z"/>
<path class="st5" d="M61.4,4576.7l99.6,172.5H-38.2L61.4,4576.7z"/>
<path class="st5" d="M657,4576.7l99.6,172.5H557.4L657,4576.7z"/>
<path class="st6" d="M1243.1,10777l98.7-171l98.7,171H1243.1z"/>
<path class="st6" d="M1044.3,10777l98.7-171l98.7,171H1044.3z"/>
<path class="st6" d="M846.3,10777l98.7-171l98.7,171H846.3z"/>
<path class="st6" d="M1441.9,10777l98.7-171l98.7,171H1441.9z"/>
<path class="st6" d="M1342.5,10949.7l98.7-171l98.7,171H1342.5z"/>
<path class="st6" d="M1143.7,10949.7l98.7-171l98.7,171H1143.7z"/>
<path class="st6" d="M945.7,10949.7l98.7-171l98.7,171H945.7z"/>
<path class="st6" d="M1541.3,10949.7l98.7-171l98.7,171H1541.3z"/>
<path class="st7" d="M1441,1215c0,126.5-102.5,229-229,229c126.5,0,229,102.5,229,229c0-126.5,102.5-229,229-229
	C1543.5,1444,1441,1341.5,1441,1215z"/>
<path class="st8" d="M117,2069c0,48.1-39,87-87,87c48,0,87,38.9,87,87c0-48.1,39-87,87-87C156,2156,117,2117.1,117,2069z"/>
<path class="st7" d="M114.5,5323c0,38.4-31.1,69.5-69.5,69.5c38.4,0,69.5,31.1,69.5,69.5c0-38.4,31.1-69.5,69.5-69.5
	C145.6,5392.5,114.5,5361.4,114.5,5323z"/>
<path class="st8" d="M61.5,6413c0,93.6-75.9,169.5-169.5,169.5c93.6,0,169.5,75.9,169.5,169.5c0-93.6,75.9-169.5,169.5-169.5
	C137.4,6582.5,61.5,6506.6,61.5,6413z"/>
<path class="st9" d="M1821,6727c0,149.7-121.3,271-271,271c149.7,0,271,121.3,271,271c0-149.7,121.3-271,271-271
	C1942.3,6998,1821,6876.7,1821,6727z"/>
<path class="st8" d="M153,10209c0,119.8-97.2,217-217,217c119.8,0,217,97.2,217,217c0-119.8,97.2-217,217-217
	C250.2,10426,153,10328.8,153,10209z"/>
<path class="st5" d="M1774,2599c0,71.8-58.2,130-130,130c71.8,0,130,58.2,130,130c0-71.8,58.2-130,130-130
	C1832.2,2729,1774,2670.8,1774,2599z"/>
<path class="st5" d="M1350.2,1008.2c-51.7,51.7-135.5,51.7-187.2,0l11.7-11.7c45.2,45.2,118.6,45.2,163.8,0
	c45.2-45.2,45.2-118.5,0-163.8l11.7-11.7C1401.8,872.7,1401.8,956.5,1350.2,1008.2z"/>
<path class="st9" d="M79.2,3276.8c-36.5-63.3-14.9-144.2,48.4-180.8l8.3,14.3c-55.4,32-74.4,102.8-42.4,158.2
	c32,55.4,102.8,74.4,158.2,42.4l8.3,14.3C196.7,3361.8,115.7,3340.1,79.2,3276.8z"/>
<path class="st5" d="M62.8,8656.8h-1v1h1V8656.8z M62.8,8642l-0.4-0.9l-0.6,0.2v0.7H62.8z M89.1,8631.2l0.4,0.9l0.6-0.2v-0.7H89.1z
	 M89.1,8630.7h1v-0.7l-0.6-0.2L89.1,8630.7z M62.8,8619.9h-1v0.7l0.6,0.3L62.8,8619.9z M62.8,8605.1v-1h-1v1H62.8z M108,8605.1h1v-1
	h-1V8605.1z M108,8616.7v1h1v-1H108z M81.4,8616.7v-1h-1v1H81.4z M81.4,8617.1h-1v0.7l0.6,0.2L81.4,8617.1z M107.7,8627.4h1v-0.7
	l-0.6-0.2L107.7,8627.4z M107.7,8634.5l0.4,0.9l0.6-0.2v-0.7H107.7z M81.2,8644.8l-0.4-0.9l-0.6,0.2v0.7H81.2z M81.2,8645.2h-1v1h1
	V8645.2z M108,8645.2h1v-1h-1V8645.2z M108,8656.8v1h1v-1H108z M63.8,8656.8V8642h-2v14.8H63.8z M63.1,8642.9l26.3-10.8l-0.8-1.9
	L62.4,8641L63.1,8642.9z M90.1,8631.2v-0.6h-2v0.6H90.1z M89.4,8629.7L63.1,8619l-0.8,1.8l26.3,10.8L89.4,8629.7z M63.8,8619.9
	v-14.8h-2v14.8H63.8z M62.8,8606.1H108v-2H62.8V8606.1z M107,8605.1v11.6h2v-11.6H107z M108,8615.7H81.4v2H108V8615.7z M80.4,8616.7
	v0.4h2v-0.4H80.4z M81,8618l26.3,10.3l0.7-1.9l-26.3-10.3L81,8618z M106.7,8627.4v7.1h2v-7.1H106.7z M107.3,8633.6l-26.5,10.2
	l0.7,1.9l26.5-10.2L107.3,8633.6z M80.2,8644.8v0.4h2v-0.4H80.2z M81.2,8646.2H108v-2H81.2V8646.2z M107,8645.2v11.6h2v-11.6H107z
	 M108,8655.8H62.8v2H108V8655.8z M62.8,8604.2h-1v1.7l1.5-0.8L62.8,8604.2z M62.8,8590.9l-0.4-0.9l-0.6,0.3v0.6H62.8z M81.3,8581.9
	l0.4,0.9l0.6-0.3v-0.6H81.3z M81.3,8581.5h1v-0.6l-0.6-0.3L81.3,8581.5z M62.8,8572.4h-1v0.6l0.6,0.3L62.8,8572.4z M62.8,8559.1
	l0.5-0.9l-1.5-0.8v1.7H62.8z M93.5,8575.7l-0.5,0.9l0.2,0.1h0.3V8575.7z M108,8575.7h1v-1h-1V8575.7z M108,8587.5v1h1v-1H108z
	 M93.5,8587.5v-1h-0.3l-0.2,0.1L93.5,8587.5z M63.8,8604.2v-13.3h-2v13.3H63.8z M63.2,8591.8l18.5-9l-0.9-1.8l-18.5,9L63.2,8591.8z
	 M82.3,8581.9v-0.4h-2v0.4H82.3z M81.7,8580.6l-18.5-9.1l-0.9,1.8l18.5,9.1L81.7,8580.6z M63.8,8572.4v-13.3h-2v13.3H63.8z
	 M62.3,8560l30.7,16.6l1-1.8l-30.8-16.6L62.3,8560z M93.5,8576.7H108v-2H93.5V8576.7z M107,8575.7v11.8h2v-11.8H107z M108,8586.5
	H93.5v2H108V8586.5z M93,8586.7l-30.7,16.6l1,1.8l30.7-16.6L93,8586.7z M62.8,8508.5v-1h-1v1H62.8z M108,8508.5h1v-1h-1V8508.5z
	 M108,8518.5l0.6,0.8l0.4-0.3v-0.5H108z M83.6,8535.3l-0.6-0.8l-0.4,0.3v0.5H83.6z M83.6,8535.6h-1v1h1V8535.6z M108,8535.6h1v-1h-1
	V8535.6z M108,8547.5v1h1v-1H108z M62.8,8547.5h-1v1h1V8547.5z M62.8,8537.3l-0.6-0.8l-0.4,0.3v0.5H62.8z M87.1,8520.8l0.6,0.8
	l0.4-0.3v-0.5H87.1z M87.1,8520.4h1v-1h-1V8520.4z M62.8,8520.4h-1v1h1V8520.4z M62.8,8509.5H108v-2H62.8V8509.5z M107,8508.5v9.9h2
	v-9.9H107z M107.4,8517.6L83,8534.4l1.1,1.6l24.4-16.8L107.4,8517.6z M82.6,8535.3v0.3h2v-0.3H82.6z M83.6,8536.6H108v-2H83.6
	V8536.6z M107,8535.6v11.9h2v-11.9H107z M108,8546.5H62.8v2H108V8546.5z M63.8,8547.5v-10.1h-2v10.1H63.8z M63.3,8538.2l24.3-16.6
	l-1.1-1.6l-24.3,16.6L63.3,8538.2z M88.1,8520.8v-0.4h-2v0.4H88.1z M87.1,8519.4H62.8v2h24.3V8519.4z M63.8,8520.4v-11.9h-2v11.9
	H63.8z M108,8494.4h1v-0.7l-0.7-0.2L108,8494.4z M108,8507.3l-0.3,0.9l1.3,0.4v-1.4H108z M62.8,8492.2h-1v0.7l0.7,0.2L62.8,8492.2z
	 M62.8,8476l-0.3-1l-0.7,0.2v0.7H62.8z M108,8461h1v-1.4l-1.3,0.4L108,8461z M108,8473.8l0.3,1l0.7-0.2v-0.7H108z M99.1,8476.6
	l-0.3-1l-0.7,0.2v0.7H99.1z M99.1,8491.7h-1v0.7l0.7,0.2L99.1,8491.7z M90.1,8489l-0.3,1l1.3,0.4v-1.3H90.1z M90.1,8479.3h1v-1.4
	l-1.3,0.4L90.1,8479.3z M74.9,8484l-0.3-1l-0.7,0.2v0.7H74.9z M74.9,8484.3h-1v0.7l0.7,0.2L74.9,8484.3z M107,8494.4v12.9h2v-12.9
	H107z M108.3,8506.3l-45.3-15.1l-0.6,1.9l45.2,15.1L108.3,8506.3z M63.8,8492.2V8476h-2v16.2H63.8z M63.1,8477l45.3-15l-0.6-1.9
	l-45.2,15L63.1,8477z M107,8461v12.8h2V8461H107z M107.7,8472.9l-8.9,2.7l0.6,1.9l8.9-2.7L107.7,8472.9z M98.1,8476.6v15.2h2v-15.2
	H98.1z M98.8,8492.7l8.9,2.7l0.6-1.9l-8.9-2.7L98.8,8492.7z M91.1,8489v-9.7h-2v9.7H91.1z M89.8,8478.3l-15.2,4.7l0.6,1.9l15.2-4.7
	L89.8,8478.3z M73.9,8484v0.4h2v-0.4H73.9z M74.6,8485.3l15.2,4.6l0.6-1.9l-15.2-4.6L74.6,8485.3z M62.8,8459.7h-1v1h1V8459.7z
	 M62.8,8444.9l-0.4-0.9l-0.6,0.2v0.7H62.8z M89.1,8434.2l0.4,0.9l0.6-0.3v-0.7H89.1z M89.1,8433.6h1v-0.7l-0.6-0.3L89.1,8433.6z
	 M62.8,8422.8h-1v0.7l0.6,0.3L62.8,8422.8z M62.8,8408l0-1h-1l0,1H62.8z M108,8408h1v-1h-1V8408z M108,8419.7v1h1v-1H108z
	 M81.4,8419.7v-1h-1v1H81.4z M81.4,8420h-1v0.7l0.6,0.2L81.4,8420z M107.7,8430.3h1v-0.7l-0.6-0.2L107.7,8430.3z M107.7,8437.5
	l0.4,0.9l0.6-0.2v-0.7H107.7z M81.2,8447.7l-0.4-0.9l-0.6,0.2v0.7H81.2z M81.2,8448.1h-1v1h1V8448.1z M108,8448.1h1v-1h-1V8448.1z
	 M108,8459.7v1h1v-1H108z M63.8,8459.7v-14.8h-2v14.8H63.8z M63.1,8445.8l26.3-10.8l-0.8-1.8L62.4,8444L63.1,8445.8z M90.1,8434.2
	v-0.6h-2v0.6H90.1z M89.4,8432.7l-26.3-10.8l-0.8,1.9l26.3,10.8L89.4,8432.7z M63.8,8422.8V8408h-2v14.8H63.8z M62.8,8409H108v-2
	H62.8L62.8,8409z M107,8408v11.6h2V8408H107z M108,8418.7H81.4v2H108V8418.7z M80.4,8419.7v0.4h2v-0.4H80.4z M81,8421l26.3,10.3
	l0.7-1.9l-26.3-10.3L81,8421z M106.7,8430.3v7.1h2v-7.1H106.7z M107.3,8436.5l-26.5,10.2l0.7,1.9l26.5-10.2L107.3,8436.5z
	 M80.2,8447.7v0.4h2v-0.4H80.2z M81.2,8449.1H108v-2H81.2V8449.1z M107,8448.1v11.6h2v-11.6H107z M108,8458.7H62.8v2H108V8458.7z
	 M108,8405.1v1h1v-1H108z M62.8,8405.1h-1v1h1V8405.1z M62.8,8372.8v-1h-1v1H62.8z M72.4,8372.8h1v-1h-1V8372.8z M72.4,8393.2h-1v1
	h1V8393.2z M80.6,8393.2v1h1v-1H80.6z M80.6,8374.5v-1h-1v1H80.6z M90.2,8374.5h1v-1h-1V8374.5z M90.2,8393.2h-1v1h1V8393.2z
	 M98.4,8393.2v1h1v-1H98.4z M98.4,8372.9v-1h-1v1H98.4z M108,8372.9h1v-1h-1V8372.9z M108,8404.1H62.8v2H108V8404.1z M63.8,8405.1
	v-32.3h-2v32.3H63.8z M62.8,8373.8h9.6v-2h-9.6V8373.8z M71.4,8372.8v20.4h2v-20.4H71.4z M72.4,8394.2h8.2v-2h-8.2V8394.2z
	 M81.6,8393.2v-18.8h-2v18.8H81.6z M80.6,8375.5h9.6v-2h-9.6V8375.5z M89.2,8374.5v18.8h2v-18.8H89.2z M90.2,8394.2h8.2v-2h-8.2
	V8394.2z M99.4,8393.2v-20.4h-2v20.4H99.4z M98.4,8373.9h9.6v-2h-9.6V8373.9z M107,8372.9v32.2h2v-32.2H107z M62.8,8347.1v-1h-1v1
	H62.8z M108,8347.1h1v-1h-1V8347.1z M108,8359v1h1v-1H108z M62.8,8359h-1v1h1V8359z M62.8,8348.1H108v-2H62.8V8348.1z M107,8347.1
	v11.9h2v-11.9H107z M108,8358H62.8v2H108V8358z M63.8,8359v-11.9h-2v11.9H63.8z M76.8,8319.8l0.1,1l0.9-0.1v-0.9H76.8z M71.9,8326.2
	l1,0l0,0l0,0L71.9,8326.2z M75.6,8331.9l0-1h0h0L75.6,8331.9z M80.1,8325.7l-1-0.2l0,0l0,0L80.1,8325.7z M80.9,8321.9l1,0.2l0,0l0,0
	L80.9,8321.9z M94.7,8307.8l0-1l0,0l0,0L94.7,8307.8z M108.6,8326.1h1v0L108.6,8326.1z M92.3,8345.5h-1v1l1,0L92.3,8345.5z
	 M92.3,8334.1l0-1l-1,0v1H92.3z M94.7,8320l0-1h0h0L94.7,8320z M90.1,8326.9l1,0.2h0L90.1,8326.9z M89.1,8331.5l1,0.2h0L89.1,8331.5
	z M76.4,8344.3l0-1l0,0L76.4,8344.3z M76.8,8308.4h1v-1l-1,0L76.8,8308.4z M76.7,8318.8c-1.7,0.1-3.2,0.8-4.3,2.1
	c-1,1.3-1.5,3-1.5,5.2l2,0c0-1.9,0.4-3.1,1-3.9c0.6-0.8,1.5-1.2,2.9-1.4L76.7,8318.8z M70.9,8326.1c0,2.1,0.4,3.7,1.2,4.9
	c0.8,1.2,2.1,1.8,3.4,1.9l0-2c-0.7,0-1.3-0.3-1.8-1c-0.5-0.7-0.9-1.9-0.8-3.8L70.9,8326.1z M75.5,8332.9c1.6,0.1,2.8-0.7,3.7-1.9
	c0.8-1.2,1.4-3,1.9-5.1l-2-0.4c-0.4,2.1-0.9,3.5-1.5,4.4c-0.6,0.8-1.2,1.1-1.9,1.1L75.5,8332.9z M81,8325.9l0.9-3.8l-1.9-0.5
	l-0.9,3.8L81,8325.9z M81.9,8322.1c1-4.8,2.6-8.1,4.8-10.2c2.1-2.1,4.8-3.1,8-3.2l0-2c-3.7,0-6.9,1.2-9.4,3.7
	c-2.5,2.5-4.3,6.2-5.3,11.2L81.9,8322.1z M94.7,8308.8c4.2,0,7.3,1.6,9.5,4.5c2.2,2.9,3.4,7.2,3.4,12.8l2,0c0-5.8-1.3-10.6-3.8-14
	c-2.6-3.4-6.3-5.3-11-5.3L94.7,8308.8z M107.6,8326.1c0,5.7-1.3,10.3-3.7,13.4c-2.4,3.1-6.2,4.9-11.5,5l0,2c5.8,0,10.2-2.1,13.1-5.7
	c2.9-3.6,4.2-8.7,4.2-14.7L107.6,8326.1z M93.3,8345.5v-11.4h-2v11.4H93.3z M92.4,8335.1c2.3-0.1,4.2-1,5.5-2.6
	c1.3-1.6,1.9-3.7,1.9-6.2h-2c0,2.2-0.5,3.9-1.4,5c-0.9,1.1-2.2,1.8-4.1,1.8L92.4,8335.1z M99.8,8326.3c0-2.2-0.4-3.9-1.3-5.2
	c-0.9-1.3-2.2-2.1-3.8-2.1l0,2c0.9,0,1.6,0.4,2.1,1.2c0.6,0.8,1,2.2,1,4.1H99.8z M94.7,8319c-0.7,0-1.4,0.2-2,0.5
	c-0.6,0.3-1.1,0.9-1.5,1.5c-0.8,1.3-1.5,3.2-2,5.7l2,0.4c0.5-2.5,1.1-4.1,1.7-5c0.3-0.5,0.6-0.7,0.9-0.9c0.3-0.2,0.6-0.2,1-0.3
	L94.7,8319z M89.1,8326.7l-1,4.6l2,0.4l1-4.6L89.1,8326.7z M88.1,8331.2c-0.9,3.9-2.2,6.9-4.1,8.9c-1.9,2-4.3,3.1-7.6,3.1l0,2
	c3.8,0,6.8-1.3,9-3.7c2.2-2.4,3.7-5.8,4.6-9.9L88.1,8331.2z M76.4,8343.3c-4,0-7.2-1.7-9.6-4.7c-2.3-3-3.7-7.3-3.7-12.4h-2
	c0,5.5,1.5,10.3,4.2,13.7c2.7,3.4,6.6,5.5,11.2,5.4L76.4,8343.3z M63.1,8326.2c0-5.2,1.4-9.4,3.8-12.3c2.4-2.8,5.7-4.4,9.8-4.5l0-2
	c-4.7,0-8.6,1.9-11.4,5.2c-2.7,3.3-4.3,8-4.3,13.6H63.1z M75.8,8308.4v11.4h2v-11.4H75.8z M76.8,8271l0.1,1l0.9-0.1v-0.9H76.8z
	 M71.9,8277.3l1,0l0,0l0,0L71.9,8277.3z M75.6,8283l0-1h0h0L75.6,8283z M80.1,8276.8l-1-0.2l0,0l0,0L80.1,8276.8z M80.9,8273l1,0.2
	l0,0l0,0L80.9,8273z M94.7,8258.9l0-1l0,0l0,0L94.7,8258.9z M108.6,8277.2h1v0L108.6,8277.2z M92.3,8296.6h-1v1l1,0L92.3,8296.6z
	 M92.3,8285.2l0-1l-1,0v1H92.3z M94.7,8271.1l0-1h0h0L94.7,8271.1z M90.1,8278l1,0.2h0L90.1,8278z M89.1,8282.6l1,0.2h0L89.1,8282.6
	z M76.4,8295.4l0-1l0,0L76.4,8295.4z M76.8,8259.5h1v-1l-1,0L76.8,8259.5z M76.7,8270c-1.7,0.1-3.2,0.8-4.3,2.1
	c-1,1.3-1.5,3-1.5,5.2l2,0c0-1.9,0.4-3.2,1-4c0.6-0.8,1.5-1.2,2.9-1.4L76.7,8270z M70.9,8277.3c0,2.1,0.4,3.7,1.2,4.9
	c0.8,1.2,2.1,1.8,3.4,1.9l0-2c-0.7,0-1.3-0.3-1.8-1c-0.5-0.7-0.9-1.9-0.8-3.8L70.9,8277.3z M75.5,8284c1.6,0.1,2.8-0.7,3.7-1.9
	c0.8-1.2,1.4-3,1.9-5.1l-2-0.4c-0.4,2.1-0.9,3.5-1.5,4.4c-0.6,0.8-1.2,1.1-1.9,1.1L75.5,8284z M81,8277l0.9-3.8l-1.9-0.5l-0.9,3.8
	L81,8277z M81.9,8273.3c1-4.8,2.6-8.1,4.8-10.2c2.1-2.1,4.8-3.1,8-3.2l0-2c-3.7,0-6.9,1.2-9.4,3.7c-2.5,2.5-4.3,6.2-5.3,11.2
	L81.9,8273.3z M94.7,8259.9c4.2,0,7.3,1.6,9.5,4.5c2.2,2.9,3.4,7.2,3.4,12.8l2,0c0-5.8-1.3-10.6-3.8-14c-2.6-3.4-6.3-5.3-11-5.3
	L94.7,8259.9z M107.6,8277.2c0,5.7-1.3,10.3-3.7,13.4c-2.4,3.1-6.2,4.9-11.5,5l0,2c5.8-0.1,10.2-2.1,13.1-5.7
	c2.9-3.6,4.2-8.7,4.2-14.6L107.6,8277.2z M93.3,8296.6v-11.4h-2v11.4H93.3z M92.4,8286.2c2.3-0.1,4.2-1,5.5-2.6
	c1.3-1.6,1.9-3.7,1.9-6.2h-2c0,2.2-0.5,3.9-1.4,5c-0.9,1.1-2.2,1.8-4.1,1.8L92.4,8286.2z M99.8,8277.4c0-2.2-0.4-4-1.3-5.2
	c-0.9-1.3-2.2-2.1-3.8-2.1l0,2c0.9,0,1.6,0.4,2.1,1.2c0.6,0.8,1,2.2,1,4.1H99.8z M94.7,8270.1c-0.7,0-1.4,0.2-2,0.5
	c-0.6,0.4-1.1,0.9-1.5,1.5c-0.8,1.3-1.5,3.1-2,5.7l2,0.4c0.5-2.5,1.1-4.1,1.7-5c0.3-0.5,0.6-0.7,0.9-0.9c0.3-0.2,0.6-0.2,1-0.3
	L94.7,8270.1z M89.1,8277.8l-1,4.6l2,0.4l1-4.6L89.1,8277.8z M88.1,8282.4c-0.9,3.9-2.2,6.9-4.1,8.9c-1.9,2-4.3,3.1-7.6,3.1l0,2
	c3.8,0,6.8-1.3,9-3.7c2.2-2.4,3.7-5.8,4.6-9.9L88.1,8282.4z M76.4,8294.4c-4,0-7.2-1.7-9.6-4.7c-2.3-3-3.7-7.3-3.7-12.5h-2
	c0,5.5,1.5,10.3,4.2,13.7c2.7,3.4,6.6,5.5,11.2,5.4L76.4,8294.4z M63.1,8277.3c0-5.2,1.4-9.4,3.8-12.3c2.4-2.8,5.7-4.4,9.8-4.5l0-2
	c-4.7,0-8.6,1.9-11.4,5.2c-2.7,3.3-4.3,8-4.3,13.6H63.1z M75.8,8259.5v11.4h2v-11.4H75.8z M108,8247.8h1v-0.7l-0.7-0.2L108,8247.8z
	 M108,8260.6l-0.3,1l1.3,0.4v-1.4H108z M62.8,8245.6h-1v0.7l0.7,0.2L62.8,8245.6z M62.8,8229.4l-0.3-0.9l-0.7,0.2v0.7H62.8z
	 M108,8214.4h1v-1.4l-1.3,0.4L108,8214.4z M108,8227.2l0.3,0.9l0.7-0.2v-0.7H108z M99.1,8229.9l-0.3-1l-0.7,0.2v0.7H99.1z
	 M99.1,8245.1h-1v0.7l0.7,0.2L99.1,8245.1z M90.1,8242.3l-0.3,1l1.3,0.4v-1.4H90.1z M90.1,8232.7h1v-1.4l-1.3,0.4L90.1,8232.7z
	 M74.9,8237.3l-0.3-0.9l-0.7,0.2v0.7H74.9z M74.9,8237.7h-1v0.7l0.7,0.2L74.9,8237.7z M107,8247.8v12.9h2v-12.9H107z M108.3,8259.7
	l-45.3-15.1l-0.6,1.9l45.2,15.1L108.3,8259.7z M63.8,8245.6v-16.2h-2v16.2H63.8z M63.1,8230.3l45.3-15l-0.6-1.9l-45.2,15
	L63.1,8230.3z M107,8214.4v12.8h2v-12.8H107z M107.7,8226.2l-8.9,2.7l0.6,1.9l8.9-2.7L107.7,8226.2z M98.1,8229.9v15.1h2v-15.1H98.1
	z M98.8,8246l8.9,2.7l0.6-1.9l-8.9-2.7L98.8,8246z M91.1,8242.3v-9.6h-2v9.6H91.1z M89.8,8231.7l-15.2,4.7l0.6,1.9l15.2-4.7
	L89.8,8231.7z M73.9,8237.3v0.4h2v-0.4H73.9z M74.6,8238.6l15.2,4.6l0.6-1.9l-15.2-4.6L74.6,8238.6z M62.8,8174.1v-1h-1v1H62.8z
	 M108,8174.1h1v-1h-1V8174.1z M108,8184.1l0.6,0.8l0.4-0.3v-0.5H108z M83.6,8200.9l-0.6-0.8l-0.4,0.3v0.5H83.6z M83.6,8201.2h-1v1h1
	V8201.2z M108,8201.2h1v-1h-1V8201.2z M108,8213.1v1h1v-1H108z M62.8,8213.1h-1v1h1V8213.1z M62.8,8203l-0.6-0.8l-0.4,0.3v0.5H62.8z
	 M87.1,8186.4l0.6,0.8l0.4-0.3v-0.5H87.1z M87.1,8186h1v-1h-1V8186z M62.8,8186h-1v1h1V8186z M62.8,8175.1H108v-2H62.8V8175.1z
	 M107,8174.1v9.9h2v-9.9H107z M107.4,8183.2L83,8200.1l1.1,1.7l24.4-16.8L107.4,8183.2z M82.6,8200.9v0.3h2v-0.3H82.6z M83.6,8202.2
	H108v-2H83.6V8202.2z M107,8201.2v11.9h2v-11.9H107z M108,8212.1H62.8v2H108V8212.1z M63.8,8213.1V8203h-2v10.1H63.8z M63.3,8203.8
	l24.3-16.6l-1.1-1.6l-24.3,16.6L63.3,8203.8z M88.1,8186.4v-0.4h-2v0.4H88.1z M87.1,8185H62.8v2h24.3V8185z M63.8,8186v-11.9h-2
	v11.9H63.8z M77.6,8141.8l0.2,1l0.8-0.2v-0.8H77.6z M98.2,8149.3h1l0,0L98.2,8149.3z M91.4,8140.7l0-1l-1,0v1H91.4z M91.4,8149.1v1
	h1v-1H91.4z M82.9,8149.1h-1v1h1V8149.1z M82.9,8129.2v-1h-1v1H82.9z M85.4,8171.5l0,1h0L85.4,8171.5z M77.6,8129.7h1v-1.1l-1.1,0.1
	L77.6,8129.7z M77.4,8140.8c-1.8,0.5-3.3,1.5-4.4,3c-1,1.5-1.5,3.4-1.5,5.5h2c0-1.8,0.4-3.3,1.2-4.4c0.7-1.1,1.8-1.8,3.2-2.2
	L77.4,8140.8z M71.5,8149.3c0,3.4,1.3,6.2,3.8,8.2c2.4,1.9,5.9,2.8,10.1,2.8v-2c-3.9,0-6.9-0.9-8.8-2.4c-1.9-1.5-3-3.7-3-6.6H71.5z
	 M85.3,8160.3c4.2,0,7.7-0.9,10.1-2.7c2.5-1.9,3.8-4.7,3.8-8.2l-2,0c0,3-1.1,5.1-3,6.6c-2,1.5-5,2.3-8.9,2.3V8160.3z M99.2,8149.3
	c0-3-0.7-5.4-2.1-7c-1.4-1.7-3.4-2.5-5.8-2.6l0,2c1.8,0,3.3,0.7,4.2,1.9c1,1.2,1.6,3.1,1.7,5.8L99.2,8149.3z M90.4,8140.7v8.4h2
	v-8.4H90.4z M91.4,8148.1h-8.5v2h8.5V8148.1z M83.9,8149.1v-19.9h-2v19.9H83.9z M82.9,8130.2h6.2v-2h-6.2V8130.2z M89.1,8130.2
	c5.9,0,10.5,2,13.7,5.4c3.1,3.4,4.9,8.2,4.9,13.9h2c0-6.1-1.9-11.4-5.4-15.2c-3.6-3.8-8.7-6-15.1-6V8130.2z M107.6,8149.5
	c0,6.3-2.1,11.6-5.9,15.2c-3.8,3.7-9.3,5.8-16.3,5.8l0,2c7.4,0,13.4-2.3,17.7-6.4c4.2-4.1,6.5-9.9,6.5-16.7H107.6z M85.4,8170.5
	c-7.2,0-12.8-2.4-16.5-6.1c-3.8-3.8-5.8-9-5.8-14.9h-2c0,6.3,2.2,12.1,6.4,16.3c4.2,4.2,10.3,6.7,17.9,6.7L85.4,8170.5z
	 M63.1,8149.5c0-10.2,6.2-17.9,14.6-18.8l-0.2-2c-9.7,1.1-16.4,9.8-16.4,20.8H63.1z M76.6,8129.7v12.1h2v-12.1H76.6z M108,8115.7v1
	h1v-1H108z M62.8,8115.7h-1v1h1V8115.7z M62.8,8103.9v-1h-1v1H62.8z M80.6,8103.9v1h1v-1H80.6z M80.6,8087.2h1v-1h-1V8087.2z
	 M62.8,8087.2h-1v1h1V8087.2z M62.8,8075.2v-1h-1v1H62.8z M108,8075.2h1v-1h-1V8075.2z M108,8087.2v1h1v-1H108z M90.2,8087.2v-1h-1
	v1H90.2z M90.2,8103.9h-1v1h1V8103.9z M108,8103.9h1v-1h-1V8103.9z M108,8114.7H62.8v2H108V8114.7z M63.8,8115.7v-11.9h-2v11.9H63.8
	z M62.8,8104.9h17.8v-2H62.8V8104.9z M81.6,8103.9v-16.7h-2v16.7H81.6z M80.6,8086.2H62.8v2h17.8V8086.2z M63.8,8087.2v-11.9h-2
	v11.9H63.8z M62.8,8076.2H108v-2H62.8V8076.2z M107,8075.2v11.9h2v-11.9H107z M108,8086.2H90.2v2H108V8086.2z M89.2,8087.2v16.7h2
	v-16.7H89.2z M90.2,8104.9H108v-2H90.2V8104.9z M107,8103.9v11.9h2v-11.9H107z M85.4,8072.7l0,1h0L85.4,8072.7z M98.2,8050.8h1l0,0
	L98.2,8050.8z M85.4,8041.1l0,1l0,0L85.4,8041.1z M85.4,8029.9c7.3,0,12.9,2.3,16.6,6.1c3.7,3.7,5.7,8.9,5.7,14.8h2
	c0-6.3-2.1-12.1-6.3-16.2c-4.1-4.2-10.2-6.6-18-6.6V8029.9z M107.6,8050.8c0,6-2,11.1-5.7,14.9c-3.7,3.7-9.3,6-16.5,6.1l0,2
	c7.7,0,13.8-2.5,17.9-6.6c4.2-4.1,6.3-9.9,6.3-16.3H107.6z M85.4,8071.7c-7.3,0-12.9-2.3-16.6-6.1c-3.7-3.7-5.7-8.9-5.7-14.9h-2
	c0,6.4,2.1,12.1,6.3,16.3c4.1,4.2,10.2,6.6,18,6.6L85.4,8071.7z M63.1,8050.8c0-5.9,2-11.1,5.7-14.8c3.7-3.7,9.3-6.1,16.6-6.1v-2
	c-7.8,0-13.8,2.5-18,6.6c-4.1,4.2-6.3,9.9-6.3,16.2H63.1z M85.4,8061.4c4.3,0,7.7-0.9,10.1-2.7c2.5-1.9,3.7-4.6,3.7-8l-2,0
	c0,2.9-1,5-2.9,6.4c-1.9,1.5-4.9,2.3-8.9,2.3V8061.4z M99.2,8050.7c0-3.4-1.3-6.1-3.7-7.9c-2.4-1.8-5.9-2.7-10.1-2.7l0,2
	c4,0,7,0.8,8.9,2.3c1.9,1.4,2.9,3.5,2.9,6.4L99.2,8050.7z M85.4,8040.1c-4.3,0-7.8,0.9-10.2,2.7c-2.5,1.9-3.7,4.6-3.7,7.9h2
	c0-2.8,1-4.9,2.9-6.4c1.9-1.4,4.9-2.3,9-2.3L85.4,8040.1z M71.5,8050.8c0,3.4,1.2,6.1,3.7,8c2.4,1.8,5.9,2.7,10.2,2.7v-2
	c-4.1,0-7-0.8-9-2.3c-1.9-1.4-2.9-3.5-2.9-6.4H71.5z M85.4,8026.6l0,1h0L85.4,8026.6z M98.2,8004.6h1l0,0L98.2,8004.6z M85.4,7995
	l0,1h0L85.4,7995z M85.4,7983.8c7.3,0,12.9,2.3,16.6,6.1c3.7,3.7,5.7,8.9,5.7,14.8h2c0-6.3-2.1-12.1-6.3-16.2
	c-4.1-4.2-10.2-6.7-18-6.7V7983.8z M107.6,8004.6c0,5.9-2,11.1-5.7,14.9c-3.7,3.7-9.3,6-16.5,6l0,2c7.7,0,13.8-2.5,17.9-6.6
	c4.2-4.2,6.3-9.9,6.3-16.3H107.6z M85.4,8025.6c-7.3,0-12.9-2.3-16.6-6c-3.7-3.7-5.7-8.9-5.7-14.9h-2c0,6.4,2.1,12.1,6.3,16.3
	c4.1,4.2,10.2,6.6,18,6.6L85.4,8025.6z M63.1,8004.6c0-5.9,2-11.1,5.7-14.8c3.7-3.7,9.3-6.1,16.6-6.1v-2c-7.8,0-13.8,2.5-18,6.7
	c-4.1,4.2-6.3,9.9-6.3,16.2H63.1z M85.4,8015.3c4.3,0,7.7-0.9,10.1-2.7c2.5-1.9,3.7-4.6,3.7-8l-2,0c0,2.9-1,5-2.9,6.4
	c-1.9,1.5-4.9,2.3-8.9,2.3V8015.3z M99.2,8004.6c0-3.4-1.3-6.1-3.7-7.9c-2.4-1.8-5.9-2.7-10.1-2.7l0,2c4,0,7,0.8,8.9,2.3
	c1.9,1.4,2.9,3.5,2.9,6.4L99.2,8004.6z M85.4,7994c-4.3,0-7.8,0.9-10.2,2.7c-2.5,1.9-3.7,4.6-3.7,8h2c0-2.8,1-4.9,2.9-6.4
	c1.9-1.5,4.9-2.3,9-2.3L85.4,7994z M71.5,8004.6c0,3.4,1.2,6.1,3.7,8c2.4,1.8,5.9,2.7,10.2,2.7v-2c-4.1,0-7-0.8-9-2.3
	c-1.9-1.4-2.9-3.5-2.9-6.4H71.5z M62.8,7941.2v-1h-1v1H62.8z M108,7941.2h1v-1h-1V7941.2z M108,7951.1l0.6,0.8l0.4-0.3v-0.5H108z
	 M83.6,7968l-0.6-0.8l-0.4,0.3v0.5H83.6z M83.6,7968.3h-1v1h1V7968.3z M108,7968.3h1v-1h-1V7968.3z M108,7980.1v1h1v-1H108z
	 M62.8,7980.1h-1v1h1V7980.1z M62.8,7970l-0.6-0.8l-0.4,0.3v0.5H62.8z M87.1,7953.5l0.6,0.8l0.4-0.3v-0.5H87.1z M87.1,7953.1h1v-1
	h-1V7953.1z M62.8,7953.1h-1v1h1V7953.1z M62.8,7942.2H108v-2H62.8V7942.2z M107,7941.2v9.9h2v-9.9H107z M107.4,7950.3L83,7967.1
	l1.1,1.6l24.4-16.8L107.4,7950.3z M82.6,7968v0.3h2v-0.3H82.6z M83.6,7969.3H108v-2H83.6V7969.3z M107,7968.3v11.9h2v-11.9H107z
	 M108,7979.1H62.8v2H108V7979.1z M63.8,7980.1V7970h-2v10.1H63.8z M63.3,7970.9l24.3-16.6l-1.1-1.6l-24.3,16.6L63.3,7970.9z
	 M88.1,7953.5v-0.4h-2v0.4H88.1z M87.1,7952.1H62.8v2h24.3V7952.1z M63.8,7953.1v-11.9h-2v11.9H63.8z"/>
<path class="st5" d="M62.8,9408.8h-1v1h1V9408.8z M62.8,9394l-0.4-0.9l-0.6,0.2v0.7H62.8z M89.1,9383.2l0.4,0.9l0.6-0.2v-0.7H89.1z
	 M89.1,9382.7h1v-0.7l-0.6-0.2L89.1,9382.7z M62.8,9371.9h-1v0.7l0.6,0.3L62.8,9371.9z M62.8,9357.1v-1h-1v1H62.8z M108,9357.1h1v-1
	h-1V9357.1z M108,9368.7v1h1v-1H108z M81.4,9368.7v-1h-1v1H81.4z M81.4,9369.1h-1v0.7l0.6,0.2L81.4,9369.1z M107.7,9379.4h1v-0.7
	l-0.6-0.2L107.7,9379.4z M107.7,9386.5l0.4,0.9l0.6-0.2v-0.7H107.7z M81.2,9396.8l-0.4-0.9l-0.6,0.2v0.7H81.2z M81.2,9397.2h-1v1h1
	V9397.2z M108,9397.2h1v-1h-1V9397.2z M108,9408.8v1h1v-1H108z M63.8,9408.8V9394h-2v14.8H63.8z M63.1,9394.9l26.3-10.8l-0.8-1.9
	L62.4,9393L63.1,9394.9z M90.1,9383.2v-0.6h-2v0.6H90.1z M89.4,9381.7L63.1,9371l-0.8,1.8l26.3,10.8L89.4,9381.7z M63.8,9371.9
	v-14.8h-2v14.8H63.8z M62.8,9358.1H108v-2H62.8V9358.1z M107,9357.1v11.6h2v-11.6H107z M108,9367.7H81.4v2H108V9367.7z M80.4,9368.7
	v0.4h2v-0.4H80.4z M81,9370l26.3,10.3l0.7-1.9l-26.3-10.3L81,9370z M106.7,9379.4v7.1h2v-7.1H106.7z M107.3,9385.6l-26.5,10.2
	l0.7,1.9l26.5-10.2L107.3,9385.6z M80.2,9396.8v0.4h2v-0.4H80.2z M81.2,9398.2H108v-2H81.2V9398.2z M107,9397.2v11.6h2v-11.6H107z
	 M108,9407.8H62.8v2H108V9407.8z M62.8,9356.2h-1v1.7l1.5-0.8L62.8,9356.2z M62.8,9342.9l-0.4-0.9l-0.6,0.3v0.6H62.8z M81.3,9333.9
	l0.4,0.9l0.6-0.3v-0.6H81.3z M81.3,9333.5h1v-0.6l-0.6-0.3L81.3,9333.5z M62.8,9324.4h-1v0.6l0.6,0.3L62.8,9324.4z M62.8,9311.1
	l0.5-0.9l-1.5-0.8v1.7H62.8z M93.5,9327.7l-0.5,0.9l0.2,0.1h0.3V9327.7z M108,9327.7h1v-1h-1V9327.7z M108,9339.5v1h1v-1H108z
	 M93.5,9339.5v-1h-0.3l-0.2,0.1L93.5,9339.5z M63.8,9356.2v-13.3h-2v13.3H63.8z M63.2,9343.8l18.5-9l-0.9-1.8l-18.5,9L63.2,9343.8z
	 M82.3,9333.9v-0.4h-2v0.4H82.3z M81.7,9332.6l-18.5-9.1l-0.9,1.8l18.5,9.1L81.7,9332.6z M63.8,9324.4v-13.3h-2v13.3H63.8z
	 M62.3,9312l30.7,16.6l1-1.8l-30.8-16.6L62.3,9312z M93.5,9328.7H108v-2H93.5V9328.7z M107,9327.7v11.8h2v-11.8H107z M108,9338.5
	H93.5v2H108V9338.5z M93,9338.7l-30.7,16.6l1,1.8l30.7-16.6L93,9338.7z M62.8,9260.5v-1h-1v1H62.8z M108,9260.5h1v-1h-1V9260.5z
	 M108,9270.5l0.6,0.8l0.4-0.3v-0.5H108z M83.6,9287.3l-0.6-0.8l-0.4,0.3v0.5H83.6z M83.6,9287.6h-1v1h1V9287.6z M108,9287.6h1v-1h-1
	V9287.6z M108,9299.5v1h1v-1H108z M62.8,9299.5h-1v1h1V9299.5z M62.8,9289.3l-0.6-0.8l-0.4,0.3v0.5H62.8z M87.1,9272.8l0.6,0.8
	l0.4-0.3v-0.5H87.1z M87.1,9272.4h1v-1h-1V9272.4z M62.8,9272.4h-1v1h1V9272.4z M62.8,9261.5H108v-2H62.8V9261.5z M107,9260.5v9.9h2
	v-9.9H107z M107.4,9269.6L83,9286.4l1.1,1.6l24.4-16.8L107.4,9269.6z M82.6,9287.3v0.3h2v-0.3H82.6z M83.6,9288.6H108v-2H83.6
	V9288.6z M107,9287.6v11.9h2v-11.9H107z M108,9298.5H62.8v2H108V9298.5z M63.8,9299.5v-10.1h-2v10.1H63.8z M63.3,9290.2l24.3-16.6
	l-1.1-1.6l-24.3,16.6L63.3,9290.2z M88.1,9272.8v-0.4h-2v0.4H88.1z M87.1,9271.4H62.8v2h24.3V9271.4z M63.8,9272.4v-11.9h-2v11.9
	H63.8z M108,9246.4h1v-0.7l-0.7-0.2L108,9246.4z M108,9259.3l-0.3,0.9l1.3,0.4v-1.4H108z M62.8,9244.2h-1v0.7l0.7,0.2L62.8,9244.2z
	 M62.8,9228l-0.3-1l-0.7,0.2v0.7H62.8z M108,9213h1v-1.4l-1.3,0.4L108,9213z M108,9225.8l0.3,1l0.7-0.2v-0.7H108z M99.1,9228.6
	l-0.3-1l-0.7,0.2v0.7H99.1z M99.1,9243.7h-1v0.7l0.7,0.2L99.1,9243.7z M90.1,9241l-0.3,1l1.3,0.4v-1.3H90.1z M90.1,9231.3h1v-1.4
	l-1.3,0.4L90.1,9231.3z M74.9,9236l-0.3-1l-0.7,0.2v0.7H74.9z M74.9,9236.3h-1v0.7l0.7,0.2L74.9,9236.3z M107,9246.4v12.9h2v-12.9
	H107z M108.3,9258.3l-45.3-15.1l-0.6,1.9l45.2,15.1L108.3,9258.3z M63.8,9244.2V9228h-2v16.2H63.8z M63.1,9229l45.3-15l-0.6-1.9
	l-45.2,15L63.1,9229z M107,9213v12.8h2V9213H107z M107.7,9224.9l-8.9,2.7l0.6,1.9l8.9-2.7L107.7,9224.9z M98.1,9228.6v15.2h2v-15.2
	H98.1z M98.8,9244.7l8.9,2.7l0.6-1.9l-8.9-2.7L98.8,9244.7z M91.1,9241v-9.7h-2v9.7H91.1z M89.8,9230.3l-15.2,4.7l0.6,1.9l15.2-4.7
	L89.8,9230.3z M73.9,9236v0.4h2v-0.4H73.9z M74.6,9237.3l15.2,4.6l0.6-1.9l-15.2-4.6L74.6,9237.3z M62.8,9211.7h-1v1h1V9211.7z
	 M62.8,9196.9l-0.4-0.9l-0.6,0.2v0.7H62.8z M89.1,9186.2l0.4,0.9l0.6-0.3v-0.7H89.1z M89.1,9185.6h1v-0.7l-0.6-0.3L89.1,9185.6z
	 M62.8,9174.8h-1v0.7l0.6,0.3L62.8,9174.8z M62.8,9160l0-1h-1l0,1H62.8z M108,9160h1v-1h-1V9160z M108,9171.7v1h1v-1H108z
	 M81.4,9171.7v-1h-1v1H81.4z M81.4,9172h-1v0.7l0.6,0.2L81.4,9172z M107.7,9182.3h1v-0.7l-0.6-0.2L107.7,9182.3z M107.7,9189.5
	l0.4,0.9l0.6-0.2v-0.7H107.7z M81.2,9199.7l-0.4-0.9l-0.6,0.2v0.7H81.2z M81.2,9200.1h-1v1h1V9200.1z M108,9200.1h1v-1h-1V9200.1z
	 M108,9211.7v1h1v-1H108z M63.8,9211.7v-14.8h-2v14.8H63.8z M63.1,9197.8l26.3-10.8l-0.8-1.8L62.4,9196L63.1,9197.8z M90.1,9186.2
	v-0.6h-2v0.6H90.1z M89.4,9184.7l-26.3-10.8l-0.8,1.9l26.3,10.8L89.4,9184.7z M63.8,9174.8V9160h-2v14.8H63.8z M62.8,9161H108v-2
	H62.8L62.8,9161z M107,9160v11.6h2V9160H107z M108,9170.7H81.4v2H108V9170.7z M80.4,9171.7v0.4h2v-0.4H80.4z M81,9173l26.3,10.3
	l0.7-1.9l-26.3-10.3L81,9173z M106.7,9182.3v7.1h2v-7.1H106.7z M107.3,9188.5l-26.5,10.2l0.7,1.9l26.5-10.2L107.3,9188.5z
	 M80.2,9199.7v0.4h2v-0.4H80.2z M81.2,9201.1H108v-2H81.2V9201.1z M107,9200.1v11.6h2v-11.6H107z M108,9210.7H62.8v2H108V9210.7z
	 M108,9157.1v1h1v-1H108z M62.8,9157.1h-1v1h1V9157.1z M62.8,9124.8v-1h-1v1H62.8z M72.4,9124.8h1v-1h-1V9124.8z M72.4,9145.2h-1v1
	h1V9145.2z M80.6,9145.2v1h1v-1H80.6z M80.6,9126.5v-1h-1v1H80.6z M90.2,9126.5h1v-1h-1V9126.5z M90.2,9145.2h-1v1h1V9145.2z
	 M98.4,9145.2v1h1v-1H98.4z M98.4,9124.9v-1h-1v1H98.4z M108,9124.9h1v-1h-1V9124.9z M108,9156.1H62.8v2H108V9156.1z M63.8,9157.1
	v-32.3h-2v32.3H63.8z M62.8,9125.8h9.6v-2h-9.6V9125.8z M71.4,9124.8v20.4h2v-20.4H71.4z M72.4,9146.2h8.2v-2h-8.2V9146.2z
	 M81.6,9145.2v-18.8h-2v18.8H81.6z M80.6,9127.5h9.6v-2h-9.6V9127.5z M89.2,9126.5v18.8h2v-18.8H89.2z M90.2,9146.2h8.2v-2h-8.2
	V9146.2z M99.4,9145.2v-20.4h-2v20.4H99.4z M98.4,9125.9h9.6v-2h-9.6V9125.9z M107,9124.9v32.2h2v-32.2H107z M62.8,9099.1v-1h-1v1
	H62.8z M108,9099.1h1v-1h-1V9099.1z M108,9111v1h1v-1H108z M62.8,9111h-1v1h1V9111z M62.8,9100.1H108v-2H62.8V9100.1z M107,9099.1
	v11.9h2v-11.9H107z M108,9110H62.8v2H108V9110z M63.8,9111v-11.9h-2v11.9H63.8z M76.8,9071.8l0.1,1l0.9-0.1v-0.9H76.8z M71.9,9078.2
	l1,0l0,0l0,0L71.9,9078.2z M75.6,9083.9l0-1h0h0L75.6,9083.9z M80.1,9077.7l-1-0.2l0,0l0,0L80.1,9077.7z M80.9,9073.9l1,0.2l0,0l0,0
	L80.9,9073.9z M94.7,9059.8l0-1l0,0l0,0L94.7,9059.8z M108.6,9078.1h1v0L108.6,9078.1z M92.3,9097.5h-1v1l1,0L92.3,9097.5z
	 M92.3,9086.1l0-1l-1,0v1H92.3z M94.7,9072l0-1h0h0L94.7,9072z M90.1,9078.9l1,0.2h0L90.1,9078.9z M89.1,9083.5l1,0.2h0L89.1,9083.5
	z M76.4,9096.3l0-1l0,0L76.4,9096.3z M76.8,9060.4h1v-1l-1,0L76.8,9060.4z M76.7,9070.8c-1.7,0.1-3.2,0.8-4.3,2.1
	c-1,1.3-1.5,3-1.5,5.2l2,0c0-1.9,0.4-3.1,1-3.9c0.6-0.8,1.5-1.2,2.9-1.4L76.7,9070.8z M70.9,9078.1c0,2.1,0.4,3.7,1.2,4.9
	c0.8,1.2,2.1,1.8,3.4,1.9l0-2c-0.7,0-1.3-0.3-1.8-1c-0.5-0.7-0.9-1.9-0.8-3.8L70.9,9078.1z M75.5,9084.9c1.6,0.1,2.8-0.7,3.7-1.9
	c0.8-1.2,1.4-3,1.9-5.1l-2-0.4c-0.4,2.1-0.9,3.5-1.5,4.4c-0.6,0.8-1.2,1.1-1.9,1.1L75.5,9084.9z M81,9077.9l0.9-3.8l-1.9-0.5
	l-0.9,3.8L81,9077.9z M81.9,9074.1c1-4.8,2.6-8.1,4.8-10.2c2.1-2.1,4.8-3.1,8-3.2l0-2c-3.7,0-6.9,1.2-9.4,3.7
	c-2.5,2.5-4.3,6.2-5.3,11.2L81.9,9074.1z M94.7,9060.8c4.2,0,7.3,1.6,9.5,4.5c2.2,2.9,3.4,7.2,3.4,12.8l2,0c0-5.8-1.3-10.6-3.8-14
	c-2.6-3.4-6.3-5.3-11-5.3L94.7,9060.8z M107.6,9078.1c0,5.7-1.3,10.3-3.7,13.4c-2.4,3.1-6.2,4.9-11.5,5l0,2c5.8,0,10.2-2.1,13.1-5.7
	c2.9-3.6,4.2-8.7,4.2-14.7L107.6,9078.1z M93.3,9097.5v-11.4h-2v11.4H93.3z M92.4,9087.1c2.3-0.1,4.2-1,5.5-2.6
	c1.3-1.6,1.9-3.7,1.9-6.2h-2c0,2.2-0.5,3.9-1.4,5c-0.9,1.1-2.2,1.8-4.1,1.8L92.4,9087.1z M99.8,9078.3c0-2.2-0.4-3.9-1.3-5.2
	c-0.9-1.3-2.2-2.1-3.8-2.1l0,2c0.9,0,1.6,0.4,2.1,1.2c0.6,0.8,1,2.2,1,4.1H99.8z M94.7,9071c-0.7,0-1.4,0.2-2,0.5
	c-0.6,0.3-1.1,0.9-1.5,1.5c-0.8,1.3-1.5,3.2-2,5.7l2,0.4c0.5-2.5,1.1-4.1,1.7-5c0.3-0.5,0.6-0.7,0.9-0.9c0.3-0.2,0.6-0.2,1-0.3
	L94.7,9071z M89.1,9078.7l-1,4.6l2,0.4l1-4.6L89.1,9078.7z M88.1,9083.2c-0.9,3.9-2.2,6.9-4.1,8.9c-1.9,2-4.3,3.1-7.6,3.1l0,2
	c3.8,0,6.8-1.3,9-3.7c2.2-2.4,3.7-5.8,4.6-9.9L88.1,9083.2z M76.4,9095.3c-4,0-7.2-1.7-9.6-4.7c-2.3-3-3.7-7.3-3.7-12.4h-2
	c0,5.5,1.5,10.3,4.2,13.7c2.7,3.4,6.6,5.5,11.2,5.4L76.4,9095.3z M63.1,9078.2c0-5.2,1.4-9.4,3.8-12.3c2.4-2.8,5.7-4.4,9.8-4.5l0-2
	c-4.7,0-8.6,1.9-11.4,5.2c-2.7,3.3-4.3,8-4.3,13.6H63.1z M75.8,9060.4v11.4h2v-11.4H75.8z M76.8,9023l0.1,1l0.9-0.1v-0.9H76.8z
	 M71.9,9029.3l1,0l0,0l0,0L71.9,9029.3z M75.6,9035l0-1h0h0L75.6,9035z M80.1,9028.8l-1-0.2l0,0l0,0L80.1,9028.8z M80.9,9025l1,0.2
	l0,0l0,0L80.9,9025z M94.7,9010.9l0-1l0,0l0,0L94.7,9010.9z M108.6,9029.2h1v0L108.6,9029.2z M92.3,9048.6h-1v1l1,0L92.3,9048.6z
	 M92.3,9037.2l0-1l-1,0v1H92.3z M94.7,9023.1l0-1h0h0L94.7,9023.1z M90.1,9030l1,0.2h0L90.1,9030z M89.1,9034.6l1,0.2h0L89.1,9034.6
	z M76.4,9047.4l0-1l0,0L76.4,9047.4z M76.8,9011.5h1v-1l-1,0L76.8,9011.5z M76.7,9022c-1.7,0.1-3.2,0.8-4.3,2.1
	c-1,1.3-1.5,3-1.5,5.2l2,0c0-1.9,0.4-3.2,1-4c0.6-0.8,1.5-1.2,2.9-1.4L76.7,9022z M70.9,9029.3c0,2.1,0.4,3.7,1.2,4.9
	c0.8,1.2,2.1,1.8,3.4,1.9l0-2c-0.7,0-1.3-0.3-1.8-1c-0.5-0.7-0.9-1.9-0.8-3.8L70.9,9029.3z M75.5,9036c1.6,0.1,2.8-0.7,3.7-1.9
	c0.8-1.2,1.4-3,1.9-5.1l-2-0.4c-0.4,2.1-0.9,3.5-1.5,4.4c-0.6,0.8-1.2,1.1-1.9,1.1L75.5,9036z M81,9029l0.9-3.8l-1.9-0.5l-0.9,3.8
	L81,9029z M81.9,9025.3c1-4.8,2.6-8.1,4.8-10.2c2.1-2.1,4.8-3.1,8-3.2l0-2c-3.7,0-6.9,1.2-9.4,3.7c-2.5,2.5-4.3,6.2-5.3,11.2
	L81.9,9025.3z M94.7,9011.9c4.2,0,7.3,1.6,9.5,4.5c2.2,2.9,3.4,7.2,3.4,12.8l2,0c0-5.8-1.3-10.6-3.8-14c-2.6-3.4-6.3-5.3-11-5.3
	L94.7,9011.9z M107.6,9029.2c0,5.7-1.3,10.3-3.7,13.4c-2.4,3.1-6.2,4.9-11.5,5l0,2c5.8-0.1,10.2-2.1,13.1-5.7
	c2.9-3.6,4.2-8.7,4.2-14.6L107.6,9029.2z M93.3,9048.6v-11.4h-2v11.4H93.3z M92.4,9038.2c2.3-0.1,4.2-1,5.5-2.6
	c1.3-1.6,1.9-3.7,1.9-6.2h-2c0,2.2-0.5,3.9-1.4,5c-0.9,1.1-2.2,1.8-4.1,1.8L92.4,9038.2z M99.8,9029.4c0-2.2-0.4-4-1.3-5.2
	c-0.9-1.3-2.2-2.1-3.8-2.1l0,2c0.9,0,1.6,0.4,2.1,1.2c0.6,0.8,1,2.2,1,4.1H99.8z M94.7,9022.1c-0.7,0-1.4,0.2-2,0.5
	c-0.6,0.4-1.1,0.9-1.5,1.5c-0.8,1.3-1.5,3.1-2,5.7l2,0.4c0.5-2.5,1.1-4.1,1.7-5c0.3-0.5,0.6-0.7,0.9-0.9c0.3-0.2,0.6-0.2,1-0.3
	L94.7,9022.1z M89.1,9029.8l-1,4.6l2,0.4l1-4.6L89.1,9029.8z M88.1,9034.4c-0.9,3.9-2.2,6.9-4.1,8.9c-1.9,2-4.3,3.1-7.6,3.1l0,2
	c3.8,0,6.8-1.3,9-3.7c2.2-2.4,3.7-5.8,4.6-9.9L88.1,9034.4z M76.4,9046.4c-4,0-7.2-1.7-9.6-4.7c-2.3-3-3.7-7.3-3.7-12.5h-2
	c0,5.5,1.5,10.3,4.2,13.7c2.7,3.4,6.6,5.5,11.2,5.4L76.4,9046.4z M63.1,9029.3c0-5.2,1.4-9.4,3.8-12.3c2.4-2.8,5.7-4.4,9.8-4.5l0-2
	c-4.7,0-8.6,1.9-11.4,5.2c-2.7,3.3-4.3,8-4.3,13.6H63.1z M75.8,9011.5v11.4h2v-11.4H75.8z M108,8999.8h1v-0.7l-0.7-0.2L108,8999.8z
	 M108,9012.6l-0.3,1l1.3,0.4v-1.4H108z M62.8,8997.6h-1v0.7l0.7,0.2L62.8,8997.6z M62.8,8981.4l-0.3-0.9l-0.7,0.2v0.7H62.8z
	 M108,8966.4h1v-1.4l-1.3,0.4L108,8966.4z M108,8979.2l0.3,0.9l0.7-0.2v-0.7H108z M99.1,8981.9l-0.3-1l-0.7,0.2v0.7H99.1z
	 M99.1,8997.1h-1v0.7l0.7,0.2L99.1,8997.1z M90.1,8994.3l-0.3,1l1.3,0.4v-1.4H90.1z M90.1,8984.7h1v-1.4l-1.3,0.4L90.1,8984.7z
	 M74.9,8989.3l-0.3-0.9l-0.7,0.2v0.7H74.9z M74.9,8989.7h-1v0.7l0.7,0.2L74.9,8989.7z M107,8999.8v12.9h2v-12.9H107z M108.3,9011.7
	l-45.3-15.1l-0.6,1.9l45.2,15.1L108.3,9011.7z M63.8,8997.6v-16.2h-2v16.2H63.8z M63.1,8982.3l45.3-15l-0.6-1.9l-45.2,15
	L63.1,8982.3z M107,8966.4v12.8h2v-12.8H107z M107.7,8978.2l-8.9,2.7l0.6,1.9l8.9-2.7L107.7,8978.2z M98.1,8981.9v15.1h2v-15.1H98.1
	z M98.8,8998l8.9,2.7l0.6-1.9l-8.9-2.7L98.8,8998z M91.1,8994.3v-9.6h-2v9.6H91.1z M89.8,8983.7l-15.2,4.7l0.6,1.9l15.2-4.7
	L89.8,8983.7z M73.9,8989.3v0.4h2v-0.4H73.9z M74.6,8990.6l15.2,4.6l0.6-1.9l-15.2-4.6L74.6,8990.6z M62.8,8926.1v-1h-1v1H62.8z
	 M108,8926.1h1v-1h-1V8926.1z M108,8936.1l0.6,0.8l0.4-0.3v-0.5H108z M83.6,8952.9l-0.6-0.8l-0.4,0.3v0.5H83.6z M83.6,8953.2h-1v1h1
	V8953.2z M108,8953.2h1v-1h-1V8953.2z M108,8965.1v1h1v-1H108z M62.8,8965.1h-1v1h1V8965.1z M62.8,8955l-0.6-0.8l-0.4,0.3v0.5H62.8z
	 M87.1,8938.4l0.6,0.8l0.4-0.3v-0.5H87.1z M87.1,8938h1v-1h-1V8938z M62.8,8938h-1v1h1V8938z M62.8,8927.1H108v-2H62.8V8927.1z
	 M107,8926.1v9.9h2v-9.9H107z M107.4,8935.2L83,8952.1l1.1,1.7l24.4-16.8L107.4,8935.2z M82.6,8952.9v0.3h2v-0.3H82.6z M83.6,8954.2
	H108v-2H83.6V8954.2z M107,8953.2v11.9h2v-11.9H107z M108,8964.1H62.8v2H108V8964.1z M63.8,8965.1V8955h-2v10.1H63.8z M63.3,8955.8
	l24.3-16.6l-1.1-1.7l-24.3,16.6L63.3,8955.8z M88.1,8938.4v-0.4h-2v0.4H88.1z M87.1,8937H62.8v2h24.3V8937z M63.8,8938v-11.9h-2
	v11.9H63.8z M77.6,8893.8l0.2,1l0.8-0.2v-0.8H77.6z M98.2,8901.3h1l0,0L98.2,8901.3z M91.4,8892.7l0-1l-1,0v1H91.4z M91.4,8901.1v1
	h1v-1H91.4z M82.9,8901.1h-1v1h1V8901.1z M82.9,8881.2v-1h-1v1H82.9z M85.4,8923.5l0,1h0L85.4,8923.5z M77.6,8881.7h1v-1.1l-1.1,0.1
	L77.6,8881.7z M77.4,8892.8c-1.8,0.5-3.3,1.5-4.4,3c-1,1.5-1.5,3.4-1.5,5.5h2c0-1.8,0.4-3.3,1.2-4.4c0.7-1.1,1.8-1.8,3.2-2.2
	L77.4,8892.8z M71.5,8901.3c0,3.4,1.3,6.2,3.8,8.2c2.4,1.9,5.9,2.8,10.1,2.8v-2c-3.9,0-6.9-0.9-8.8-2.4c-1.9-1.5-3-3.7-3-6.6H71.5z
	 M85.3,8912.3c4.2,0,7.7-0.9,10.1-2.7c2.5-1.9,3.8-4.7,3.8-8.2l-2,0c0,3-1.1,5.2-3,6.6c-2,1.5-5,2.3-8.9,2.3V8912.3z M99.2,8901.3
	c0-3-0.7-5.3-2.1-7c-1.4-1.7-3.4-2.5-5.8-2.6l0,2c1.8,0,3.3,0.7,4.2,1.9c1,1.2,1.6,3.1,1.7,5.8L99.2,8901.3z M90.4,8892.7v8.4h2
	v-8.4H90.4z M91.4,8900.1h-8.5v2h8.5V8900.1z M83.9,8901.1v-19.9h-2v19.9H83.9z M82.9,8882.2h6.2v-2h-6.2V8882.2z M89.1,8882.2
	c5.9,0,10.5,2,13.7,5.4c3.1,3.4,4.9,8.2,4.9,13.9h2c0-6.1-1.9-11.4-5.4-15.2c-3.6-3.8-8.7-6-15.1-6V8882.2z M107.6,8901.5
	c0,6.3-2.1,11.6-5.9,15.2c-3.8,3.7-9.3,5.8-16.3,5.8l0,2c7.4,0,13.4-2.3,17.7-6.4c4.2-4.1,6.5-9.9,6.5-16.7H107.6z M85.4,8922.5
	c-7.2,0-12.8-2.4-16.5-6.1c-3.8-3.8-5.8-9-5.8-14.9h-2c0,6.3,2.2,12.1,6.4,16.3c4.2,4.2,10.3,6.7,17.9,6.7L85.4,8922.5z
	 M63.1,8901.5c0-10.2,6.2-17.9,14.6-18.8l-0.2-2c-9.7,1.1-16.4,9.8-16.4,20.8H63.1z M76.6,8881.7v12.1h2v-12.1H76.6z M108,8867.7v1
	h1v-1H108z M62.8,8867.7h-1v1h1V8867.7z M62.8,8855.9v-1h-1v1H62.8z M80.6,8855.9v1h1v-1H80.6z M80.6,8839.2h1v-1h-1V8839.2z
	 M62.8,8839.2h-1v1h1V8839.2z M62.8,8827.2v-1h-1v1H62.8z M108,8827.2h1v-1h-1V8827.2z M108,8839.2v1h1v-1H108z M90.2,8839.2v-1h-1
	v1H90.2z M90.2,8855.9h-1v1h1V8855.9z M108,8855.9h1v-1h-1V8855.9z M108,8866.7H62.8v2H108V8866.7z M63.8,8867.7v-11.9h-2v11.9H63.8
	z M62.8,8856.9h17.8v-2H62.8V8856.9z M81.6,8855.9v-16.7h-2v16.7H81.6z M80.6,8838.2H62.8v2h17.8V8838.2z M63.8,8839.2v-11.9h-2
	v11.9H63.8z M62.8,8828.2H108v-2H62.8V8828.2z M107,8827.2v11.9h2v-11.9H107z M108,8838.2H90.2v2H108V8838.2z M89.2,8839.2v16.7h2
	v-16.7H89.2z M90.2,8856.9H108v-2H90.2V8856.9z M107,8855.9v11.9h2v-11.9H107z M85.4,8824.7l0,1h0L85.4,8824.7z M98.2,8802.8h1l0,0
	L98.2,8802.8z M85.4,8793.1l0,1l0,0L85.4,8793.1z M85.4,8781.9c7.3,0,12.9,2.3,16.6,6.1c3.7,3.7,5.7,8.9,5.7,14.8h2
	c0-6.3-2.1-12.1-6.3-16.2c-4.1-4.2-10.2-6.6-18-6.6V8781.9z M107.6,8802.8c0,6-2,11.2-5.7,14.9c-3.7,3.7-9.3,6-16.5,6.1l0,2
	c7.7,0,13.8-2.5,17.9-6.7c4.2-4.2,6.3-9.9,6.3-16.3H107.6z M85.4,8823.7c-7.3,0-12.9-2.3-16.6-6.1c-3.7-3.7-5.7-8.9-5.7-14.9h-2
	c0,6.4,2.1,12.1,6.3,16.3c4.1,4.2,10.2,6.6,18,6.7L85.4,8823.7z M63.1,8802.8c0-5.9,2-11.1,5.7-14.8c3.7-3.7,9.3-6.1,16.6-6.1v-2
	c-7.8,0-13.8,2.5-18,6.6c-4.1,4.2-6.3,9.9-6.3,16.2H63.1z M85.4,8813.4c4.3,0,7.7-0.9,10.1-2.7c2.5-1.9,3.7-4.6,3.7-8l-2,0
	c0,2.9-1,5-2.9,6.4c-1.9,1.5-4.9,2.3-8.9,2.3V8813.4z M99.2,8802.7c0-3.4-1.3-6.1-3.7-7.9c-2.4-1.8-5.9-2.7-10.1-2.7l0,2
	c4,0,7,0.8,8.9,2.3c1.9,1.4,2.9,3.5,2.9,6.4L99.2,8802.7z M85.4,8792.1c-4.3,0-7.8,0.9-10.2,2.7c-2.5,1.9-3.7,4.6-3.7,7.9h2
	c0-2.8,1-4.9,2.9-6.3c1.9-1.5,4.9-2.3,9-2.3L85.4,8792.1z M71.5,8802.8c0,3.4,1.2,6.1,3.7,8c2.4,1.8,5.9,2.7,10.2,2.7v-2
	c-4.1,0-7-0.8-9-2.3c-1.9-1.4-2.9-3.5-2.9-6.4H71.5z M85.4,8778.6l0,1h0L85.4,8778.6z M98.2,8756.6h1l0,0L98.2,8756.6z M85.4,8747
	l0,1h0L85.4,8747z M85.4,8735.8c7.3,0,12.9,2.3,16.6,6.1c3.7,3.7,5.7,8.9,5.7,14.8h2c0-6.3-2.1-12.1-6.3-16.2
	c-4.1-4.2-10.2-6.7-18-6.7V8735.8z M107.6,8756.6c0,5.9-2,11.2-5.7,14.9c-3.7,3.7-9.3,6-16.5,6.1l0,2c7.7,0,13.8-2.5,17.9-6.6
	c4.2-4.1,6.3-9.9,6.3-16.3H107.6z M85.4,8777.6c-7.3,0-12.9-2.3-16.6-6.1c-3.7-3.7-5.7-8.9-5.7-14.9h-2c0,6.4,2.1,12.1,6.3,16.3
	c4.1,4.2,10.2,6.6,18,6.6L85.4,8777.6z M63.1,8756.6c0-5.9,2-11.1,5.7-14.8c3.7-3.7,9.3-6.1,16.6-6.1v-2c-7.8,0-13.8,2.5-18,6.7
	c-4.1,4.2-6.3,9.9-6.3,16.2H63.1z M85.4,8767.3c4.3,0,7.7-0.9,10.1-2.7c2.5-1.9,3.7-4.6,3.7-8l-2,0c0,2.9-1,5-2.9,6.4
	c-1.9,1.5-4.9,2.3-8.9,2.3V8767.3z M99.2,8756.6c0-3.4-1.3-6.1-3.7-7.9c-2.4-1.8-5.9-2.7-10.1-2.7l0,2c4,0,7,0.8,8.9,2.3
	c1.9,1.4,2.9,3.5,2.9,6.3L99.2,8756.6z M85.4,8746c-4.3,0-7.8,0.9-10.2,2.7c-2.5,1.8-3.7,4.6-3.7,7.9h2c0-2.8,1-4.9,2.9-6.3
	c1.9-1.5,4.9-2.3,9-2.3L85.4,8746z M71.5,8756.6c0,3.4,1.2,6.1,3.7,8c2.4,1.8,5.9,2.7,10.2,2.7v-2c-4.1,0-7-0.8-9-2.3
	c-1.9-1.4-2.9-3.5-2.9-6.4H71.5z M62.8,8693.2v-1h-1v1H62.8z M108,8693.2h1v-1h-1V8693.2z M108,8703.2l0.6,0.8l0.4-0.3v-0.5H108z
	 M83.6,8720l-0.6-0.8l-0.4,0.3v0.5H83.6z M83.6,8720.3h-1v1h1V8720.3z M108,8720.3h1v-1h-1V8720.3z M108,8732.2v1h1v-1H108z
	 M62.8,8732.2h-1v1h1V8732.2z M62.8,8722l-0.6-0.8l-0.4,0.3v0.5H62.8z M87.1,8705.5l0.6,0.8l0.4-0.3v-0.5H87.1z M87.1,8705.1h1v-1
	h-1V8705.1z M62.8,8705.1h-1v1h1V8705.1z M62.8,8694.2H108v-2H62.8V8694.2z M107,8693.2v9.9h2v-9.9H107z M107.4,8702.3L83,8719.1
	l1.1,1.7l24.4-16.8L107.4,8702.3z M82.6,8720v0.3h2v-0.3H82.6z M83.6,8721.3H108v-2H83.6V8721.3z M107,8720.3v11.9h2v-11.9H107z
	 M108,8731.2H62.8v2H108V8731.2z M63.8,8732.2V8722h-2v10.1H63.8z M63.3,8722.8l24.3-16.6l-1.1-1.7l-24.3,16.6L63.3,8722.8z
	 M88.1,8705.5v-0.4h-2v0.4H88.1z M87.1,8704.1H62.8v2h24.3V8704.1z M63.8,8705.1v-11.9h-2v11.9H63.8z"/>
<path class="st5" d="M62.8,7904.8h-1v1h1V7904.8z M62.8,7890l-0.4-0.9l-0.6,0.2v0.7H62.8z M89.1,7879.2l0.4,0.9l0.6-0.2v-0.7H89.1z
	 M89.1,7878.7h1v-0.7l-0.6-0.2L89.1,7878.7z M62.8,7867.9h-1v0.7l0.6,0.3L62.8,7867.9z M62.8,7853.1v-1h-1v1H62.8z M108,7853.1h1v-1
	h-1V7853.1z M108,7864.7v1h1v-1H108z M81.4,7864.7v-1h-1v1H81.4z M81.4,7865.1h-1v0.7l0.6,0.2L81.4,7865.1z M107.7,7875.4h1v-0.7
	l-0.6-0.2L107.7,7875.4z M107.7,7882.5l0.4,0.9l0.6-0.2v-0.7H107.7z M81.2,7892.8l-0.4-0.9l-0.6,0.2v0.7H81.2z M81.2,7893.2h-1v1h1
	V7893.2z M108,7893.2h1v-1h-1V7893.2z M108,7904.8v1h1v-1H108z M63.8,7904.8V7890h-2v14.8H63.8z M63.1,7890.9l26.3-10.8l-0.8-1.9
	L62.4,7889L63.1,7890.9z M90.1,7879.2v-0.6h-2v0.6H90.1z M89.4,7877.7L63.1,7867l-0.8,1.8l26.3,10.8L89.4,7877.7z M63.8,7867.9
	v-14.8h-2v14.8H63.8z M62.8,7854.1H108v-2H62.8V7854.1z M107,7853.1v11.6h2v-11.6H107z M108,7863.7H81.4v2H108V7863.7z M80.4,7864.7
	v0.4h2v-0.4H80.4z M81,7866l26.3,10.3l0.7-1.9l-26.3-10.3L81,7866z M106.7,7875.4v7.1h2v-7.1H106.7z M107.3,7881.6l-26.5,10.2
	l0.7,1.9l26.5-10.2L107.3,7881.6z M80.2,7892.8v0.4h2v-0.4H80.2z M81.2,7894.2H108v-2H81.2V7894.2z M107,7893.2v11.6h2v-11.6H107z
	 M108,7903.8H62.8v2H108V7903.8z M62.8,7852.2h-1v1.7l1.5-0.8L62.8,7852.2z M62.8,7838.9l-0.4-0.9l-0.6,0.3v0.6H62.8z M81.3,7829.9
	l0.4,0.9l0.6-0.3v-0.6H81.3z M81.3,7829.5h1v-0.6l-0.6-0.3L81.3,7829.5z M62.8,7820.4h-1v0.6l0.6,0.3L62.8,7820.4z M62.8,7807.1
	l0.5-0.9l-1.5-0.8v1.7H62.8z M93.5,7823.7l-0.5,0.9l0.2,0.1h0.3V7823.7z M108,7823.7h1v-1h-1V7823.7z M108,7835.5v1h1v-1H108z
	 M93.5,7835.5v-1h-0.3l-0.2,0.1L93.5,7835.5z M63.8,7852.2v-13.3h-2v13.3H63.8z M63.2,7839.8l18.5-9l-0.9-1.8l-18.5,9L63.2,7839.8z
	 M82.3,7829.9v-0.4h-2v0.4H82.3z M81.7,7828.6l-18.5-9.1l-0.9,1.8l18.5,9.1L81.7,7828.6z M63.8,7820.4v-13.3h-2v13.3H63.8z
	 M62.3,7808l30.7,16.6l1-1.8l-30.8-16.6L62.3,7808z M93.5,7824.7H108v-2H93.5V7824.7z M107,7823.7v11.8h2v-11.8H107z M108,7834.5
	H93.5v2H108V7834.5z M93,7834.7l-30.7,16.6l1,1.8l30.7-16.6L93,7834.7z M62.8,7756.5v-1h-1v1H62.8z M108,7756.5h1v-1h-1V7756.5z
	 M108,7766.5l0.6,0.8l0.4-0.3v-0.5H108z M83.6,7783.3l-0.6-0.8l-0.4,0.3v0.5H83.6z M83.6,7783.6h-1v1h1V7783.6z M108,7783.6h1v-1h-1
	V7783.6z M108,7795.5v1h1v-1H108z M62.8,7795.5h-1v1h1V7795.5z M62.8,7785.3l-0.6-0.8l-0.4,0.3v0.5H62.8z M87.1,7768.8l0.6,0.8
	l0.4-0.3v-0.5H87.1z M87.1,7768.4h1v-1h-1V7768.4z M62.8,7768.4h-1v1h1V7768.4z M62.8,7757.5H108v-2H62.8V7757.5z M107,7756.5v9.9h2
	v-9.9H107z M107.4,7765.6L83,7782.4l1.1,1.6l24.4-16.8L107.4,7765.6z M82.6,7783.3v0.3h2v-0.3H82.6z M83.6,7784.6H108v-2H83.6
	V7784.6z M107,7783.6v11.9h2v-11.9H107z M108,7794.5H62.8v2H108V7794.5z M63.8,7795.5v-10.1h-2v10.1H63.8z M63.3,7786.1l24.3-16.6
	l-1.1-1.6l-24.3,16.6L63.3,7786.1z M88.1,7768.8v-0.4h-2v0.4H88.1z M87.1,7767.4H62.8v2h24.3V7767.4z M63.8,7768.4v-11.9h-2v11.9
	H63.8z M108,7742.4h1v-0.7l-0.7-0.2L108,7742.4z M108,7755.3l-0.3,0.9l1.3,0.4v-1.4H108z M62.8,7740.2h-1v0.7l0.7,0.2L62.8,7740.2z
	 M62.8,7724l-0.3-0.9l-0.7,0.2v0.7H62.8z M108,7709h1v-1.4l-1.3,0.4L108,7709z M108,7721.8l0.3,1l0.7-0.2v-0.7H108z M99.1,7724.6
	l-0.3-1l-0.7,0.2v0.7H99.1z M99.1,7739.7h-1v0.7l0.7,0.2L99.1,7739.7z M90.1,7737l-0.3,1l1.3,0.4v-1.4H90.1z M90.1,7727.3h1v-1.4
	l-1.3,0.4L90.1,7727.3z M74.9,7732l-0.3-1l-0.7,0.2v0.7H74.9z M74.9,7732.3h-1v0.7l0.7,0.2L74.9,7732.3z M107,7742.4v12.9h2v-12.9
	H107z M108.3,7754.3l-45.3-15.1l-0.6,1.9l45.2,15.1L108.3,7754.3z M63.8,7740.2V7724h-2v16.2H63.8z M63.1,7725l45.3-15l-0.6-1.9
	l-45.2,15L63.1,7725z M107,7709v12.8h2V7709H107z M107.7,7720.9l-8.9,2.7l0.6,1.9l8.9-2.7L107.7,7720.9z M98.1,7724.6v15.1h2v-15.1
	H98.1z M98.8,7740.7l8.9,2.7l0.6-1.9l-8.9-2.7L98.8,7740.7z M91.1,7737v-9.6h-2v9.6H91.1z M89.8,7726.4l-15.2,4.7l0.6,1.9l15.2-4.7
	L89.8,7726.4z M73.9,7732v0.4h2v-0.4H73.9z M74.6,7733.3l15.2,4.6l0.6-1.9l-15.2-4.6L74.6,7733.3z M62.8,7707.7h-1v1h1V7707.7z
	 M62.8,7692.9l-0.4-0.9l-0.6,0.2v0.7H62.8z M89.1,7682.2l0.4,0.9l0.6-0.3v-0.7H89.1z M89.1,7681.6h1v-0.7l-0.6-0.3L89.1,7681.6z
	 M62.8,7670.9h-1v0.7l0.6,0.3L62.8,7670.9z M62.8,7656l0-1h-1l0,1H62.8z M108,7656h1v-1h-1V7656z M108,7667.7v1h1v-1H108z
	 M81.4,7667.7v-1h-1v1H81.4z M81.4,7668h-1v0.7l0.6,0.2L81.4,7668z M107.7,7678.4h1v-0.7l-0.6-0.2L107.7,7678.4z M107.7,7685.5
	l0.4,0.9l0.6-0.2v-0.7H107.7z M81.2,7695.7l-0.4-0.9l-0.6,0.2v0.7H81.2z M81.2,7696.1h-1v1h1V7696.1z M108,7696.1h1v-1h-1V7696.1z
	 M108,7707.7v1h1v-1H108z M63.8,7707.7v-14.8h-2v14.8H63.8z M63.1,7693.8l26.3-10.8l-0.8-1.8L62.4,7692L63.1,7693.8z M90.1,7682.2
	v-0.6h-2v0.6H90.1z M89.4,7680.7l-26.3-10.8l-0.8,1.9l26.3,10.8L89.4,7680.7z M63.8,7670.9V7656h-2v14.8H63.8z M62.8,7657H108v-2
	H62.8L62.8,7657z M107,7656v11.6h2V7656H107z M108,7666.7H81.4v2H108V7666.7z M80.4,7667.7v0.4h2v-0.4H80.4z M81,7669l26.3,10.3
	l0.7-1.9l-26.3-10.3L81,7669z M106.7,7678.4v7.1h2v-7.1H106.7z M107.3,7684.5l-26.5,10.2l0.7,1.9l26.5-10.2L107.3,7684.5z
	 M80.2,7695.7v0.4h2v-0.4H80.2z M81.2,7697.1H108v-2H81.2V7697.1z M107,7696.1v11.6h2v-11.6H107z M108,7706.7H62.8v2H108V7706.7z
	 M108,7653.1v1h1v-1H108z M62.8,7653.1h-1v1h1V7653.1z M62.8,7620.8v-1h-1v1H62.8z M72.4,7620.8h1v-1h-1V7620.8z M72.4,7641.2h-1v1
	h1V7641.2z M80.6,7641.2v1h1v-1H80.6z M80.6,7622.5v-1h-1v1H80.6z M90.2,7622.5h1v-1h-1V7622.5z M90.2,7641.2h-1v1h1V7641.2z
	 M98.4,7641.2v1h1v-1H98.4z M98.4,7620.9v-1h-1v1H98.4z M108,7620.9h1v-1h-1V7620.9z M108,7652.1H62.8v2H108V7652.1z M63.8,7653.1
	v-32.3h-2v32.3H63.8z M62.8,7621.8h9.6v-2h-9.6V7621.8z M71.4,7620.8v20.4h2v-20.4H71.4z M72.4,7642.2h8.2v-2h-8.2V7642.2z
	 M81.6,7641.2v-18.8h-2v18.8H81.6z M80.6,7623.5h9.6v-2h-9.6V7623.5z M89.2,7622.5v18.8h2v-18.8H89.2z M90.2,7642.2h8.2v-2h-8.2
	V7642.2z M99.4,7641.2v-20.4h-2v20.4H99.4z M98.4,7621.9h9.6v-2h-9.6V7621.9z M107,7620.9v32.2h2v-32.2H107z M62.8,7595.1v-1h-1v1
	H62.8z M108,7595.1h1v-1h-1V7595.1z M108,7607v1h1v-1H108z M62.8,7607h-1v1h1V7607z M62.8,7596.1H108v-2H62.8V7596.1z M107,7595.1
	v11.9h2v-11.9H107z M108,7606H62.8v2H108V7606z M63.8,7607v-11.9h-2v11.9H63.8z M76.8,7567.8l0.1,1l0.9-0.1v-0.9H76.8z M71.9,7574.1
	l1,0l0,0l0,0L71.9,7574.1z M75.6,7579.9l0-1h0h0L75.6,7579.9z M80.1,7573.6l-1-0.2l0,0l0,0L80.1,7573.6z M80.9,7569.9l1,0.2l0,0l0,0
	L80.9,7569.9z M94.7,7555.8l0-1l0,0l0,0L94.7,7555.8z M108.6,7574.1h1v0L108.6,7574.1z M92.3,7593.5h-1v1l1,0L92.3,7593.5z
	 M92.3,7582.1l0-1l-1,0v1H92.3z M94.7,7568l0-1h0h0L94.7,7568z M90.1,7574.9l1,0.2h0L90.1,7574.9z M89.1,7579.5l1,0.2h0L89.1,7579.5
	z M76.4,7592.3l0-1l0,0L76.4,7592.3z M76.8,7556.4h1v-1l-1,0L76.8,7556.4z M76.7,7566.8c-1.7,0.1-3.2,0.8-4.3,2.1
	c-1,1.3-1.5,3.1-1.5,5.2l2,0c0-1.9,0.4-3.1,1-4c0.6-0.8,1.5-1.2,2.9-1.4L76.7,7566.8z M70.9,7574.1c0,2.1,0.4,3.7,1.2,4.9
	c0.8,1.2,2.1,1.8,3.4,1.9l0-2c-0.7,0-1.3-0.3-1.8-1c-0.5-0.7-0.9-1.9-0.8-3.8L70.9,7574.1z M75.5,7580.9c1.6,0.1,2.8-0.7,3.7-1.9
	c0.8-1.2,1.4-3,1.9-5.1l-2-0.4c-0.4,2.1-0.9,3.5-1.5,4.4c-0.6,0.8-1.2,1.1-1.9,1.1L75.5,7580.9z M81,7573.9l0.9-3.8l-1.9-0.5
	l-0.9,3.8L81,7573.9z M81.9,7570.1c1-4.8,2.6-8.1,4.8-10.2c2.1-2.1,4.8-3.1,8-3.1l0-2c-3.7,0-6.9,1.2-9.4,3.7
	c-2.5,2.5-4.3,6.2-5.3,11.2L81.9,7570.1z M94.7,7556.8c4.2,0,7.3,1.6,9.5,4.5c2.2,2.9,3.4,7.2,3.4,12.8l2,0c0-5.8-1.3-10.6-3.8-14
	c-2.6-3.4-6.3-5.3-11-5.3L94.7,7556.8z M107.6,7574.1c0,5.7-1.3,10.3-3.7,13.4c-2.4,3.1-6.2,4.9-11.5,5l0,2c5.8,0,10.2-2.1,13.1-5.7
	c2.9-3.6,4.2-8.7,4.2-14.7L107.6,7574.1z M93.3,7593.5v-11.4h-2v11.4H93.3z M92.4,7583.1c2.3-0.1,4.2-1,5.5-2.6
	c1.3-1.6,1.9-3.7,1.9-6.2h-2c0,2.2-0.5,3.9-1.4,5c-0.9,1.1-2.2,1.8-4.1,1.8L92.4,7583.1z M99.8,7574.3c0-2.2-0.4-4-1.3-5.2
	c-0.9-1.3-2.2-2.1-3.8-2.1l0,2c0.9,0,1.6,0.4,2.1,1.2c0.6,0.8,1,2.2,1,4.1H99.8z M94.7,7567c-0.7,0-1.4,0.2-2,0.5
	c-0.6,0.3-1.1,0.9-1.5,1.5c-0.8,1.3-1.5,3.1-2,5.7l2,0.4c0.5-2.5,1.1-4.1,1.7-5c0.3-0.5,0.6-0.7,0.9-0.9c0.3-0.2,0.6-0.2,1-0.3
	L94.7,7567z M89.1,7574.7l-1,4.6l2,0.4l1-4.6L89.1,7574.7z M88.1,7579.2c-0.9,3.9-2.2,6.9-4.1,8.9c-1.9,2-4.3,3.1-7.6,3.1l0,2
	c3.8,0,6.8-1.3,9-3.7c2.2-2.4,3.7-5.8,4.6-9.9L88.1,7579.2z M76.4,7591.3c-4,0-7.2-1.7-9.6-4.7c-2.3-3-3.7-7.3-3.7-12.5h-2
	c0,5.5,1.5,10.3,4.2,13.7c2.7,3.4,6.6,5.5,11.2,5.4L76.4,7591.3z M63.1,7574.1c0-5.2,1.4-9.4,3.8-12.3c2.4-2.8,5.7-4.4,9.8-4.5l0-2
	c-4.7,0-8.6,1.9-11.4,5.2c-2.7,3.3-4.3,8-4.3,13.6H63.1z M75.8,7556.4v11.4h2v-11.4H75.8z M76.8,7519l0.1,1l0.9-0.1v-0.9H76.8z
	 M71.9,7525.3l1,0l0,0l0,0L71.9,7525.3z M75.6,7531l0-1h0h0L75.6,7531z M80.1,7524.8l-1-0.2l0,0l0,0L80.1,7524.8z M80.9,7521l1,0.2
	l0,0l0,0L80.9,7521z M94.7,7506.9l0-1l0,0l0,0L94.7,7506.9z M108.6,7525.2h1v0L108.6,7525.2z M92.3,7544.6h-1v1l1,0L92.3,7544.6z
	 M92.3,7533.2l0-1l-1,0v1H92.3z M94.7,7519.1l0-1h0h0L94.7,7519.1z M90.1,7526l1,0.2h0L90.1,7526z M89.1,7530.6l1,0.2h0L89.1,7530.6
	z M76.4,7543.4l0-1l0,0L76.4,7543.4z M76.8,7507.5h1v-1l-1,0L76.8,7507.5z M76.7,7518c-1.7,0.1-3.2,0.8-4.3,2.1
	c-1,1.3-1.5,3.1-1.5,5.2l2,0c0-1.9,0.4-3.1,1-4c0.6-0.8,1.5-1.2,2.9-1.4L76.7,7518z M70.9,7525.3c0,2.1,0.4,3.7,1.2,4.9
	c0.8,1.2,2.1,1.8,3.4,1.9l0-2c-0.7,0-1.3-0.3-1.8-1c-0.5-0.7-0.9-1.9-0.8-3.8L70.9,7525.3z M75.5,7532c1.6,0.1,2.8-0.7,3.7-1.9
	c0.8-1.2,1.4-3,1.9-5.1l-2-0.4c-0.4,2.1-0.9,3.5-1.5,4.4c-0.6,0.8-1.2,1.1-1.9,1.1L75.5,7532z M81,7525l0.9-3.8l-1.9-0.5l-0.9,3.8
	L81,7525z M81.9,7521.3c1-4.8,2.6-8.1,4.8-10.2c2.1-2.1,4.8-3.1,8-3.1l0-2c-3.7,0-6.9,1.2-9.4,3.7c-2.5,2.5-4.3,6.2-5.3,11.2
	L81.9,7521.3z M94.7,7507.9c4.2,0,7.3,1.6,9.5,4.5c2.2,2.9,3.4,7.2,3.4,12.8l2,0c0-5.8-1.3-10.6-3.8-14c-2.6-3.4-6.3-5.3-11-5.3
	L94.7,7507.9z M107.6,7525.2c0,5.7-1.3,10.3-3.7,13.4c-2.4,3.1-6.2,4.9-11.5,5l0,2c5.8,0,10.2-2.1,13.1-5.7
	c2.9-3.6,4.2-8.7,4.2-14.6L107.6,7525.2z M93.3,7544.6v-11.4h-2v11.4H93.3z M92.4,7534.2c2.3-0.1,4.2-1,5.5-2.6
	c1.3-1.6,1.9-3.7,1.9-6.2h-2c0,2.2-0.5,3.9-1.4,5c-0.9,1.1-2.2,1.8-4.1,1.8L92.4,7534.2z M99.8,7525.4c0-2.2-0.4-4-1.3-5.2
	c-0.9-1.3-2.2-2.1-3.8-2.1l0,2c0.9,0,1.6,0.4,2.1,1.2c0.6,0.8,1,2.2,1,4.1H99.8z M94.7,7518.1c-0.7,0-1.4,0.2-2,0.5
	c-0.6,0.4-1.1,0.9-1.5,1.5c-0.8,1.3-1.5,3.1-2,5.7l2,0.4c0.5-2.5,1.1-4.1,1.7-5c0.3-0.5,0.6-0.7,0.9-0.9c0.3-0.2,0.6-0.2,1-0.3
	L94.7,7518.1z M89.1,7525.8l-1,4.6l2,0.4l1-4.6L89.1,7525.8z M88.1,7530.4c-0.9,3.9-2.2,6.9-4.1,8.9c-1.9,2-4.3,3.1-7.6,3.1l0,2
	c3.8,0,6.8-1.3,9-3.7c2.2-2.4,3.7-5.8,4.6-9.9L88.1,7530.4z M76.4,7542.4c-4,0-7.2-1.7-9.6-4.7c-2.3-3-3.7-7.3-3.7-12.5h-2
	c0,5.5,1.5,10.3,4.2,13.7c2.7,3.4,6.6,5.5,11.2,5.4L76.4,7542.4z M63.1,7525.3c0-5.2,1.4-9.4,3.8-12.3c2.4-2.8,5.7-4.4,9.8-4.5l0-2
	c-4.7,0-8.6,1.9-11.4,5.2c-2.7,3.3-4.3,8-4.3,13.6H63.1z M75.8,7507.5v11.4h2v-11.4H75.8z M108,7495.8h1v-0.7l-0.7-0.2L108,7495.8z
	 M108,7508.6l-0.3,0.9l1.3,0.4v-1.4H108z M62.8,7493.6h-1v0.7l0.7,0.2L62.8,7493.6z M62.8,7477.4l-0.3-0.9l-0.7,0.2v0.7H62.8z
	 M108,7462.4h1v-1.4l-1.3,0.4L108,7462.4z M108,7475.2l0.3,1l0.7-0.2v-0.7H108z M99.1,7477.9l-0.3-1l-0.7,0.2v0.7H99.1z
	 M99.1,7493.1h-1v0.7l0.7,0.2L99.1,7493.1z M90.1,7490.3l-0.3,1l1.3,0.4v-1.4H90.1z M90.1,7480.7h1v-1.4l-1.3,0.4L90.1,7480.7z
	 M74.9,7485.3l-0.3-1l-0.7,0.2v0.7H74.9z M74.9,7485.7h-1v0.7l0.7,0.2L74.9,7485.7z M107,7495.8v12.9h2v-12.9H107z M108.3,7507.7
	l-45.3-15.1l-0.6,1.9l45.2,15.1L108.3,7507.7z M63.8,7493.6v-16.2h-2v16.2H63.8z M63.1,7478.3l45.3-15l-0.6-1.9l-45.2,15
	L63.1,7478.3z M107,7462.4v12.8h2v-12.8H107z M107.7,7474.2l-8.9,2.7l0.6,1.9l8.9-2.7L107.7,7474.2z M98.1,7477.9v15.1h2v-15.1H98.1
	z M98.8,7494l8.9,2.7l0.6-1.9l-8.9-2.7L98.8,7494z M91.1,7490.3v-9.6h-2v9.6H91.1z M89.8,7479.7l-15.2,4.7l0.6,1.9l15.2-4.7
	L89.8,7479.7z M73.9,7485.3v0.4h2v-0.4H73.9z M74.6,7486.6l15.2,4.6l0.6-1.9l-15.2-4.6L74.6,7486.6z M62.8,7422.1v-1h-1v1H62.8z
	 M108,7422.1h1v-1h-1V7422.1z M108,7432.1l0.6,0.8l0.4-0.3v-0.5H108z M83.6,7448.9l-0.6-0.8l-0.4,0.3v0.5H83.6z M83.6,7449.2h-1v1h1
	V7449.2z M108,7449.2h1v-1h-1V7449.2z M108,7461.1v1h1v-1H108z M62.8,7461.1h-1v1h1V7461.1z M62.8,7451l-0.6-0.8l-0.4,0.3v0.5H62.8z
	 M87.1,7434.4l0.6,0.8l0.4-0.3v-0.5H87.1z M87.1,7434h1v-1h-1V7434z M62.8,7434h-1v1h1V7434z M62.8,7423.1H108v-2H62.8V7423.1z
	 M107,7422.1v9.9h2v-9.9H107z M107.4,7431.2L83,7448.1l1.1,1.6l24.4-16.8L107.4,7431.2z M82.6,7448.9v0.3h2v-0.3H82.6z M83.6,7450.2
	H108v-2H83.6V7450.2z M107,7449.2v11.9h2v-11.9H107z M108,7460.1H62.8v2H108V7460.1z M63.8,7461.1V7451h-2v10.1H63.8z M63.3,7451.8
	l24.3-16.6l-1.1-1.6l-24.3,16.6L63.3,7451.8z M88.1,7434.4v-0.4h-2v0.4H88.1z M87.1,7433H62.8v2h24.3V7433z M63.8,7434v-11.9h-2
	v11.9H63.8z M77.6,7389.8l0.2,1l0.8-0.2v-0.8H77.6z M98.2,7397.3h1l0,0L98.2,7397.3z M91.4,7388.7l0-1l-1,0v1H91.4z M91.4,7397.1v1
	h1v-1H91.4z M82.9,7397.1h-1v1h1V7397.1z M82.9,7377.2v-1h-1v1H82.9z M85.4,7419.5l0,1h0L85.4,7419.5z M77.6,7377.7h1v-1.1l-1.1,0.1
	L77.6,7377.7z M77.4,7388.8c-1.8,0.5-3.3,1.5-4.4,3c-1,1.5-1.5,3.4-1.5,5.5h2c0-1.8,0.4-3.3,1.2-4.4c0.7-1.1,1.8-1.8,3.2-2.2
	L77.4,7388.8z M71.5,7397.3c0,3.4,1.3,6.2,3.8,8.2c2.4,1.9,5.9,2.8,10.1,2.8v-2c-3.9,0-6.9-0.9-8.8-2.4c-1.9-1.5-3-3.7-3-6.6H71.5z
	 M85.3,7408.3c4.2,0,7.7-0.9,10.1-2.7c2.5-1.9,3.8-4.7,3.8-8.2l-2,0c0,3-1.1,5.1-3,6.6c-2,1.5-5,2.3-8.9,2.3V7408.3z M99.2,7397.3
	c0-3-0.7-5.4-2.1-7c-1.4-1.7-3.4-2.5-5.8-2.6l0,2c1.8,0,3.3,0.7,4.2,1.9c1,1.2,1.6,3.1,1.7,5.8L99.2,7397.3z M90.4,7388.7v8.4h2
	v-8.4H90.4z M91.4,7396.1h-8.5v2h8.5V7396.1z M83.9,7397.1v-19.9h-2v19.9H83.9z M82.9,7378.2h6.2v-2h-6.2V7378.2z M89.1,7378.2
	c5.9,0,10.5,2,13.7,5.4c3.1,3.4,4.9,8.2,4.9,13.9h2c0-6.1-1.9-11.4-5.4-15.2c-3.6-3.8-8.7-6-15.1-6V7378.2z M107.6,7397.5
	c0,6.3-2.1,11.6-5.9,15.2c-3.8,3.7-9.3,5.8-16.3,5.8l0,2c7.4,0,13.4-2.3,17.7-6.4c4.2-4.1,6.5-9.9,6.5-16.7H107.6z M85.4,7418.5
	c-7.2,0-12.8-2.4-16.5-6.1c-3.8-3.8-5.8-9-5.8-14.9h-2c0,6.3,2.2,12.1,6.4,16.3c4.2,4.2,10.3,6.7,17.9,6.7L85.4,7418.5z
	 M63.1,7397.5c0-10.2,6.2-17.9,14.6-18.8l-0.2-2c-9.7,1.1-16.4,9.8-16.4,20.8H63.1z M76.6,7377.7v12.1h2v-12.1H76.6z M108,7363.7v1
	h1v-1H108z M62.8,7363.7h-1v1h1V7363.7z M62.8,7351.9v-1h-1v1H62.8z M80.6,7351.9v1h1v-1H80.6z M80.6,7335.2h1v-1h-1V7335.2z
	 M62.8,7335.2h-1v1h1V7335.2z M62.8,7323.2v-1h-1v1H62.8z M108,7323.2h1v-1h-1V7323.2z M108,7335.2v1h1v-1H108z M90.2,7335.2v-1h-1
	v1H90.2z M90.2,7351.9h-1v1h1V7351.9z M108,7351.9h1v-1h-1V7351.9z M108,7362.7H62.8v2H108V7362.7z M63.8,7363.7v-11.9h-2v11.9H63.8
	z M62.8,7352.9h17.8v-2H62.8V7352.9z M81.6,7351.9v-16.7h-2v16.7H81.6z M80.6,7334.2H62.8v2h17.8V7334.2z M63.8,7335.2v-11.9h-2
	v11.9H63.8z M62.8,7324.2H108v-2H62.8V7324.2z M107,7323.2v11.9h2v-11.9H107z M108,7334.2H90.2v2H108V7334.2z M89.2,7335.2v16.7h2
	v-16.7H89.2z M90.2,7352.9H108v-2H90.2V7352.9z M107,7351.9v11.9h2v-11.9H107z M85.4,7320.7l0,1h0L85.4,7320.7z M98.2,7298.8h1l0,0
	L98.2,7298.8z M85.4,7289.1l0,1l0,0L85.4,7289.1z M85.4,7277.9c7.3,0,12.9,2.3,16.6,6.1c3.7,3.7,5.7,8.9,5.7,14.8h2
	c0-6.3-2.1-12.1-6.3-16.2c-4.1-4.2-10.2-6.6-18-6.6V7277.9z M107.6,7298.8c0,6-2,11.1-5.7,14.9c-3.7,3.7-9.3,6-16.5,6.1l0,2
	c7.7,0,13.8-2.5,17.9-6.6c4.2-4.1,6.3-9.9,6.3-16.3H107.6z M85.4,7319.7c-7.3,0-12.9-2.3-16.6-6.1c-3.7-3.7-5.7-8.9-5.7-14.9h-2
	c0,6.4,2.1,12.1,6.3,16.3c4.1,4.2,10.2,6.6,18,6.6L85.4,7319.7z M63.1,7298.8c0-5.9,2-11.1,5.7-14.8c3.7-3.7,9.3-6.1,16.6-6.1v-2
	c-7.8,0-13.8,2.5-18,6.6c-4.1,4.2-6.3,9.9-6.3,16.2H63.1z M85.4,7309.4c4.3,0,7.7-0.9,10.1-2.7c2.5-1.9,3.7-4.6,3.7-8l-2,0
	c0,2.9-1,5-2.9,6.4c-1.9,1.5-4.9,2.3-8.9,2.3V7309.4z M99.2,7298.7c0-3.4-1.3-6.1-3.7-7.9c-2.4-1.8-5.9-2.7-10.1-2.7l0,2
	c4,0,7,0.8,8.9,2.3c1.9,1.4,2.9,3.5,2.9,6.4L99.2,7298.7z M85.4,7288.1c-4.3,0-7.8,0.9-10.2,2.7c-2.5,1.9-3.7,4.6-3.7,7.9h2
	c0-2.8,1-4.9,2.9-6.4c1.9-1.4,4.9-2.3,9-2.3L85.4,7288.1z M71.5,7298.8c0,3.4,1.2,6.1,3.7,8c2.4,1.8,5.9,2.7,10.2,2.7v-2
	c-4.1,0-7-0.8-9-2.3c-1.9-1.4-2.9-3.5-2.9-6.4H71.5z M85.4,7274.6l0,1h0L85.4,7274.6z M98.2,7252.6h1l0,0L98.2,7252.6z M85.4,7243
	l0,1h0L85.4,7243z M85.4,7231.8c7.3,0,12.9,2.3,16.6,6.1c3.7,3.7,5.7,8.9,5.7,14.8h2c0-6.3-2.1-12.1-6.3-16.2
	c-4.1-4.2-10.2-6.7-18-6.7V7231.8z M107.6,7252.6c0,5.9-2,11.1-5.7,14.9c-3.7,3.7-9.3,6-16.5,6l0,2c7.7,0,13.8-2.5,17.9-6.6
	c4.2-4.2,6.3-9.9,6.3-16.3H107.6z M85.4,7273.6c-7.3,0-12.9-2.3-16.6-6c-3.7-3.7-5.7-8.9-5.7-14.9h-2c0,6.4,2.1,12.1,6.3,16.3
	c4.1,4.2,10.2,6.6,18,6.6L85.4,7273.6z M63.1,7252.6c0-5.9,2-11.1,5.7-14.8c3.7-3.7,9.3-6.1,16.6-6.1v-2c-7.8,0-13.8,2.5-18,6.7
	c-4.1,4.2-6.3,9.9-6.3,16.2H63.1z M85.4,7263.3c4.3,0,7.7-0.9,10.1-2.7c2.5-1.9,3.7-4.6,3.7-8l-2,0c0,2.9-1,5-2.9,6.4
	c-1.9,1.5-4.9,2.3-8.9,2.3V7263.3z M99.2,7252.6c0-3.4-1.3-6.1-3.7-7.9c-2.4-1.8-5.9-2.7-10.1-2.7l0,2c4,0,7,0.8,8.9,2.3
	c1.9,1.4,2.9,3.5,2.9,6.4L99.2,7252.6z M85.4,7242c-4.3,0-7.8,0.9-10.2,2.7c-2.5,1.9-3.7,4.6-3.7,8h2c0-2.8,1-4.9,2.9-6.4
	c1.9-1.5,4.9-2.3,9-2.3L85.4,7242z M71.5,7252.6c0,3.4,1.2,6.1,3.7,8c2.4,1.8,5.9,2.7,10.2,2.7v-2c-4.1,0-7-0.8-9-2.3
	c-1.9-1.4-2.9-3.5-2.9-6.4H71.5z M62.8,7189.2v-1h-1v1H62.8z M108,7189.2h1v-1h-1V7189.2z M108,7199.1l0.6,0.8l0.4-0.3v-0.5H108z
	 M83.6,7216l-0.6-0.8l-0.4,0.3v0.5H83.6z M83.6,7216.3h-1v1h1V7216.3z M108,7216.3h1v-1h-1V7216.3z M108,7228.1v1h1v-1H108z
	 M62.8,7228.1h-1v1h1V7228.1z M62.8,7218l-0.6-0.8l-0.4,0.3v0.5H62.8z M87.1,7201.5l0.6,0.8l0.4-0.3v-0.5H87.1z M87.1,7201.1h1v-1
	h-1V7201.1z M62.8,7201.1h-1v1h1V7201.1z M62.8,7190.2H108v-2H62.8V7190.2z M107,7189.2v9.9h2v-9.9H107z M107.4,7198.3L83,7215.1
	l1.1,1.6l24.4-16.8L107.4,7198.3z M82.6,7216v0.3h2v-0.3H82.6z M83.6,7217.3H108v-2H83.6V7217.3z M107,7216.3v11.9h2v-11.9H107z
	 M108,7227.1H62.8v2H108V7227.1z M63.8,7228.1V7218h-2v10.1H63.8z M63.3,7218.9l24.3-16.6l-1.1-1.6l-24.3,16.6L63.3,7218.9z
	 M88.1,7201.5v-0.4h-2v0.4H88.1z M87.1,7200.1H62.8v2h24.3V7200.1z M63.8,7201.1v-11.9h-2v11.9H63.8z"/>
<path class="st4" d="M1033.7,4543.1h1v-1h-1V4543.1z M1033.7,4611v1h1v-1H1033.7z M1015.9,4611h-1v1h1V4611z M1015.9,4543.1v-1h-1v1
	H1015.9z M1032.7,4543.1v67.9h2v-67.9H1032.7z M1033.7,4610h-17.8v2h17.8V4610z M1016.9,4611v-67.9h-2v67.9H1016.9z M1015.9,4544.1
	h17.8v-2h-17.8V4544.1z M1056,4611v1h1v-1H1056z M1038.3,4611h-1v1h1V4611z M1038.3,4560.1v-1h-1v1H1038.3z M1055.1,4560.1h1v-1h-1
	V4560.1z M1055.1,4569.7h-1v1h1V4569.7z M1055.6,4569.7v1h0.7l0.2-0.7L1055.6,4569.7z M1088.9,4578.6l-1,0v0H1088.9z M1088.9,4611v1
	h1v-1H1088.9z M1071.2,4611h-1v1h1V4611z M1071.2,4582.2l-1,0v0v0H1071.2z M1063.7,4573.9l0,1l0,0l0,0L1063.7,4573.9z M1055,4582.2
	v28.8h2v-28.8H1055z M1056,4610h-17.7v2h17.7V4610z M1039.3,4611v-50.9h-2v50.9H1039.3z M1038.3,4561.1h16.8v-2h-16.8V4561.1z
	 M1054.1,4560.1v9.6h2v-9.6H1054.1z M1055.1,4570.7h0.6v-2h-0.6V4570.7z M1056.6,4570c2.1-5.9,7.5-9.6,14.6-9.6v-2
	c-7.9,0-14.1,4.1-16.5,10.9L1056.6,4570z M1071.2,4560.4c5.1,0,9.3,1.9,12.2,5c2.9,3.2,4.6,7.7,4.5,13.1l2,0c0-5.8-1.8-10.8-5-14.4
	c-3.3-3.6-8-5.7-13.7-5.7V4560.4z M1087.9,4578.6v32.4h2v-32.4H1087.9z M1088.9,4610h-17.7v2h17.7V4610z M1072.2,4611v-28.8h-2v28.8
	H1072.2z M1072.2,4582.2c0.1-2.8-0.7-5.2-2.2-6.9c-1.5-1.7-3.7-2.5-6.3-2.5l0,2c2.2,0,3.8,0.7,4.8,1.9c1.1,1.2,1.7,3,1.7,5.5
	L1072.2,4582.2z M1063.7,4572.9c-2.6,0-4.8,0.8-6.3,2.5c-1.5,1.7-2.4,4-2.4,6.8h2c0-2.4,0.7-4.2,1.8-5.5c1.1-1.2,2.8-1.9,4.9-1.9
	L1063.7,4572.9z M1123,4576.5l-1,0.1l0.1,0.9h0.9V4576.5z M1115.9,4571.3l0,1h0h0L1115.9,4571.3z M1109.9,4574.9l1,0v0v0
	L1109.9,4574.9z M1115.1,4578.7l-0.2,1l0,0L1115.1,4578.7z M1125.2,4580.5l-0.2,1v0L1125.2,4580.5z M1140.6,4594.3l1,0v0v0
	L1140.6,4594.3z M1091.1,4594.8v-1h-1.1l0.1,1.1L1091.1,4594.8z M1108.7,4594.8l1-0.2l-0.1-0.8h-0.8V4594.8z M1116.4,4599.9l0,1h0h0
	L1116.4,4599.9z M1122.6,4596.4l1,0v0v0L1122.6,4596.4z M1116.6,4592.4l0.2-1l0,0L1116.6,4592.4z M1107.7,4590.8l-0.2,1l0,0
	L1107.7,4590.8z M1139.3,4576.5v1h1.1l-0.1-1L1139.3,4576.5z M1124,4576.4c-0.4-3.9-4.1-6.1-8.1-6.1l0,2c3.4,0,5.9,1.8,6.1,4.3
	L1124,4576.4z M1115.9,4570.3c-1.8,0-3.5,0.3-4.8,1.1c-1.3,0.7-2.3,1.9-2.2,3.5l2,0c0-0.6,0.3-1.3,1.2-1.8c0.9-0.5,2.2-0.8,3.8-0.8
	L1115.9,4570.3z M1108.9,4574.9c0,1.1,0.4,2.1,1.4,3c1,0.8,2.5,1.4,4.6,1.8l0.4-2c-1.9-0.4-3-0.9-3.7-1.4c-0.5-0.5-0.7-0.9-0.7-1.4
	L1108.9,4574.9z M1114.9,4579.6l10.1,1.9l0.4-2l-10.1-1.9L1114.9,4579.6z M1125,4581.5c5.1,0.9,8.7,2.4,11.1,4.5
	c2.3,2.1,3.5,4.8,3.6,8.3l2,0c-0.1-4-1.4-7.2-4.2-9.7c-2.8-2.4-6.8-4.1-12.1-5L1125,4581.5z M1139.6,4594.3c0,5-2.4,9.2-6.5,12.1
	c-4.1,2.9-9.9,4.6-16.8,4.6v2c7.2,0,13.4-1.8,17.9-5c4.5-3.2,7.3-7.9,7.3-13.7L1139.6,4594.3z M1116.4,4610.9
	c-7.5,0-13.4-1.7-17.4-4.5c-4-2.8-6.4-6.9-6.9-11.7l-2,0.2c0.6,5.4,3.2,10,7.7,13.1c4.5,3.2,10.8,4.9,18.6,4.9V4610.9z
	 M1091.1,4595.8h17.6v-2h-17.6V4595.8z M1107.7,4595c0.3,1.9,1.4,3.4,2.9,4.5c1.5,1,3.6,1.5,5.8,1.5l0-2c-2,0-3.6-0.5-4.7-1.2
	c-1.1-0.7-1.8-1.8-2.1-3.1L1107.7,4595z M1116.5,4600.9c1.9,0,3.6-0.4,4.9-1.1c1.3-0.7,2.2-1.9,2.3-3.4l-2-0.1
	c0,0.7-0.4,1.3-1.3,1.8c-0.9,0.5-2.2,0.8-3.9,0.8L1116.5,4600.9z M1123.6,4596.3c-0.1-1.4-0.8-2.5-2-3.3c-1.2-0.7-2.8-1.2-4.9-1.6
	l-0.4,2c2,0.4,3.3,0.8,4.1,1.3c0.7,0.5,1,1,1.1,1.7L1123.6,4596.3z M1116.8,4591.5l-8.9-1.6l-0.3,2l8.9,1.6L1116.8,4591.5z
	 M1107.9,4589.9c-5-0.9-8.7-2.6-11.1-4.9c-2.4-2.3-3.6-5.3-3.6-9h-2c0,4.2,1.4,7.7,4.2,10.4c2.8,2.7,6.8,4.5,12.1,5.5L1107.9,4589.9
	z M1093.3,4575.9c0-4.9,2.1-8.8,5.8-11.4c3.8-2.6,9.4-4.1,16.4-4.1v-2c-7.3,0-13.3,1.5-17.6,4.5c-4.3,3-6.7,7.4-6.7,13H1093.3z
	 M1115.5,4560.4c7.1,0,12.7,1.6,16.6,4.4c3.8,2.8,6,6.7,6.2,11.8l2-0.1c-0.3-5.6-2.8-10.2-7.1-13.3c-4.3-3.1-10.3-4.7-17.7-4.7
	V4560.4z M1139.3,4575.5H1123v2h16.3V4575.5z M1143.1,4630.1h-1v1h1V4630.1z M1143.1,4560.1v-1h-1v1H1143.1z M1160.6,4560.1h1v-1h-1
	V4560.1z M1160.6,4568.9h-1v1h1V4568.9z M1161.1,4568.9v1h0.7l0.2-0.7L1161.1,4568.9z M1175.2,4611.7v-1h0L1175.2,4611.7z
	 M1161.1,4602.7l0.9-0.4l-0.3-0.6h-0.7V4602.7z M1160.8,4602.7v-1h-1v1H1160.8z M1160.8,4630.1v1h1v-1H1160.8z M1160.4,4585.5l1,0v0
	L1160.4,4585.5z M1168.8,4598.1l0,1h0h0L1168.8,4598.1z M1177.2,4585.5l1,0v0L1177.2,4585.5z M1168.8,4573.1l0,1l0,0l0,0
	L1168.8,4573.1z M1144.1,4630.1v-70h-2v70H1144.1z M1143.1,4561.1h17.5v-2h-17.5V4561.1z M1159.6,4560.1v8.8h2v-8.8H1159.6z
	 M1160.6,4569.9h0.5v-2h-0.5V4569.9z M1162,4569.3c1.8-4.7,6.1-8.8,13.4-8.8v-2c-8.2,0-13.2,4.8-15.3,10.1L1162,4569.3z
	 M1175.4,4560.4c4.8,0,9.6,1.9,13.1,5.9c3.5,4,5.9,10.3,5.9,19.3h2c0-9.3-2.5-16.1-6.4-20.6c-3.9-4.5-9.2-6.5-14.6-6.5V4560.4z
	 M1194.4,4585.6c0,8.6-2.2,14.9-5.7,19c-3.5,4.1-8.2,6.1-13.4,6.1l0,2c5.8,0,11.1-2.2,15-6.8c3.9-4.5,6.2-11.3,6.2-20.3H1194.4z
	 M1175.2,4610.7c-6.8,0-11.3-3.7-13.2-8.4l-1.9,0.8c2.2,5.4,7.4,9.7,15.1,9.6L1175.2,4610.7z M1161.1,4601.7h-0.3v2h0.3V4601.7z
	 M1159.8,4602.7v27.5h2v-27.5H1159.8z M1160.8,4629.1h-17.7v2h17.7V4629.1z M1159.4,4585.5c0,4,0.8,7.3,2.4,9.7c1.6,2.4,4,3.8,7,3.9
	l0-2c-2.3,0-4.1-1.1-5.4-3c-1.3-1.9-2.1-4.9-2-8.6L1159.4,4585.5z M1168.8,4599.1c3,0,5.3-1.4,7-3.8c1.6-2.4,2.4-5.7,2.4-9.7l-2,0
	c0,3.8-0.8,6.7-2.1,8.6c-1.2,1.9-3,2.9-5.3,2.9L1168.8,4599.1z M1178.2,4585.5c0-4-0.8-7.3-2.4-9.6c-1.6-2.4-4-3.8-7-3.7l0,2
	c2.3,0,4.1,1,5.3,2.8c1.3,1.9,2,4.8,2,8.5L1178.2,4585.5z M1168.8,4572.1c-3,0-5.4,1.3-7.1,3.7c-1.6,2.4-2.4,5.7-2.4,9.7l2,0
	c0-3.8,0.7-6.6,2-8.5c1.3-1.9,3.1-2.9,5.4-2.8L1168.8,4572.1z M1198.4,4611h-1v1h1V4611z M1198.4,4560.1v-1h-1v1H1198.4z
	 M1216.2,4560.1h1v-1h-1V4560.1z M1216.2,4611v1h1v-1H1216.2z M1198.4,4546.4l1,0v0v0L1198.4,4546.4z M1207.3,4554.6l0-1h0h0
	L1207.3,4554.6z M1199.4,4611v-50.9h-2v50.9H1199.4z M1198.4,4561.1h17.7v-2h-17.7V4561.1z M1215.2,4560.1v50.9h2v-50.9H1215.2z
	 M1216.2,4610h-17.7v2h17.7V4610z M1199.4,4546.4c0-3.9,3.4-7.1,7.8-7.1v-2c-5.3,0-9.9,4-9.8,9.2L1199.4,4546.4z M1207.3,4539.2
	c4.3,0,7.8,3.3,7.8,7.2h2c0-5.1-4.5-9.2-9.8-9.2V4539.2z M1215.1,4546.4c0,3.9-3.5,7.2-7.8,7.1l0,2c5.3,0,9.8-4,9.8-9.1H1215.1z
	 M1207.2,4553.6c-4.4,0-7.8-3.2-7.8-7.1l-2,0c-0.1,5.2,4.5,9.2,9.8,9.2L1207.2,4553.6z M1220.8,4611h-1v1h1V4611z M1220.8,4560.1v-1
	h-1v1H1220.8z M1238,4560.1h1v-1h-1V4560.1z M1238,4569.7h-1v1h1V4569.7z M1238.6,4569.7v1h0.8l0.2-0.8L1238.6,4569.7z
	 M1250.2,4559.4l0,1h0h0L1250.2,4559.4z M1254.8,4560h1v-0.8l-0.8-0.2L1254.8,4560z M1254.8,4575.3l-0.3,0.9l1.3,0.5v-1.4H1254.8z
	 M1238.6,4584.2h1v0L1238.6,4584.2z M1238.6,4611v1h1v-1H1238.6z M1221.8,4611v-50.9h-2v50.9H1221.8z M1220.8,4561.1h17.2v-2h-17.2
	V4561.1z M1237,4560.1v9.6h2v-9.6H1237z M1238,4570.7h0.6v-2h-0.6V4570.7z M1239.5,4569.9c0.9-3.4,2.3-5.7,4.1-7.2
	c1.8-1.5,4-2.2,6.5-2.2l0-2c-2.9,0-5.6,0.8-7.8,2.7c-2.2,1.9-3.8,4.6-4.8,8.3L1239.5,4569.9z M1250.2,4560.4c1.4,0,3,0.2,4.3,0.5
	l0.5-1.9c-1.4-0.3-3.2-0.6-4.8-0.6L1250.2,4560.4z M1253.8,4560v15.3h2V4560H1253.8z M1255.1,4574.3c-1.9-0.7-5-1-7-1v2
	c1.9,0,4.7,0.3,6.3,0.9L1255.1,4574.3z M1248.1,4573.3c-3,0-5.7,1.1-7.6,3c-1.9,1.9-3,4.6-3,7.9l2,0c0-2.7,0.9-4.9,2.4-6.4
	c1.5-1.5,3.6-2.4,6.2-2.4V4573.3z M1237.6,4584.2v26.8h2v-26.8H1237.6z M1238.6,4610h-17.7v2h17.7V4610z M1270.1,4580.7l-0.1-1h0
	L1270.1,4580.7z M1282,4580.2l0,1l1,0v-1H1282z M1282,4576.1h1l0,0v0L1282,4576.1z M1269.8,4576.5v1h0.9l0.1-0.9L1269.8,4576.5z
	 M1253.3,4576.5l-1-0.1l-0.1,1.1h1.1V4576.5z M1299.8,4611v1h1v-1H1299.8z M1283.2,4611h-1v1h1V4611z M1283.2,4603.9h1v-1h-1V4603.9
	z M1282.8,4603.9v-1h-0.6l-0.3,0.5L1282.8,4603.9z M1268,4611.8v1h0L1268,4611.8z M1268.1,4595.9l-1,0v0v0L1268.1,4595.9z
	 M1273.7,4600.5l0-1h0h0L1273.7,4600.5z M1282.1,4592.9h-1v0L1282.1,4592.9z M1282.1,4590.2h1v-1l-1,0L1282.1,4590.2z
	 M1273.3,4590.7l-0.1-1h0h0L1273.3,4590.7z M1252.4,4596.9c0-5.3,2-8.9,5.1-11.3c3.2-2.4,7.6-3.6,12.7-3.9l-0.1-2
	c-5.3,0.3-10.2,1.6-13.8,4.3c-3.7,2.8-5.9,7-5.9,12.9H1252.4z M1270.2,4581.7c3.9-0.2,9.8-0.4,11.9-0.5l-0.1-2
	c-2,0.1-8.1,0.3-11.9,0.5L1270.2,4581.7z M1283,4580.2v-4.1h-2v4.1H1283z M1283,4576.1c0-1.7-0.8-3.1-2-4c-1.2-0.9-2.9-1.3-4.8-1.3
	v2c1.6,0,2.8,0.4,3.6,0.9c0.8,0.6,1.2,1.4,1.2,2.5L1283,4576.1z M1276.2,4570.7c-1.9,0-3.7,0.4-5,1.4c-1.4,1-2.2,2.4-2.4,4.3l2,0.3
	c0.2-1.4,0.8-2.3,1.6-2.9c0.9-0.6,2.2-1,3.8-1V4570.7z M1269.8,4575.5h-16.4v2h16.4V4575.5z M1254.3,4576.6
	c0.3-4.4,2.2-8.4,5.8-11.3c3.6-2.9,9-4.8,16.3-4.8v-2c-7.7,0-13.5,2-17.6,5.3c-4.1,3.3-6.2,7.8-6.6,12.7L1254.3,4576.6z
	 M1276.5,4560.4c6.9,0,12.5,1.7,16.3,4.5c3.8,2.8,5.9,6.7,5.9,11.3h2c0-5.2-2.5-9.7-6.7-12.9c-4.3-3.1-10.3-4.9-17.5-4.9V4560.4z
	 M1298.8,4576.2v34.8h2v-34.8H1298.8z M1299.8,4610h-16.6v2h16.6V4610z M1284.2,4611v-7.1h-2v7.1H1284.2z M1283.2,4602.9h-0.4v2h0.4
	V4602.9z M1281.9,4603.4c-1.4,2.6-3.3,4.4-5.6,5.6c-2.3,1.2-5.1,1.8-8.4,1.8l0,2c3.5,0,6.6-0.6,9.3-2c2.7-1.4,4.8-3.5,6.4-6.4
	L1281.9,4603.4z M1268,4610.8c-4.7,0-8.6-1.2-11.3-3.4c-2.7-2.2-4.3-5.6-4.3-10.5h-2c0,5.3,1.8,9.3,5,12c3.2,2.6,7.6,3.9,12.6,3.9
	L1268,4610.8z M1267.1,4595.9c0,1.8,0.7,3.2,2,4.2c1.2,1,2.9,1.4,4.6,1.4l0-2c-1.5,0-2.6-0.3-3.4-0.9c-0.7-0.6-1.2-1.4-1.2-2.7
	L1267.1,4595.9z M1273.7,4601.5c4.8,0,9.5-3.1,9.4-8.6l-2,0c0,4.1-3.4,6.6-7.4,6.6L1273.7,4601.5z M1283.1,4592.9v-2.7h-2v2.7
	H1283.1z M1282.1,4589.2c-1.8,0-6.5,0.2-8.9,0.5l0.2,2c2.3-0.2,6.9-0.4,8.7-0.5L1282.1,4589.2z M1273.2,4589.7
	c-3.6,0.5-6.1,2.9-6.1,6.2l2,0c0-2.2,1.6-3.9,4.4-4.3L1273.2,4589.7z M1333.9,4560.1h1v-1h-1V4560.1z M1333.9,4572.9v1h1v-1H1333.9z
	 M1324.9,4572.9v-1h-1v1H1324.9z M1328.6,4598.2l-0.1,1l0,0h0L1328.6,4598.2z M1334.5,4597.9h1v-1.1l-1.1,0.1L1334.5,4597.9z
	 M1334.5,4611.1l0.2,1l0.8-0.2v-0.8H1334.5z M1326.1,4611.8l0,1h0h0L1326.1,4611.8z M1307.2,4596.5l1,0v0H1307.2z M1307.2,4572.9h1
	v-1h-1V4572.9z M1300.7,4572.9h-1v1h1V4572.9z M1300.7,4560.1v-1h-1v1H1300.7z M1307.2,4560.1v1h1v-1H1307.2z M1307.2,4547.9v-1h-1
	v1H1307.2z M1324.9,4547.9h1v-1h-1V4547.9z M1324.9,4560.1h-1v1h1V4560.1z M1332.9,4560.1v12.9h2v-12.9H1332.9z M1333.9,4571.9h-8.9
	v2h8.9V4571.9z M1323.9,4572.9v21.8h2v-21.8H1323.9z M1323.9,4594.7c0,1.4,0.3,2.5,1.2,3.3c0.8,0.8,2,1.1,3.4,1.1l0.1-2
	c-1.2-0.1-1.8-0.3-2.2-0.6c-0.3-0.3-0.6-0.8-0.6-1.8H1323.9z M1328.6,4599.2c1.3,0,4-0.1,6-0.3l-0.2-2c-2,0.2-4.6,0.3-5.8,0.3
	L1328.6,4599.2z M1333.5,4597.9v13.2h2v-13.2H1333.5z M1334.3,4610.1c-1.6,0.3-4.3,0.6-8.2,0.6l0,2c4,0,6.9-0.3,8.6-0.7
	L1334.3,4610.1z M1326.1,4610.8c-6.1,0-10.5-1.2-13.5-3.5c-2.9-2.2-4.4-5.7-4.4-10.8l-2,0c-0.1,5.5,1.6,9.7,5.1,12.4
	c3.5,2.7,8.5,3.9,14.7,3.9L1326.1,4610.8z M1308.2,4596.5v-23.5h-2v23.5H1308.2z M1307.2,4571.9h-6.6v2h6.6V4571.9z M1301.7,4572.9
	v-12.9h-2v12.9H1301.7z M1300.7,4561.1h6.6v-2h-6.6V4561.1z M1308.2,4560.1v-12.2h-2v12.2H1308.2z M1307.2,4548.9h17.7v-2h-17.7
	V4548.9z M1323.9,4547.9v12.2h2v-12.2H1323.9z M1324.9,4561.1h8.9v-2h-8.9V4561.1z M1334.1,4585.7l-1,0v0H1334.1z M1385,4585.5h1
	l0,0H1385z M1385,4589.7v1h1v-1H1385z M1351.7,4589.7v-1h-1v1H1351.7z M1368.7,4594.8v-1h-0.7l-0.2,0.7L1368.7,4594.8z
	 M1384.9,4594.8l1,0.2l0.2-1.2h-1.2V4594.8z M1351.7,4579.8l-1,0l0,1h1V4579.8z M1368.6,4579.8v1h1l0-1L1368.6,4579.8z M1360.3,4572
	l0,1h0h0L1360.3,4572z M1360.3,4610.9c-7.9,0-14.2-2.4-18.4-6.7c-4.3-4.3-6.7-10.6-6.7-18.6l-2,0c0,8.4,2.6,15.3,7.3,20
	c4.7,4.7,11.5,7.2,19.8,7.2V4610.9z M1335.1,4585.7c0-7.7,2.5-14,6.7-18.3c4.3-4.4,10.4-6.9,18-6.9v-2c-8.1,0-14.8,2.7-19.5,7.5
	c-4.7,4.8-7.3,11.6-7.3,19.7L1335.1,4585.7z M1359.9,4560.4c7.3,0,13.3,2.4,17.5,6.6c4.2,4.2,6.6,10.5,6.6,18.5h2
	c0-8.4-2.6-15.2-7.2-19.9c-4.6-4.7-11.1-7.2-18.9-7.2V4560.4z M1384,4585.5v4.2h2v-4.2H1384z M1385,4588.7h-33.4v2h33.4V4588.7z
	 M1350.7,4589.7v0.7h2v-0.7H1350.7z M1350.7,4590.4c0,2.9,0.9,5.4,2.7,7.2c1.8,1.8,4.3,2.8,7.3,2.8v-2c-2.6,0-4.6-0.9-5.9-2.2
	c-1.3-1.4-2.1-3.4-2.1-5.8H1350.7z M1360.7,4600.4c4.2,0,7.7-1.8,9-5.2l-1.9-0.7c-0.9,2.4-3.5,3.9-7.1,3.9V4600.4z M1368.7,4595.8
	h16.2v-2h-16.2V4595.8z M1383.9,4594.6c-0.8,5-3.4,9-7.3,11.9c-4,2.8-9.5,4.5-16.3,4.5v2c7.1,0,13.1-1.7,17.5-4.8
	c4.4-3.1,7.3-7.7,8.2-13.2L1383.9,4594.6z M1351.7,4580.8h17v-2h-17V4580.8z M1369.6,4579.8c-0.1-5.2-4.1-8.8-9.3-8.8l0,2
	c4.2,0,7.3,2.8,7.3,6.8L1369.6,4579.8z M1360.3,4571c-5.2,0-9.5,3.5-9.6,8.8l2,0.1c0.1-4,3.4-6.9,7.6-6.8L1360.3,4571z
	 M1406.3,4611.7l0-1h0V4611.7z M1420.4,4568.9l-0.9,0.3l0.2,0.7h0.7V4568.9z M1420.7,4568.9v1h1v-1H1420.7z M1420.7,4543.1v-1h-1v1
	H1420.7z M1438.4,4543.1h1v-1h-1V4543.1z M1438.4,4611v1h1v-1H1438.4z M1420.9,4611h-1v1h1V4611z M1420.9,4602.7h1v-1h-1V4602.7z
	 M1420.4,4602.7v-1h-0.7l-0.2,0.6L1420.4,4602.7z M1404.4,4585.5l1,0v0L1404.4,4585.5z M1412.7,4598.1l0,1h0l0,0V4598.1z
	 M1421.2,4585.5l1,0v0L1421.2,4585.5z M1412.7,4573.1l0,1l0,0v0V4573.1z M1406.3,4610.7c-5.2,0-10-2-13.4-6.1
	c-3.5-4.1-5.7-10.4-5.7-19h-2c0,8.9,2.3,15.7,6.2,20.3c3.9,4.6,9.2,6.8,15,6.8V4610.7z M1387.1,4585.6c0-9,2.4-15.3,5.9-19.3
	c3.5-4,8.2-5.9,13-5.9v-2c-5.3,0-10.6,2.1-14.5,6.5c-3.9,4.5-6.4,11.3-6.4,20.6H1387.1z M1406.1,4560.4c7.3,0,11.6,4.1,13.4,8.8
	l1.9-0.7c-2.1-5.4-7.1-10.1-15.3-10.1V4560.4z M1420.4,4569.9h0.3v-2h-0.3V4569.9z M1421.7,4568.9v-25.8h-2v25.8H1421.7z
	 M1420.7,4544.1h17.7v-2h-17.7V4544.1z M1437.4,4543.1v67.9h2v-67.9H1437.4z M1438.4,4610h-17.5v2h17.5V4610z M1421.9,4611v-8.3h-2
	v8.3H1421.9z M1420.9,4601.7h-0.5v2h0.5V4601.7z M1419.5,4602.3c-1.9,4.7-6.4,8.4-13.2,8.4l0,2c7.7,0,12.9-4.2,15.1-9.6
	L1419.5,4602.3z M1403.4,4585.5c0,4,0.7,7.3,2.3,9.7c1.6,2.4,4,3.8,6.9,3.8l0-2c-2.3,0-4-1-5.3-2.9c-1.3-1.9-2-4.8-2-8.6
	L1403.4,4585.5z M1412.7,4599.1c3,0,5.4-1.4,7.1-3.9c1.6-2.4,2.4-5.7,2.5-9.7l-2,0c0,3.7-0.8,6.6-2.1,8.6c-1.3,1.9-3.1,3-5.4,3
	L1412.7,4599.1z M1422.2,4585.5c0-4-0.8-7.3-2.5-9.7c-1.6-2.4-4.1-3.7-7.1-3.7l0,2c2.3,0,4.1,1,5.4,2.8c1.3,1.9,2.1,4.8,2.1,8.5
	L1422.2,4585.5z M1412.7,4572.1c-3,0-5.4,1.3-7,3.7c-1.6,2.4-2.3,5.7-2.3,9.6l2,0c0-3.7,0.7-6.6,2-8.5c1.2-1.9,3-2.9,5.3-2.8
	L1412.7,4572.1z M1458.9,4611h-1v1h1V4611z M1458.9,4543.1v-1h-1v1H1458.9z M1511.6,4560.2h1v0L1511.6,4560.2z M1498.6,4575l-0.2-1
	l-0.8,0.2v0.8H1498.6z M1498.6,4575.7h-1v1l1,0L1498.6,4575.7z M1476.8,4596.7h-1v1h1V4596.7z M1485.8,4596.7v-1l0,0V4596.7z
	 M1476.8,4581.8v-1h-1v1H1476.8z M1476.8,4570.7h-1v1h1V4570.7z M1476.8,4557.2v-1h-1v1H1476.8z M1459.9,4611v-67.9h-2v67.9H1459.9z
	 M1458.9,4544.1h29.1v-2h-29.1V4544.1z M1488,4544.1c7.6,0,13.3,1.7,17,4.4c3.7,2.8,5.6,6.7,5.6,11.6l2,0c0-5.5-2.2-10-6.4-13.2
	c-4.2-3.1-10.3-4.9-18.2-4.9V4544.1z M1510.6,4560.2c-0.1,7-4.9,12.3-12.2,13.8l0.4,2c8.1-1.7,13.8-7.8,13.8-15.8L1510.6,4560.2z
	 M1497.6,4575v0.7h2v-0.7H1497.6z M1498.6,4576.7c8.1,0.3,14.7,6.1,14.7,15.2h2c0-10.3-7.6-16.9-16.6-17.2L1498.6,4576.7z
	 M1513.2,4591.9c0,5.2-2.1,9.7-6,12.9c-3.9,3.2-9.6,5.2-16.8,5.2v2c7.6,0,13.8-2.1,18.1-5.6c4.3-3.6,6.7-8.7,6.7-14.5H1513.2z
	 M1490.4,4610h-31.5v2h31.5V4610z M1476.8,4597.7h9.1v-2h-9.1V4597.7z M1485.8,4597.7c3.3,0,6-0.6,7.8-2c1.9-1.4,2.8-3.5,2.8-6.1h-2
	c0,2-0.7,3.5-2,4.5c-1.3,1-3.5,1.6-6.6,1.6L1485.8,4597.7z M1496.4,4589.6c0-2.7-1-5-2.9-6.5c-1.8-1.5-4.4-2.3-7.4-2.3v2
	c2.7,0,4.8,0.7,6.2,1.8c1.3,1.1,2.1,2.8,2.1,5H1496.4z M1486.1,4580.8h-9.4v2h9.4V4580.8z M1475.8,4581.8v14.8h2v-14.8H1475.8z
	 M1476.8,4571.7h8v-2h-8V4571.7z M1484.7,4571.7c2.7,0,5-0.6,6.8-2c1.8-1.3,2.8-3.3,2.8-5.8h-2c0,1.9-0.7,3.2-2,4.2
	c-1.3,1-3.2,1.6-5.5,1.6V4571.7z M1494.2,4563.9c0-2.4-1-4.4-2.7-5.8c-1.7-1.3-4-2-6.6-2v2c2.3,0,4.1,0.6,5.3,1.5
	c1.2,1,1.9,2.3,1.9,4.2H1494.2z M1485,4556.2h-8.2v2h8.2V4556.2z M1475.8,4557.2v13.5h2v-13.5H1475.8z M1526.6,4630.1l0,1v0l0,0
	V4630.1z M1517.9,4629.8h-1v0.9l0.9,0.1L1517.9,4629.8z M1517.9,4616.6l0.1-1l-1.1-0.1v1.1H1517.9z M1529.9,4614.1l0.9,0.4l0,0
	L1529.9,4614.1z M1530.3,4613.2l0.9,0.4l0.1-0.3l-0.1-0.4L1530.3,4613.2z M1512.4,4560.1v-1h-1.4l0.4,1.3L1512.4,4560.1z
	 M1530.8,4560.1l1-0.2l-0.2-0.8h-0.8V4560.1z M1539.4,4595.6l-1,0.2l0.2,0.8h0.8V4595.6z M1539.9,4595.6v1h0.8l0.2-0.8
	L1539.9,4595.6z M1548.6,4560.1v-1h-0.8l-0.2,0.8L1548.6,4560.1z M1567.2,4560.1l1,0.3l0.4-1.3h-1.4V4560.1z M1548.4,4615.4
	l-0.9-0.3h0L1548.4,4615.4z M1526.6,4629.1c-3.3,0-6.4-0.1-8.7-0.3l-0.2,2c2.3,0.2,5.5,0.2,8.8,0.3L1526.6,4629.1z M1518.9,4629.8
	v-13.2h-2v13.2H1518.9z M1517.8,4617.6c2.4,0.2,4.8,0.2,6.7,0.2v-2c-2,0-4.2,0-6.6-0.2L1517.8,4617.6z M1524.6,4617.8
	c1.3,0,2.5-0.1,3.6-0.5c1.2-0.5,2.1-1.4,2.6-2.8l-1.9-0.8c-0.4,1-0.9,1.5-1.5,1.7c-0.7,0.3-1.6,0.4-2.9,0.4V4617.8z M1530.8,4614.5
	l0.4-0.9l-1.8-0.8l-0.4,0.9L1530.8,4614.5z M1531.2,4612.8l-17.9-53.1l-1.9,0.6l17.9,53.1L1531.2,4612.8z M1512.4,4561.1h18.5v-2
	h-18.5V4561.1z M1529.9,4560.3l8.5,35.5l1.9-0.5l-8.5-35.5L1529.9,4560.3z M1539.4,4596.6h0.6v-2h-0.6V4596.6z M1540.9,4595.9
	l8.7-35.5l-1.9-0.5l-8.7,35.5L1540.9,4595.9z M1548.6,4561.1h18.6v-2h-18.6V4561.1z M1566.3,4559.8l-18.8,55.3l1.9,0.6l18.8-55.3
	L1566.3,4559.8z M1547.5,4615.1c-1.3,4.1-3.4,7.5-6.7,10c-3.3,2.5-7.8,4-14.2,4v2c6.7,0,11.7-1.6,15.4-4.4c3.7-2.8,6-6.6,7.4-11
	L1547.5,4615.1z M1583.9,4611h-1v1h1V4611z M1583.9,4560.1v-1h-1v1H1583.9z M1601.7,4560.1h1v-1h-1V4560.1z M1601.7,4611v1h1v-1
	H1601.7z M1583.9,4546.4l1,0v0v0L1583.9,4546.4z M1592.8,4554.6l0-1h0h0L1592.8,4554.6z M1584.9,4611v-50.9h-2v50.9H1584.9z
	 M1583.9,4561.1h17.7v-2h-17.7V4561.1z M1600.7,4560.1v50.9h2v-50.9H1600.7z M1601.7,4610h-17.7v2h17.7V4610z M1584.9,4546.4
	c0-3.9,3.4-7.1,7.8-7.1v-2c-5.3,0-9.9,4-9.8,9.2L1584.9,4546.4z M1592.8,4539.2c4.3,0,7.8,3.3,7.8,7.2h2c0-5.1-4.5-9.2-9.8-9.2
	V4539.2z M1600.6,4546.4c0,3.9-3.5,7.2-7.8,7.1l0,2c5.3,0,9.8-4,9.8-9.1H1600.6z M1592.8,4553.6c-4.4,0-7.8-3.2-7.8-7.1l-2,0
	c-0.1,5.2,4.5,9.2,9.8,9.2L1592.8,4553.6z M1606.3,4611h-1v1h1V4611z M1606.3,4560.1v-1h-1v1H1606.3z M1623.5,4560.1h1v-1h-1V4560.1
	z M1623.5,4569.7h-1v1h1V4569.7z M1624.1,4569.7v1h0.8l0.2-0.8L1624.1,4569.7z M1635.7,4559.4l0,1h0h0L1635.7,4559.4z M1640.3,4560
	h1v-0.8l-0.8-0.2L1640.3,4560z M1640.3,4575.3l-0.3,0.9l1.3,0.5v-1.4H1640.3z M1624.1,4584.2h1v0L1624.1,4584.2z M1624.1,4611v1h1
	v-1H1624.1z M1607.3,4611v-50.9h-2v50.9H1607.3z M1606.3,4561.1h17.2v-2h-17.2V4561.1z M1622.5,4560.1v9.6h2v-9.6H1622.5z
	 M1623.5,4570.7h0.6v-2h-0.6V4570.7z M1625,4569.9c0.9-3.4,2.3-5.7,4.1-7.2c1.8-1.5,4-2.2,6.5-2.2l0-2c-2.9,0-5.6,0.8-7.8,2.7
	c-2.2,1.9-3.8,4.6-4.8,8.3L1625,4569.9z M1635.7,4560.4c1.4,0,3,0.2,4.3,0.5l0.5-1.9c-1.4-0.3-3.2-0.6-4.8-0.6L1635.7,4560.4z
	 M1639.3,4560v15.3h2V4560H1639.3z M1640.6,4574.3c-1.9-0.7-5-1-7-1v2c1.9,0,4.7,0.3,6.3,0.9L1640.6,4574.3z M1633.6,4573.3
	c-3,0-5.7,1.1-7.6,3c-1.9,1.9-3,4.6-3,7.9l2,0c0-2.7,0.9-4.9,2.4-6.4c1.5-1.5,3.6-2.4,6.2-2.4V4573.3z M1623.1,4584.2v26.8h2v-26.8
	H1623.1z M1624.1,4610h-17.7v2h17.7V4610z M1641.6,4611h-1v1h1V4611z M1641.6,4560.1v-1h-1v1H1641.6z M1659.3,4560.1h1v-1h-1V4560.1
	z M1659.3,4611v1h1v-1H1659.3z M1641.6,4546.4l1,0v0v0L1641.6,4546.4z M1650.4,4554.6l0-1h0h0L1650.4,4554.6z M1642.6,4611v-50.9h-2
	v50.9H1642.6z M1641.6,4561.1h17.7v-2h-17.7V4561.1z M1658.3,4560.1v50.9h2v-50.9H1658.3z M1659.3,4610h-17.7v2h17.7V4610z
	 M1642.6,4546.4c0-3.9,3.4-7.1,7.8-7.1v-2c-5.3,0-9.9,4-9.8,9.2L1642.6,4546.4z M1650.4,4539.2c4.3,0,7.8,3.3,7.8,7.2h2
	c0-5.1-4.5-9.2-9.8-9.2V4539.2z M1658.2,4546.4c0,3.9-3.5,7.2-7.8,7.1l0,2c5.3,0,9.8-4,9.8-9.1H1658.2z M1650.4,4553.6
	c-4.4,0-7.8-3.2-7.8-7.1l-2,0c-0.1,5.2,4.5,9.2,9.8,9.2L1650.4,4553.6z M1714.7,4560.1l0.9,0.3l0.4-1.3h-1.4V4560.1z M1697.5,4611v1
	h0.7l0.2-0.7L1697.5,4611z M1677,4611l-0.9,0.3l0.2,0.7h0.7V4611z M1659.8,4560.1v-1h-1.4l0.4,1.3L1659.8,4560.1z M1678.5,4560.1
	l1-0.2l-0.2-0.8h-0.8V4560.1z M1687,4594.1l-1,0.2l0.2,0.8h0.8V4594.1z M1687.5,4594.1v1h0.8l0.2-0.8L1687.5,4594.1z M1696.1,4560.1
	v-1h-0.8l-0.2,0.8L1696.1,4560.1z M1713.7,4559.8l-17.2,50.9l1.9,0.6l17.2-50.9L1713.7,4559.8z M1697.5,4610H1677v2h20.5V4610z
	 M1677.9,4610.7l-17.2-50.9l-1.9,0.6l17.2,50.9L1677.9,4610.7z M1659.8,4561.1h18.7v-2h-18.7V4561.1z M1677.5,4560.3l8.5,34l1.9-0.5
	l-8.5-34L1677.5,4560.3z M1687,4595.1h0.5v-2h-0.5V4595.1z M1688.4,4594.4l8.6-34l-1.9-0.5l-8.6,34L1688.4,4594.4z M1696.1,4561.1
	h18.6v-2h-18.6V4561.1z M1711.8,4585.7l-1,0v0H1711.8z M1762.7,4585.5h1l0,0H1762.7z M1762.7,4589.7v1h1v-1H1762.7z M1729.3,4589.7
	v-1h-1v1H1729.3z M1746.3,4594.8v-1h-0.7l-0.2,0.7L1746.3,4594.8z M1762.6,4594.8l1,0.2l0.2-1.2h-1.2V4594.8z M1729.3,4579.8l-1,0
	l0,1h1V4579.8z M1746.2,4579.8v1h1l0-1L1746.2,4579.8z M1737.9,4572l0,1h0h0L1737.9,4572z M1737.9,4610.9c-7.9,0-14.2-2.4-18.4-6.7
	c-4.3-4.3-6.7-10.6-6.7-18.6l-2,0c0,8.4,2.6,15.3,7.3,20c4.7,4.7,11.5,7.2,19.8,7.2V4610.9z M1712.8,4585.7c0-7.7,2.5-14,6.7-18.3
	c4.3-4.4,10.4-6.9,18.1-6.9v-2c-8.1,0-14.8,2.7-19.5,7.5c-4.7,4.8-7.3,11.6-7.3,19.7L1712.8,4585.7z M1737.5,4560.4
	c7.3,0,13.3,2.4,17.5,6.6c4.2,4.2,6.6,10.5,6.6,18.5h2c0-8.4-2.6-15.2-7.2-19.9c-4.6-4.7-11.2-7.2-18.9-7.2V4560.4z M1761.7,4585.5
	v4.2h2v-4.2H1761.7z M1762.7,4588.7h-33.4v2h33.4V4588.7z M1728.3,4589.7v0.7h2v-0.7H1728.3z M1728.3,4590.4c0,2.9,0.9,5.4,2.7,7.2
	c1.8,1.8,4.3,2.8,7.3,2.8v-2c-2.6,0-4.6-0.9-5.9-2.2c-1.3-1.4-2.1-3.4-2.1-5.8H1728.3z M1738.3,4600.4c4.1,0,7.7-1.8,9-5.2l-1.9-0.7
	c-0.9,2.4-3.5,3.9-7.1,3.9V4600.4z M1746.3,4595.8h16.2v-2h-16.2V4595.8z M1761.6,4594.6c-0.8,5-3.4,9-7.3,11.9
	c-4,2.8-9.5,4.5-16.3,4.5v2c7.1,0,13.1-1.7,17.5-4.8c4.4-3.1,7.3-7.7,8.2-13.2L1761.6,4594.6z M1729.3,4580.8h17v-2h-17V4580.8z
	 M1747.2,4579.8c-0.1-5.2-4.1-8.8-9.4-8.8l0,2c4.2,0,7.3,2.8,7.3,6.8L1747.2,4579.8z M1737.9,4571c-5.2,0-9.5,3.5-9.6,8.8l2,0.1
	c0.1-4,3.3-6.9,7.6-6.8L1737.9,4571z M1765.4,4611h-1v1h1V4611z M1765.4,4560.1v-1h-1v1H1765.4z M1782.6,4560.1h1v-1h-1V4560.1z
	 M1782.6,4569.7h-1v1h1V4569.7z M1783.2,4569.7v1h0.8l0.2-0.8L1783.2,4569.7z M1794.8,4559.4l0,1h0h0L1794.8,4559.4z M1799.4,4560h1
	v-0.8l-0.8-0.2L1799.4,4560z M1799.4,4575.3l-0.3,0.9l1.3,0.5v-1.4H1799.4z M1783.2,4584.2h1v0L1783.2,4584.2z M1783.2,4611v1h1v-1
	H1783.2z M1766.4,4611v-50.9h-2v50.9H1766.4z M1765.4,4561.1h17.2v-2h-17.2V4561.1z M1781.6,4560.1v9.6h2v-9.6H1781.6z
	 M1782.6,4570.7h0.6v-2h-0.6V4570.7z M1784.1,4569.9c0.9-3.4,2.3-5.7,4.1-7.2c1.8-1.5,4-2.2,6.5-2.2l0-2c-3,0-5.6,0.8-7.8,2.7
	c-2.2,1.9-3.8,4.6-4.8,8.3L1784.1,4569.9z M1794.8,4560.4c1.4,0,3,0.2,4.3,0.5l0.4-1.9c-1.4-0.3-3.2-0.6-4.8-0.6L1794.8,4560.4z
	 M1798.4,4560v15.3h2V4560H1798.4z M1799.7,4574.3c-1.9-0.7-5-1-7-1v2c1.9,0,4.7,0.3,6.3,0.9L1799.7,4574.3z M1792.7,4573.3
	c-3,0-5.7,1.1-7.6,3c-1.9,1.9-3,4.6-3,7.9l2,0c0-2.7,0.9-4.9,2.4-6.4c1.5-1.5,3.6-2.4,6.2-2.4V4573.3z M1782.2,4584.2v26.8h2v-26.8
	H1782.2z M1783.2,4610h-17.7v2h17.7V4610z"/>
</svg>
