<?xml version="1.0" encoding="utf-8"?>
<!-- Generator: Adobe Illustrator 27.0.0, SVG Export Plug-In . SVG Version: 6.00 Build 0)  -->
<svg version="1.1" id="Layer_1" xmlns="http://www.w3.org/2000/svg" xmlns:xlink="http://www.w3.org/1999/xlink" x="0px" y="0px"
	 viewBox="0 0 644.9 92.9" style="enable-background:new 0 0 644.9 92.9;" xml:space="preserve">
<style type="text/css">
	.st0{fill:#FFFFFF;}
	.st1{fill-rule:evenodd;clip-rule:evenodd;fill:#B0DB43;}
</style>
<g>
	<g>
		<path class="st0" d="M642.7,30.4c-1.5-2.9-3.5-5.2-6.2-6.8c-2.7-1.6-5.8-2.4-9.3-2.4c-3.7,0-7,0.9-9.8,2.7
			c-2.8,1.8-4.7,4.3-5.9,7.5h-0.5v-9.6h-16.8v50.9H612V44c0-1.7,0.3-3.2,0.9-4.5c0.6-1.3,1.5-2.2,2.7-2.9c1.2-0.7,2.5-1,4.1-1
			c1.6,0,3,0.3,4.1,1c1.2,0.7,2,1.6,2.6,2.9c0.6,1.2,0.9,2.7,0.9,4.4v28.9h17.7V40.2C644.9,36.5,644.2,33.2,642.7,30.4z"/>
		<rect x="516.4" y="21.8" class="st0" width="17.7" height="50.9"/>
		<path class="st0" d="M248.5,23.6c-2.7-1.6-5.8-2.4-9.4-2.4c-3.7,0-6.9,0.9-9.6,2.7c-2.7,1.8-4.6,4.3-5.7,7.5h-0.5V4.9h-17.1v67.9
			h17.7V44c0-1.7,0.3-3.2,1-4.5c0.7-1.3,1.5-2.2,2.7-2.9c1.2-0.7,2.5-1,4.1-1c1.6,0,2.9,0.3,4.1,1c1.2,0.7,2,1.6,2.6,2.9
			c0.6,1.2,0.9,2.7,0.9,4.4v28.9h17.7V40.2c0-3.7-0.7-7-2.2-9.9C253.3,27.5,251.2,25.2,248.5,23.6z"/>
		<path class="st0" d="M193.1,24c-3-1.9-6.3-2.8-9.9-2.8c-2.3,0-4.4,0.4-6.2,1.1c-1.8,0.8-3.4,1.8-4.6,3.1c-1.2,1.3-2.3,2.7-3,4.4
			c-0.1,0.3-0.2,0.6-0.4,0.9h-0.5v-8.9h-17.5v70h17.7V64.5h0.3l0.2,0.4c0.8,1.7,1.8,3.2,3.1,4.5c1.3,1.3,2.9,2.3,4.7,3
			c1.8,0.7,3.9,1.1,6.2,1.1c3.8,0,7.2-1,10.2-3c3.1-2,5.5-4.9,7.2-8.8s2.6-8.7,2.6-14.4c0-5.8-0.9-10.7-2.7-14.6
			C198.6,28.7,196.1,25.8,193.1,24z M184,54c-0.7,1.8-1.6,3.3-2.9,4.3c-1.2,1-2.8,1.5-4.5,1.5s-3.3-0.5-4.5-1.5
			c-1.3-1.1-2.3-2.5-3-4.4c-0.7-1.9-1-4.1-1-6.6c0-2.6,0.3-4.8,1-6.7c0.7-1.9,1.7-3.3,2.9-4.3c1.3-1,2.8-1.5,4.6-1.5
			c1.8,0,3.2,0.5,4.5,1.5s2.2,2.4,2.9,4.3c0.7,1.9,1,4.1,1,6.7C185,49.8,184.6,52.1,184,54z"/>
		<path class="st0" d="M135.6,23.3c-3.5-1.4-7.6-2.1-12.2-2.1c-4.8,0-8.9,0.8-12.3,2.3c-3.4,1.5-6,3.5-7.8,6.1
			c-0.6,0.9-1.2,1.9-1.6,2.8V21.8c-1.4-0.4-3-0.6-4.6-0.6c-2.8,0-5.2,0.8-7.3,2.5c-2,1.7-3.5,4.2-4.4,7.7h-0.6v-9.6H67.7v50.9h17.7
			V45.9c0-1.9,0.4-3.6,1.2-5.1c0.8-1.5,2-2.7,3.4-3.5c1.5-0.8,3.1-1.2,4.9-1.2c1.1,0,2.3,0.1,3.5,0.2c0.7,0.1,1.3,0.2,1.9,0.3
			c-0.1,0.5-0.1,1-0.2,1.6h16.4c0.2-1.6,0.9-2.8,2-3.6c1.1-0.8,2.6-1.2,4.5-1.2c1.2,0,2.2,0.2,3,0.5c0.9,0.3,1.6,0.9,2,1.5
			c0.5,0.7,0.7,1.5,0.7,2.4l0,4.1c-0.7,0-1.4,0-2.1,0.1c-1.5,0.1-3.2,0.1-4.9,0.2c-1.7,0.1-3.3,0.1-4.9,0.2
			c-5.7,0.3-10.2,1.8-13.7,4.4c-3.4,2.6-5.1,6.5-5.1,11.8c0,3.3,0.7,6,2.1,8.3c1.4,2.2,3.4,3.9,5.9,5c2.5,1.1,5.4,1.6,8.7,1.6
			c3.4,0,6.4-0.6,8.8-1.9c2.5-1.3,4.5-3.3,6-6h0.4v7.1h16.6V38c0-3.3-1-6.2-2.9-8.7C141.9,26.7,139.2,24.7,135.6,23.3z M127.9,58.7
			c-0.8,1.2-1.8,2-3.1,2.7c-1.3,0.6-2.7,0.9-4.2,0.8c-1.1,0-2.1-0.1-2.9-0.5c-0.8-0.4-1.5-0.9-2-1.5c-0.5-0.7-0.7-1.5-0.7-2.5
			c0-1.4,0.5-2.5,1.4-3.5c0.9-1,2.2-1.5,3.8-1.7c2.1-0.2,4.6-0.4,7.7-0.5c0.4,0,0.8,0,1,0c0,0,0,0,0.1,0l0,2.8
			C129.1,56.2,128.7,57.6,127.9,58.7z"/>
		<path class="st0" d="M33.6,47.9h12.6c-0.1,2-0.6,3.8-1.5,5.2c-0.9,1.6-2.4,2.8-4.4,3.7c-2,0.8-4.4,1.3-7.2,1.3
			c-3.2,0-5.9-0.8-8.1-2.3s-3.9-3.7-5.1-6.6c-1.1-2.9-1.7-6.4-1.7-10.5c0-4,0.6-7.5,1.8-10.4c1.2-2.9,2.9-5.1,5.2-6.6
			c2.2-1.5,4.9-2.2,8.1-2.2c2,0,3.8,0.3,5.3,0.9c1.5,0.6,2.8,1.5,3.8,2.7c1,1.2,1.8,2.5,2.2,4.2h18.1c-0.5-4.5-2.1-8.5-4.8-12
			c-2.7-3.6-6.2-6.3-10.6-8.3c-4.3-2-9.1-3-14.4-3c-6.2,0-11.7,1.4-16.7,4.1c-5,2.8-8.9,6.8-11.8,12.1C1.5,25.4,0,31.7,0,38.9
			C0,46,1.4,52.1,4.1,57.4c2.8,5.2,6.7,9.3,11.6,12.1c5,2.8,10.8,4.2,17.3,4.2c5.9,0,11.2-1.2,15.8-3.5c4.6-2.3,8.2-5.7,10.7-10.1
			c2.6-4.4,3.8-9.7,3.8-15.7V35H33.6V47.9z"/>
		<path class="st0" d="M265.8,15.2c1.3,0.7,2.8,1.1,4.5,1.1c1.6,0,3-0.4,4.4-1.1c1.3-0.8,2.4-1.7,3.2-3c0.8-1.2,1.2-2.6,1.2-4.1
			c0-1.5-0.4-2.8-1.2-4.1c-0.8-1.3-1.8-2.3-3.2-3c-1.3-0.7-2.8-1.1-4.4-1.1s-3.1,0.4-4.4,1.1s-2.4,1.7-3.3,3
			c-0.8,1.2-1.2,2.6-1.2,4.1c0,1.5,0.4,2.9,1.2,4.1C263.4,13.5,264.5,14.5,265.8,15.2z"/>
		<path class="st0" d="M451.9,24.3c-3.8-2.1-8.1-3.1-13.2-3.1c-5.2,0-9.7,1.1-13.6,3.2c-3.8,2.2-6.8,5.2-9,9.2
			c-2.1,4-3.2,8.6-3.2,13.8c0,5.4,1,10.1,3.1,14.1c2.1,3.9,5.1,7,9,9c3.9,2.1,8.6,3.1,14,3.1c4.6,0,8.6-0.7,12.1-2.1
			c3.5-1.4,6.4-3.4,8.5-6s3.5-5.6,4.1-9.1h-16.3c-0.4,1-0.9,1.8-1.7,2.4s-1.7,1.2-2.8,1.5s-2.3,0.6-3.6,0.6c-1.8,0-3.5-0.4-4.8-1.2
			c-1.3-0.8-2.4-1.8-3.1-3.2c-0.7-1.3-1.1-2.9-1.1-4.7v-0.7h33.4v-4.3c0-5.4-1-10-3.1-13.9C458.6,29.4,455.7,26.4,451.9,24.3z
			 M430.4,41.5c0-1.5,0.4-2.8,1.2-4c0.8-1.2,1.8-2.2,3.1-2.8c1.3-0.7,2.8-1,4.4-1c1.6,0,3,0.3,4.2,1c1.3,0.7,2.3,1.6,3,2.8
			c0.8,1.2,1.1,2.5,1.2,4H430.4z"/>
		<path class="st0" d="M510,47.1c-2.5-2.3-6.3-3.9-11.5-4.9l-10.3-1.9c-1.9-0.3-3.2-0.8-4-1.5c-0.8-0.7-1.1-1.4-1.1-2.2
			c0-0.7,0.2-1.3,0.8-1.9c0.6-0.6,1.3-1,2.2-1.2c0.9-0.3,1.9-0.4,3-0.4c1.9,0,3.5,0.5,4.8,1.4c1.3,0.9,2.1,2.2,2.2,3.8h16.4
			c-0.2-3.5-1.2-6.6-3.2-9.1c-1.9-2.6-4.6-4.5-8.2-5.9c-3.5-1.4-7.7-2.1-12.4-2.1c-4.8,0-9,0.6-12.5,1.9s-6.2,3.2-8.1,5.7
			c-1.8,2.5-2.8,5.4-2.8,8.9c0,4,1.3,7.2,3.9,9.8c2.6,2.5,6.5,4.2,11.6,5.1l9,1.6c2,0.4,3.5,0.9,4.5,1.5c1,0.6,1.5,1.4,1.5,2.4
			c0,0.8-0.3,1.4-0.8,1.9c-0.5,0.5-1.3,1-2.2,1.3c-0.9,0.3-2,0.4-3.2,0.4c-2.2,0-3.9-0.4-5.3-1.3s-2.2-2.2-2.5-3.8h-17.6
			c0.3,3.5,1.6,6.5,3.7,9s5,4.6,8.6,6c3.7,1.4,8,2.1,13,2.1c4.7,0,8.8-0.7,12.5-2.2c3.7-1.5,6.6-3.5,8.7-6.2
			c2.1-2.7,3.1-5.8,3.1-9.3C513.8,52.3,512.5,49.4,510,47.1z"/>
		<path class="st0" d="M520.8,15.2c1.3,0.7,2.8,1.1,4.5,1.1c1.6,0,3-0.4,4.4-1.1c1.3-0.8,2.4-1.7,3.2-3c0.8-1.2,1.2-2.6,1.2-4.1
			c0-1.5-0.4-2.8-1.2-4.1c-0.8-1.3-1.8-2.3-3.2-3S526.8,0,525.2,0c-1.6,0-3.1,0.4-4.4,1.1c-1.3,0.7-2.4,1.7-3.3,3
			c-0.8,1.2-1.2,2.6-1.2,4.1c0,1.5,0.4,2.9,1.2,4.1C518.4,13.5,519.5,14.5,520.8,15.2z"/>
		<path class="st0" d="M571.9,30.7h-0.5c-0.2-0.4-0.3-0.7-0.5-1c-0.8-1.7-1.8-3.1-3-4.4c-1.2-1.3-2.8-2.3-4.6-3
			c-1.8-0.8-3.9-1.1-6.2-1.1c-3.6,0-6.9,0.9-9.9,2.8c-3,1.8-5.4,4.7-7.3,8.7c-1.8,3.9-2.8,8.8-2.8,14.5c0,5.6,0.9,10.3,2.6,14
			c1.8,3.7,4.2,6.5,7.2,8.2c3,1.8,6.5,2.6,10.3,2.6c2.2,0,4.3-0.3,6.2-0.9c1.9-0.6,3.5-1.5,4.8-2.6c1.3-1.2,2.4-2.5,3.1-4.1l0.2-0.5
			h0.6v8.7c0,2.9-0.8,5-2.3,6.2c-1.5,1.3-3.6,1.9-6.2,1.9c-2.3,0-4.2-0.3-5.6-1.1c-1.4-0.8-2.3-1.9-2.6-3.6h-17.1
			c0.2,3.3,1.4,6.2,3.4,8.7c2,2.5,4.9,4.5,8.5,5.9c3.7,1.4,8,2.2,12.9,2.2c5.3,0,10-0.8,13.9-2.4c4-1.6,7.1-3.9,9.3-6.9
			c2.2-3,3.3-6.7,3.3-10.9V21.8h-17.7V30.7z M571.1,53.8c-0.7,1.8-1.7,3.2-3,4.2c-1.2,1-2.8,1.5-4.5,1.5c-1.7,0-3.2-0.5-4.5-1.4
			c-1.2-0.9-2.2-2.3-2.9-4.1c-0.7-1.8-1-4-1-6.6s0.3-4.8,1-6.7c0.7-1.9,1.6-3.3,2.9-4.3c1.2-1,2.7-1.5,4.5-1.5
			c1.8,0,3.3,0.5,4.5,1.5c1.3,1,2.3,2.4,3,4.3c0.7,1.8,1,4.1,1,6.7C572.2,49.8,571.8,52,571.1,53.8z"/>
		<path class="st0" d="M303.9,35.9c1.2-1,2.7-1.5,4.4-1.5c1.4,0,2.6,0.4,3.7,1c1.1,0.7,2,1.6,2.6,2.8c0.7,1.2,1.1,2.7,1.3,4.5h16.5
			c0-4.3-1-8.1-3-11.4c-2-3.2-4.8-5.8-8.5-7.5c-3.7-1.8-7.9-2.6-12.8-2.6c-5.4,0-10.1,1.1-14,3.3c-3.9,2.2-7,5.3-9,9.2
			c-2.1,3.9-3.1,8.5-3.1,13.7s1,9.8,3.1,13.8c2.1,3.9,5.1,7,9,9.2c3.9,2.2,8.6,3.3,14,3.3c4.9,0,9.1-0.9,12.8-2.7
			c3.7-1.8,6.5-4.3,8.4-7.6c2-3.3,3-7.1,3.1-11.5h-16.5c-0.2,1.8-0.6,3.3-1.3,4.5c-0.7,1.2-1.5,2.2-2.6,2.8
			c-1.1,0.6-2.3,0.9-3.7,0.9c-1.7,0-3.2-0.4-4.4-1.4c-1.2-1-2.2-2.5-2.9-4.4c-0.7-1.9-1-4.3-1-7.1c0-2.8,0.3-5.1,1-7
			C301.7,38.3,302.7,36.8,303.9,35.9z"/>
		<rect x="261.4" y="21.8" class="st0" width="17.7" height="50.9"/>
	</g>
	<path class="st1" d="M375.8,72.8h-26v-68h26c18.8,0,34,15.2,34,34S394.6,72.8,375.8,72.8z M357.8,39.2c11.9,0,21.5-9.6,21.5-21.5
		c0,11.9,9.6,21.5,21.5,21.5c-11.9,0-21.5,9.6-21.5,21.5C379.3,48.9,369.7,39.2,357.8,39.2z"/>
</g>
</svg>
