<?xml version="1.0" encoding="utf-8"?>
<!-- Generator: Adobe Illustrator 27.0.0, SVG Export Plug-In . SVG Version: 6.00 Build 0)  -->
<svg version="1.1" id="Layer_1" xmlns="http://www.w3.org/2000/svg" xmlns:xlink="http://www.w3.org/1999/xlink" x="0px" y="0px"
	 viewBox="0 0 2194.1 115" style="enable-background:new 0 0 2194.1 115;" xml:space="preserve">
<style type="text/css">
	.st0{fill:#B0DB43;}
</style>
<g>
	<path class="st0" d="M34.1,39.9c3.4,0,6,1,7.9,2.6c1.8,1.7,3,4.1,3.2,7l0.1,0.9h0.9h18.1h1.1l-0.1-1.1l-1,0.1l0,0l1-0.1
		c-0.8-8.6-4.3-15.4-9.9-20s-13.1-7.1-21.8-7.1c-9.3,0-17.8,3.2-23.8,9.3C3.7,37.7,0,46.6,0,58.2l0,0c0,11.5,3.6,20.4,9.6,26.6
		c6,6.1,14.5,9.3,24,9.3c20.1,0,30.6-13.9,31.7-26l0.1-1.1h-1.1l-18.1-0.2v1l0,0v-1h-0.9l-0.1,0.8c-0.5,2.8-1.7,5-3.5,6.5
		s-4.4,2.4-7.7,2.4c-4.3,0-7.7-1.6-10-4.5c-2.3-3-3.7-7.6-3.7-13.8c0-5.9,1.3-10.5,3.6-13.6C26.3,41.5,29.7,39.9,34.1,39.9z
		 M22.4,43.4c-2.7,3.5-4,8.6-4,14.8c0,6.5,1.4,11.6,4.1,15c2.7,3.5,6.7,5.3,11.5,5.3v-1v1l0,0c3.6,0,6.7-1,8.9-2.8
		c2.1-1.7,3.4-4,4.1-6.9L63.2,69C61.7,79.8,52,92,33.6,92c-9.1,0-17-3-22.6-8.7c-5.5-5.7-9-14.1-9-25.1C2,47.1,5.5,38.6,11.2,33
		c5.7-5.7,13.5-8.7,22.4-8.7c8.3,0,15.3,2.3,20.5,6.6c4.9,4.1,8.1,10,9.1,17.6H47.1c-0.5-3-1.7-5.6-3.8-7.4c-2.3-2-5.4-3.2-9.2-3.2
		C29.1,37.9,25.1,39.8,22.4,43.4z"/>
	<path class="st0" d="M192.6,23.2h-0.7l-0.3,0.6L176,62.1l-15.6-38.2l-0.3-0.6h-0.7h-22.2h-1v1v67.8v1h1h17.4h1v-1V55.8l14,36.2
		l0.2,0.6h0.7h10.7h0.7l0.2-0.6l14.1-36v36.1v1h1h17.4h1v-1V24.2v-1h-1H192.6z M213.8,91.1h-15.4V52.2v-1h-1h-0.6h-0.7l-0.2,0.6
		l-15.2,38.8h-9.3l-15.1-39.1l-0.9,0.4l0,0l0.9-0.4l-0.2-0.6h-0.7h-0.6h-1v1v39.2h-15.4V25.2h20.5l15.8,38.9l0.9-0.4l0,0l-0.9,0.4
		l0.3,0.6h0.7h0.8h0.7l0.3-0.6l-0.9-0.4l0,0l0.9,0.4l15.9-38.8h20.5L213.8,91.1L213.8,91.1z"/>
	<path class="st0" d="M116,58.2c0-6.4-1.3-11.4-3.9-14.9c-2.7-3.5-6.6-5.4-11.5-5.4c-5,0-8.9,1.8-11.6,5.4c-2.6,3.5-4,8.6-4,15
		s1.3,11.4,4,14.9s6.6,5.4,11.6,5.4l0,0v-1l0,0v1c4.9,0,8.8-1.9,11.5-5.4C114.7,69.6,116,64.5,116,58.2L116,58.2L116,58.2L116,58.2
		L116,58.2z M114,58.2c0,6.1-1.2,10.7-3.5,13.7c-2.2,3-5.5,4.6-9.9,4.6s-7.7-1.6-10-4.6s-3.5-7.6-3.5-13.7s1.3-10.7,3.5-13.7
		s5.6-4.6,10-4.6s7.7,1.6,9.9,4.6C112.7,47.4,114,52,114,58.2h1H114z"/>
	<polygon class="st0" points="330.2,93.9 330.2,93.9 330.2,92.9 	"/>
	<path class="st0" d="M100.5,22.3c-9.5,0-18,3.1-24.1,9.3c-6.1,6.1-9.8,15.1-9.8,26.6l0,0c0,11.4,3.7,20.4,9.8,26.6
		c6.1,6.1,14.6,9.3,24.1,9.3c9.4,0,17.9-3.1,24-9.3c6.1-6.1,9.8-15.1,9.8-26.6s-3.7-20.5-9.8-26.6C118.4,25.4,109.9,22.3,100.5,22.3
		z M123.1,83.4c-5.7,5.7-13.6,8.7-22.6,8.7s-17-3-22.7-8.7s-9.2-14.1-9.2-25.2s3.5-19.5,9.2-25.2s13.6-8.7,22.7-8.7
		c8.9,0,16.9,3,22.6,8.7c5.7,5.7,9.2,14.1,9.2,25.2S128.8,77.7,123.1,83.4z"/>
	<path class="st0" d="M404.3,23.2h-1v1v34.1l-23.6-34.6l-0.8,0.6l0,0l0.8-0.6l-0.3-0.4h-0.5h-15.2h-1v1v67.8v1h1h17.8h1v-1V58
		l23.9,34.7l0.3,0.4h0.5h14.9h1v-1V24.2v-1h-1H404.3z M421.1,91.1h-13.4l-24.9-36.2l-0.3-0.4H382h-0.5h-1v1v35.6h-15.8V25.2h13.7
		l24.5,36l0.8-0.6l0,0l-0.8,0.6l0.3,0.4h0.5h0.6h1v-1V25.2h15.8V91.1z"/>
	<path class="st0" d="M274.5,23.2h-0.7l-0.3,0.6L258,62.1l-15.6-38.2l-0.3-0.6h-0.7h-22.2h-1v1v67.8v1h1h17.4h1v-1V55.8l14,36.2
		l0.2,0.6h0.7h10.7h0.7l0.2-0.6l14.1-36v36.1v1h1h17.4h1v-1V24.2v-1h-1H274.5z M295.7,91.1h-15.4V52.2v-1h-1h-0.6H278l-0.2,0.6
		l-15.2,38.8h-9.3l-15.1-39.1l-0.9,0.4l0,0l0.9-0.4l-0.2-0.6h-0.7h-0.6h-1v1v39.2h-15.4V25.2h20.5l15.8,38.9l0.9-0.4l0,0l-0.9,0.4
		l0.3,0.6h0.7h0.8h0.7l0.3-0.6l-0.9-0.4l0,0l0.9,0.4l15.9-38.8h20.5L295.7,91.1L295.7,91.1z"/>
	<polygon class="st0" points="114,58.2 114,58.2 115,58.2 	"/>
	<path class="st0" d="M341.5,23.2h-1v1v42c0,3-1.1,5.6-2.9,7.4s-4.4,2.9-7.4,2.9c-6,0-10.2-4.2-10.2-10.2v-42v-1h-1h-17.8h-1v1v43.6
		l0,0c0,8,3,14.5,8.3,19.1c5.3,4.5,12.8,7,21.7,7.1v-1v1c8.9,0,16.4-2.5,21.8-7.1s8.4-11.1,8.4-19.1l0,0V24.2v-1h-1H341.5z
		 M358.3,67.8L358.3,67.8c0,7.4-2.8,13.4-7.7,17.5c-4.9,4.2-12,6.6-20.5,6.6s-15.6-2.4-20.4-6.6c-4.9-4.2-7.6-10.1-7.6-17.5l0,0
		V25.2h15.8v41c0,7.1,5.1,12.2,12.2,12.2c3.6,0,6.7-1.3,8.9-3.5c2.2-2.2,3.5-5.3,3.5-8.8l0,0v-41h15.8L358.3,67.8L358.3,67.8z"/>
	<path class="st0" d="M571.6,23.2h-1v1v14.4v1h1H591v52.5v1h1h17.6h1v-1V39.7H630h1v-1V24.2v-1h-1H571.6z M629.1,37.7h-19.4h-1v1
		v52.4H593V38.7v-1h-1h-19.4V25.2h56.5V37.7z"/>
	<path class="st0" d="M558.7,23.9l-0.2-0.7h-0.7h-24.3h-0.7l-0.2,0.7L510,91.8l-0.4,1.3h1.4h19.3h0.7l0.2-0.7l3.8-12.6h21.3
		l3.9,12.6l0.2,0.7h0.7h19.2h1.4l-0.4-1.3L558.7,23.9z M561.7,91.1l-3.9-12.6l-0.2-0.7h-0.7h-22.7h-0.7l-0.2,0.7l-3.9,12.6h-17.2
		l21.9-65.9H557l21.8,65.9H561.7z"/>
	<path class="st0" d="M687.1,22.3c-9.5,0-18,3.1-24.1,9.3c-6.1,6.1-9.8,15.1-9.8,26.6l0,0c0,11.4,3.7,20.4,9.8,26.6
		c6.1,6.1,14.6,9.3,24.1,9.3c9.4,0,17.9-3.1,24-9.3c6.1-6.1,9.8-15.1,9.8-26.6s-3.7-20.5-9.8-26.6C705,25.4,696.5,22.3,687.1,22.3z
		 M709.7,83.4c-5.7,5.7-13.6,8.7-22.6,8.7s-17-3-22.7-8.7s-9.2-14.1-9.2-25.2s3.5-19.5,9.2-25.2s13.6-8.7,22.7-8.7
		c8.9,0,16.9,3,22.6,8.7c5.7,5.7,9.2,14.1,9.2,25.2S715.4,77.7,709.7,83.4z"/>
	<path class="st0" d="M632.5,23.2h-1v1v67.9v1h1h17.8h1v-1V24.2v-1h-1H632.5z M649.3,91.1h-15.8V25.2h15.8V91.1z"/>
	<path class="st0" d="M546.8,42.2l-1,0.3l0,0L546.8,42.2l-0.2-0.7h-0.7h-0.6h-0.7l-0.2,0.7L537.5,65l-0.4,1.3h1.4H553h1.4L554,65
		L546.8,42.2z M539.7,64.3l5.9-19.3l5.9,19.3H539.7z"/>
	<path class="st0" d="M702.6,58.2c0-6.4-1.3-11.4-3.9-14.9c-2.7-3.5-6.6-5.4-11.5-5.4c-5,0-8.9,1.8-11.6,5.4c-2.6,3.5-4,8.6-4,15
		s1.3,11.4,4,14.9s6.6,5.4,11.6,5.4l0,0c4.9,0,8.8-1.9,11.5-5.4C701.3,69.6,702.6,64.5,702.6,58.2L702.6,58.2L702.6,58.2L702.6,58.2
		L702.6,58.2z M700.6,58.2c0,6.1-1.2,10.7-3.5,13.7c-2.2,3-5.5,4.6-9.9,4.6s-7.7-1.6-10-4.6s-3.5-7.6-3.5-13.7s1.3-10.7,3.5-13.7
		s5.6-4.6,10-4.6s7.7,1.6,9.9,4.6C699.3,47.4,700.6,52,700.6,58.2L700.6,58.2z"/>
	<path class="st0" d="M764.5,23.2h-1v1v34.1l-23.6-34.6l-0.8,0.6l0,0l0.8-0.6l-0.3-0.4h-0.5h-15.2h-1v1v67.8v1h1h17.8h1v-1V58
		l23.9,34.7l0.8-0.6l0,0l-0.8,0.6l0.3,0.4h0.5h14.9h1v-1V24.2v-1h-1H764.5z M781.3,91.1h-13.4L743,54.9l-0.3-0.4h-0.5h-0.5h-1v1
		v35.6h-15.8V25.2h13.7l24.5,36l0.8-0.6l0,0l-0.8,0.6l0.3,0.4h0.5h0.6h1v-1V25.2h15.8V91.1z"/>
	<path class="st0" d="M426.5,23.2h-1v1v67.9v1h1h17.8h1v-1V24.2v-1h-1H426.5z M443.3,91.1h-15.8V25.2h15.8V91.1z"/>
	<path class="st0" d="M512.6,66.9h-1.1l-18.1-0.2v1l0,0v-1h-0.9l-0.1,0.8c-0.5,2.8-1.7,5-3.5,6.5s-4.4,2.4-7.7,2.4
		c-4.3,0-7.7-1.6-10-4.5c-2.3-3-3.7-7.6-3.7-13.8c0-5.9,1.3-10.5,3.6-13.6c2.3-3,5.7-4.7,10.1-4.7c3.4,0,6,1,7.9,2.6
		c1.8,1.7,3,4.1,3.2,7l0.1,0.9h0.9h18.1h1.1l-0.1-1.1l-1,0.1l0,0l1-0.1c-0.8-8.6-4.3-15.4-9.9-20s-13.1-7.1-21.8-7.1
		c-9.3,0-17.8,3.2-23.8,9.3c-6.1,6.1-9.8,15.1-9.8,26.6l0,0c0,11.5,3.6,20.4,9.6,26.6c6,6.1,14.5,9.3,24,9.3
		c20.1,0,30.6-13.9,31.7-26L512.6,66.9z M480.9,92c-9.1,0-17-3-22.6-8.7s-9-14.1-9.1-25.2c0-11.1,3.5-19.5,9.2-25.2
		s13.5-8.7,22.4-8.7c8.3,0,15.3,2.3,20.5,6.6c4.9,4.1,8.1,10,9.1,17.6h-16.1c-0.5-3-1.7-5.6-3.8-7.4c-2.3-2-5.4-3.2-9.2-3.2
		c-5,0-9,1.9-11.7,5.5c-2.7,3.5-4,8.6-4,14.8c0,6.5,1.4,11.6,4.1,15c2.7,3.5,6.7,5.3,11.5,5.3v-1v1l0,0c3.6,0,6.7-1,8.9-2.8
		c2.1-1.7,3.4-4,4.1-6.9l16.2,0.2C509,79.8,499.3,92,480.9,92z"/>
</g>
<g>
	<polygon class="st0" points="1019,66.2 1019,66.2 1019.2,65.2 	"/>
	<polygon class="st0" points="1020.3,38.9 1020.4,38.9 1020.4,38.9 1020.4,37.9 	"/>
	<path class="st0" d="M971.1,23.1h-1v1v34.1l-23.6-34.6l-0.8,0.6l0,0l0.8-0.6l-0.3-0.4h-0.5h-15.2h-1v1V92v1h1h17.8h1v-1V57.9
		l23.9,34.7L974,92l0,0l-0.8,0.6l0.3,0.4h0.5h14.9h1v-1V24.1v-1h-1H971.1z M987.9,91h-13.4l-24.9-36.2l-0.3-0.4h-0.5h-0.5h-1v1V91
		h-15.8V25.1h13.7l24.5,36l0.8-0.6l0,0l-0.8,0.6l0.3,0.4h0.5h0.6h1v-1V25.1h15.8L987.9,91L987.9,91z"/>
	<path class="st0" d="M1182.6,23.1h-1v1v25.7h-23V24.1v-1h-1h-17.8h-1v1V92v1h1h17.8h1v-1V66.3h23V92v1h1h17.9h1v-1V24.1v-1h-1
		H1182.6z M1199.5,91h-15.9V65.3v-1h-1h-25h-1v1V91h-15.8V25.1h15.8v25.7v1h1h25h1v-1V25.1h15.9V91z"/>
	<path class="st0" d="M1027,50.4L1027,50.4l-5.6-1.3l0,0l0,0l-0.2,1l0,0l0.2-1c-3.1-0.6-5.3-1.4-6.7-2.4c-1.3-0.9-1.9-2-1.8-3.3l0,0
		l0,0h-1l0,0h1c0-1.2,0.5-2.3,1.7-3.1s3.1-1.4,5.9-1.3v-1v1c2.9,0,4.9,0.6,6.2,1.7c1.3,1,2,2.6,2.2,4.6l0.1,0.9h0.9h17.2h1v-1
		c0-6.9-2.8-12.6-7.6-16.7c-4.8-4-11.7-6.3-20-6.3c-8.1,0-15.2,2.2-20.2,6.1s-8,9.6-8,16.3l0,0l0,0l0,0l0,0c0,5.5,1.9,9.9,5.4,13.2
		s8.5,5.5,14.6,6.8l0.2-1l-0.2,0.9l0,0l0,0l6.8,1.5l0.3-1.3l-0.3,1.3c3.8,0.8,6.2,1.7,7.7,2.7c0.7,0.5,1.2,1,1.5,1.5
		s0.4,1.1,0.4,1.7c0,1.5-0.7,2.7-2,3.6c-1.4,0.9-3.5,1.5-6.5,1.5c-3.4,0-6-0.8-7.8-2.2c-1.8-1.4-2.8-3.5-2.9-6.5v-1h-1h-17.1h-1v1
		c0.1,8.6,3.1,15,8.4,19.2s12.8,6.1,21.7,6.1v-1l0,0v1l0,0c8.7,0,15.8-1.9,20.7-5.6c5-3.7,7.7-9.2,7.7-16.2h-1l0,0h1l0,0l0,0
		c0-5.5-1.8-10.1-5.5-13.8C1039.8,54.6,1034.3,52,1027,50.4z M1040,86.6c-4.5,3.4-11.1,5.2-19.5,5.2c-8.6,0-15.6-1.9-20.4-5.7
		c-4.6-3.6-7.3-9.1-7.6-16.7h15.1c0.3,3,1.5,5.3,3.6,7c2.2,1.8,5.4,2.7,9,2.7c3.2,0,5.8-0.6,7.6-1.9c1.9-1.2,2.9-3.1,2.9-5.2h-1l0,0
		h1l0,0l0,0c0-1-0.2-1.9-0.7-2.7c-0.5-0.8-1.2-1.5-2.1-2.1c-1.8-1.2-4.6-2.1-8.4-3l0,0l-6.8-1.5l0,0c-5.9-1.3-10.5-3.4-13.6-6.3
		c-3.1-2.9-4.8-6.7-4.8-11.7h-1l0,0h1l0,0c0-6.1,2.6-11.2,7.2-14.8s11.2-5.7,19-5.7c8,0,14.3,2.1,18.7,5.8c4.1,3.4,6.6,8.3,6.9,14.1
		h-15.2c-0.3-2.1-1.3-3.8-2.9-5.1c-1.8-1.4-4.3-2.1-7.5-2.1l0,0l0,0l0,0l0,0c-3,0-5.4,0.6-7.1,1.7c-1.7,1.2-2.5,2.8-2.6,4.7l0,0l0,0
		l0,0l0,0c-0.1,2.1,0.9,3.8,2.7,5c1.7,1.2,4.3,2,7.5,2.7l0,0l5.6,1.3l0.2-1l-0.2,1c7.2,1.5,12.2,4,15.5,7.3s4.8,7.4,4.9,12.4
		C1046.9,78.4,1044.4,83.3,1040,86.6z"/>
	<path class="st0" d="M1105.8,53.3h-1v1v12.8v1h1h11.5c-0.2,2.4-1.2,4.3-2.9,5.7c-1.9,1.6-4.9,2.6-9,2.6c-4.6,0-8-1.7-10.3-4.8
		c-2.3-3.1-3.6-7.7-3.6-13.7c0-5.9,1.4-10.5,3.7-13.5c2.4-3,5.8-4.7,10.3-4.7c2.8,0,5.1,0.7,6.8,1.8c1.7,1.2,2.9,2.9,3.4,5.1l1-0.2
		l0,0l-1,0.2l0.2,0.8h0.8h18.1h1.1l-0.1-1.1c-1.6-14.2-14.4-24.1-30.7-24.1c-9.4,0-17.9,3.2-24,9.4c-6.2,6.2-9.9,15.2-10,26.6l0,0
		l0,0l0,0h1l0,0h-1c0,11,3.4,19.9,9.5,26.2c6,6.2,14.6,9.6,24.6,9.6c9.1,0,16.9-2.8,22.5-8s8.9-12.9,8.9-22.3v-9.3v-1h-1
		L1105.8,53.3L1105.8,53.3z M1134.6,63.6c0,9-3.1,16.1-8.2,20.9c-5.2,4.8-12.5,7.5-21.1,7.5c-9.6,0-17.6-3.2-23.2-9
		s-8.9-14.2-8.9-24.8c0-10.9,3.6-19.4,9.4-25.1s13.7-8.8,22.6-8.8c15.1,0,26.6,8.9,28.6,21.2h-16.2c-0.7-2.3-2.1-4.2-4-5.5
		c-2.1-1.5-4.8-2.2-8-2.2c-5,0-9.1,1.9-11.8,5.4c-2.8,3.5-4.2,8.6-4.2,14.8s1.3,11.3,4,14.9s6.8,5.5,11.9,5.5l0,0
		c4.4,0,7.8-1.1,10.2-3c2.4-2,3.7-4.9,3.7-8.3v-1h-1h-11.6V55.3h27.8L1134.6,63.6L1134.6,63.6z"/>
	<path class="st0" d="M1202.8,23.1h-1v1v14.4v1h1h19.4V92v1h1h17.6h1v-1V39.6h19.4h1v-1V24.1v-1h-1H1202.8z M1260.3,37.6h-19.4h-1v1
		V91h-15.6V38.6v-1h-1h-19.5V25.1h56.5V37.6z"/>
	<path class="st0" d="M908.3,23.1h-1v1V92v1h1h17.8h1v-1V24.1v-1h-1H908.3z M925.1,91h-15.8V25.1h15.8V91z"/>
	<path class="st0" d="M1026.5,52.4l0.2-1L1026.5,52.4z"/>
	<path class="st0" d="M1050.4,23.1h-1v1V92v1h1h17.8h1v-1V24.1v-1h-1H1050.4z M1067.2,91h-15.8V25.1h15.8V91z"/>
</g>
<g>
	<path class="st0" d="M1718.4,23.1h-1v1V92v1h1h17.8h1v-1V24.1v-1h-1H1718.4z M1735.2,91h-15.8V25.1h15.8V91z"/>
	<path class="st0" d="M1634.6,42.1l-1,0.3l0,0L1634.6,42.1l-0.2-0.7h-0.7h-0.6h-0.7l-0.2,0.7l1,0.3l0,0l-1-0.3l-6.9,22.8l-0.4,1.3
		h1.4h14.5h1.4l-0.4-1.3L1634.6,42.1z M1627.5,64.2l5.9-19.3l5.9,19.3H1627.5z"/>
	<path class="st0" d="M1985.5,43.1c-2.7-3.5-6.6-5.4-11.5-5.4c-5,0-8.9,1.8-11.6,5.4c-2.7,3.5-4,8.6-4,15s1.3,11.4,4,14.9
		s6.6,5.4,11.6,5.4v-1v0.3v0.7l0,0c4.9,0,8.8-1.9,11.5-5.4c2.6-3.5,3.9-8.6,3.9-14.9l0,0l0,0l0,0l0,0
		C1989.4,51.7,1988.1,46.6,1985.5,43.1z M1987.4,58.1c0,6.1-1.2,10.7-3.5,13.7c-2.2,3-5.5,4.6-9.9,4.6s-7.7-1.6-10-4.6
		s-3.5-7.6-3.5-13.7s1.3-10.7,3.5-13.7s5.6-4.6,10-4.6s7.7,1.6,9.9,4.6C1986.1,47.3,1987.4,51.9,1987.4,58.1L1987.4,58.1z"/>
	<path class="st0" d="M1688.8,76.6V24.1v-1h-1H1670h-1v1v67.6l-22.5-67.9l-0.2-0.7h-0.7h-24.3h-0.7l-0.2,0.7l1,0.3l0,0l-1-0.3
		l-22.6,67.9l-0.4,1.3h1.4h19.3h0.8l0.2-0.7l-1-0.3l0,0l1,0.3l3.8-12.6h21.3l3.9,12.6l1-0.3l0,0l-1,0.3l0.2,0.7h0.7h19.2h1h0.4h0.6
		h45.5h1v-1V77.6v-1h-1H1688.8z M1649.6,91l-3.9-12.6l-0.2-0.7h-0.7h-22.7h-0.8l-0.2,0.7l1,0.3l0,0l-1-0.3l-3.8,12.6h-17.2
		l21.9-65.9h22.8l21.8,65.9H1649.6z M1714.5,91H1671V25.1h15.8v52.4v1h1h26.7V91z"/>
	<path class="st0" d="M1833.6,42.1l-0.2-0.7h-0.7h-0.6h-0.7l-0.2,0.7l-6.9,22.8l-0.4,1.3h1.3h14.5h1.3l-0.4-1.3L1833.6,42.1z
		 M1826.5,64.2l5.9-19.3l5.9,19.3H1826.5z"/>
	<path class="st0" d="M2069.1,23.1h-17.8h-1v1v34.1l-23.6-34.6l-0.8,0.6l0,0l0.8-0.6l-0.3-0.4h-0.5h-15.2h-1v1V92v1h1h17.8h1v-1
		V57.9l23.9,34.7l0.8-0.6l0,0l-0.8,0.6l0.3,0.4h0.5h14.9h1v-1V24.1v-1H2069.1z M2068.1,91h-13.4l-24.9-36.2l-0.3-0.4h-0.5h-0.5h-1v1
		V91h-15.8V25.1h13.7l24.5,36l0.8-0.6l0,0l-0.8,0.6l0.3,0.4h0.5h0.6h1v-1V25.1h15.8V91L2068.1,91z"/>
	<path class="st0" d="M1597.9,24.1v-1h-1H1579h-1v1v42c0,3-1.1,5.6-2.9,7.4s-4.3,2.9-7.4,2.9c-6,0-10.2-4.2-10.2-10.2v-42v-1h-1
		h-17.8h-1v1v43.6c0,8,3,14.5,8.3,19.1c5.3,4.5,12.8,7,21.7,7.1c8.9,0,16.4-2.5,21.8-7.1s8.4-11.1,8.4-19.1V24.1z M1595.9,67.7
		L1595.9,67.7c0,7.4-2.8,13.4-7.7,17.5c-4.9,4.2-12,6.6-20.5,6.6s-15.6-2.4-20.4-6.6s-7.7-10.1-7.6-17.5l0,0V25.1h15.8v41
		c0,7.1,5.1,12.2,12.2,12.2c3.6,0,6.7-1.3,8.9-3.5c2.2-2.2,3.5-5.3,3.5-8.8l0,0V25h15.8L1595.9,67.7L1595.9,67.7z"/>
	<path class="st0" d="M1459.3,23.1h-0.6h-0.4h-1h-20.2h-0.8l-0.2,0.7l-13.6,46.1l-13.6-46.1l-0.2-0.7h-0.8h-20.2h-1.4l0.4,1.3
		l22.6,67.9l0.2,0.7h0.7h24.3h0.7l0.2-0.7l22.5-67.9V92v1h1h17.8h1v-1V24.1v-1h-1H1459.3z M1434.1,91h-22.8l-21.9-65.9h18l14,47.7
		l0.2,0.7h0.8h0.6h0.8l0.2-0.7l14-47.7h18L1434.1,91z M1476.1,91h-15.8V25.1h15.8V91z"/>
	<path class="st0" d="M1919.3,23.1h-1v1V92v1h1h17.8h1v-1V24.1v-1h-1H1919.3z M1936.1,91h-15.8V25.1h15.8V91z"/>
	<path class="st0" d="M1845.5,23.8l-0.2-0.7h-0.7h-24.3h-0.7l-0.2,0.7l-22.6,67.9l-0.1,0.3V77.6v-1h-1h-30.3l31.2-41.9l0.2-0.3v-0.3
		v-9.9v-1h-1h-54.9h-1v1v14.4v1h1h30.3L1740,81.5l-0.2,0.3v0.3V92v1h1h54.9h0.7h0.3h1.1h19.3h0.7l0.2-0.7l3.8-12.6h21.3l3.9,12.6
		l0.2,0.7h0.7h19.2h1.4l-0.4-1.3L1845.5,23.8z M1794.6,91h-52.9v-8.6l32.1-43.2l-0.8-0.6l0,0l0.8,0.6l1.2-1.6h-2h-31.2V25.1h52.9
		v8.6L1762.6,77l0.8,0.6l0,0l-0.8-0.6l-1.2,1.6h2h31.2V91z M1848.6,91l-3.9-12.6l-0.2-0.7h-0.7H1821h-0.7l-0.2,0.7l-3.8,12.6h-17.2
		l21.9-65.9h22.8l21.8,65.9H1848.6z"/>
	<path class="st0" d="M1974,22.2c-9.5,0-18,3.1-24.1,9.3c-6.1,6.1-9.8,15.1-9.8,26.6l0,0c0,11.4,3.7,20.4,9.8,26.6
		c6.1,6.1,14.6,9.3,24.1,9.3c9.4,0,17.9-3.1,24-9.3c6.1-6.1,9.8-15.1,9.8-26.6s-3.7-20.5-9.8-26.6
		C1991.8,25.3,1983.3,22.2,1974,22.2z M1996.5,83.3c-5.7,5.7-13.6,8.7-22.6,8.7s-17-3-22.7-8.7s-9.2-14.1-9.2-25.2
		s3.6-19.5,9.2-25.2c5.7-5.7,13.6-8.7,22.7-8.7c8.9,0,16.9,3,22.6,8.7s9.2,14.1,9.2,25.2S2002.2,77.6,1996.5,83.3z"/>
	<path class="st0" d="M1515.2,50.4L1515.2,50.4l-5.6-1.3l0,0l0,0l-0.2,1l0,0l0.2-1c-3.1-0.6-5.3-1.4-6.7-2.4c-1.3-0.9-1.9-2-1.8-3.3
		l0,0l0,0h-1l0,0h1c0-1.2,0.5-2.3,1.7-3.1s3.1-1.4,5.9-1.3v-1l0,0v1l0,0l0,0c2.9,0,4.9,0.6,6.2,1.7c1.3,1,2,2.6,2.2,4.6l0.1,0.9h0.9
		h17.2h1v-1c-0.1-6.9-2.8-12.6-7.6-16.7c-4.8-4-11.7-6.3-20-6.3c-8.1,0-15.2,2.2-20.2,6.1s-8,9.6-8,16.3l0,0l0,0l0,0l0,0
		c0,5.5,1.9,9.9,5.4,13.2s8.5,5.5,14.6,6.8l0,0l0,0l0.2-1l-0.2,1l6.8,1.5l0.2-0.9l-0.2,0.9l0,0l0,0c3.8,0.8,6.2,1.7,7.7,2.7
		c0.7,0.5,1.2,1,1.5,1.5s0.4,1.1,0.4,1.7c0,1.5-0.7,2.7-2,3.6c-1.4,0.9-3.5,1.5-6.5,1.5c-3.4,0-6-0.8-7.8-2.2
		c-1.8-1.4-2.8-3.5-2.9-6.5v-1h-0.9h-17.1h-1v1c0.1,8.6,3.1,15,8.4,19.2c5.3,4.2,12.8,6.1,21.7,6.1v-1V93v0.7l0,0
		c8.7,0,15.8-1.9,20.7-5.6c5-3.7,7.7-9.2,7.7-16.2h-1l0,0h1l0,0l0,0c-0.1-5.5-1.8-10.1-5.4-13.8C1528,54.6,1522.5,52,1515.2,50.4z
		 M1528.2,86.6c-4.5,3.4-11.1,5.2-19.5,5.2c-8.6,0-15.6-1.9-20.4-5.7c-4.6-3.6-7.3-9.1-7.6-16.7h15.1c0.3,3,1.5,5.3,3.6,7
		c2.2,1.8,5.4,2.7,9,2.7c3.2,0,5.8-0.6,7.6-1.9c1.9-1.2,2.9-3.1,2.9-5.2h-1l0,0h1l0,0l0,0c0-1-0.2-1.9-0.7-2.7
		c-0.5-0.8-1.2-1.5-2.1-2.1c-1.8-1.2-4.6-2.1-8.3-3l0,0l-6.8-1.5l0,0c-5.9-1.3-10.5-3.4-13.6-6.3c-3.1-2.9-4.8-6.7-4.8-11.7h-1l0,0
		h1l0,0c0-6.1,2.6-11.2,7.2-14.8s11.2-5.7,19-5.7c8,0,14.3,2.1,18.7,5.8c4.1,3.4,6.5,8.3,6.8,14.1h-15.2c-0.3-2.1-1.3-3.8-2.9-5.1
		c-1.8-1.4-4.3-2.1-7.5-2.1l0,0l0,0l0,0l0,0c-3,0-5.4,0.6-7.1,1.7c-1.7,1.2-2.5,2.8-2.6,4.7l0,0l0,0l0,0l0,0c-0.1,2.1,0.9,3.8,2.7,5
		c1.7,1.2,4.3,2,7.5,2.7l0,0l5.6,1.3l0.2-1v0.2l-0.2,0.8l0,0l0,0c7.2,1.5,12.2,4,15.5,7.3s4.8,7.4,4.9,12.4
		C1535.1,78.4,1532.6,83.3,1528.2,86.6z"/>
	<path class="st0" d="M1858.4,23.1h-1v1v14.4v1h1h19.4V92v1h1h17.6h1v-1V39.6h19.4h1v-1V24.1v-1h-1H1858.4z M1915.9,37.6h-19.4h-1v1
		V91h-15.6V38.6v-1h-1h-19.4V25.1h56.5L1915.9,37.6L1915.9,37.6z"/>
</g>
</svg>
