<?xml version="1.0" encoding="utf-8"?>
<!-- Generator: Adobe Illustrator 27.0.0, SVG Export Plug-In . SVG Version: 6.00 Build 0)  -->
<svg version="1.1" id="Layer_1" xmlns="http://www.w3.org/2000/svg" xmlns:xlink="http://www.w3.org/1999/xlink" x="0px" y="0px"
	 viewBox="0 0 546.5 91.9" style="enable-background:new 0 0 546.5 91.9;" xml:space="preserve">
<style type="text/css">
	.st0{fill:#FFFFFF;}
	.st1{fill-rule:evenodd;clip-rule:evenodd;fill:#4BC6B9;}
</style>
<g>
	<g>
		<rect x="82.1" y="21.8" class="st0" width="17.7" height="50.9"/>
		<path class="st0" d="M164.1,15.2c1.3,0.7,2.8,1.1,4.5,1.1c1.6,0,3-0.4,4.4-1.1c1.3-0.8,2.4-1.7,3.2-3c0.8-1.2,1.2-2.6,1.2-4.1
			c0-1.5-0.4-2.8-1.2-4.1c-0.8-1.3-1.8-2.3-3.2-3c-1.3-0.7-2.8-1.1-4.4-1.1c-1.6,0-3.1,0.4-4.4,1.1s-2.4,1.7-3.3,3
			c-0.8,1.2-1.2,2.6-1.2,4.1c0,1.5,0.4,2.9,1.2,4.1C161.7,13.5,162.7,14.5,164.1,15.2z"/>
		<path class="st0" d="M146.7,23.6c-2.7-1.6-5.8-2.4-9.3-2.4c-3.7,0-7,0.9-9.8,2.7c-2.8,1.8-4.7,4.3-5.9,7.5h-0.5v-9.6h-16.8v50.9
			h17.7V44c0-1.7,0.3-3.2,0.9-4.5c0.6-1.3,1.5-2.2,2.7-2.9c1.2-0.7,2.5-1,4.1-1c1.6,0,3,0.3,4.1,1c1.2,0.7,2,1.6,2.6,2.9
			c0.6,1.2,0.9,2.7,0.9,4.4v28.9h17.7V40.2c0-3.7-0.7-7-2.2-9.8C151.5,27.5,149.4,25.2,146.7,23.6z"/>
		<path class="st0" d="M345.6,15.2c1.3,0.7,2.8,1.1,4.5,1.1c1.6,0,3-0.4,4.4-1.1c1.3-0.8,2.4-1.7,3.2-3c0.8-1.2,1.2-2.6,1.2-4.1
			c0-1.5-0.4-2.8-1.2-4.1c-0.8-1.3-1.8-2.3-3.2-3S351.7,0,350.1,0s-3.1,0.4-4.4,1.1c-1.3,0.7-2.4,1.7-3.3,3
			c-0.8,1.2-1.2,2.6-1.2,4.1c0,1.5,0.4,2.9,1.2,4.1C343.3,13.5,344.3,14.5,345.6,15.2z"/>
		<path class="st0" d="M86.5,15.2c1.3,0.7,2.8,1.1,4.5,1.1c1.6,0,3-0.4,4.4-1.1c1.3-0.8,2.4-1.7,3.2-3c0.8-1.2,1.2-2.6,1.2-4.1
			c0-1.5-0.4-2.8-1.2-4.1c-0.8-1.3-1.8-2.3-3.2-3C94,0.4,92.5,0,90.9,0c-1.6,0-3.1,0.4-4.4,1.1c-1.3,0.7-2.4,1.7-3.3,3
			C82.4,5.3,82,6.7,82,8.2c0,1.5,0.4,2.9,1.2,4.1C84.1,13.5,85.2,14.5,86.5,15.2z"/>
		<polygon class="st0" points="39.1,44.3 38.4,44.3 22.1,4.9 0,4.9 0,72.8 17.4,72.8 17.4,32.6 18,32.6 33.4,72.2 44.1,72.2 
			59.5,32.8 60.1,32.8 60.1,72.8 77.5,72.8 77.5,4.9 55.3,4.9 		"/>
		<path class="st0" d="M400.7,24.3c-3.8-2.1-8.1-3.1-13.2-3.1c-5.2,0-9.7,1.1-13.6,3.2c-3.8,2.2-6.8,5.2-9,9.2
			c-2.1,4-3.2,8.6-3.2,13.8c0,5.4,1,10.1,3.1,14.1c2.1,3.9,5.1,7,9,9c3.9,2.1,8.6,3.1,14,3.1c4.6,0,8.6-0.7,12.1-2.1
			c3.5-1.4,6.4-3.4,8.5-6s3.5-5.6,4.1-9.1h-16.3c-0.4,1-0.9,1.8-1.7,2.4s-1.7,1.2-2.8,1.5c-1.1,0.4-2.3,0.6-3.6,0.6
			c-1.8,0-3.5-0.4-4.8-1.2c-1.3-0.8-2.4-1.8-3.1-3.2c-0.7-1.3-1.1-2.9-1.1-4.7v-0.7h33.4v-4.3c0-5.4-1-10-3.1-13.9
			C407.4,29.4,404.4,26.4,400.7,24.3z M379.2,41.5c0-1.5,0.4-2.8,1.2-4c0.8-1.2,1.8-2.2,3.1-2.8c1.3-0.7,2.8-1,4.4-1
			c1.6,0,3,0.3,4.2,1c1.3,0.7,2.3,1.6,3,2.8c0.8,1.2,1.1,2.5,1.2,4H379.2z"/>
		<path class="st0" d="M435.5,35.9c1.2-1,2.7-1.5,4.4-1.5c1.4,0,2.6,0.4,3.7,1c1.1,0.7,2,1.6,2.6,2.8c0.7,1.2,1.1,2.7,1.3,4.5H464
			c0-4.3-1-8.1-3-11.4c-2-3.2-4.8-5.8-8.5-7.5c-3.7-1.8-7.9-2.6-12.8-2.6c-5.4,0-10.1,1.1-14,3.3c-3.9,2.2-7,5.3-9,9.2
			c-2.1,3.9-3.1,8.5-3.1,13.7s1,9.8,3.1,13.8c2.1,3.9,5.1,7,9,9.2c3.9,2.2,8.6,3.3,14,3.3c4.9,0,9.1-0.9,12.8-2.7
			c3.7-1.8,6.5-4.3,8.4-7.6c2-3.3,3-7.1,3.1-11.5h-16.5c-0.2,1.8-0.6,3.3-1.3,4.5c-0.7,1.2-1.5,2.2-2.6,2.8
			c-1.1,0.6-2.3,0.9-3.7,0.9c-1.7,0-3.2-0.4-4.4-1.4c-1.2-1-2.2-2.5-2.9-4.4c-0.7-1.9-1-4.3-1-7.1c0-2.8,0.3-5.1,1-7
			C433.3,38.3,434.3,36.8,435.5,35.9z"/>
		<rect x="159.7" y="21.8" class="st0" width="17.7" height="50.9"/>
		<path class="st0" d="M542.4,47.1c-2.5-2.3-6.3-3.9-11.5-4.9l-10.3-1.9c-1.9-0.3-3.2-0.8-4-1.5c-0.8-0.7-1.1-1.4-1.1-2.2
			c0-0.7,0.2-1.3,0.8-1.9c0.6-0.6,1.3-1,2.2-1.2c0.9-0.3,1.9-0.4,3-0.4c1.9,0,3.5,0.5,4.8,1.4c1.3,0.9,2.1,2.2,2.2,3.8H545
			c-0.2-3.5-1.2-6.6-3.2-9.1c-1.9-2.6-4.6-4.5-8.2-5.9c-3.5-1.4-7.7-2.1-12.4-2.1c-4.8,0-9,0.6-12.5,1.9c-3.5,1.3-6.2,3.2-8.1,5.7
			c-1.8,2.5-2.8,5.4-2.8,8.9c0,4,1.3,7.2,3.9,9.8c2.6,2.5,6.5,4.2,11.6,5.1l9,1.6c2,0.4,3.5,0.9,4.5,1.5c1,0.6,1.5,1.4,1.5,2.4
			c0,0.8-0.3,1.4-0.8,1.9c-0.5,0.5-1.3,1-2.2,1.3c-0.9,0.3-2,0.4-3.2,0.4c-2.2,0-3.9-0.4-5.3-1.3s-2.2-2.2-2.5-3.8h-17.6
			c0.1,1.1,0.3,2.1,0.6,3.1l-1.8,0.1c-0.7,0.1-1.5,0.1-2.2,0.1c-0.8,0-1.3,0-1.7,0c-0.8,0-1.5-0.1-2.1-0.4c-0.5-0.2-0.9-0.6-1.2-1.1
			c-0.2-0.5-0.4-1.2-0.4-2V34.7h8.8V21.8H488V9.7h-17.7v12.2h-6.5v12.8h6.5v23.5c0,3.5,0.7,6.4,2.1,8.6c1.4,2.2,3.5,3.9,6.3,5
			c2.8,1.1,6.3,1.6,10.5,1.6c3.2,0,6-0.2,8.4-0.7V60.1c0.6,2,1.6,3.8,2.9,5.5c2.1,2.6,5,4.6,8.6,6c3.7,1.4,8,2.1,13,2.1
			c4.7,0,8.8-0.7,12.5-2.2c3.7-1.5,6.6-3.5,8.7-6.2c2.1-2.7,3.1-5.8,3.1-9.3C546.3,52.3,545,49.4,542.4,47.1z"/>
		<path class="st0" d="M341.3,74.2c0,1.1-0.2,1.9-0.6,2.5c-0.3,0.7-0.9,1.1-1.8,1.4c-0.8,0.3-2,0.5-3.4,0.5c-0.6,0-1.3,0-2.2-0.1
			v13.2c0.6,0.1,1.8,0.1,3.7,0.2c4.6,0,8.5-0.6,11.8-1.7c3.2-1.1,5.8-2.9,7.5-5.5c1.8-2.5,2.7-5.9,2.7-10.2V21.8h-17.7V74.2z"/>
		<path class="st0" d="M338.5,47.4c0-5.2-1-9.8-3.1-13.7c-2.1-4-5.1-7-9.1-9.2c-4-2.2-8.6-3.3-14-3.3c-5.4,0-10.1,1.1-14,3.3
			c-3.9,2.2-7,5.3-9,9.2c-0.3,0.6-0.6,1.1-0.8,1.7V21.8c-1.4-0.4-3-0.6-4.6-0.6c-2.8,0-5.2,0.8-7.3,2.5c-2,1.7-3.5,4.2-4.4,7.7h-0.6
			v-9.6h-17.2v50.9h17.7V45.9c0-1.9,0.4-3.6,1.2-5.1c0.8-1.5,2-2.7,3.4-3.5c1.5-0.8,3.1-1.2,4.9-1.2c1.1,0,2.3,0.1,3.5,0.2
			c1,0.1,1.9,0.3,2.6,0.5c-1.2,3.2-1.7,6.7-1.7,10.6c0,5.2,1,9.8,3.1,13.8c2.1,3.9,5.1,7,9,9.2c3.9,2.2,8.6,3.3,14,3.3
			c5.4,0,10-1.1,14-3.3c4-2.2,7-5.2,9.1-9.2C337.4,57.2,338.5,52.7,338.5,47.4z M319.4,54.3c-0.6,2-1.5,3.5-2.8,4.6
			c-1.2,1.1-2.6,1.6-4.2,1.6c-1.8,0-3.2-0.5-4.5-1.6c-1.2-1.1-2.2-2.7-2.9-4.6c-0.6-2-0.9-4.3-0.9-7c0-2.7,0.3-5,0.9-7
			c0.7-2,1.6-3.5,2.9-4.6s2.8-1.6,4.5-1.6c1.6,0,3,0.5,4.2,1.6c1.2,1.1,2.1,2.6,2.8,4.6s0.9,4.3,0.9,7C320.4,50,320,52.3,319.4,54.3
			z"/>
	</g>
	<path class="st1" d="M197.4,4.8h6h12h12c13.3,0,24,10.7,24,24s-10.7,24-24,24h-12v20h-18V4.8z M207.4,29.8c9.4,0,17,7.6,17,17
		c0-9.4,7.6-17,17-17c-9.4,0-17-7.6-17-17C224.4,22.1,216.8,29.8,207.4,29.8z"/>
</g>
</svg>
