<?xml version="1.0" encoding="utf-8"?>
<!-- Generator: Adobe Illustrator 27.0.0, SVG Export Plug-In . SVG Version: 6.00 Build 0)  -->
<svg version="1.1" id="Layer_1" xmlns="http://www.w3.org/2000/svg" xmlns:xlink="http://www.w3.org/1999/xlink" x="0px" y="0px"
	 viewBox="0 0 511 94" style="enable-background:new 0 0 511 94;" xml:space="preserve">
<style type="text/css">
	.st0{fill:#FFFFFF;}
	.st1{fill-rule:evenodd;clip-rule:evenodd;fill:#F75C03;}
</style>
<g>
	<g>
		<polygon class="st0" points="78.6,5.4 69.1,48.1 68.5,48.1 57.3,5.4 41.5,5.4 30.3,47.9 29.8,47.9 20.2,5.4 0.4,5.4 20.3,73.3 
			37.5,73.3 49.2,34.4 49.7,34.4 61.4,73.3 78.6,73.3 98.5,5.4 		"/>
		<path class="st0" d="M187.9,24.5c-3-1.9-6.4-2.8-10-2.8c-2.3,0-4.3,0.4-6.1,1.1c-1.8,0.8-3.4,1.8-4.7,3c-1.3,1.2-2.3,2.7-3,4.4
			c-0.1,0.2-0.1,0.3-0.2,0.5c-0.1,0.2-0.1,0.3-0.2,0.5h-0.3V5.4h-17.7v67.9h17.5V65h0.5c0,0.1,0.1,0.2,0.1,0.3
			c0.1,0.1,0.1,0.1,0.2,0.2c0.8,1.7,1.8,3.1,3,4.4c1.3,1.2,2.9,2.2,4.7,3c1.8,0.7,3.9,1.1,6.2,1.1c3.7,0,7.1-1,10.2-3
			c3.1-2,5.5-4.9,7.3-8.8c1.8-3.9,2.7-8.7,2.7-14.4c0-5.8-0.9-10.7-2.8-14.6C193.4,29.3,190.9,26.4,187.9,24.5z M178.7,54.5
			c-0.6,1.8-1.6,3.3-2.9,4.3c-1.2,1-2.8,1.5-4.5,1.5s-3.2-0.5-4.5-1.5c-1.2-1.1-2.2-2.5-2.9-4.4c-0.7-1.9-1-4.1-1-6.6s0.3-4.7,1-6.6
			c0.7-1.9,1.7-3.3,2.9-4.3s2.8-1.5,4.5-1.5s3.2,0.5,4.5,1.5c1.3,1,2.2,2.4,2.9,4.3c0.7,1.9,1,4.1,1,6.7
			C179.7,50.4,179.4,52.6,178.7,54.5z"/>
		<path class="st0" d="M131.1,24.9c-3.8-2.1-8.1-3.1-13.2-3.1c-5.2,0-9.7,1.1-13.6,3.2c-3.8,2.2-6.8,5.2-9,9.2
			c-2.1,4-3.2,8.6-3.2,13.8c0,5.4,1,10.1,3.1,14.1s5.1,7,9,9c3.9,2.1,8.6,3.1,14,3.1c4.6,0,8.6-0.7,12.1-2.1c3.5-1.4,6.4-3.4,8.5-6
			s3.5-5.6,4.1-9.1h-16.3c-0.4,1-0.9,1.8-1.7,2.4s-1.7,1.2-2.8,1.5c-1.1,0.4-2.3,0.6-3.6,0.6c-1.8,0-3.5-0.4-4.8-1.2
			c-1.3-0.8-2.4-1.8-3.1-3.2c-0.7-1.3-1.1-2.9-1.1-4.7V52H143v-4.3c0-5.4-1-10-3.1-13.9C137.8,29.9,134.9,26.9,131.1,24.9z
			 M109.6,42.1c0-1.5,0.4-2.8,1.2-4c0.8-1.2,1.8-2.2,3.1-2.8c1.3-0.7,2.8-1,4.4-1c1.6,0,3,0.3,4.2,1c1.3,0.7,2.3,1.6,3,2.8
			c0.8,1.2,1.1,2.5,1.2,4H109.6z"/>
		<path class="st0" d="M508.4,30.9c-1.5-2.9-3.5-5.2-6.2-6.8c-2.7-1.6-5.8-2.4-9.3-2.4c-3.7,0-7,0.9-9.8,2.7
			c-2.8,1.8-4.7,4.3-5.9,7.5h-0.5v-9.6H460v50.9h17.7V44.5c0-1.7,0.3-3.2,0.9-4.5c0.6-1.3,1.5-2.2,2.7-2.9c1.2-0.7,2.5-1,4.1-1
			c1.6,0,3,0.3,4.1,1c1.2,0.7,2,1.6,2.6,2.9c0.6,1.2,0.9,2.7,0.9,4.4v28.9h17.7V40.8C510.6,37.1,509.9,33.8,508.4,30.9z"/>
		<path class="st0" d="M437.6,31.3h-0.5c-0.2-0.4-0.3-0.7-0.5-1c-0.8-1.7-1.8-3.1-3-4.4c-1.2-1.3-2.8-2.3-4.6-3
			c-1.8-0.8-3.9-1.1-6.2-1.1c-3.6,0-6.9,0.9-9.9,2.8c-3,1.8-5.4,4.7-7.3,8.7c-1.8,3.9-2.8,8.8-2.8,14.5c0,5.6,0.9,10.3,2.6,14
			c1.8,3.7,4.2,6.5,7.2,8.2c3,1.8,6.5,2.6,10.3,2.6c2.2,0,4.3-0.3,6.2-0.9c1.9-0.6,3.5-1.5,4.8-2.6c1.3-1.2,2.4-2.5,3.1-4.1l0.2-0.5
			h0.6v8.7c0,2.9-0.8,5-2.3,6.2c-1.5,1.3-3.6,1.9-6.2,1.9c-2.3,0-4.2-0.3-5.6-1.1c-1.4-0.8-2.3-1.9-2.6-3.6H404
			c0.2,3.3,1.4,6.2,3.4,8.7c2,2.5,4.9,4.5,8.5,5.9c3.7,1.4,8,2.2,12.9,2.2c5.3,0,10-0.8,13.9-2.4c4-1.6,7.1-3.9,9.3-6.9
			c2.2-3,3.3-6.7,3.3-10.9V22.4h-17.7V31.3z M436.8,54.3c-0.7,1.8-1.7,3.2-3,4.2c-1.2,1-2.8,1.5-4.5,1.5c-1.7,0-3.2-0.5-4.5-1.4
			c-1.2-0.9-2.2-2.3-2.9-4.1c-0.7-1.8-1-4-1-6.6s0.3-4.8,1-6.7c0.7-1.9,1.6-3.3,2.9-4.3c1.2-1,2.7-1.5,4.5-1.5
			c1.8,0,3.3,0.5,4.5,1.5c1.3,1,2.3,2.4,3,4.3c0.7,1.8,1,4.1,1,6.7C437.8,50.3,437.5,52.5,436.8,54.3z"/>
		<rect x="382.1" y="22.4" class="st0" width="17.7" height="50.9"/>
		<path class="st0" d="M375.7,47.7c-2.5-2.3-6.3-3.9-11.5-4.9l-10.3-1.9c-1.9-0.3-3.2-0.8-4-1.5c-0.8-0.7-1.1-1.4-1.1-2.2
			c0-0.7,0.2-1.3,0.8-1.9c0.6-0.6,1.3-1,2.2-1.2c0.9-0.3,1.9-0.4,3-0.4c1.9,0,3.5,0.5,4.8,1.4c1.3,0.9,2.1,2.2,2.2,3.8h16.4
			c-0.2-3.5-1.2-6.6-3.2-9.1c-1.9-2.6-4.6-4.5-8.2-5.9c-3.5-1.4-7.7-2.1-12.4-2.1c-4.8,0-9,0.6-12.5,1.9s-6.2,3.2-8.1,5.7
			c-1.8,2.5-2.8,5.4-2.8,8.9c0,4,1.3,7.2,3.9,9.8c2.6,2.5,6.5,4.2,11.6,5.1l9,1.6c2,0.4,3.5,0.9,4.5,1.5c1,0.6,1.5,1.4,1.5,2.4
			c0,0.8-0.3,1.4-0.8,1.9s-1.3,1-2.2,1.3c-0.9,0.3-2,0.4-3.2,0.4c-2.2,0-3.9-0.4-5.3-1.3s-2.2-2.2-2.5-3.8H330
			c0.3,3.5,1.6,6.5,3.7,9c2.1,2.6,5,4.6,8.6,6c3.7,1.4,8,2.1,13,2.1c4.7,0,8.8-0.7,12.5-2.2c3.7-1.5,6.6-3.5,8.7-6.2
			c2.1-2.7,3.1-5.8,3.1-9.3C379.5,52.9,378.2,49.9,375.7,47.7z"/>
		<path class="st0" d="M317.6,24.9c-3.8-2.1-8.1-3.1-13.2-3.1c-5.2,0-9.7,1.1-13.6,3.2c-3.8,2.2-6.8,5.2-9,9.2
			c-2.1,4-3.2,8.6-3.2,13.8c0,5.4,1,10.1,3.1,14.1c2.1,3.9,5.1,7,9,9c3.9,2.1,8.6,3.1,14,3.1c4.6,0,8.6-0.7,12.1-2.1
			c3.5-1.4,6.4-3.4,8.5-6s3.5-5.6,4.1-9.1h-16.3c-0.4,1-0.9,1.8-1.7,2.4s-1.7,1.2-2.8,1.5c-1.1,0.4-2.3,0.6-3.6,0.6
			c-1.8,0-3.5-0.4-4.8-1.2c-1.3-0.8-2.4-1.8-3.1-3.2c-0.7-1.3-1.1-2.9-1.1-4.7V52h33.4v-4.3c0-5.4-1-10-3.1-13.9
			C324.3,29.9,321.4,26.9,317.6,24.9z M296.1,42.1c0-1.5,0.4-2.8,1.2-4c0.8-1.2,1.8-2.2,3.1-2.8c1.3-0.7,2.8-1,4.4-1
			c1.6,0,3,0.3,4.2,1c1.3,0.7,2.3,1.6,3,2.8c0.8,1.2,1.1,2.5,1.2,4H296.1z"/>
		<path class="st0" d="M386.4,15.8c1.3,0.7,2.8,1.1,4.5,1.1c1.6,0,3-0.4,4.4-1.1c1.3-0.8,2.4-1.7,3.2-3c0.8-1.2,1.2-2.6,1.2-4.1
			c0-1.5-0.4-2.8-1.2-4.1c-0.8-1.3-1.8-2.3-3.2-3s-2.8-1.1-4.4-1.1c-1.6,0-3.1,0.4-4.4,1.1c-1.3,0.7-2.4,1.7-3.3,3
			c-0.8,1.2-1.2,2.6-1.2,4.1c0,1.5,0.4,2.9,1.2,4.1C384.1,14,385.1,15,386.4,15.8z"/>
	</g>
	<path class="st1" d="M242.9,74.2h-26v-68h26c18.8,0,34,15.2,34,34S261.7,74.2,242.9,74.2z M224.9,40.7c11.9,0,21.5-9.6,21.5-21.5
		c0,11.9,9.6,21.5,21.5,21.5c-11.9,0-21.5,9.6-21.5,21.5C246.4,50.4,236.8,40.7,224.9,40.7z"/>
</g>
</svg>
