<svg width="30" height="24" viewBox="0 0 30 24" fill="none" xmlns="http://www.w3.org/2000/svg">
<path d="M0 9.33333V12C1.57586 12 3.13629 12.3104 4.5922 12.9134C6.04811 13.5165 7.37098 14.4004 8.48528 15.5147C9.59958 16.629 10.4835 17.9519 11.0866 19.4078C11.6896 20.8637 12 22.4241 12 24H14.6667C14.6667 15.8933 8.09333 9.33333 0 9.33333ZM0 14.6667V17.3333C0.875479 17.3333 1.74239 17.5058 2.55122 17.8408C3.36006 18.1758 4.09499 18.6669 4.71405 19.286C5.3331 19.905 5.82417 20.6399 6.1592 21.4488C6.49423 22.2576 6.66667 23.1245 6.66667 24H9.33333C9.33333 21.5246 8.35 19.1507 6.59966 17.4003C4.84932 15.65 2.47535 14.6667 0 14.6667ZM0 20V24H4C4 22.9391 3.57857 21.9217 2.82843 21.1716C2.07828 20.4214 1.06087 20 0 20ZM26.6667 0H2.66667C1.18667 0 0 1.18667 0 2.66667V6.66667H2.66667V2.66667H26.6667V21.3333H17.3333V24H26.6667C27.3739 24 28.0522 23.719 28.5523 23.219C29.0524 22.7189 29.3333 22.0406 29.3333 21.3333V2.66667C29.3333 1.95942 29.0524 1.28115 28.5523 0.781048C28.0522 0.280951 27.3739 0 26.6667 0Z" fill="white"/>
</svg>
