<svg width="21" height="24" viewBox="0 0 21 24" fill="none" xmlns="http://www.w3.org/2000/svg">
<path d="M10.5 0C10.6989 0 10.8897 0.0790178 11.0303 0.21967C11.171 0.360322 11.25 0.551088 11.25 0.75V23.25C11.25 23.4489 11.171 23.6397 11.0303 23.7803C10.8897 23.921 10.6989 24 10.5 24C10.3011 24 10.1103 23.921 9.96967 23.7803C9.82902 23.6397 9.75 23.4489 9.75 23.25V0.75C9.75 0.551088 9.82902 0.360322 9.96967 0.21967C10.1103 0.0790178 10.3011 0 10.5 0ZM15.75 4.5C15.9489 4.5 16.1397 4.57902 16.2803 4.71967C16.421 4.86032 16.5 5.05109 16.5 5.25V18.75C16.5 18.9489 16.421 19.1397 16.2803 19.2803C16.1397 19.421 15.9489 19.5 15.75 19.5C15.5511 19.5 15.3603 19.421 15.2197 19.2803C15.079 19.1397 15 18.9489 15 18.75V5.25C15 5.05109 15.079 4.86032 15.2197 4.71967C15.3603 4.57902 15.5511 4.5 15.75 4.5ZM6 5.25C6 5.05109 5.92098 4.86032 5.78033 4.71967C5.63968 4.57902 5.44891 4.5 5.25 4.5C5.05109 4.5 4.86032 4.57902 4.71967 4.71967C4.57902 4.86032 4.5 5.05109 4.5 5.25V18.75C4.5 18.9489 4.57902 19.1397 4.71967 19.2803C4.86032 19.421 5.05109 19.5 5.25 19.5C5.44891 19.5 5.63968 19.421 5.78033 19.2803C5.92098 19.1397 6 18.9489 6 18.75V5.25ZM20.25 9C20.4489 9 20.6397 9.07902 20.7803 9.21967C20.921 9.36032 21 9.55109 21 9.75V14.25C21 14.4489 20.921 14.6397 20.7803 14.7803C20.6397 14.921 20.4489 15 20.25 15C20.0511 15 19.8603 14.921 19.7197 14.7803C19.579 14.6397 19.5 14.4489 19.5 14.25V9.75C19.5 9.55109 19.579 9.36032 19.7197 9.21967C19.8603 9.07902 20.0511 9 20.25 9ZM1.5 9.75C1.5 9.55109 1.42098 9.36032 1.28033 9.21967C1.13968 9.07902 0.948912 9 0.75 9C0.551088 9 0.360322 9.07902 0.21967 9.21967C0.0790178 9.36032 0 9.55109 0 9.75V14.25C0 14.4489 0.0790178 14.6397 0.21967 14.7803C0.360322 14.921 0.551088 15 0.75 15C0.948912 15 1.13968 14.921 1.28033 14.7803C1.42098 14.6397 1.5 14.4489 1.5 14.25V9.75Z" fill="white"/>
</svg>
