<svg width="33" height="24" viewBox="0 0 33 24" fill="none" xmlns="http://www.w3.org/2000/svg">
<path d="M20.5714 0H0V3.42857H20.5714V0ZM20.5714 6.85714H0V10.2857H20.5714V6.85714ZM0 17.1429H13.7143V13.7143H0V17.1429ZM24 0V14.0229C23.4686 13.8343 22.8857 13.7143 22.2857 13.7143C20.9217 13.7143 19.6136 14.2561 18.6492 15.2206C17.6847 16.1851 17.1429 17.4932 17.1429 18.8571C17.1429 20.2211 17.6847 21.5292 18.6492 22.4937C19.6136 23.4582 20.9217 24 22.2857 24C23.6497 24 24.9578 23.4582 25.9223 22.4937C26.8867 21.5292 27.4286 20.2211 27.4286 18.8571V3.42857H32.5714V0H24Z" fill="white"/>
</svg>
