<?xml version="1.0" encoding="utf-8"?>
<!-- Generator: Adobe Illustrator 27.0.0, SVG Export Plug-In . SVG Version: 6.00 Build 0)  -->
<svg version="1.1" id="Layer_1" xmlns:svgjs="http://svgjs.com/svgjs"
	 xmlns="http://www.w3.org/2000/svg" xmlns:xlink="http://www.w3.org/1999/xlink" x="0px" y="0px" viewBox="0 0 512 512"
	 style="enable-background:new 0 0 512 512;" xml:space="preserve">
<style type="text/css">
	.st0{fill:#FFFFFF;}
</style>
<g>
	<path class="st0" d="M123.4,512c-5.9-0.1-11.7-1.6-16.9-4.4c-11.1-6.1-18-17.8-18-30.5V34.2C88.8,14.9,104.8-0.4,124,0
		c6.3,0.1,12.5,2,17.8,5.3l353.8,221.2c16.3,10.1,21.3,31.5,11.2,47.7c-2.8,4.5-6.6,8.4-11.2,11.2L141.8,506.5
		C136.3,510.1,129.9,512,123.4,512z M123.4,25.9c-1.4-0.4-2.8-0.4-4.2,0c-2.9,1.4-4.8,4.3-4.7,7.6v442.9c0.1,4.9,4.2,8.8,9.1,8.6
		c1.6,0,3.1-0.5,4.5-1.3l354.6-220.1c4.2-2.6,5.5-8,2.9-12.2c-0.7-1.2-1.7-2.2-2.9-2.9L128,27.5C126.7,26.5,125,25.9,123.4,25.9z"/>
</g>
</svg>
