<svg width="42" height="26" viewBox="0 0 42 26" fill="none" xmlns="http://www.w3.org/2000/svg">
<path d="M14.5165 23.2551C13.2629 24.3293 11.6741 24.933 10.0235 24.9624C8.81465 25.0783 7.59509 24.9255 6.45219 24.5149C5.30928 24.1044 4.2713 23.4461 3.41258 22.5874C2.55386 21.7287 1.89564 20.6907 1.48505 19.5478C1.07447 18.4049 0.921682 17.1854 1.03763 15.9765C0.921682 14.7676 1.07447 13.5481 1.48505 12.4052C1.89564 11.2622 2.55386 10.2243 3.41258 9.36554C4.2713 8.50682 5.30928 7.8486 6.45219 7.43801C7.59509 7.02743 8.81465 6.87464 10.0235 6.99059C18.2606 6.99059 22.7535 24.9624 30.9906 24.9624C32.1995 25.0783 33.419 24.9255 34.5619 24.5149C35.7048 24.1044 36.7428 23.4461 37.6015 22.5874C38.4602 21.7287 39.1185 20.6907 39.5291 19.5478C39.9396 18.4049 40.0924 17.1854 39.9765 15.9765C40.0924 14.7676 39.9396 13.5481 39.5291 12.4052C39.1185 11.2622 38.4602 10.2243 37.6015 9.36554C36.7428 8.50682 35.7048 7.8486 34.5619 7.43801C33.419 7.02743 32.1995 6.87464 30.9906 6.99059H25L30.9906 1" stroke="white" stroke-width="2" stroke-linecap="round" stroke-linejoin="round"/>
</svg>
