<svg width="22" height="24" viewBox="0 0 22 24" fill="none" xmlns="http://www.w3.org/2000/svg">
<path d="M18 24C17 24 16.15 23.65 15.45 22.95C14.75 22.25 14.4 21.4 14.4 20.4C14.4 20.26 14.41 20.1148 14.43 19.9644C14.45 19.814 14.48 19.6792 14.52 19.56L6.06 14.64C5.72 14.94 5.34 15.1752 4.92 15.3456C4.5 15.516 4.06 15.6008 3.6 15.6C2.6 15.6 1.75 15.25 1.05 14.55C0.35 13.85 0 13 0 12C0 11 0.35 10.15 1.05 9.45C1.75 8.75 2.6 8.4 3.6 8.4C4.06 8.4 4.5 8.4852 4.92 8.6556C5.34 8.826 5.72 9.0608 6.06 9.36L14.52 4.44C14.48 4.32 14.45 4.1852 14.43 4.0356C14.41 3.886 14.4 3.7408 14.4 3.6C14.4 2.6 14.75 1.75 15.45 1.05C16.15 0.35 17 0 18 0C19 0 19.85 0.35 20.55 1.05C21.25 1.75 21.6 2.6 21.6 3.6C21.6 4.6 21.25 5.45 20.55 6.15C19.85 6.85 19 7.2 18 7.2C17.54 7.2 17.1 7.1152 16.68 6.9456C16.26 6.776 15.88 6.5408 15.54 6.24L7.08 11.16C7.12 11.28 7.15 11.4152 7.17 11.5656C7.19 11.716 7.2 11.8608 7.2 12C7.2 12.14 7.19 12.2852 7.17 12.4356C7.15 12.586 7.12 12.7208 7.08 12.84L15.54 17.76C15.88 17.46 16.26 17.2252 16.68 17.0556C17.1 16.886 17.54 16.8008 18 16.8C19 16.8 19.85 17.15 20.55 17.85C21.25 18.55 21.6 19.4 21.6 20.4C21.6 21.4 21.25 22.25 20.55 22.95C19.85 23.65 19 24 18 24ZM18 4.8C18.34 4.8 18.6252 4.6848 18.8556 4.4544C19.086 4.224 19.2008 3.9392 19.2 3.6C19.2 3.26 19.0848 2.9748 18.8544 2.7444C18.624 2.514 18.3392 2.3992 18 2.4C17.66 2.4 17.3748 2.5152 17.1444 2.7456C16.914 2.976 16.7992 3.2608 16.8 3.6C16.8 3.94 16.9152 4.2252 17.1456 4.4556C17.376 4.686 17.6608 4.8008 18 4.8ZM3.6 13.2C3.94 13.2 4.2252 13.0848 4.4556 12.8544C4.686 12.624 4.8008 12.3392 4.8 12C4.8 11.66 4.6848 11.3748 4.4544 11.1444C4.224 10.914 3.9392 10.7992 3.6 10.8C3.26 10.8 2.9748 10.9152 2.7444 11.1456C2.514 11.376 2.3992 11.6608 2.4 12C2.4 12.34 2.5152 12.6252 2.7456 12.8556C2.976 13.086 3.2608 13.2008 3.6 13.2ZM18 21.6C18.34 21.6 18.6252 21.4848 18.8556 21.2544C19.086 21.024 19.2008 20.7392 19.2 20.4C19.2 20.06 19.0848 19.7748 18.8544 19.5444C18.624 19.314 18.3392 19.1992 18 19.2C17.66 19.2 17.3748 19.3152 17.1444 19.5456C16.914 19.776 16.7992 20.0608 16.8 20.4C16.8 20.74 16.9152 21.0252 17.1456 21.2556C17.376 21.486 17.6608 21.6008 18 21.6Z" fill="white"/>
</svg>
