<?xml version="1.0" encoding="utf-8"?>
<!-- Generator: Adobe Illustrator 27.0.0, SVG Export Plug-In . SVG Version: 6.00 Build 0)  -->
<svg version="1.1" id="Layer_1" xmlns="http://www.w3.org/2000/svg" xmlns:xlink="http://www.w3.org/1999/xlink" x="0px" y="0px"
	 viewBox="0 0 28 28" style="enable-background:new 0 0 28 28;" xml:space="preserve">
<style type="text/css">
	.st0{fill:#FFFFFF;}
</style>
<path class="st0" d="M3.3,2.2C3.2,2.1,3.1,2.1,3,2C2.9,2,2.8,2,2.7,2C2.6,2,2.5,2,2.5,2c-0.1,0-0.2,0.1-0.2,0.2
	C2.1,2.3,2.1,2.4,2,2.5C2,2.5,2,2.6,2,2.7C2,2.8,2,2.9,2,3c0,0.1,0.1,0.2,0.2,0.2l5.3,5.3C6.5,8.2,5.3,8,4,8C3.7,8,3.5,8.1,3.3,8.3
	C3.1,8.5,3,8.7,3,9s0.1,0.5,0.3,0.7C3.5,9.9,3.7,10,4,10c3.1,0,5.1,1.4,6.9,3.3l0.6-0.6l0,0l0.7,0.7C9.9,15.8,7.9,18,4,18
	c-0.3,0-0.5,0.1-0.7,0.3C3.1,18.5,3,18.7,3,19s0.1,0.5,0.3,0.7C3.5,19.9,3.7,20,4,20c4.8,0,7.4-2.8,9.7-5.3l0,0l0.7,0.7l0,0
	c-0.2,0.2-0.4,0.5-0.7,0.7c1.3,1.3,2.7,2.5,4.6,3.2l2,2C20.1,21.5,20,21.8,20,22c0,0.3,0.1,0.5,0.3,0.7c0.2,0.2,0.4,0.3,0.7,0.3
	c0.3,0,0.5-0.1,0.7-0.3l3,3c0.1,0.1,0.2,0.1,0.2,0.2c0.1,0,0.2,0.1,0.3,0.1c0.1,0,0.2,0,0.3-0.1c0.1,0,0.2-0.1,0.2-0.2
	s0.1-0.2,0.2-0.2c0-0.1,0.1-0.2,0.1-0.3c0-0.1,0-0.2-0.1-0.3c0-0.1-0.1-0.2-0.2-0.2L3.3,2.2z M14.4,11.2l1.4,1.4
	c1.6-1.4,3.3-2.5,5.8-2.6l-1.3,1.3C20.1,11.5,20,11.7,20,12c0,0.3,0.1,0.5,0.3,0.7S20.7,13,21,13c0.3,0,0.5-0.1,0.7-0.3l3-3
	C24.9,9.5,25,9.3,25,9s-0.1-0.5-0.3-0.7l-3-3c-0.1-0.1-0.2-0.2-0.3-0.2S21.1,5,21,5c-0.1,0-0.3,0-0.4,0.1s-0.2,0.1-0.3,0.2
	c-0.1,0.1-0.2,0.2-0.2,0.3C20,5.7,20,5.9,20,6c0,0.1,0,0.3,0.1,0.4c0.1,0.1,0.1,0.2,0.2,0.3L21.6,8C18.4,8.1,16.2,9.5,14.4,11.2z
	 M21.1,18l2.7,2.7l0.9-0.9c0.2-0.2,0.3-0.4,0.3-0.7s-0.1-0.5-0.3-0.7l-3-3C21.5,15.1,21.3,15,21,15c-0.3,0-0.5,0.1-0.7,0.3
	C20.1,15.5,20,15.7,20,16c0,0.3,0.1,0.5,0.3,0.7l1.3,1.3C21.4,18,21.3,18,21.1,18L21.1,18z"/>
</svg>
