<svg width="27" height="22" viewBox="0 0 27 22" fill="none" xmlns="http://www.w3.org/2000/svg">
<path d="M3.55483 18.5593C6.06014 18.5593 8.05761 17.5932 9.54725 15.661C9.54725 15.5254 9.46261 15.4068 9.29334 15.3051L8.32845 13.3729C7.88833 14.2881 7.23661 15.0254 6.3733 15.5848C5.50998 16.1441 4.57049 16.4237 3.55483 16.4237H1.06645C0.795604 16.4237 0.550152 16.5339 0.330091 16.7542C0.11003 16.9746 0 17.2203 0 17.4915C0 17.7627 0.11003 18.0085 0.330091 18.2288C0.550152 18.4492 0.795604 18.5593 1.06645 18.5593H3.55483ZM22.4462 0.457632C21.9045 -0.0169442 21.3967 -0.0169442 20.9227 0.457632C20.4149 0.966107 20.4149 1.47458 20.9227 1.98306L22.2938 3.40678H18.0788C15.6074 3.40678 13.6268 4.37289 12.1372 6.30509C12.1372 6.40679 12.2049 6.52543 12.3403 6.66102L13.3052 8.59323C13.7453 7.67797 14.3971 6.94068 15.2604 6.38136C16.1237 5.82204 17.0632 5.54238 18.0788 5.54238H22.2938L20.9227 6.96611C20.4149 7.47458 20.4149 7.98306 20.9227 8.49153C21.1258 8.69492 21.3798 8.79662 21.6845 8.79662C21.9214 8.79662 22.1754 8.69492 22.4462 8.49153L25.6963 5.23729C26.1364 4.72882 26.1364 4.22034 25.6963 3.71187L22.4462 0.457632ZM22.4462 13.4746C21.9045 13 21.3967 13 20.9227 13.4746C20.4149 13.9831 20.4149 14.4915 20.9227 15L22.2938 16.4237H18.0788C17.0632 16.4237 16.1152 16.1441 15.235 15.5848C14.3547 15.0254 13.6776 14.2881 13.2036 13.3729L12.0356 10.9831L10.8168 8.59323L10.309 7.62712C9.6996 6.33899 8.7855 5.31356 7.56671 4.55085C6.34791 3.78814 5.01061 3.40678 3.55483 3.40678H1.06645C0.795604 3.40678 0.550152 3.51695 0.330091 3.73729C0.11003 3.95763 0 4.20339 0 4.47458C0 4.74577 0.11003 4.99153 0.330091 5.21187C0.550152 5.43221 0.795604 5.54238 1.06645 5.54238H3.55483C5.72158 5.54238 7.34664 6.55933 8.43002 8.59323L9.64882 10.9831L10.8168 13.3729L11.3755 14.339C12.0526 15.6271 12.9921 16.6525 14.1939 17.4153C15.3958 18.178 16.7246 18.5593 18.1804 18.5593H22.4462L21.0243 19.9831C20.5164 20.4915 20.5164 21 21.0243 21.5085C21.2274 21.7119 21.4813 21.8136 21.786 21.8136C22.0569 21.8136 22.3108 21.7119 22.5478 21.5085L25.7979 18.2542C26.238 17.7458 26.238 17.2373 25.7979 16.7288L22.4462 13.4746Z" fill="white"/>
</svg>
