<?xml version="1.0" encoding="utf-8"?>
<!-- Generator: Adobe Illustrator 27.0.0, SVG Export Plug-In . SVG Version: 6.00 Build 0)  -->
<svg version="1.1" id="Layer_1" xmlns:svgjs="http://svgjs.com/svgjs"
	 xmlns="http://www.w3.org/2000/svg" xmlns:xlink="http://www.w3.org/1999/xlink" x="0px" y="0px" viewBox="0 0 512 512"
	 style="enable-background:new 0 0 512 512;" xml:space="preserve">
<style type="text/css">
	.st0{fill:#FFFFFF;}
</style>
<g>
	<g>
		<path class="st0" d="M83.4,366.5c-4.1,0-8.1-1.5-11.3-4.7c-29.1-29-45.4-68.4-45.4-109.4c0-85.5,69.3-155.1,154.7-155.1l129.5,0.4
			l-23.3-22.2c-6.4-6.2-6.6-16.2-0.4-22.6c6.2-6.4,16.2-6.6,22.6-0.4l52.1,49.9c4.7,4.5,6.2,11.5,3.8,17.5s-8.3,10-14.9,10
			l-169.4-0.4c-67.6,0-122.7,55.3-122.7,123.1c0,32.6,12.8,63.6,36.1,86.8c6.2,6.2,6.2,16.4,0,22.6C91.5,365,87.5,366.5,83.4,366.5
			L83.4,366.5z M213.3,464c-4.1,0-8.1-1.6-11.1-4.5l-52.1-49.9c-4.7-4.5-6.2-11.4-3.8-17.5c2.6-6,8.5-9.2,14.9-10l169.6,0.4
			c67.6,0,122.7-55.3,122.7-123.1c0-32.6-12.8-63.6-36.1-86.8c-6.2-6.2-6.2-16.4,0-22.6c6.2-6.2,16.4-6.2,22.6,0
			c29.1,29,45.4,68.4,45.4,109.4c0,85.5-69.3,155.1-154.7,155.1l-129.5-0.4l23.3,22.2c6.4,6.2,6.6,16.2,0.4,22.6
			C221.7,462.3,217.6,464,213.3,464L213.3,464z"/>
		<path class="st0" d="M261.3,329c-8.7,0-16-7.3-16-16v-72.3l-4.1,4.5c-6,6.6-16,7-22.6,1.3s-7-16-1.3-22.6l32-35.6
			c4.5-4.9,11.5-6.6,17.7-4.3c6.2,2.6,10.2,8.3,10.2,15.1v114.1C277.3,321.9,270.1,329,261.3,329L261.3,329z"/>
	</g>
</g>
</svg>
